%TF.GenerationSoftware,KiCad,Pcbnew,8.0.6*%
%TF.CreationDate,2024-11-25T20:31:32+01:00*%
%TF.ProjectId,PD_trigger-board,50445f74-7269-4676-9765-722d626f6172,rev?*%
%TF.SameCoordinates,Original*%
%TF.FileFunction,Copper,L1,Top*%
%TF.FilePolarity,Positive*%
%FSLAX46Y46*%
G04 Gerber Fmt 4.6, Leading zero omitted, Abs format (unit mm)*
G04 Created by KiCad (PCBNEW 8.0.6) date 2024-11-25 20:31:32*
%MOMM*%
%LPD*%
G01*
G04 APERTURE LIST*
G04 Aperture macros list*
%AMRoundRect*
0 Rectangle with rounded corners*
0 $1 Rounding radius*
0 $2 $3 $4 $5 $6 $7 $8 $9 X,Y pos of 4 corners*
0 Add a 4 corners polygon primitive as box body*
4,1,4,$2,$3,$4,$5,$6,$7,$8,$9,$2,$3,0*
0 Add four circle primitives for the rounded corners*
1,1,$1+$1,$2,$3*
1,1,$1+$1,$4,$5*
1,1,$1+$1,$6,$7*
1,1,$1+$1,$8,$9*
0 Add four rect primitives between the rounded corners*
20,1,$1+$1,$2,$3,$4,$5,0*
20,1,$1+$1,$4,$5,$6,$7,0*
20,1,$1+$1,$6,$7,$8,$9,0*
20,1,$1+$1,$8,$9,$2,$3,0*%
G04 Aperture macros list end*
%TA.AperFunction,SMDPad,CuDef*%
%ADD10RoundRect,0.135000X-0.185000X0.135000X-0.185000X-0.135000X0.185000X-0.135000X0.185000X0.135000X0*%
%TD*%
%TA.AperFunction,SMDPad,CuDef*%
%ADD11R,0.600000X1.450000*%
%TD*%
%TA.AperFunction,SMDPad,CuDef*%
%ADD12R,0.300000X1.450000*%
%TD*%
%TA.AperFunction,ComponentPad*%
%ADD13O,1.000000X2.100000*%
%TD*%
%TA.AperFunction,ComponentPad*%
%ADD14O,1.000000X1.600000*%
%TD*%
%TA.AperFunction,SMDPad,CuDef*%
%ADD15RoundRect,0.135000X0.135000X0.185000X-0.135000X0.185000X-0.135000X-0.185000X0.135000X-0.185000X0*%
%TD*%
%TA.AperFunction,ComponentPad*%
%ADD16R,1.700000X1.700000*%
%TD*%
%TA.AperFunction,ComponentPad*%
%ADD17O,1.700000X1.700000*%
%TD*%
%TA.AperFunction,SMDPad,CuDef*%
%ADD18RoundRect,0.135000X-0.135000X-0.185000X0.135000X-0.185000X0.135000X0.185000X-0.135000X0.185000X0*%
%TD*%
%TA.AperFunction,SMDPad,CuDef*%
%ADD19R,0.558800X1.460500*%
%TD*%
%TA.AperFunction,ComponentPad*%
%ADD20R,3.000000X3.000000*%
%TD*%
%TA.AperFunction,ComponentPad*%
%ADD21C,3.000000*%
%TD*%
%TA.AperFunction,SMDPad,CuDef*%
%ADD22RoundRect,0.225000X0.225000X0.250000X-0.225000X0.250000X-0.225000X-0.250000X0.225000X-0.250000X0*%
%TD*%
%TA.AperFunction,SMDPad,CuDef*%
%ADD23R,0.300000X0.650000*%
%TD*%
%TA.AperFunction,SMDPad,CuDef*%
%ADD24R,2.480000X1.550000*%
%TD*%
%TA.AperFunction,SMDPad,CuDef*%
%ADD25RoundRect,0.225000X-0.250000X0.225000X-0.250000X-0.225000X0.250000X-0.225000X0.250000X0.225000X0*%
%TD*%
%TA.AperFunction,ViaPad*%
%ADD26C,0.600000*%
%TD*%
%TA.AperFunction,Conductor*%
%ADD27C,0.500000*%
%TD*%
%TA.AperFunction,Conductor*%
%ADD28C,0.200000*%
%TD*%
%TA.AperFunction,Conductor*%
%ADD29C,1.200000*%
%TD*%
G04 APERTURE END LIST*
D10*
%TO.P,R5,1*%
%TO.N,VSET*%
X135375000Y-85380000D03*
%TO.P,R5,2*%
%TO.N,Net-(J8-Pin_1)*%
X135375000Y-86400000D03*
%TD*%
%TO.P,R7,1*%
%TO.N,VSET*%
X135375000Y-93080000D03*
%TO.P,R7,2*%
%TO.N,Net-(J10-Pin_1)*%
X135375000Y-94100000D03*
%TD*%
D11*
%TO.P,J1,A1,GND*%
%TO.N,GND*%
X143443000Y-82867000D03*
%TO.P,J1,A4,VBUS*%
%TO.N,VBUS*%
X142643000Y-82867000D03*
D12*
%TO.P,J1,A5,CC1*%
%TO.N,CC1*%
X141443000Y-82867000D03*
%TO.P,J1,A6,D+*%
%TO.N,D+*%
X140443000Y-82867000D03*
%TO.P,J1,A7,D-*%
%TO.N,D-*%
X139943000Y-82867000D03*
%TO.P,J1,A8*%
%TO.N,N/C*%
X138943000Y-82867000D03*
D11*
%TO.P,J1,A9,VBUS*%
%TO.N,VBUS*%
X137743000Y-82867000D03*
%TO.P,J1,A12,GND*%
%TO.N,GND*%
X136943000Y-82867000D03*
%TO.P,J1,B1,GND*%
X136943000Y-82867000D03*
%TO.P,J1,B4,VBUS*%
%TO.N,VBUS*%
X137743000Y-82867000D03*
D12*
%TO.P,J1,B5,CC2*%
%TO.N,CC2*%
X138443000Y-82867000D03*
%TO.P,J1,B6,D+*%
%TO.N,D+*%
X139443000Y-82867000D03*
%TO.P,J1,B7,D-*%
%TO.N,D-*%
X140943000Y-82867000D03*
%TO.P,J1,B8*%
%TO.N,N/C*%
X141943000Y-82867000D03*
D11*
%TO.P,J1,B9,VBUS*%
%TO.N,VBUS*%
X142643000Y-82867000D03*
%TO.P,J1,B12,GND*%
%TO.N,GND*%
X143443000Y-82867000D03*
D13*
%TO.P,J1,S1,SHIELD*%
X144513000Y-81952000D03*
D14*
X144513000Y-77772000D03*
D13*
X135873000Y-81952000D03*
D14*
X135873000Y-77772000D03*
%TD*%
D10*
%TO.P,R6,1*%
%TO.N,VSET*%
X135375000Y-89280000D03*
%TO.P,R6,2*%
%TO.N,Net-(J9-Pin_1)*%
X135375000Y-90300000D03*
%TD*%
D15*
%TO.P,R3,1*%
%TO.N,VBUS*%
X143410000Y-95700000D03*
%TO.P,R3,2*%
%TO.N,Net-(U2-G)*%
X142390000Y-95700000D03*
%TD*%
D16*
%TO.P,J2,1,Pin_1*%
%TO.N,GND*%
X141580000Y-111394000D03*
D17*
%TO.P,J2,2,Pin_2*%
%TO.N,D-*%
X144120000Y-111394000D03*
%TO.P,J2,3,Pin_3*%
%TO.N,D+*%
X146660000Y-111394000D03*
%TD*%
D10*
%TO.P,R1,1*%
%TO.N,VBUS*%
X140900000Y-86072000D03*
%TO.P,R1,2*%
%TO.N,Net-(U1-VIN)*%
X140900000Y-87092000D03*
%TD*%
D16*
%TO.P,J10,1,Pin_1*%
%TO.N,Net-(J10-Pin_1)*%
X132975000Y-94100000D03*
D17*
%TO.P,J10,2,Pin_2*%
%TO.N,GND*%
X130435000Y-94100000D03*
%TD*%
D16*
%TO.P,J7,1,Pin_1*%
%TO.N,VSET*%
X132950000Y-82500000D03*
D17*
%TO.P,J7,2,Pin_2*%
%TO.N,GND*%
X130410000Y-82500000D03*
%TD*%
D16*
%TO.P,J11,1,Pin_1*%
%TO.N,Net-(J11-Pin_1)*%
X132975000Y-97900000D03*
D17*
%TO.P,J11,2,Pin_2*%
%TO.N,GND*%
X130435000Y-97900000D03*
%TD*%
D18*
%TO.P,R2,1*%
%TO.N,ISET*%
X144540000Y-90600000D03*
%TO.P,R2,2*%
%TO.N,Net-(J6-Pin_1)*%
X145560000Y-90600000D03*
%TD*%
D19*
%TO.P,U2,1,S*%
%TO.N,VBUS*%
X141005000Y-93357850D03*
%TO.P,U2,2,S*%
X139735000Y-93357850D03*
%TO.P,U2,3,S*%
X138465000Y-93357850D03*
%TO.P,U2,4,G*%
%TO.N,Net-(U2-G)*%
X137195000Y-93357850D03*
%TO.P,U2,5,D*%
%TO.N,VOUT*%
X137195000Y-98806150D03*
%TO.P,U2,6,D*%
X138465000Y-98806150D03*
%TO.P,U2,7,D*%
X139735000Y-98806150D03*
%TO.P,U2,8,D*%
X141005000Y-98806150D03*
%TD*%
D20*
%TO.P,J4,1,Pin_1*%
%TO.N,GND*%
X141580000Y-104800000D03*
D21*
%TO.P,J4,2,Pin_2*%
%TO.N,VOUT*%
X136500000Y-104800000D03*
%TD*%
D22*
%TO.P,C2,1*%
%TO.N,VOUT*%
X132315000Y-101772000D03*
%TO.P,C2,2*%
%TO.N,GND*%
X130765000Y-101772000D03*
%TD*%
D10*
%TO.P,R8,1*%
%TO.N,VSET*%
X135345000Y-96890000D03*
%TO.P,R8,2*%
%TO.N,Net-(J11-Pin_1)*%
X135345000Y-97910000D03*
%TD*%
D16*
%TO.P,J5,1,Pin_1*%
%TO.N,ISET*%
X144971000Y-88190000D03*
D17*
%TO.P,J5,2,Pin_2*%
%TO.N,GND*%
X147511000Y-88190000D03*
%TD*%
D16*
%TO.P,J8,1,Pin_1*%
%TO.N,Net-(J8-Pin_1)*%
X132975000Y-86400000D03*
D17*
%TO.P,J8,2,Pin_2*%
%TO.N,GND*%
X130435000Y-86400000D03*
%TD*%
D23*
%TO.P,U1,1,VIN*%
%TO.N,Net-(U1-VIN)*%
X139400000Y-87044500D03*
%TO.P,U1,2,D+*%
%TO.N,D+*%
X138900000Y-87044500D03*
%TO.P,U1,3,D-*%
%TO.N,D-*%
X138400000Y-87044500D03*
%TO.P,U1,4,CC1*%
%TO.N,CC1*%
X137900000Y-87044500D03*
%TO.P,U1,5,CC2*%
%TO.N,CC2*%
X137400000Y-87044500D03*
%TO.P,U1,6,SDA*%
%TO.N,SDA*%
X137400000Y-90144500D03*
%TO.P,U1,7,SCL*%
%TO.N,SCL*%
X137900000Y-90144500D03*
%TO.P,U1,8,VSET*%
%TO.N,VSET*%
X138400000Y-90144500D03*
%TO.P,U1,9,ISET*%
%TO.N,ISET*%
X138900000Y-90144500D03*
%TO.P,U1,10,GATE*%
%TO.N,GATE*%
X139400000Y-90144500D03*
D24*
%TO.P,U1,11,GND*%
%TO.N,GND*%
X138400000Y-88594500D03*
%TD*%
D18*
%TO.P,R4,1*%
%TO.N,Net-(U2-G)*%
X142390000Y-96700000D03*
%TO.P,R4,2*%
%TO.N,GATE*%
X143410000Y-96700000D03*
%TD*%
D22*
%TO.P,C4,1*%
%TO.N,VOUT*%
X132315000Y-107792000D03*
%TO.P,C4,2*%
%TO.N,GND*%
X130765000Y-107792000D03*
%TD*%
%TO.P,C3,1*%
%TO.N,VOUT*%
X132315000Y-104782000D03*
%TO.P,C3,2*%
%TO.N,GND*%
X130765000Y-104782000D03*
%TD*%
D16*
%TO.P,J6,1,Pin_1*%
%TO.N,Net-(J6-Pin_1)*%
X145000000Y-93000000D03*
D17*
%TO.P,J6,2,Pin_2*%
%TO.N,GND*%
X147540000Y-93000000D03*
%TD*%
D16*
%TO.P,J3,1,Pin_1*%
%TO.N,VOUT*%
X136500000Y-111394000D03*
D17*
%TO.P,J3,2,Pin_2*%
%TO.N,SCL*%
X133960000Y-111394000D03*
%TO.P,J3,3,Pin_3*%
%TO.N,SDA*%
X131420000Y-111394000D03*
%TD*%
D16*
%TO.P,J9,1,Pin_1*%
%TO.N,Net-(J9-Pin_1)*%
X132975000Y-90300000D03*
D17*
%TO.P,J9,2,Pin_2*%
%TO.N,GND*%
X130435000Y-90300000D03*
%TD*%
D25*
%TO.P,C1,1*%
%TO.N,Net-(U1-VIN)*%
X142200000Y-86725000D03*
%TO.P,C1,2*%
%TO.N,GND*%
X142200000Y-88275000D03*
%TD*%
D26*
%TO.N,VOUT*%
X138600000Y-100487000D03*
X133340000Y-107582000D03*
X133340000Y-101582000D03*
X141000000Y-100487000D03*
X139800000Y-100487000D03*
X133558000Y-104800000D03*
X137200000Y-100487000D03*
%TO.N,D+*%
X139000000Y-85982000D03*
X139000000Y-84732000D03*
X139566735Y-81466735D03*
%TO.N,D-*%
X143600000Y-84700000D03*
%TO.N,VBUS*%
X141000000Y-92082000D03*
X138600000Y-92082000D03*
X141000000Y-85182000D03*
X139800000Y-92082000D03*
X137800000Y-83982000D03*
X142600000Y-84082000D03*
%TO.N,CC1*%
X137881810Y-85431015D03*
X138600000Y-81400000D03*
%TO.N,SCL*%
X136930339Y-91600000D03*
%TO.N,SDA*%
X136090905Y-91590905D03*
%TO.N,GATE*%
X142400000Y-90500000D03*
X142400000Y-91900000D03*
%TD*%
D27*
%TO.N,GND*%
X143443000Y-82867000D02*
X143598000Y-82867000D01*
X143443000Y-82943000D02*
X144500000Y-84000000D01*
X143443000Y-82867000D02*
X143443000Y-83043000D01*
X143598000Y-82867000D02*
X144513000Y-81952000D01*
X143443000Y-82867000D02*
X143443000Y-82943000D01*
%TO.N,VOUT*%
X132315000Y-101772000D02*
X133150000Y-101772000D01*
X133150000Y-101772000D02*
X133340000Y-101582000D01*
X132315000Y-104782000D02*
X133540000Y-104782000D01*
X133540000Y-104782000D02*
X133558000Y-104800000D01*
D28*
X132315000Y-107607000D02*
X132340000Y-107582000D01*
D27*
X132315000Y-107792000D02*
X133130000Y-107792000D01*
X133130000Y-107792000D02*
X133340000Y-107582000D01*
D28*
%TO.N,D+*%
X139443000Y-82867000D02*
X139443000Y-81590470D01*
X139443000Y-82867000D02*
X139443000Y-83839000D01*
X140443000Y-82867000D02*
X140443000Y-83842000D01*
X139443000Y-81590470D02*
X139566735Y-81466735D01*
X140353000Y-83932000D02*
X139350000Y-83932000D01*
X138900000Y-86082000D02*
X138900000Y-87044500D01*
X139350000Y-83932000D02*
X139000000Y-84282000D01*
X140443000Y-83842000D02*
X140353000Y-83932000D01*
X139000000Y-85982000D02*
X138900000Y-86082000D01*
X139000000Y-84282000D02*
X139000000Y-84732000D01*
%TO.N,D-*%
X140943000Y-83800000D02*
X140943000Y-82867000D01*
X139518686Y-85332000D02*
X140943000Y-83907686D01*
X138400000Y-85733471D02*
X138666735Y-85466735D01*
X139943000Y-82867000D02*
X139943000Y-81939000D01*
X140943000Y-81892000D02*
X140943000Y-82867000D01*
X140833000Y-81782000D02*
X140943000Y-81892000D01*
X140943000Y-83907686D02*
X140943000Y-83800000D01*
X141843000Y-84700000D02*
X143600000Y-84700000D01*
X140943000Y-83800000D02*
X141843000Y-84700000D01*
X139943000Y-81939000D02*
X140100000Y-81782000D01*
X138801470Y-85332000D02*
X139518686Y-85332000D01*
X138400000Y-87044500D02*
X138400000Y-85733471D01*
X138666735Y-85466735D02*
X138801470Y-85332000D01*
X140100000Y-81782000D02*
X140833000Y-81782000D01*
%TO.N,VSET*%
X135375000Y-91300000D02*
X135375000Y-92100000D01*
X132950000Y-82500000D02*
X132950000Y-84000000D01*
X135995000Y-89900000D02*
X135995000Y-90680000D01*
X133075000Y-84400000D02*
X135075000Y-84400000D01*
X131825000Y-85250000D02*
X131825000Y-87550000D01*
X134495000Y-88400000D02*
X135375000Y-89280000D01*
X133075000Y-84400000D02*
X132675000Y-84400000D01*
X132950000Y-84000000D02*
X132950000Y-84275000D01*
X135995000Y-93700000D02*
X135995000Y-94480000D01*
X135375000Y-93080000D02*
X135995000Y-93700000D01*
X135995000Y-94480000D02*
X135345000Y-95130000D01*
X131825000Y-87550000D02*
X132675000Y-88400000D01*
X135368000Y-93087000D02*
X135375000Y-93080000D01*
X135375000Y-92100000D02*
X135375000Y-93080000D01*
X137209208Y-92200000D02*
X135475000Y-92200000D01*
X135995000Y-90680000D02*
X135375000Y-91300000D01*
X135375000Y-84700000D02*
X135375000Y-85380000D01*
X132675000Y-84400000D02*
X131825000Y-85250000D01*
X138400000Y-91009208D02*
X137209208Y-92200000D01*
X138400000Y-90144500D02*
X138400000Y-91009208D01*
X135075000Y-84400000D02*
X135375000Y-84700000D01*
X132675000Y-88400000D02*
X134495000Y-88400000D01*
X135345000Y-95130000D02*
X135345000Y-96890000D01*
X135475000Y-92200000D02*
X135375000Y-92100000D01*
X132950000Y-84275000D02*
X133075000Y-84400000D01*
X135375000Y-89280000D02*
X135995000Y-89900000D01*
%TO.N,ISET*%
X144540000Y-89800000D02*
X144540000Y-90600000D01*
X138900000Y-90782000D02*
X139300000Y-91182000D01*
X143300000Y-90600000D02*
X144540000Y-90600000D01*
X144971000Y-89369000D02*
X144540000Y-89800000D01*
X142718000Y-91182000D02*
X143300000Y-90600000D01*
X139300000Y-91182000D02*
X142718000Y-91182000D01*
X144971000Y-88190000D02*
X144971000Y-89369000D01*
X138900000Y-90144500D02*
X138900000Y-90782000D01*
%TO.N,Net-(J8-Pin_1)*%
X132975000Y-86400000D02*
X135375000Y-86400000D01*
D27*
%TO.N,VBUS*%
X141000000Y-92082000D02*
X141000000Y-93352850D01*
X138465000Y-92217000D02*
X138600000Y-92082000D01*
D28*
X140900000Y-85282000D02*
X141000000Y-85182000D01*
X140900000Y-86072000D02*
X140900000Y-85282000D01*
D27*
X138465000Y-93357850D02*
X138465000Y-92217000D01*
X142643000Y-82867000D02*
X142600000Y-82910000D01*
X139800000Y-92082000D02*
X139800000Y-93292850D01*
D28*
X141400000Y-95000000D02*
X141005000Y-94605000D01*
X143328924Y-95700000D02*
X142628924Y-95000000D01*
D27*
X137743000Y-83925000D02*
X137800000Y-83982000D01*
X137743000Y-82867000D02*
X137743000Y-83925000D01*
X139800000Y-93292850D02*
X139735000Y-93357850D01*
X142600000Y-82910000D02*
X142600000Y-84082000D01*
X141000000Y-93352850D02*
X141005000Y-93357850D01*
D28*
X143410000Y-95700000D02*
X143328924Y-95700000D01*
X141005000Y-94605000D02*
X141005000Y-93357850D01*
X142628924Y-95000000D02*
X141400000Y-95000000D01*
D29*
X138600000Y-92082000D02*
X139800000Y-92082000D01*
X139800000Y-92082000D02*
X141000000Y-92082000D01*
D28*
%TO.N,CC1*%
X137881810Y-85431015D02*
X137881810Y-87026310D01*
X139133265Y-80866735D02*
X138600000Y-81400000D01*
X140483421Y-80866735D02*
X139133265Y-80866735D01*
X141443000Y-81826314D02*
X140483421Y-80866735D01*
X137881810Y-87026310D02*
X137900000Y-87044500D01*
X141443000Y-82867000D02*
X141443000Y-81826314D01*
%TO.N,CC2*%
X138443000Y-82867000D02*
X138400000Y-82910000D01*
X138400000Y-82910000D02*
X138400000Y-84600000D01*
X137400000Y-85797734D02*
X137400000Y-87044500D01*
X137664296Y-84800000D02*
X137281810Y-85182486D01*
X137281810Y-85182486D02*
X137281810Y-85679544D01*
X138200000Y-84800000D02*
X137664296Y-84800000D01*
X137281810Y-85679544D02*
X137400000Y-85797734D01*
X138400000Y-84600000D02*
X138200000Y-84800000D01*
%TO.N,SCL*%
X137900000Y-90630339D02*
X136930339Y-91600000D01*
X137900000Y-90144500D02*
X137900000Y-90630339D01*
%TO.N,SDA*%
X137400000Y-90144500D02*
X137400000Y-90281810D01*
X137400000Y-90281810D02*
X136090905Y-91590905D01*
%TO.N,Net-(U2-G)*%
X142390000Y-95700000D02*
X142390000Y-96700000D01*
X138300000Y-95700000D02*
X142390000Y-95700000D01*
X142410000Y-95680000D02*
X142390000Y-95700000D01*
X137195000Y-93357850D02*
X137195000Y-94595000D01*
X137195000Y-94595000D02*
X138300000Y-95700000D01*
%TO.N,GATE*%
X139500000Y-90500000D02*
X142400000Y-90500000D01*
X142400000Y-94200000D02*
X143200000Y-95000000D01*
X144000000Y-96110000D02*
X143410000Y-96700000D01*
X142400000Y-91900000D02*
X142400000Y-94200000D01*
X139400000Y-90144500D02*
X139400000Y-90400000D01*
X139400000Y-90400000D02*
X139500000Y-90500000D01*
X143900000Y-95000000D02*
X144000000Y-95100000D01*
X143200000Y-95000000D02*
X143900000Y-95000000D01*
X144000000Y-95100000D02*
X144000000Y-96110000D01*
%TO.N,Net-(U1-VIN)*%
X140862500Y-87054500D02*
X140900000Y-87092000D01*
X140900000Y-87092000D02*
X139447500Y-87092000D01*
X142360000Y-87022000D02*
X142347500Y-87034500D01*
X140900000Y-87092000D02*
X141833000Y-87092000D01*
X141833000Y-87092000D02*
X142200000Y-86725000D01*
X142290000Y-87092000D02*
X142347500Y-87034500D01*
X142335000Y-87022000D02*
X142347500Y-87034500D01*
X139447500Y-87092000D02*
X139400000Y-87044500D01*
%TO.N,Net-(J6-Pin_1)*%
X145560000Y-91080000D02*
X145000000Y-91640000D01*
X145560000Y-90600000D02*
X145560000Y-91080000D01*
X145000000Y-91640000D02*
X145000000Y-93000000D01*
%TO.N,Net-(J9-Pin_1)*%
X132975000Y-90300000D02*
X135375000Y-90300000D01*
X135435000Y-90360000D02*
X135375000Y-90300000D01*
%TO.N,Net-(J10-Pin_1)*%
X132975000Y-94100000D02*
X135375000Y-94100000D01*
X135435000Y-94160000D02*
X135375000Y-94100000D01*
%TO.N,Net-(J11-Pin_1)*%
X135335000Y-97900000D02*
X135345000Y-97910000D01*
X132975000Y-97900000D02*
X135335000Y-97900000D01*
X135405000Y-97970000D02*
X135345000Y-97910000D01*
%TD*%
%TA.AperFunction,Conductor*%
%TO.N,GND*%
G36*
X147790000Y-94330633D02*
G01*
X148003483Y-94273433D01*
X148003492Y-94273429D01*
X148217578Y-94173600D01*
X148411082Y-94038105D01*
X148578105Y-93871082D01*
X148713598Y-93677580D01*
X148742416Y-93615780D01*
X148788589Y-93563340D01*
X148855782Y-93544188D01*
X148922663Y-93564403D01*
X148967998Y-93617568D01*
X148978799Y-93668044D01*
X148999493Y-111994517D01*
X148999021Y-112005464D01*
X148985260Y-112162752D01*
X148981507Y-112184038D01*
X148942030Y-112331369D01*
X148934637Y-112351681D01*
X148870177Y-112489915D01*
X148859370Y-112508633D01*
X148771880Y-112633582D01*
X148757986Y-112650140D01*
X148650140Y-112757986D01*
X148633582Y-112771880D01*
X148508633Y-112859370D01*
X148489915Y-112870177D01*
X148351681Y-112934637D01*
X148331369Y-112942030D01*
X148184038Y-112981507D01*
X148162753Y-112985260D01*
X148005395Y-112999028D01*
X147994587Y-112999500D01*
X130005413Y-112999500D01*
X129994605Y-112999028D01*
X129837246Y-112985260D01*
X129815961Y-112981507D01*
X129668630Y-112942030D01*
X129648318Y-112934637D01*
X129510084Y-112870177D01*
X129491366Y-112859370D01*
X129366417Y-112771880D01*
X129349859Y-112757986D01*
X129242013Y-112650140D01*
X129228119Y-112633582D01*
X129140629Y-112508633D01*
X129129822Y-112489915D01*
X129065362Y-112351681D01*
X129057969Y-112331369D01*
X129044759Y-112282068D01*
X129018491Y-112184035D01*
X129014739Y-112162752D01*
X129006215Y-112065327D01*
X129000977Y-112005461D01*
X129000506Y-111994517D01*
X129000659Y-111859925D01*
X129001188Y-111393999D01*
X130064341Y-111393999D01*
X130064341Y-111394000D01*
X130084936Y-111629403D01*
X130084938Y-111629413D01*
X130146094Y-111857655D01*
X130146096Y-111857659D01*
X130146097Y-111857663D01*
X130226004Y-112029023D01*
X130245965Y-112071830D01*
X130245967Y-112071834D01*
X130287480Y-112131120D01*
X130381505Y-112265401D01*
X130548599Y-112432495D01*
X130630603Y-112489915D01*
X130742165Y-112568032D01*
X130742167Y-112568033D01*
X130742170Y-112568035D01*
X130956337Y-112667903D01*
X131184592Y-112729063D01*
X131361034Y-112744500D01*
X131419999Y-112749659D01*
X131420000Y-112749659D01*
X131420001Y-112749659D01*
X131478966Y-112744500D01*
X131655408Y-112729063D01*
X131883663Y-112667903D01*
X132097830Y-112568035D01*
X132291401Y-112432495D01*
X132458495Y-112265401D01*
X132588425Y-112079842D01*
X132643002Y-112036217D01*
X132712500Y-112029023D01*
X132774855Y-112060546D01*
X132791575Y-112079842D01*
X132921500Y-112265395D01*
X132921505Y-112265401D01*
X133088599Y-112432495D01*
X133170603Y-112489915D01*
X133282165Y-112568032D01*
X133282167Y-112568033D01*
X133282170Y-112568035D01*
X133496337Y-112667903D01*
X133724592Y-112729063D01*
X133901034Y-112744500D01*
X133959999Y-112749659D01*
X133960000Y-112749659D01*
X133960001Y-112749659D01*
X134018966Y-112744500D01*
X134195408Y-112729063D01*
X134423663Y-112667903D01*
X134637830Y-112568035D01*
X134831401Y-112432495D01*
X134953329Y-112310566D01*
X135014648Y-112277084D01*
X135084340Y-112282068D01*
X135140274Y-112323939D01*
X135157189Y-112354917D01*
X135206202Y-112486328D01*
X135206206Y-112486335D01*
X135292452Y-112601544D01*
X135292455Y-112601547D01*
X135407664Y-112687793D01*
X135407671Y-112687797D01*
X135542517Y-112738091D01*
X135542516Y-112738091D01*
X135549444Y-112738835D01*
X135602127Y-112744500D01*
X137397872Y-112744499D01*
X137457483Y-112738091D01*
X137592331Y-112687796D01*
X137707546Y-112601546D01*
X137793796Y-112486331D01*
X137844091Y-112351483D01*
X137850500Y-112291873D01*
X137850499Y-110496155D01*
X140230000Y-110496155D01*
X140230000Y-111144000D01*
X141146988Y-111144000D01*
X141114075Y-111201007D01*
X141080000Y-111328174D01*
X141080000Y-111459826D01*
X141114075Y-111586993D01*
X141146988Y-111644000D01*
X140230000Y-111644000D01*
X140230000Y-112291844D01*
X140236401Y-112351372D01*
X140236403Y-112351379D01*
X140286645Y-112486086D01*
X140286649Y-112486093D01*
X140372809Y-112601187D01*
X140372812Y-112601190D01*
X140487906Y-112687350D01*
X140487913Y-112687354D01*
X140622620Y-112737596D01*
X140622627Y-112737598D01*
X140682155Y-112743999D01*
X140682172Y-112744000D01*
X141330000Y-112744000D01*
X141330000Y-111827012D01*
X141387007Y-111859925D01*
X141514174Y-111894000D01*
X141645826Y-111894000D01*
X141772993Y-111859925D01*
X141830000Y-111827012D01*
X141830000Y-112744000D01*
X142477828Y-112744000D01*
X142477844Y-112743999D01*
X142537372Y-112737598D01*
X142537379Y-112737596D01*
X142672086Y-112687354D01*
X142672093Y-112687350D01*
X142787187Y-112601190D01*
X142787190Y-112601187D01*
X142873350Y-112486093D01*
X142873354Y-112486086D01*
X142922422Y-112354529D01*
X142964293Y-112298595D01*
X143029757Y-112274178D01*
X143098030Y-112289030D01*
X143126285Y-112310181D01*
X143248599Y-112432495D01*
X143330603Y-112489915D01*
X143442165Y-112568032D01*
X143442167Y-112568033D01*
X143442170Y-112568035D01*
X143656337Y-112667903D01*
X143884592Y-112729063D01*
X144061034Y-112744500D01*
X144119999Y-112749659D01*
X144120000Y-112749659D01*
X144120001Y-112749659D01*
X144178966Y-112744500D01*
X144355408Y-112729063D01*
X144583663Y-112667903D01*
X144797830Y-112568035D01*
X144991401Y-112432495D01*
X145158495Y-112265401D01*
X145288425Y-112079842D01*
X145343002Y-112036217D01*
X145412500Y-112029023D01*
X145474855Y-112060546D01*
X145491575Y-112079842D01*
X145621500Y-112265395D01*
X145621505Y-112265401D01*
X145788599Y-112432495D01*
X145870603Y-112489915D01*
X145982165Y-112568032D01*
X145982167Y-112568033D01*
X145982170Y-112568035D01*
X146196337Y-112667903D01*
X146424592Y-112729063D01*
X146601034Y-112744500D01*
X146659999Y-112749659D01*
X146660000Y-112749659D01*
X146660001Y-112749659D01*
X146718966Y-112744500D01*
X146895408Y-112729063D01*
X147123663Y-112667903D01*
X147337830Y-112568035D01*
X147531401Y-112432495D01*
X147698495Y-112265401D01*
X147834035Y-112071830D01*
X147933903Y-111857663D01*
X147995063Y-111629408D01*
X148015659Y-111394000D01*
X147995063Y-111158592D01*
X147933903Y-110930337D01*
X147834035Y-110716171D01*
X147828425Y-110708158D01*
X147698494Y-110522597D01*
X147531402Y-110355506D01*
X147531395Y-110355501D01*
X147337834Y-110219967D01*
X147337830Y-110219965D01*
X147266727Y-110186809D01*
X147123663Y-110120097D01*
X147123659Y-110120096D01*
X147123655Y-110120094D01*
X146895413Y-110058938D01*
X146895403Y-110058936D01*
X146660001Y-110038341D01*
X146659999Y-110038341D01*
X146424596Y-110058936D01*
X146424586Y-110058938D01*
X146196344Y-110120094D01*
X146196335Y-110120098D01*
X145982171Y-110219964D01*
X145982169Y-110219965D01*
X145788597Y-110355505D01*
X145621505Y-110522597D01*
X145491575Y-110708158D01*
X145436998Y-110751783D01*
X145367500Y-110758977D01*
X145305145Y-110727454D01*
X145288425Y-110708158D01*
X145158494Y-110522597D01*
X144991402Y-110355506D01*
X144991395Y-110355501D01*
X144797834Y-110219967D01*
X144797830Y-110219965D01*
X144726727Y-110186809D01*
X144583663Y-110120097D01*
X144583659Y-110120096D01*
X144583655Y-110120094D01*
X144355413Y-110058938D01*
X144355403Y-110058936D01*
X144120001Y-110038341D01*
X144119999Y-110038341D01*
X143884596Y-110058936D01*
X143884586Y-110058938D01*
X143656344Y-110120094D01*
X143656335Y-110120098D01*
X143442171Y-110219964D01*
X143442169Y-110219965D01*
X143248600Y-110355503D01*
X143126284Y-110477819D01*
X143064961Y-110511303D01*
X142995269Y-110506319D01*
X142939336Y-110464447D01*
X142922421Y-110433470D01*
X142873354Y-110301913D01*
X142873350Y-110301906D01*
X142787190Y-110186812D01*
X142787187Y-110186809D01*
X142672093Y-110100649D01*
X142672086Y-110100645D01*
X142537379Y-110050403D01*
X142537372Y-110050401D01*
X142477844Y-110044000D01*
X141830000Y-110044000D01*
X141830000Y-110960988D01*
X141772993Y-110928075D01*
X141645826Y-110894000D01*
X141514174Y-110894000D01*
X141387007Y-110928075D01*
X141330000Y-110960988D01*
X141330000Y-110044000D01*
X140682155Y-110044000D01*
X140622627Y-110050401D01*
X140622620Y-110050403D01*
X140487913Y-110100645D01*
X140487906Y-110100649D01*
X140372812Y-110186809D01*
X140372809Y-110186812D01*
X140286649Y-110301906D01*
X140286645Y-110301913D01*
X140236403Y-110436620D01*
X140236401Y-110436627D01*
X140230000Y-110496155D01*
X137850499Y-110496155D01*
X137850499Y-110496128D01*
X137844091Y-110436517D01*
X137842810Y-110433083D01*
X137793797Y-110301671D01*
X137793793Y-110301664D01*
X137707547Y-110186455D01*
X137707544Y-110186452D01*
X137592335Y-110100206D01*
X137592328Y-110100202D01*
X137457482Y-110049908D01*
X137457483Y-110049908D01*
X137397883Y-110043501D01*
X137397881Y-110043500D01*
X137397873Y-110043500D01*
X137397864Y-110043500D01*
X135602129Y-110043500D01*
X135602123Y-110043501D01*
X135542516Y-110049908D01*
X135407671Y-110100202D01*
X135407664Y-110100206D01*
X135292455Y-110186452D01*
X135292452Y-110186455D01*
X135206206Y-110301664D01*
X135206203Y-110301669D01*
X135157189Y-110433083D01*
X135115317Y-110489016D01*
X135049853Y-110513433D01*
X134981580Y-110498581D01*
X134953326Y-110477430D01*
X134831402Y-110355506D01*
X134831395Y-110355501D01*
X134637834Y-110219967D01*
X134637830Y-110219965D01*
X134566727Y-110186809D01*
X134423663Y-110120097D01*
X134423659Y-110120096D01*
X134423655Y-110120094D01*
X134195413Y-110058938D01*
X134195403Y-110058936D01*
X133960001Y-110038341D01*
X133959999Y-110038341D01*
X133724596Y-110058936D01*
X133724586Y-110058938D01*
X133496344Y-110120094D01*
X133496335Y-110120098D01*
X133282171Y-110219964D01*
X133282169Y-110219965D01*
X133088597Y-110355505D01*
X132921505Y-110522597D01*
X132791575Y-110708158D01*
X132736998Y-110751783D01*
X132667500Y-110758977D01*
X132605145Y-110727454D01*
X132588425Y-110708158D01*
X132458494Y-110522597D01*
X132291402Y-110355506D01*
X132291395Y-110355501D01*
X132097834Y-110219967D01*
X132097830Y-110219965D01*
X132026727Y-110186809D01*
X131883663Y-110120097D01*
X131883659Y-110120096D01*
X131883655Y-110120094D01*
X131655413Y-110058938D01*
X131655403Y-110058936D01*
X131420001Y-110038341D01*
X131419999Y-110038341D01*
X131184596Y-110058936D01*
X131184586Y-110058938D01*
X130956344Y-110120094D01*
X130956335Y-110120098D01*
X130742171Y-110219964D01*
X130742169Y-110219965D01*
X130548597Y-110355505D01*
X130381505Y-110522597D01*
X130245965Y-110716169D01*
X130245964Y-110716171D01*
X130146098Y-110930335D01*
X130146094Y-110930344D01*
X130084938Y-111158586D01*
X130084936Y-111158596D01*
X130064341Y-111393999D01*
X129001188Y-111393999D01*
X129004940Y-108090322D01*
X129815001Y-108090322D01*
X129825144Y-108189607D01*
X129878452Y-108350481D01*
X129878457Y-108350492D01*
X129967424Y-108494728D01*
X129967427Y-108494732D01*
X130087267Y-108614572D01*
X130087271Y-108614575D01*
X130231507Y-108703542D01*
X130231518Y-108703547D01*
X130392393Y-108756855D01*
X130491683Y-108766999D01*
X130515000Y-108766998D01*
X130515000Y-108042000D01*
X129815001Y-108042000D01*
X129815001Y-108090322D01*
X129004940Y-108090322D01*
X129005618Y-107493677D01*
X129815000Y-107493677D01*
X129815000Y-107542000D01*
X130515000Y-107542000D01*
X130515000Y-106816999D01*
X130491693Y-106817000D01*
X130491674Y-106817001D01*
X130392392Y-106827144D01*
X130231518Y-106880452D01*
X130231507Y-106880457D01*
X130087271Y-106969424D01*
X130087267Y-106969427D01*
X129967427Y-107089267D01*
X129967424Y-107089271D01*
X129878457Y-107233507D01*
X129878452Y-107233518D01*
X129825144Y-107394393D01*
X129815000Y-107493677D01*
X129005618Y-107493677D01*
X129008358Y-105080322D01*
X129815001Y-105080322D01*
X129825144Y-105179607D01*
X129878452Y-105340481D01*
X129878457Y-105340492D01*
X129967424Y-105484728D01*
X129967427Y-105484732D01*
X130087267Y-105604572D01*
X130087271Y-105604575D01*
X130231507Y-105693542D01*
X130231518Y-105693547D01*
X130392393Y-105746855D01*
X130491683Y-105756999D01*
X130515000Y-105756998D01*
X130515000Y-105032000D01*
X129815001Y-105032000D01*
X129815001Y-105080322D01*
X129008358Y-105080322D01*
X129009036Y-104483677D01*
X129815000Y-104483677D01*
X129815000Y-104532000D01*
X130515000Y-104532000D01*
X130515000Y-103806999D01*
X130491693Y-103807000D01*
X130491674Y-103807001D01*
X130392392Y-103817144D01*
X130231518Y-103870452D01*
X130231507Y-103870457D01*
X130087271Y-103959424D01*
X130087267Y-103959427D01*
X129967427Y-104079267D01*
X129967424Y-104079271D01*
X129878457Y-104223507D01*
X129878452Y-104223518D01*
X129825144Y-104384393D01*
X129815000Y-104483677D01*
X129009036Y-104483677D01*
X129011776Y-102070322D01*
X129815001Y-102070322D01*
X129825144Y-102169607D01*
X129878452Y-102330481D01*
X129878457Y-102330492D01*
X129967424Y-102474728D01*
X129967427Y-102474732D01*
X130087267Y-102594572D01*
X130087271Y-102594575D01*
X130231507Y-102683542D01*
X130231518Y-102683547D01*
X130392393Y-102736855D01*
X130491683Y-102746999D01*
X130515000Y-102746998D01*
X130515000Y-102022000D01*
X129815001Y-102022000D01*
X129815001Y-102070322D01*
X129011776Y-102070322D01*
X129012454Y-101473677D01*
X129815000Y-101473677D01*
X129815000Y-101522000D01*
X130515000Y-101522000D01*
X130515000Y-100796999D01*
X130491693Y-100797000D01*
X130491674Y-100797001D01*
X130392392Y-100807144D01*
X130231518Y-100860452D01*
X130231507Y-100860457D01*
X130087271Y-100949424D01*
X130087267Y-100949427D01*
X129967427Y-101069267D01*
X129967424Y-101069271D01*
X129878457Y-101213507D01*
X129878452Y-101213518D01*
X129825144Y-101374393D01*
X129815000Y-101473677D01*
X129012454Y-101473677D01*
X129015706Y-98609871D01*
X129035467Y-98542857D01*
X129088323Y-98497162D01*
X129157492Y-98487297D01*
X129221015Y-98516394D01*
X129252087Y-98557608D01*
X129261399Y-98577577D01*
X129396894Y-98771082D01*
X129563917Y-98938105D01*
X129757421Y-99073600D01*
X129971507Y-99173429D01*
X129971516Y-99173433D01*
X130185000Y-99230634D01*
X130185000Y-98333012D01*
X130242007Y-98365925D01*
X130369174Y-98400000D01*
X130500826Y-98400000D01*
X130627993Y-98365925D01*
X130685000Y-98333012D01*
X130685000Y-99230633D01*
X130898483Y-99173433D01*
X130898492Y-99173429D01*
X131112578Y-99073600D01*
X131306078Y-98938108D01*
X131428133Y-98816053D01*
X131489456Y-98782568D01*
X131559148Y-98787552D01*
X131615082Y-98829423D01*
X131631997Y-98860401D01*
X131681202Y-98992328D01*
X131681206Y-98992335D01*
X131767452Y-99107544D01*
X131767455Y-99107547D01*
X131882664Y-99193793D01*
X131882671Y-99193797D01*
X132017517Y-99244091D01*
X132017516Y-99244091D01*
X132024444Y-99244835D01*
X132077127Y-99250500D01*
X133872872Y-99250499D01*
X133932483Y-99244091D01*
X134067331Y-99193796D01*
X134182546Y-99107546D01*
X134268796Y-98992331D01*
X134319091Y-98857483D01*
X134325500Y-98797873D01*
X134325500Y-98624500D01*
X134345185Y-98557461D01*
X134397989Y-98511706D01*
X134449500Y-98500500D01*
X134665404Y-98500500D01*
X134732443Y-98520185D01*
X134753085Y-98536819D01*
X134767396Y-98551130D01*
X134767400Y-98551133D01*
X134767402Y-98551135D01*
X134905607Y-98632869D01*
X134946268Y-98644682D01*
X135059791Y-98677664D01*
X135059794Y-98677664D01*
X135059796Y-98677665D01*
X135095819Y-98680500D01*
X135270500Y-98680499D01*
X135337539Y-98700183D01*
X135383294Y-98752987D01*
X135394500Y-98804499D01*
X135394500Y-99870500D01*
X135374815Y-99937539D01*
X135322011Y-99983294D01*
X135270500Y-99994500D01*
X131724000Y-99994500D01*
X131723991Y-99994500D01*
X131723990Y-99994501D01*
X131616549Y-100006052D01*
X131616537Y-100006054D01*
X131565027Y-100017260D01*
X131462502Y-100051383D01*
X131462496Y-100051386D01*
X131341462Y-100129171D01*
X131341451Y-100129179D01*
X131288659Y-100174923D01*
X131194433Y-100283664D01*
X131194430Y-100283668D01*
X131134664Y-100414534D01*
X131114976Y-100481582D01*
X131094500Y-100624001D01*
X131094500Y-100673000D01*
X131074815Y-100740039D01*
X131051167Y-100760529D01*
X131051319Y-100760681D01*
X131015000Y-100797000D01*
X131015000Y-102746999D01*
X131033498Y-102765497D01*
X131037539Y-102766684D01*
X131083294Y-102819488D01*
X131094500Y-102870999D01*
X131094500Y-103683000D01*
X131074815Y-103750039D01*
X131051167Y-103770529D01*
X131051319Y-103770681D01*
X131015000Y-103807000D01*
X131015000Y-105756999D01*
X131033498Y-105775497D01*
X131037539Y-105776684D01*
X131083294Y-105829488D01*
X131094500Y-105880999D01*
X131094500Y-106693000D01*
X131074815Y-106760039D01*
X131051167Y-106780529D01*
X131051319Y-106780681D01*
X131015000Y-106817000D01*
X131015000Y-108766999D01*
X131038308Y-108766999D01*
X131038322Y-108766998D01*
X131137607Y-108756855D01*
X131298481Y-108703547D01*
X131298492Y-108703542D01*
X131442731Y-108614573D01*
X131451959Y-108605345D01*
X131513279Y-108571856D01*
X131582971Y-108576835D01*
X131627327Y-108605339D01*
X131636955Y-108614967D01*
X131636959Y-108614970D01*
X131781294Y-108703998D01*
X131781297Y-108703999D01*
X131781303Y-108704003D01*
X131942292Y-108757349D01*
X131987780Y-108761996D01*
X132052472Y-108788392D01*
X132092623Y-108845572D01*
X132099178Y-108885351D01*
X132099178Y-108930292D01*
X132099179Y-108930297D01*
X132109123Y-108999455D01*
X132109124Y-108999460D01*
X132109125Y-108999463D01*
X132149657Y-109137501D01*
X132149660Y-109137507D01*
X132227442Y-109258537D01*
X132227450Y-109258548D01*
X132273194Y-109311340D01*
X132273197Y-109311343D01*
X132273201Y-109311347D01*
X132381935Y-109405567D01*
X132381938Y-109405568D01*
X132381939Y-109405569D01*
X132476196Y-109448616D01*
X132512812Y-109465338D01*
X132579851Y-109485023D01*
X132579855Y-109485024D01*
X132722271Y-109505500D01*
X132722274Y-109505500D01*
X138875990Y-109505500D01*
X138876000Y-109505500D01*
X138983456Y-109493947D01*
X139034967Y-109482741D01*
X139069197Y-109471347D01*
X139137497Y-109448616D01*
X139137501Y-109448613D01*
X139137504Y-109448613D01*
X139258543Y-109370825D01*
X139311347Y-109325070D01*
X139405567Y-109216336D01*
X139465338Y-109085459D01*
X139485023Y-109018420D01*
X139485024Y-109018416D01*
X139505500Y-108876000D01*
X139505500Y-106739240D01*
X139525185Y-106672201D01*
X139577989Y-106626446D01*
X139647147Y-106616502D01*
X139710703Y-106645527D01*
X139717181Y-106651559D01*
X139722812Y-106657190D01*
X139837906Y-106743350D01*
X139837913Y-106743354D01*
X139972620Y-106793596D01*
X139972627Y-106793598D01*
X140032155Y-106799999D01*
X140032172Y-106800000D01*
X141330000Y-106800000D01*
X141330000Y-105519064D01*
X141358316Y-105530793D01*
X141505147Y-105560000D01*
X141654853Y-105560000D01*
X141801684Y-105530793D01*
X141830000Y-105519064D01*
X141830000Y-106800000D01*
X143127828Y-106800000D01*
X143127844Y-106799999D01*
X143187372Y-106793598D01*
X143187379Y-106793596D01*
X143322086Y-106743354D01*
X143322093Y-106743350D01*
X143437187Y-106657190D01*
X143437190Y-106657187D01*
X143523350Y-106542093D01*
X143523354Y-106542086D01*
X143573596Y-106407379D01*
X143573598Y-106407372D01*
X143579999Y-106347844D01*
X143580000Y-106347827D01*
X143580000Y-105050000D01*
X142299064Y-105050000D01*
X142310793Y-105021684D01*
X142340000Y-104874853D01*
X142340000Y-104725147D01*
X142310793Y-104578316D01*
X142299064Y-104550000D01*
X143580000Y-104550000D01*
X143580000Y-103252172D01*
X143579999Y-103252155D01*
X143573598Y-103192627D01*
X143573596Y-103192620D01*
X143523354Y-103057913D01*
X143523350Y-103057906D01*
X143437190Y-102942812D01*
X143437187Y-102942809D01*
X143322093Y-102856649D01*
X143322086Y-102856645D01*
X143187379Y-102806403D01*
X143187372Y-102806401D01*
X143127844Y-102800000D01*
X141830000Y-102800000D01*
X141830000Y-104080935D01*
X141801684Y-104069207D01*
X141654853Y-104040000D01*
X141505147Y-104040000D01*
X141358316Y-104069207D01*
X141330000Y-104080935D01*
X141330000Y-102800000D01*
X140032155Y-102800000D01*
X139972627Y-102806401D01*
X139972620Y-102806403D01*
X139837913Y-102856645D01*
X139837906Y-102856649D01*
X139722812Y-102942809D01*
X139717181Y-102948441D01*
X139655858Y-102981926D01*
X139586166Y-102976942D01*
X139530233Y-102935070D01*
X139505816Y-102869606D01*
X139505500Y-102860760D01*
X139505500Y-102429500D01*
X139525185Y-102362461D01*
X139577989Y-102316706D01*
X139629500Y-102305500D01*
X142675990Y-102305500D01*
X142676000Y-102305500D01*
X142783456Y-102293947D01*
X142834967Y-102282741D01*
X142869197Y-102271347D01*
X142937497Y-102248616D01*
X142937501Y-102248613D01*
X142937504Y-102248613D01*
X143058543Y-102170825D01*
X143111347Y-102125070D01*
X143205567Y-102016336D01*
X143265338Y-101885459D01*
X143285023Y-101818420D01*
X143285024Y-101818416D01*
X143305500Y-101676000D01*
X143305500Y-97644499D01*
X143325185Y-97577460D01*
X143377989Y-97531705D01*
X143429500Y-97520499D01*
X143609168Y-97520499D01*
X143609180Y-97520499D01*
X143645204Y-97517665D01*
X143799393Y-97472869D01*
X143937598Y-97391135D01*
X144051135Y-97277598D01*
X144132869Y-97139393D01*
X144172748Y-97002128D01*
X144177664Y-96985208D01*
X144177665Y-96985202D01*
X144180499Y-96949188D01*
X144180500Y-96949181D01*
X144180499Y-96830095D01*
X144200183Y-96763057D01*
X144216813Y-96742420D01*
X144358506Y-96600728D01*
X144358511Y-96600724D01*
X144368714Y-96590520D01*
X144368716Y-96590520D01*
X144480520Y-96478716D01*
X144531084Y-96391135D01*
X144559577Y-96341785D01*
X144600501Y-96189057D01*
X144600501Y-96030943D01*
X144600501Y-96023348D01*
X144600500Y-96023330D01*
X144600500Y-95020942D01*
X144594318Y-94997873D01*
X144594317Y-94997870D01*
X144573705Y-94920943D01*
X144559577Y-94868216D01*
X144544526Y-94842147D01*
X144480524Y-94731290D01*
X144480518Y-94731282D01*
X144311416Y-94562180D01*
X144277931Y-94500857D01*
X144282915Y-94431165D01*
X144324787Y-94375232D01*
X144390251Y-94350815D01*
X144399073Y-94350499D01*
X145897872Y-94350499D01*
X145957483Y-94344091D01*
X146092331Y-94293796D01*
X146207546Y-94207546D01*
X146293796Y-94092331D01*
X146343002Y-93960401D01*
X146384872Y-93904468D01*
X146450337Y-93880050D01*
X146518610Y-93894901D01*
X146546865Y-93916053D01*
X146668917Y-94038105D01*
X146862421Y-94173600D01*
X147076507Y-94273429D01*
X147076516Y-94273433D01*
X147290000Y-94330634D01*
X147290000Y-93433012D01*
X147347007Y-93465925D01*
X147474174Y-93500000D01*
X147605826Y-93500000D01*
X147732993Y-93465925D01*
X147790000Y-93433012D01*
X147790000Y-94330633D01*
G37*
%TD.AperFunction*%
%TA.AperFunction,Conductor*%
G36*
X130685000Y-95430633D02*
G01*
X130898483Y-95373433D01*
X130898492Y-95373429D01*
X131112578Y-95273600D01*
X131306078Y-95138108D01*
X131428133Y-95016053D01*
X131489456Y-94982568D01*
X131559148Y-94987552D01*
X131615082Y-95029423D01*
X131631997Y-95060401D01*
X131681202Y-95192328D01*
X131681206Y-95192335D01*
X131767452Y-95307544D01*
X131767455Y-95307547D01*
X131882664Y-95393793D01*
X131882671Y-95393797D01*
X132017517Y-95444091D01*
X132017516Y-95444091D01*
X132024444Y-95444835D01*
X132077127Y-95450500D01*
X133872872Y-95450499D01*
X133932483Y-95444091D01*
X134067331Y-95393796D01*
X134182546Y-95307546D01*
X134268796Y-95192331D01*
X134319091Y-95057483D01*
X134325500Y-94997873D01*
X134325500Y-94824500D01*
X134345185Y-94757461D01*
X134397989Y-94711706D01*
X134449500Y-94700500D01*
X134684799Y-94700500D01*
X134751838Y-94720185D01*
X134797593Y-94772989D01*
X134807537Y-94842147D01*
X134792186Y-94886500D01*
X134785424Y-94898211D01*
X134785423Y-94898212D01*
X134765993Y-94970726D01*
X134744499Y-95050943D01*
X134744499Y-95050945D01*
X134744499Y-95219046D01*
X134744500Y-95219059D01*
X134744500Y-96220404D01*
X134724815Y-96287443D01*
X134708181Y-96308085D01*
X134653869Y-96362396D01*
X134653863Y-96362404D01*
X134572131Y-96500606D01*
X134572129Y-96500611D01*
X134527335Y-96654791D01*
X134527334Y-96654797D01*
X134524500Y-96690811D01*
X134524500Y-96805952D01*
X134504815Y-96872991D01*
X134452011Y-96918746D01*
X134382853Y-96928690D01*
X134319297Y-96899665D01*
X134284318Y-96849285D01*
X134268797Y-96807671D01*
X134268793Y-96807664D01*
X134182547Y-96692455D01*
X134182544Y-96692452D01*
X134067335Y-96606206D01*
X134067328Y-96606202D01*
X133932482Y-96555908D01*
X133932483Y-96555908D01*
X133872883Y-96549501D01*
X133872881Y-96549500D01*
X133872873Y-96549500D01*
X133872864Y-96549500D01*
X132077129Y-96549500D01*
X132077123Y-96549501D01*
X132017516Y-96555908D01*
X131882671Y-96606202D01*
X131882664Y-96606206D01*
X131767455Y-96692452D01*
X131767452Y-96692455D01*
X131681206Y-96807664D01*
X131681202Y-96807671D01*
X131631997Y-96939598D01*
X131590126Y-96995532D01*
X131524661Y-97019949D01*
X131456388Y-97005097D01*
X131428134Y-96983946D01*
X131306082Y-96861894D01*
X131112578Y-96726399D01*
X130898492Y-96626570D01*
X130898486Y-96626567D01*
X130685000Y-96569364D01*
X130685000Y-97466988D01*
X130627993Y-97434075D01*
X130500826Y-97400000D01*
X130369174Y-97400000D01*
X130242007Y-97434075D01*
X130185000Y-97466988D01*
X130185000Y-96569364D01*
X130184999Y-96569364D01*
X129971513Y-96626567D01*
X129971507Y-96626570D01*
X129757422Y-96726399D01*
X129757420Y-96726400D01*
X129563926Y-96861886D01*
X129563920Y-96861891D01*
X129396891Y-97028920D01*
X129396886Y-97028926D01*
X129261400Y-97222420D01*
X129253704Y-97238925D01*
X129207530Y-97291363D01*
X129140336Y-97310513D01*
X129073455Y-97290295D01*
X129028122Y-97237129D01*
X129017323Y-97186376D01*
X129020011Y-94819102D01*
X129039772Y-94752089D01*
X129092628Y-94706394D01*
X129161797Y-94696529D01*
X129225320Y-94725626D01*
X129256392Y-94766839D01*
X129261400Y-94777579D01*
X129396894Y-94971082D01*
X129563917Y-95138105D01*
X129757421Y-95273600D01*
X129971507Y-95373429D01*
X129971516Y-95373433D01*
X130185000Y-95430634D01*
X130185000Y-94533012D01*
X130242007Y-94565925D01*
X130369174Y-94600000D01*
X130500826Y-94600000D01*
X130627993Y-94565925D01*
X130685000Y-94533012D01*
X130685000Y-95430633D01*
G37*
%TD.AperFunction*%
%TA.AperFunction,Conductor*%
G36*
X130685000Y-91630633D02*
G01*
X130898483Y-91573433D01*
X130898492Y-91573429D01*
X131112578Y-91473600D01*
X131306078Y-91338108D01*
X131428133Y-91216053D01*
X131489456Y-91182568D01*
X131559148Y-91187552D01*
X131615082Y-91229423D01*
X131631997Y-91260401D01*
X131681202Y-91392328D01*
X131681206Y-91392335D01*
X131767452Y-91507544D01*
X131767455Y-91507547D01*
X131882664Y-91593793D01*
X131882671Y-91593797D01*
X132017517Y-91644091D01*
X132017516Y-91644091D01*
X132024444Y-91644835D01*
X132077127Y-91650500D01*
X133872872Y-91650499D01*
X133932483Y-91644091D01*
X134067331Y-91593796D01*
X134182546Y-91507546D01*
X134268796Y-91392331D01*
X134319091Y-91257483D01*
X134325500Y-91197873D01*
X134325500Y-91024500D01*
X134345185Y-90957461D01*
X134397989Y-90911706D01*
X134449500Y-90900500D01*
X134699314Y-90900500D01*
X134766353Y-90920185D01*
X134812108Y-90972989D01*
X134822052Y-91042147D01*
X134817086Y-91060246D01*
X134817527Y-91060365D01*
X134815424Y-91068213D01*
X134815423Y-91068215D01*
X134774499Y-91220943D01*
X134774499Y-91220945D01*
X134774499Y-91389046D01*
X134774500Y-91389059D01*
X134774500Y-92013330D01*
X134774499Y-92013348D01*
X134774499Y-92189046D01*
X134774500Y-92189059D01*
X134774500Y-92410404D01*
X134754815Y-92477443D01*
X134738181Y-92498085D01*
X134683869Y-92552396D01*
X134683863Y-92552404D01*
X134602131Y-92690606D01*
X134602129Y-92690611D01*
X134557335Y-92844791D01*
X134557334Y-92844797D01*
X134554500Y-92880811D01*
X134554500Y-93086387D01*
X134534815Y-93153426D01*
X134482011Y-93199181D01*
X134412853Y-93209125D01*
X134349297Y-93180100D01*
X134314318Y-93129720D01*
X134268797Y-93007671D01*
X134268793Y-93007664D01*
X134182547Y-92892455D01*
X134182544Y-92892452D01*
X134067335Y-92806206D01*
X134067328Y-92806202D01*
X133932482Y-92755908D01*
X133932483Y-92755908D01*
X133872883Y-92749501D01*
X133872881Y-92749500D01*
X133872873Y-92749500D01*
X133872864Y-92749500D01*
X132077129Y-92749500D01*
X132077123Y-92749501D01*
X132017516Y-92755908D01*
X131882671Y-92806202D01*
X131882664Y-92806206D01*
X131767455Y-92892452D01*
X131767452Y-92892455D01*
X131681206Y-93007664D01*
X131681202Y-93007671D01*
X131631997Y-93139598D01*
X131590126Y-93195532D01*
X131524661Y-93219949D01*
X131456388Y-93205097D01*
X131428134Y-93183946D01*
X131306082Y-93061894D01*
X131112578Y-92926399D01*
X130898492Y-92826570D01*
X130898486Y-92826567D01*
X130685000Y-92769364D01*
X130685000Y-93666988D01*
X130627993Y-93634075D01*
X130500826Y-93600000D01*
X130369174Y-93600000D01*
X130242007Y-93634075D01*
X130185000Y-93666988D01*
X130185000Y-92769364D01*
X130184999Y-92769364D01*
X129971513Y-92826567D01*
X129971507Y-92826570D01*
X129757422Y-92926399D01*
X129757420Y-92926400D01*
X129563926Y-93061886D01*
X129563920Y-93061891D01*
X129396891Y-93228920D01*
X129396886Y-93228926D01*
X129261400Y-93422420D01*
X129261399Y-93422421D01*
X129258029Y-93429650D01*
X129211854Y-93482087D01*
X129144660Y-93501236D01*
X129077779Y-93481017D01*
X129032447Y-93427850D01*
X129021649Y-93377101D01*
X129024316Y-91028335D01*
X129044077Y-90961322D01*
X129096933Y-90915627D01*
X129166102Y-90905762D01*
X129229625Y-90934859D01*
X129258422Y-90973050D01*
X129258695Y-90972893D01*
X129259974Y-90975109D01*
X129260692Y-90976061D01*
X129261399Y-90977577D01*
X129396894Y-91171082D01*
X129563917Y-91338105D01*
X129757421Y-91473600D01*
X129971507Y-91573429D01*
X129971516Y-91573433D01*
X130185000Y-91630634D01*
X130185000Y-90733012D01*
X130242007Y-90765925D01*
X130369174Y-90800000D01*
X130500826Y-90800000D01*
X130627993Y-90765925D01*
X130685000Y-90733012D01*
X130685000Y-91630633D01*
G37*
%TD.AperFunction*%
%TA.AperFunction,Conductor*%
G36*
X147761000Y-89520633D02*
G01*
X147974483Y-89463433D01*
X147974492Y-89463429D01*
X148188578Y-89363600D01*
X148382082Y-89228105D01*
X148549105Y-89061082D01*
X148684600Y-88867577D01*
X148684601Y-88867575D01*
X148736929Y-88755359D01*
X148783101Y-88702919D01*
X148850295Y-88683767D01*
X148917176Y-88703983D01*
X148962510Y-88757148D01*
X148973311Y-88807623D01*
X148977286Y-92328431D01*
X148957677Y-92395493D01*
X148904925Y-92441307D01*
X148835778Y-92451329D01*
X148772189Y-92422376D01*
X148740904Y-92380975D01*
X148713602Y-92322426D01*
X148713599Y-92322420D01*
X148578113Y-92128926D01*
X148578108Y-92128920D01*
X148411082Y-91961894D01*
X148217578Y-91826399D01*
X148003492Y-91726570D01*
X148003486Y-91726567D01*
X147790000Y-91669364D01*
X147790000Y-92566988D01*
X147732993Y-92534075D01*
X147605826Y-92500000D01*
X147474174Y-92500000D01*
X147347007Y-92534075D01*
X147290000Y-92566988D01*
X147290000Y-91669364D01*
X147289999Y-91669364D01*
X147076513Y-91726567D01*
X147076507Y-91726570D01*
X146862422Y-91826399D01*
X146862420Y-91826400D01*
X146668926Y-91961886D01*
X146546865Y-92083947D01*
X146485542Y-92117431D01*
X146415850Y-92112447D01*
X146359917Y-92070575D01*
X146343002Y-92039598D01*
X146293797Y-91907671D01*
X146293793Y-91907664D01*
X146207547Y-91792455D01*
X146207544Y-91792452D01*
X146092335Y-91706206D01*
X146092330Y-91706203D01*
X146047836Y-91689608D01*
X145991903Y-91647736D01*
X145967486Y-91582272D01*
X145982338Y-91513999D01*
X146003485Y-91485750D01*
X146040520Y-91448716D01*
X146080737Y-91379057D01*
X146119574Y-91311790D01*
X146119574Y-91311788D01*
X146119577Y-91311784D01*
X146130241Y-91271984D01*
X146162335Y-91216397D01*
X146162679Y-91216053D01*
X146201135Y-91177598D01*
X146282869Y-91039393D01*
X146318826Y-90915627D01*
X146327664Y-90885208D01*
X146327665Y-90885202D01*
X146330499Y-90849188D01*
X146330500Y-90849181D01*
X146330499Y-90350820D01*
X146327665Y-90314796D01*
X146282869Y-90160607D01*
X146201135Y-90022402D01*
X146201133Y-90022400D01*
X146201130Y-90022396D01*
X146087603Y-89908869D01*
X146087595Y-89908863D01*
X145949393Y-89827131D01*
X145949388Y-89827129D01*
X145799474Y-89783575D01*
X145740588Y-89745969D01*
X145711382Y-89682496D01*
X145721128Y-89613310D01*
X145766732Y-89560375D01*
X145833715Y-89540500D01*
X145834069Y-89540499D01*
X145868871Y-89540499D01*
X145868872Y-89540499D01*
X145928483Y-89534091D01*
X146063331Y-89483796D01*
X146178546Y-89397546D01*
X146264796Y-89282331D01*
X146272422Y-89261886D01*
X146314002Y-89150402D01*
X146355872Y-89094468D01*
X146421337Y-89070050D01*
X146489610Y-89084901D01*
X146517865Y-89106053D01*
X146639917Y-89228105D01*
X146833421Y-89363600D01*
X147047507Y-89463429D01*
X147047516Y-89463433D01*
X147261000Y-89520634D01*
X147261000Y-88623012D01*
X147318007Y-88655925D01*
X147445174Y-88690000D01*
X147576826Y-88690000D01*
X147703993Y-88655925D01*
X147761000Y-88623012D01*
X147761000Y-89520633D01*
G37*
%TD.AperFunction*%
%TA.AperFunction,Conductor*%
G36*
X143612336Y-81809061D02*
G01*
X143668268Y-81850933D01*
X143692684Y-81916398D01*
X143693000Y-81925242D01*
X143693000Y-82993000D01*
X143673315Y-83060039D01*
X143620511Y-83105794D01*
X143569000Y-83117000D01*
X143567500Y-83117000D01*
X143500461Y-83097315D01*
X143454706Y-83044511D01*
X143443500Y-82993000D01*
X143443499Y-82094129D01*
X143443498Y-82094123D01*
X143443497Y-82094116D01*
X143437091Y-82034517D01*
X143437090Y-82034515D01*
X143423450Y-81997945D01*
X143418464Y-81928254D01*
X143451945Y-81866934D01*
X143481322Y-81837557D01*
X143542644Y-81804075D01*
X143612336Y-81809061D01*
G37*
%TD.AperFunction*%
%TA.AperFunction,Conductor*%
G36*
X148005395Y-76200972D02*
G01*
X148155929Y-76214141D01*
X148177208Y-76217893D01*
X148317924Y-76255597D01*
X148338231Y-76262989D01*
X148470261Y-76324555D01*
X148488979Y-76335361D01*
X148608310Y-76418915D01*
X148624862Y-76432803D01*
X148727879Y-76535817D01*
X148741767Y-76552368D01*
X148825327Y-76671700D01*
X148836134Y-76690418D01*
X148897701Y-76822441D01*
X148905094Y-76842752D01*
X148942799Y-76983459D01*
X148946553Y-77004744D01*
X148959688Y-77154827D01*
X148960160Y-77165634D01*
X148960161Y-77233904D01*
X148960243Y-77235139D01*
X148971912Y-87569097D01*
X148952303Y-87636159D01*
X148899551Y-87681973D01*
X148830404Y-87691995D01*
X148766815Y-87663042D01*
X148735530Y-87621641D01*
X148684602Y-87512426D01*
X148684599Y-87512420D01*
X148549113Y-87318926D01*
X148549108Y-87318920D01*
X148382082Y-87151894D01*
X148188578Y-87016399D01*
X147974492Y-86916570D01*
X147974486Y-86916567D01*
X147761000Y-86859364D01*
X147761000Y-87756988D01*
X147703993Y-87724075D01*
X147576826Y-87690000D01*
X147445174Y-87690000D01*
X147318007Y-87724075D01*
X147261000Y-87756988D01*
X147261000Y-86859364D01*
X147260999Y-86859364D01*
X147047513Y-86916567D01*
X147047507Y-86916570D01*
X146833422Y-87016399D01*
X146833420Y-87016400D01*
X146639926Y-87151886D01*
X146517865Y-87273947D01*
X146456542Y-87307431D01*
X146386850Y-87302447D01*
X146330917Y-87260575D01*
X146314002Y-87229598D01*
X146264797Y-87097671D01*
X146264793Y-87097664D01*
X146178547Y-86982455D01*
X146178544Y-86982452D01*
X146063335Y-86896206D01*
X146063328Y-86896202D01*
X145928482Y-86845908D01*
X145928483Y-86845908D01*
X145868883Y-86839501D01*
X145868881Y-86839500D01*
X145868873Y-86839500D01*
X145868864Y-86839500D01*
X144073129Y-86839500D01*
X144073123Y-86839501D01*
X144013516Y-86845908D01*
X143878671Y-86896202D01*
X143878664Y-86896206D01*
X143763455Y-86982452D01*
X143763452Y-86982455D01*
X143677206Y-87097664D01*
X143677202Y-87097671D01*
X143626908Y-87232517D01*
X143620501Y-87292116D01*
X143620500Y-87292135D01*
X143620500Y-89087870D01*
X143620501Y-89087876D01*
X143626908Y-89147483D01*
X143677202Y-89282328D01*
X143677206Y-89282335D01*
X143763452Y-89397544D01*
X143763455Y-89397547D01*
X143878664Y-89483793D01*
X143878669Y-89483796D01*
X143886123Y-89486576D01*
X143942057Y-89528446D01*
X143966476Y-89593910D01*
X143962567Y-89634852D01*
X143939499Y-89720943D01*
X143939499Y-89875500D01*
X143919814Y-89942539D01*
X143867010Y-89988294D01*
X143815499Y-89999500D01*
X143220942Y-89999500D01*
X143140747Y-90020988D01*
X143070897Y-90019325D01*
X143020973Y-89988895D01*
X142974617Y-89942539D01*
X142902262Y-89870184D01*
X142833744Y-89827131D01*
X142749523Y-89774211D01*
X142579254Y-89714631D01*
X142579249Y-89714630D01*
X142400004Y-89694435D01*
X142399996Y-89694435D01*
X142220750Y-89714630D01*
X142220745Y-89714631D01*
X142050476Y-89774211D01*
X141897736Y-89870185D01*
X141894903Y-89872445D01*
X141892724Y-89873334D01*
X141891842Y-89873889D01*
X141891744Y-89873734D01*
X141830217Y-89898855D01*
X141817588Y-89899500D01*
X140174499Y-89899500D01*
X140107460Y-89879815D01*
X140061705Y-89827011D01*
X140050499Y-89775500D01*
X140050499Y-89771629D01*
X140050499Y-89771628D01*
X140044795Y-89718567D01*
X140057202Y-89649808D01*
X140068821Y-89631000D01*
X140083351Y-89611591D01*
X140133597Y-89476876D01*
X140133598Y-89476872D01*
X140139999Y-89417344D01*
X140140000Y-89417327D01*
X140140000Y-88844500D01*
X136660000Y-88844500D01*
X136660000Y-89416401D01*
X136640315Y-89483440D01*
X136587511Y-89529195D01*
X136518353Y-89539139D01*
X136454797Y-89510114D01*
X136448319Y-89504082D01*
X136359397Y-89415160D01*
X136359374Y-89415139D01*
X136231818Y-89287583D01*
X136198333Y-89226260D01*
X136195499Y-89199902D01*
X136195499Y-89080831D01*
X136195498Y-89080806D01*
X136193946Y-89061082D01*
X136192665Y-89044796D01*
X136147869Y-88890607D01*
X136066135Y-88752402D01*
X136066133Y-88752400D01*
X136066130Y-88752396D01*
X135952603Y-88638869D01*
X135952595Y-88638863D01*
X135814393Y-88557131D01*
X135814388Y-88557129D01*
X135784074Y-88548322D01*
X141225001Y-88548322D01*
X141235144Y-88647607D01*
X141288452Y-88808481D01*
X141288457Y-88808492D01*
X141377424Y-88952728D01*
X141377427Y-88952732D01*
X141497267Y-89072572D01*
X141497271Y-89072575D01*
X141641507Y-89161542D01*
X141641518Y-89161547D01*
X141802393Y-89214855D01*
X141901683Y-89224999D01*
X142450000Y-89224999D01*
X142498308Y-89224999D01*
X142498322Y-89224998D01*
X142597607Y-89214855D01*
X142758481Y-89161547D01*
X142758492Y-89161542D01*
X142902728Y-89072575D01*
X142902732Y-89072572D01*
X143022572Y-88952732D01*
X143022575Y-88952728D01*
X143111542Y-88808492D01*
X143111547Y-88808481D01*
X143164855Y-88647606D01*
X143174999Y-88548322D01*
X143175000Y-88548309D01*
X143175000Y-88525000D01*
X142450000Y-88525000D01*
X142450000Y-89224999D01*
X141901683Y-89224999D01*
X141949999Y-89224998D01*
X141950000Y-89224998D01*
X141950000Y-88525000D01*
X141225001Y-88525000D01*
X141225001Y-88548322D01*
X135784074Y-88548322D01*
X135660208Y-88512335D01*
X135660202Y-88512334D01*
X135624188Y-88509500D01*
X135624181Y-88509500D01*
X135505097Y-88509500D01*
X135438058Y-88489815D01*
X135417416Y-88473181D01*
X134982590Y-88038355D01*
X134982588Y-88038352D01*
X134863717Y-87919481D01*
X134863716Y-87919480D01*
X134765021Y-87862499D01*
X134765020Y-87862498D01*
X134726783Y-87840422D01*
X134670881Y-87825443D01*
X134574057Y-87799499D01*
X134415943Y-87799499D01*
X134408347Y-87799499D01*
X134408331Y-87799500D01*
X134286571Y-87799500D01*
X134219532Y-87779815D01*
X134173777Y-87727011D01*
X134163833Y-87657853D01*
X134187305Y-87601189D01*
X134268793Y-87492335D01*
X134268792Y-87492335D01*
X134268796Y-87492331D01*
X134319091Y-87357483D01*
X134325500Y-87297873D01*
X134325500Y-87124500D01*
X134345185Y-87057461D01*
X134397989Y-87011706D01*
X134449500Y-87000500D01*
X134705404Y-87000500D01*
X134772443Y-87020185D01*
X134793085Y-87036819D01*
X134797396Y-87041130D01*
X134797400Y-87041133D01*
X134797402Y-87041135D01*
X134935607Y-87122869D01*
X134941221Y-87124500D01*
X135089791Y-87167664D01*
X135089794Y-87167664D01*
X135089796Y-87167665D01*
X135125819Y-87170500D01*
X135624180Y-87170499D01*
X135660204Y-87167665D01*
X135814393Y-87122869D01*
X135952598Y-87041135D01*
X136066135Y-86927598D01*
X136147869Y-86789393D01*
X136192665Y-86635204D01*
X136195500Y-86599181D01*
X136195499Y-86200820D01*
X136192665Y-86164796D01*
X136147869Y-86010607D01*
X136113869Y-85953117D01*
X136096688Y-85885398D01*
X136113869Y-85826882D01*
X136147869Y-85769393D01*
X136151005Y-85758601D01*
X136192664Y-85615208D01*
X136192665Y-85615202D01*
X136193823Y-85600487D01*
X136195500Y-85579181D01*
X136195499Y-85180820D01*
X136192665Y-85144796D01*
X136147869Y-84990607D01*
X136066135Y-84852402D01*
X136066133Y-84852400D01*
X136066130Y-84852396D01*
X136011819Y-84798085D01*
X135978334Y-84736762D01*
X135975500Y-84710404D01*
X135975500Y-84620944D01*
X135975500Y-84620943D01*
X135975500Y-84620942D01*
X135934577Y-84468215D01*
X135896103Y-84401577D01*
X135896103Y-84401575D01*
X135855524Y-84331290D01*
X135855521Y-84331286D01*
X135855520Y-84331284D01*
X135743716Y-84219480D01*
X135743715Y-84219479D01*
X135739385Y-84215149D01*
X135739374Y-84215139D01*
X135562590Y-84038355D01*
X135562588Y-84038352D01*
X135443717Y-83919481D01*
X135443716Y-83919480D01*
X135356904Y-83869360D01*
X135356904Y-83869359D01*
X135356900Y-83869358D01*
X135306785Y-83840423D01*
X135154057Y-83799499D01*
X134995943Y-83799499D01*
X134988347Y-83799499D01*
X134988331Y-83799500D01*
X134336432Y-83799500D01*
X134269393Y-83779815D01*
X134223638Y-83727011D01*
X134213694Y-83657853D01*
X134237165Y-83601190D01*
X134240679Y-83596494D01*
X134243796Y-83592331D01*
X134282611Y-83488262D01*
X136123000Y-83488262D01*
X136136999Y-83508813D01*
X136143000Y-83546923D01*
X136143000Y-83639844D01*
X136149401Y-83699372D01*
X136149403Y-83699379D01*
X136199645Y-83834086D01*
X136199649Y-83834093D01*
X136285809Y-83949187D01*
X136285812Y-83949190D01*
X136400906Y-84035350D01*
X136400913Y-84035354D01*
X136535620Y-84085596D01*
X136535627Y-84085598D01*
X136595155Y-84091999D01*
X136595172Y-84092000D01*
X136693000Y-84092000D01*
X136693000Y-83117000D01*
X136123000Y-83117000D01*
X136123000Y-83488262D01*
X134282611Y-83488262D01*
X134294091Y-83457483D01*
X134300500Y-83397873D01*
X134300499Y-81602128D01*
X134294091Y-81542517D01*
X134293002Y-81539598D01*
X134243797Y-81407671D01*
X134243793Y-81407664D01*
X134165818Y-81303504D01*
X134873000Y-81303504D01*
X134873000Y-81702000D01*
X135573000Y-81702000D01*
X135573000Y-82202000D01*
X134873000Y-82202000D01*
X134873000Y-82600495D01*
X134911427Y-82793681D01*
X134911430Y-82793693D01*
X134986807Y-82975671D01*
X134986814Y-82975684D01*
X135096248Y-83139462D01*
X135096251Y-83139466D01*
X135235533Y-83278748D01*
X135235537Y-83278751D01*
X135399315Y-83388185D01*
X135399328Y-83388192D01*
X135581308Y-83463569D01*
X135623000Y-83471862D01*
X135623000Y-82668988D01*
X135632940Y-82686205D01*
X135688795Y-82742060D01*
X135757204Y-82781556D01*
X135833504Y-82802000D01*
X135912496Y-82802000D01*
X135988796Y-82781556D01*
X136057205Y-82742060D01*
X136113060Y-82686205D01*
X136152556Y-82617796D01*
X136152769Y-82617000D01*
X136693000Y-82617000D01*
X136693000Y-81925242D01*
X136712685Y-81858203D01*
X136765489Y-81812448D01*
X136834647Y-81802504D01*
X136898203Y-81831529D01*
X136904681Y-81837561D01*
X136934048Y-81866928D01*
X136967533Y-81928251D01*
X136962550Y-81997939D01*
X136948909Y-82034515D01*
X136948908Y-82034516D01*
X136942501Y-82094116D01*
X136942501Y-82094123D01*
X136942500Y-82094135D01*
X136942500Y-83639870D01*
X136942501Y-83639876D01*
X136948908Y-83699483D01*
X136984682Y-83795395D01*
X136992500Y-83838728D01*
X136992500Y-83998918D01*
X136992500Y-83998920D01*
X136992499Y-83998920D01*
X137000340Y-84038333D01*
X137001943Y-84048642D01*
X137014630Y-84161249D01*
X137074211Y-84331522D01*
X137102374Y-84376343D01*
X137121375Y-84443579D01*
X137101008Y-84510415D01*
X137085062Y-84529997D01*
X136913096Y-84701964D01*
X136801291Y-84813768D01*
X136801290Y-84813770D01*
X136756279Y-84891732D01*
X136722233Y-84950701D01*
X136681309Y-85103429D01*
X136681309Y-85103431D01*
X136681309Y-85271532D01*
X136681310Y-85271545D01*
X136681310Y-85592874D01*
X136681309Y-85592892D01*
X136681309Y-85758598D01*
X136681308Y-85758598D01*
X136722233Y-85911330D01*
X136734455Y-85932497D01*
X136734456Y-85932501D01*
X136734457Y-85932501D01*
X136779551Y-86010607D01*
X136782887Y-86016384D01*
X136799500Y-86078384D01*
X136799500Y-86472771D01*
X136791682Y-86516104D01*
X136760694Y-86599188D01*
X136755909Y-86612017D01*
X136749500Y-86671627D01*
X136749500Y-86671634D01*
X136749500Y-86671635D01*
X136749500Y-87417370D01*
X136749501Y-87417379D01*
X136755204Y-87470432D01*
X136742797Y-87539191D01*
X136731182Y-87557993D01*
X136716648Y-87577407D01*
X136716645Y-87577413D01*
X136666403Y-87712120D01*
X136666401Y-87712127D01*
X136660000Y-87771655D01*
X136660000Y-88344500D01*
X140140000Y-88344500D01*
X140140000Y-87842657D01*
X140159685Y-87775618D01*
X140212489Y-87729863D01*
X140281647Y-87719919D01*
X140327117Y-87735923D01*
X140460607Y-87814869D01*
X140501268Y-87826682D01*
X140614791Y-87859664D01*
X140614794Y-87859664D01*
X140614796Y-87859665D01*
X140650819Y-87862500D01*
X141101905Y-87862499D01*
X141168944Y-87882183D01*
X141214699Y-87934987D01*
X141225265Y-87999085D01*
X141225000Y-88001674D01*
X141225000Y-88025000D01*
X143174999Y-88025000D01*
X143174999Y-88001692D01*
X143174998Y-88001677D01*
X143164855Y-87902392D01*
X143111547Y-87741518D01*
X143111542Y-87741507D01*
X143022575Y-87597271D01*
X143022572Y-87597267D01*
X143013339Y-87588034D01*
X142979854Y-87526711D01*
X142984838Y-87457019D01*
X143013343Y-87412668D01*
X143022968Y-87403044D01*
X143112003Y-87258697D01*
X143165349Y-87097708D01*
X143175500Y-86998345D01*
X143175499Y-86451656D01*
X143165349Y-86352292D01*
X143112003Y-86191303D01*
X143111999Y-86191297D01*
X143111998Y-86191294D01*
X143022970Y-86046959D01*
X143022967Y-86046955D01*
X142903044Y-85927032D01*
X142903040Y-85927029D01*
X142758705Y-85838001D01*
X142758699Y-85837998D01*
X142758697Y-85837997D01*
X142681812Y-85812520D01*
X142597709Y-85784651D01*
X142498346Y-85774500D01*
X141901662Y-85774500D01*
X141901642Y-85774502D01*
X141808227Y-85784044D01*
X141739535Y-85771274D01*
X141688651Y-85723393D01*
X141676549Y-85695275D01*
X141675110Y-85690321D01*
X141675313Y-85620452D01*
X141689193Y-85589762D01*
X141725789Y-85531522D01*
X141762787Y-85425788D01*
X141777569Y-85383545D01*
X141818290Y-85326769D01*
X141883243Y-85301022D01*
X141894610Y-85300500D01*
X143017588Y-85300500D01*
X143084627Y-85320185D01*
X143094903Y-85327555D01*
X143097736Y-85329814D01*
X143097738Y-85329816D01*
X143250478Y-85425789D01*
X143329460Y-85453426D01*
X143420745Y-85485368D01*
X143420750Y-85485369D01*
X143599996Y-85505565D01*
X143600000Y-85505565D01*
X143600004Y-85505565D01*
X143779249Y-85485369D01*
X143779252Y-85485368D01*
X143779255Y-85485368D01*
X143949522Y-85425789D01*
X144102262Y-85329816D01*
X144229816Y-85202262D01*
X144325789Y-85049522D01*
X144385368Y-84879255D01*
X144385369Y-84879249D01*
X144405565Y-84700003D01*
X144405565Y-84699996D01*
X144385369Y-84520750D01*
X144385368Y-84520745D01*
X144343669Y-84401577D01*
X144325789Y-84350478D01*
X144313732Y-84331290D01*
X144240756Y-84215149D01*
X144229816Y-84197738D01*
X144125253Y-84093175D01*
X144091768Y-84031852D01*
X144096752Y-83962160D01*
X144113668Y-83931182D01*
X144186352Y-83834089D01*
X144186354Y-83834086D01*
X144236596Y-83699379D01*
X144236598Y-83699372D01*
X144242999Y-83639844D01*
X144243000Y-83639827D01*
X144243000Y-83546923D01*
X144262685Y-83479884D01*
X144263000Y-83479530D01*
X144263000Y-82668988D01*
X144272940Y-82686205D01*
X144328795Y-82742060D01*
X144397204Y-82781556D01*
X144473504Y-82802000D01*
X144552496Y-82802000D01*
X144628796Y-82781556D01*
X144697205Y-82742060D01*
X144753060Y-82686205D01*
X144763000Y-82668988D01*
X144763000Y-83471862D01*
X144804690Y-83463569D01*
X144804692Y-83463569D01*
X144986671Y-83388192D01*
X144986684Y-83388185D01*
X145150462Y-83278751D01*
X145150466Y-83278748D01*
X145289748Y-83139466D01*
X145289751Y-83139462D01*
X145399185Y-82975684D01*
X145399192Y-82975671D01*
X145474569Y-82793693D01*
X145474572Y-82793681D01*
X145512999Y-82600495D01*
X145513000Y-82600492D01*
X145513000Y-82202000D01*
X144813000Y-82202000D01*
X144813000Y-81702000D01*
X145513000Y-81702000D01*
X145513000Y-81303508D01*
X145512999Y-81303504D01*
X145474572Y-81110318D01*
X145474569Y-81110306D01*
X145399192Y-80928328D01*
X145399185Y-80928315D01*
X145289751Y-80764537D01*
X145289748Y-80764533D01*
X145150466Y-80625251D01*
X145150462Y-80625248D01*
X144986684Y-80515814D01*
X144986671Y-80515807D01*
X144804691Y-80440429D01*
X144804683Y-80440427D01*
X144763000Y-80432135D01*
X144763000Y-81235011D01*
X144753060Y-81217795D01*
X144697205Y-81161940D01*
X144628796Y-81122444D01*
X144552496Y-81102000D01*
X144473504Y-81102000D01*
X144397204Y-81122444D01*
X144328795Y-81161940D01*
X144272940Y-81217795D01*
X144263000Y-81235011D01*
X144263000Y-80432136D01*
X144262999Y-80432135D01*
X144221316Y-80440427D01*
X144221308Y-80440429D01*
X144039328Y-80515807D01*
X144039315Y-80515814D01*
X143875537Y-80625248D01*
X143875533Y-80625251D01*
X143736248Y-80764536D01*
X143623427Y-80933387D01*
X143622003Y-80932435D01*
X143578742Y-80976451D01*
X143510600Y-80991892D01*
X143444927Y-80968041D01*
X143442907Y-80966306D01*
X143442811Y-80966432D01*
X143436367Y-80961487D01*
X143436365Y-80961485D01*
X143370750Y-80923602D01*
X143305136Y-80885719D01*
X143231950Y-80866109D01*
X143158766Y-80846500D01*
X143007234Y-80846500D01*
X142860863Y-80885719D01*
X142729635Y-80961485D01*
X142729632Y-80961487D01*
X142622487Y-81068632D01*
X142622485Y-81068635D01*
X142546719Y-81199863D01*
X142507500Y-81346234D01*
X142507500Y-81497768D01*
X142507967Y-81501316D01*
X142507500Y-81504310D01*
X142507500Y-81505893D01*
X142507253Y-81505893D01*
X142497201Y-81570351D01*
X142450821Y-81622606D01*
X142385029Y-81641500D01*
X142295130Y-81641500D01*
X142295120Y-81641501D01*
X142231248Y-81648367D01*
X142204742Y-81648367D01*
X142200483Y-81647909D01*
X142140873Y-81641500D01*
X142140867Y-81641500D01*
X142101287Y-81641500D01*
X142034248Y-81621815D01*
X141993900Y-81579500D01*
X141923522Y-81457601D01*
X141923518Y-81457596D01*
X140971011Y-80505090D01*
X140971009Y-80505087D01*
X140852138Y-80386216D01*
X140852137Y-80386215D01*
X140765325Y-80336095D01*
X140765325Y-80336094D01*
X140765321Y-80336093D01*
X140715206Y-80307158D01*
X140562478Y-80266234D01*
X140404364Y-80266234D01*
X140396768Y-80266234D01*
X140396752Y-80266235D01*
X139219935Y-80266235D01*
X139219919Y-80266234D01*
X139212323Y-80266234D01*
X139054208Y-80266234D01*
X138977844Y-80286696D01*
X138901479Y-80307158D01*
X138901474Y-80307161D01*
X138764555Y-80386210D01*
X138764547Y-80386216D01*
X138581465Y-80569298D01*
X138520142Y-80602783D01*
X138507668Y-80604837D01*
X138420750Y-80614630D01*
X138250478Y-80674210D01*
X138097737Y-80770184D01*
X137970184Y-80897737D01*
X137970182Y-80897740D01*
X137907214Y-80997952D01*
X137854879Y-81044243D01*
X137785826Y-81054890D01*
X137721978Y-81026515D01*
X137714540Y-81019660D01*
X137656367Y-80961487D01*
X137656365Y-80961485D01*
X137590750Y-80923602D01*
X137525136Y-80885719D01*
X137451950Y-80866109D01*
X137378766Y-80846500D01*
X137227234Y-80846500D01*
X137080863Y-80885719D01*
X136949635Y-80961485D01*
X136943189Y-80966432D01*
X136941099Y-80963709D01*
X136893217Y-80989466D01*
X136823558Y-80984043D01*
X136767888Y-80941821D01*
X136762299Y-80932976D01*
X136649751Y-80764537D01*
X136649748Y-80764533D01*
X136510466Y-80625251D01*
X136510462Y-80625248D01*
X136346684Y-80515814D01*
X136346671Y-80515807D01*
X136164691Y-80440429D01*
X136164683Y-80440427D01*
X136123000Y-80432135D01*
X136123000Y-81235011D01*
X136113060Y-81217795D01*
X136057205Y-81161940D01*
X135988796Y-81122444D01*
X135912496Y-81102000D01*
X135833504Y-81102000D01*
X135757204Y-81122444D01*
X135688795Y-81161940D01*
X135632940Y-81217795D01*
X135623000Y-81235011D01*
X135623000Y-80432136D01*
X135622999Y-80432135D01*
X135581316Y-80440427D01*
X135581308Y-80440429D01*
X135399328Y-80515807D01*
X135399315Y-80515814D01*
X135235537Y-80625248D01*
X135235533Y-80625251D01*
X135096251Y-80764533D01*
X135096248Y-80764537D01*
X134986814Y-80928315D01*
X134986807Y-80928328D01*
X134911430Y-81110306D01*
X134911427Y-81110318D01*
X134873000Y-81303504D01*
X134165818Y-81303504D01*
X134157547Y-81292455D01*
X134157544Y-81292452D01*
X134042335Y-81206206D01*
X134042328Y-81206202D01*
X133907482Y-81155908D01*
X133907483Y-81155908D01*
X133847883Y-81149501D01*
X133847881Y-81149500D01*
X133847873Y-81149500D01*
X133847864Y-81149500D01*
X132052129Y-81149500D01*
X132052123Y-81149501D01*
X131992516Y-81155908D01*
X131857671Y-81206202D01*
X131857664Y-81206206D01*
X131742455Y-81292452D01*
X131742452Y-81292455D01*
X131656206Y-81407664D01*
X131656202Y-81407671D01*
X131606997Y-81539598D01*
X131565126Y-81595532D01*
X131499661Y-81619949D01*
X131431388Y-81605097D01*
X131403134Y-81583946D01*
X131281082Y-81461894D01*
X131087578Y-81326399D01*
X130873492Y-81226570D01*
X130873486Y-81226567D01*
X130660000Y-81169364D01*
X130660000Y-82066988D01*
X130602993Y-82034075D01*
X130475826Y-82000000D01*
X130344174Y-82000000D01*
X130217007Y-82034075D01*
X130160000Y-82066988D01*
X130160000Y-81169364D01*
X130159999Y-81169364D01*
X129946513Y-81226567D01*
X129946507Y-81226570D01*
X129732422Y-81326399D01*
X129732420Y-81326400D01*
X129538926Y-81461886D01*
X129538920Y-81461891D01*
X129371891Y-81628920D01*
X129371890Y-81628922D01*
X129260466Y-81788051D01*
X129205888Y-81831676D01*
X129136390Y-81838868D01*
X129074035Y-81807346D01*
X129038622Y-81747116D01*
X129034891Y-81716793D01*
X129039824Y-77373504D01*
X134873000Y-77373504D01*
X134873000Y-77522000D01*
X135573000Y-77522000D01*
X135573000Y-78022000D01*
X134873000Y-78022000D01*
X134873000Y-78170495D01*
X134911427Y-78363681D01*
X134911430Y-78363693D01*
X134986807Y-78545671D01*
X134986814Y-78545684D01*
X135096248Y-78709462D01*
X135096251Y-78709466D01*
X135235533Y-78848748D01*
X135235537Y-78848751D01*
X135399315Y-78958185D01*
X135399328Y-78958192D01*
X135581308Y-79033569D01*
X135623000Y-79041862D01*
X135623000Y-78238988D01*
X135632940Y-78256205D01*
X135688795Y-78312060D01*
X135757204Y-78351556D01*
X135833504Y-78372000D01*
X135912496Y-78372000D01*
X135988796Y-78351556D01*
X136057205Y-78312060D01*
X136113060Y-78256205D01*
X136123000Y-78238988D01*
X136123000Y-79041862D01*
X136164690Y-79033569D01*
X136164692Y-79033569D01*
X136346671Y-78958192D01*
X136346684Y-78958185D01*
X136510462Y-78848751D01*
X136510466Y-78848748D01*
X136649748Y-78709466D01*
X136649751Y-78709462D01*
X136759185Y-78545684D01*
X136759192Y-78545671D01*
X136834569Y-78363693D01*
X136834572Y-78363681D01*
X136872999Y-78170495D01*
X136873000Y-78170492D01*
X136873000Y-78022000D01*
X136173000Y-78022000D01*
X136173000Y-77522000D01*
X136873000Y-77522000D01*
X136873000Y-77373508D01*
X136872999Y-77373504D01*
X143513000Y-77373504D01*
X143513000Y-77522000D01*
X144213000Y-77522000D01*
X144213000Y-78022000D01*
X143513000Y-78022000D01*
X143513000Y-78170495D01*
X143551427Y-78363681D01*
X143551430Y-78363693D01*
X143626807Y-78545671D01*
X143626814Y-78545684D01*
X143736248Y-78709462D01*
X143736251Y-78709466D01*
X143875533Y-78848748D01*
X143875537Y-78848751D01*
X144039315Y-78958185D01*
X144039328Y-78958192D01*
X144221308Y-79033569D01*
X144263000Y-79041862D01*
X144263000Y-78238988D01*
X144272940Y-78256205D01*
X144328795Y-78312060D01*
X144397204Y-78351556D01*
X144473504Y-78372000D01*
X144552496Y-78372000D01*
X144628796Y-78351556D01*
X144697205Y-78312060D01*
X144753060Y-78256205D01*
X144763000Y-78238988D01*
X144763000Y-79041862D01*
X144804690Y-79033569D01*
X144804692Y-79033569D01*
X144986671Y-78958192D01*
X144986684Y-78958185D01*
X145150462Y-78848751D01*
X145150466Y-78848748D01*
X145289748Y-78709466D01*
X145289751Y-78709462D01*
X145399185Y-78545684D01*
X145399192Y-78545671D01*
X145474569Y-78363693D01*
X145474572Y-78363681D01*
X145512999Y-78170495D01*
X145513000Y-78170492D01*
X145513000Y-78022000D01*
X144813000Y-78022000D01*
X144813000Y-77522000D01*
X145513000Y-77522000D01*
X145513000Y-77373508D01*
X145512999Y-77373504D01*
X145474572Y-77180318D01*
X145474569Y-77180306D01*
X145399192Y-76998328D01*
X145399185Y-76998315D01*
X145289751Y-76834537D01*
X145289748Y-76834533D01*
X145150466Y-76695251D01*
X145150462Y-76695248D01*
X144986684Y-76585814D01*
X144986671Y-76585807D01*
X144804691Y-76510429D01*
X144804683Y-76510427D01*
X144763000Y-76502135D01*
X144763000Y-77305011D01*
X144753060Y-77287795D01*
X144697205Y-77231940D01*
X144628796Y-77192444D01*
X144552496Y-77172000D01*
X144473504Y-77172000D01*
X144397204Y-77192444D01*
X144328795Y-77231940D01*
X144272940Y-77287795D01*
X144263000Y-77305011D01*
X144263000Y-76502136D01*
X144262999Y-76502135D01*
X144221316Y-76510427D01*
X144221308Y-76510429D01*
X144039328Y-76585807D01*
X144039315Y-76585814D01*
X143875537Y-76695248D01*
X143875533Y-76695251D01*
X143736251Y-76834533D01*
X143736248Y-76834537D01*
X143626814Y-76998315D01*
X143626807Y-76998328D01*
X143551430Y-77180306D01*
X143551427Y-77180318D01*
X143513000Y-77373504D01*
X136872999Y-77373504D01*
X136834572Y-77180318D01*
X136834569Y-77180306D01*
X136759192Y-76998328D01*
X136759185Y-76998315D01*
X136649751Y-76834537D01*
X136649748Y-76834533D01*
X136510466Y-76695251D01*
X136510462Y-76695248D01*
X136346684Y-76585814D01*
X136346671Y-76585807D01*
X136164691Y-76510429D01*
X136164683Y-76510427D01*
X136123000Y-76502135D01*
X136123000Y-77305011D01*
X136113060Y-77287795D01*
X136057205Y-77231940D01*
X135988796Y-77192444D01*
X135912496Y-77172000D01*
X135833504Y-77172000D01*
X135757204Y-77192444D01*
X135688795Y-77231940D01*
X135632940Y-77287795D01*
X135623000Y-77305011D01*
X135623000Y-76502136D01*
X135622999Y-76502135D01*
X135581316Y-76510427D01*
X135581308Y-76510429D01*
X135399328Y-76585807D01*
X135399315Y-76585814D01*
X135235537Y-76695248D01*
X135235533Y-76695251D01*
X135096251Y-76834533D01*
X135096248Y-76834537D01*
X134986814Y-76998315D01*
X134986807Y-76998328D01*
X134911430Y-77180306D01*
X134911427Y-77180318D01*
X134873000Y-77373504D01*
X129039824Y-77373504D01*
X129039981Y-77235265D01*
X129040064Y-77234039D01*
X129040064Y-77226566D01*
X129040064Y-77166072D01*
X129040534Y-77155305D01*
X129053708Y-77004785D01*
X129057462Y-76983506D01*
X129057475Y-76983459D01*
X129095158Y-76842833D01*
X129102544Y-76822541D01*
X129164101Y-76690541D01*
X129174897Y-76671841D01*
X129258441Y-76552531D01*
X129272323Y-76535988D01*
X129375312Y-76433002D01*
X129391848Y-76419127D01*
X129511159Y-76335586D01*
X129529863Y-76324787D01*
X129661865Y-76263235D01*
X129682162Y-76255848D01*
X129822839Y-76218154D01*
X129844117Y-76214403D01*
X129900097Y-76209506D01*
X129995069Y-76201198D01*
X130005875Y-76200726D01*
X130072293Y-76200726D01*
X130075739Y-76200500D01*
X147934108Y-76200500D01*
X147994588Y-76200500D01*
X148005395Y-76200972D01*
G37*
%TD.AperFunction*%
%TA.AperFunction,Conductor*%
G36*
X130685000Y-87730633D02*
G01*
X130898483Y-87673433D01*
X130898492Y-87673429D01*
X131064927Y-87595820D01*
X131134005Y-87585328D01*
X131197789Y-87613848D01*
X131236028Y-87672324D01*
X131237098Y-87676077D01*
X131251510Y-87729863D01*
X131263770Y-87775618D01*
X131265423Y-87781785D01*
X131270109Y-87789901D01*
X131275651Y-87799500D01*
X131344477Y-87918712D01*
X131344481Y-87918717D01*
X131463349Y-88037585D01*
X131463354Y-88037589D01*
X132163585Y-88737820D01*
X132197069Y-88799142D01*
X132192085Y-88868834D01*
X132150213Y-88924767D01*
X132084749Y-88949184D01*
X132079576Y-88949370D01*
X132077123Y-88949501D01*
X132017516Y-88955908D01*
X131882671Y-89006202D01*
X131882664Y-89006206D01*
X131767455Y-89092452D01*
X131767452Y-89092455D01*
X131681206Y-89207664D01*
X131681202Y-89207671D01*
X131631997Y-89339598D01*
X131590126Y-89395532D01*
X131524661Y-89419949D01*
X131456388Y-89405097D01*
X131428134Y-89383946D01*
X131306082Y-89261894D01*
X131112578Y-89126399D01*
X130898492Y-89026570D01*
X130898486Y-89026567D01*
X130685000Y-88969364D01*
X130685000Y-89866988D01*
X130627993Y-89834075D01*
X130500826Y-89800000D01*
X130369174Y-89800000D01*
X130242007Y-89834075D01*
X130185000Y-89866988D01*
X130185000Y-88969364D01*
X130184999Y-88969364D01*
X129971513Y-89026567D01*
X129971507Y-89026570D01*
X129757422Y-89126399D01*
X129757420Y-89126400D01*
X129563926Y-89261886D01*
X129563920Y-89261891D01*
X129396891Y-89428920D01*
X129396886Y-89428926D01*
X129261400Y-89622420D01*
X129258692Y-89627112D01*
X129257192Y-89626246D01*
X129216152Y-89672827D01*
X129148952Y-89691958D01*
X129082078Y-89671721D01*
X129036760Y-89618541D01*
X129025975Y-89567824D01*
X129028736Y-87137225D01*
X129048497Y-87070209D01*
X129101353Y-87024514D01*
X129170522Y-87014649D01*
X129234045Y-87043746D01*
X129258291Y-87073146D01*
X129258295Y-87073144D01*
X129258327Y-87073190D01*
X129260125Y-87075370D01*
X129261399Y-87077577D01*
X129396894Y-87271082D01*
X129563917Y-87438105D01*
X129757421Y-87573600D01*
X129971507Y-87673429D01*
X129971516Y-87673433D01*
X130185000Y-87730634D01*
X130185000Y-86833012D01*
X130242007Y-86865925D01*
X130369174Y-86900000D01*
X130500826Y-86900000D01*
X130627993Y-86865925D01*
X130685000Y-86833012D01*
X130685000Y-87730633D01*
G37*
%TD.AperFunction*%
%TA.AperFunction,Conductor*%
G36*
X130660000Y-83830633D02*
G01*
X130873483Y-83773433D01*
X130873492Y-83773429D01*
X131087578Y-83673600D01*
X131281078Y-83538108D01*
X131403133Y-83416053D01*
X131464456Y-83382568D01*
X131534148Y-83387552D01*
X131590082Y-83429423D01*
X131606997Y-83460401D01*
X131656202Y-83592328D01*
X131656206Y-83592335D01*
X131742452Y-83707544D01*
X131742455Y-83707547D01*
X131857664Y-83793793D01*
X131857671Y-83793797D01*
X131872962Y-83799500D01*
X131992517Y-83844091D01*
X132052127Y-83850500D01*
X132075900Y-83850499D01*
X132142938Y-83870181D01*
X132188694Y-83922983D01*
X132198641Y-83992142D01*
X132169618Y-84055698D01*
X132163583Y-84062180D01*
X131456286Y-84769478D01*
X131344481Y-84881282D01*
X131344479Y-84881284D01*
X131338447Y-84891733D01*
X131304402Y-84950702D01*
X131291409Y-84973206D01*
X131265423Y-85018213D01*
X131237107Y-85123891D01*
X131200741Y-85183552D01*
X131137894Y-85214080D01*
X131068519Y-85205785D01*
X131064928Y-85204179D01*
X130898497Y-85126571D01*
X130898486Y-85126567D01*
X130685000Y-85069364D01*
X130685000Y-85966988D01*
X130627993Y-85934075D01*
X130500826Y-85900000D01*
X130369174Y-85900000D01*
X130242007Y-85934075D01*
X130185000Y-85966988D01*
X130185000Y-85069364D01*
X130184999Y-85069364D01*
X129971513Y-85126567D01*
X129971507Y-85126570D01*
X129757422Y-85226399D01*
X129757420Y-85226400D01*
X129563926Y-85361886D01*
X129563920Y-85361891D01*
X129396891Y-85528920D01*
X129396886Y-85528926D01*
X129258295Y-85726856D01*
X129257217Y-85726101D01*
X129211221Y-85769948D01*
X129142612Y-85783163D01*
X129077751Y-85757187D01*
X129037229Y-85700268D01*
X129030414Y-85659585D01*
X129030459Y-85620452D01*
X129033116Y-83280395D01*
X129052877Y-83213379D01*
X129105733Y-83167684D01*
X129174902Y-83157819D01*
X129238425Y-83186916D01*
X129258691Y-83209413D01*
X129371894Y-83371082D01*
X129538917Y-83538105D01*
X129732421Y-83673600D01*
X129946507Y-83773429D01*
X129946516Y-83773433D01*
X130160000Y-83830634D01*
X130160000Y-82933012D01*
X130217007Y-82965925D01*
X130344174Y-83000000D01*
X130475826Y-83000000D01*
X130602993Y-82965925D01*
X130660000Y-82933012D01*
X130660000Y-83830633D01*
G37*
%TD.AperFunction*%
%TD*%
%TA.AperFunction,Conductor*%
%TO.N,VOUT*%
G36*
X141786944Y-97319685D02*
G01*
X141807581Y-97336314D01*
X141862402Y-97391135D01*
X142000607Y-97472869D01*
X142041268Y-97484682D01*
X142154791Y-97517664D01*
X142154794Y-97517664D01*
X142154796Y-97517665D01*
X142190819Y-97520500D01*
X142589180Y-97520499D01*
X142625204Y-97517665D01*
X142641405Y-97512958D01*
X142711273Y-97513157D01*
X142769943Y-97551098D01*
X142798788Y-97614736D01*
X142800000Y-97632034D01*
X142800000Y-101676000D01*
X142780315Y-101743039D01*
X142727511Y-101788794D01*
X142676000Y-101800000D01*
X139000000Y-101800000D01*
X139000000Y-108876000D01*
X138980315Y-108943039D01*
X138927511Y-108988794D01*
X138876000Y-109000000D01*
X132722271Y-109000000D01*
X132655232Y-108980315D01*
X132609477Y-108927511D01*
X132599533Y-108858353D01*
X132628558Y-108794797D01*
X132683267Y-108758294D01*
X132848481Y-108703547D01*
X132848492Y-108703542D01*
X132992728Y-108614575D01*
X132992732Y-108614572D01*
X133112572Y-108494732D01*
X133112575Y-108494728D01*
X133201542Y-108350492D01*
X133201547Y-108350481D01*
X133254855Y-108189606D01*
X133264999Y-108090322D01*
X133265000Y-108090309D01*
X133265000Y-108042000D01*
X132189000Y-108042000D01*
X132121961Y-108022315D01*
X132076206Y-107969511D01*
X132065000Y-107918000D01*
X132065000Y-107542000D01*
X132565000Y-107542000D01*
X133264999Y-107542000D01*
X133264999Y-107493692D01*
X133264998Y-107493677D01*
X133254855Y-107394392D01*
X133201547Y-107233518D01*
X133201542Y-107233507D01*
X133112575Y-107089271D01*
X133112572Y-107089267D01*
X132992732Y-106969427D01*
X132992728Y-106969424D01*
X132848492Y-106880457D01*
X132848481Y-106880452D01*
X132687606Y-106827144D01*
X132588322Y-106817000D01*
X132565000Y-106817000D01*
X132565000Y-107542000D01*
X132065000Y-107542000D01*
X132065000Y-106816999D01*
X132041693Y-106817000D01*
X132041674Y-106817001D01*
X131942392Y-106827144D01*
X131781514Y-106880454D01*
X131776399Y-106882839D01*
X131707321Y-106893327D01*
X131643538Y-106864804D01*
X131605302Y-106806325D01*
X131600000Y-106770454D01*
X131600000Y-105803545D01*
X131619685Y-105736506D01*
X131672489Y-105690751D01*
X131741647Y-105680807D01*
X131776407Y-105691164D01*
X131781516Y-105693546D01*
X131942393Y-105746855D01*
X132041683Y-105756999D01*
X132565000Y-105756999D01*
X132588308Y-105756999D01*
X132588322Y-105756998D01*
X132687607Y-105746855D01*
X132848481Y-105693547D01*
X132848492Y-105693542D01*
X132992728Y-105604575D01*
X132992732Y-105604572D01*
X133112572Y-105484732D01*
X133112575Y-105484728D01*
X133201542Y-105340492D01*
X133201547Y-105340481D01*
X133254855Y-105179606D01*
X133264999Y-105080322D01*
X133265000Y-105080309D01*
X133265000Y-105032000D01*
X132565000Y-105032000D01*
X132565000Y-105756999D01*
X132041683Y-105756999D01*
X132065000Y-105756998D01*
X132065000Y-104799998D01*
X134494891Y-104799998D01*
X134494891Y-104800001D01*
X134515300Y-105085362D01*
X134576109Y-105364895D01*
X134676091Y-105632958D01*
X134813191Y-105884038D01*
X134813196Y-105884046D01*
X134919882Y-106026561D01*
X134919883Y-106026562D01*
X135814767Y-105131677D01*
X135826497Y-105159995D01*
X135909670Y-105284472D01*
X136015528Y-105390330D01*
X136140005Y-105473503D01*
X136168320Y-105485231D01*
X135273436Y-106380115D01*
X135415960Y-106486807D01*
X135415961Y-106486808D01*
X135667042Y-106623908D01*
X135667041Y-106623908D01*
X135935104Y-106723890D01*
X136214637Y-106784699D01*
X136499999Y-106805109D01*
X136500001Y-106805109D01*
X136785362Y-106784699D01*
X137064895Y-106723890D01*
X137332958Y-106623908D01*
X137584047Y-106486803D01*
X137726561Y-106380116D01*
X137726562Y-106380115D01*
X136831679Y-105485231D01*
X136859995Y-105473503D01*
X136984472Y-105390330D01*
X137090330Y-105284472D01*
X137173503Y-105159995D01*
X137185231Y-105131678D01*
X138080115Y-106026562D01*
X138080116Y-106026561D01*
X138186803Y-105884047D01*
X138323908Y-105632958D01*
X138423890Y-105364895D01*
X138484699Y-105085362D01*
X138505109Y-104800001D01*
X138505109Y-104799998D01*
X138484699Y-104514637D01*
X138423890Y-104235104D01*
X138323908Y-103967041D01*
X138186808Y-103715961D01*
X138186807Y-103715960D01*
X138080115Y-103573436D01*
X137185231Y-104468320D01*
X137173503Y-104440005D01*
X137090330Y-104315528D01*
X136984472Y-104209670D01*
X136859995Y-104126497D01*
X136831678Y-104114767D01*
X137726562Y-103219883D01*
X137726561Y-103219882D01*
X137584046Y-103113196D01*
X137584038Y-103113191D01*
X137332957Y-102976091D01*
X137332958Y-102976091D01*
X137064895Y-102876109D01*
X136785362Y-102815300D01*
X136500001Y-102794891D01*
X136499999Y-102794891D01*
X136214637Y-102815300D01*
X135935104Y-102876109D01*
X135667041Y-102976091D01*
X135415961Y-103113191D01*
X135415953Y-103113196D01*
X135273437Y-103219882D01*
X135273436Y-103219883D01*
X136168321Y-104114767D01*
X136140005Y-104126497D01*
X136015528Y-104209670D01*
X135909670Y-104315528D01*
X135826497Y-104440005D01*
X135814768Y-104468321D01*
X134919883Y-103573436D01*
X134919882Y-103573437D01*
X134813196Y-103715953D01*
X134813191Y-103715961D01*
X134676091Y-103967041D01*
X134576109Y-104235104D01*
X134515300Y-104514637D01*
X134494891Y-104799998D01*
X132065000Y-104799998D01*
X132065000Y-104532000D01*
X132565000Y-104532000D01*
X133264999Y-104532000D01*
X133264999Y-104483692D01*
X133264998Y-104483677D01*
X133254855Y-104384392D01*
X133201547Y-104223518D01*
X133201542Y-104223507D01*
X133112575Y-104079271D01*
X133112572Y-104079267D01*
X132992732Y-103959427D01*
X132992728Y-103959424D01*
X132848492Y-103870457D01*
X132848481Y-103870452D01*
X132687606Y-103817144D01*
X132588322Y-103807000D01*
X132565000Y-103807000D01*
X132565000Y-104532000D01*
X132065000Y-104532000D01*
X132065000Y-103806999D01*
X132041693Y-103807000D01*
X132041674Y-103807001D01*
X131942392Y-103817144D01*
X131781514Y-103870454D01*
X131776399Y-103872839D01*
X131707321Y-103883327D01*
X131643538Y-103854804D01*
X131605302Y-103796325D01*
X131600000Y-103760454D01*
X131600000Y-102793545D01*
X131619685Y-102726506D01*
X131672489Y-102680751D01*
X131741647Y-102670807D01*
X131776407Y-102681164D01*
X131781516Y-102683546D01*
X131942393Y-102736855D01*
X132041683Y-102746999D01*
X132565000Y-102746999D01*
X132588308Y-102746999D01*
X132588322Y-102746998D01*
X132687607Y-102736855D01*
X132848481Y-102683547D01*
X132848492Y-102683542D01*
X132992728Y-102594575D01*
X132992732Y-102594572D01*
X133112572Y-102474732D01*
X133112575Y-102474728D01*
X133201542Y-102330492D01*
X133201547Y-102330481D01*
X133254855Y-102169606D01*
X133264999Y-102070322D01*
X133265000Y-102070309D01*
X133265000Y-102022000D01*
X132565000Y-102022000D01*
X132565000Y-102746999D01*
X132041683Y-102746999D01*
X132065000Y-102746998D01*
X132065000Y-101522000D01*
X132565000Y-101522000D01*
X133264999Y-101522000D01*
X133264999Y-101473692D01*
X133264998Y-101473677D01*
X133254855Y-101374392D01*
X133201547Y-101213518D01*
X133201542Y-101213507D01*
X133112575Y-101069271D01*
X133112572Y-101069267D01*
X132992732Y-100949427D01*
X132992728Y-100949424D01*
X132848492Y-100860457D01*
X132848481Y-100860452D01*
X132687606Y-100807144D01*
X132588322Y-100797000D01*
X132565000Y-100797000D01*
X132565000Y-101522000D01*
X132065000Y-101522000D01*
X132065000Y-100796999D01*
X132041693Y-100797000D01*
X132041674Y-100797001D01*
X131942392Y-100807144D01*
X131781514Y-100860454D01*
X131776399Y-100862839D01*
X131707321Y-100873327D01*
X131643538Y-100844804D01*
X131605302Y-100786325D01*
X131600000Y-100750454D01*
X131600000Y-100624000D01*
X131619685Y-100556961D01*
X131672489Y-100511206D01*
X131724000Y-100500000D01*
X135900000Y-100500000D01*
X135900000Y-99584244D01*
X136415600Y-99584244D01*
X136422001Y-99643772D01*
X136422003Y-99643779D01*
X136472245Y-99778486D01*
X136472249Y-99778493D01*
X136558409Y-99893587D01*
X136558412Y-99893590D01*
X136673506Y-99979750D01*
X136673513Y-99979754D01*
X136808220Y-100029996D01*
X136808227Y-100029998D01*
X136867755Y-100036399D01*
X136867772Y-100036400D01*
X136945000Y-100036400D01*
X137445000Y-100036400D01*
X137522228Y-100036400D01*
X137522244Y-100036399D01*
X137581772Y-100029998D01*
X137581776Y-100029997D01*
X137716488Y-99979752D01*
X137716489Y-99979751D01*
X137755688Y-99950407D01*
X137821152Y-99925989D01*
X137889425Y-99940840D01*
X137904312Y-99950407D01*
X137943510Y-99979751D01*
X137943511Y-99979752D01*
X138078223Y-100029997D01*
X138078227Y-100029998D01*
X138137755Y-100036399D01*
X138137772Y-100036400D01*
X138215000Y-100036400D01*
X138715000Y-100036400D01*
X138792228Y-100036400D01*
X138792244Y-100036399D01*
X138851772Y-100029998D01*
X138851776Y-100029997D01*
X138986488Y-99979752D01*
X138986489Y-99979751D01*
X139025688Y-99950407D01*
X139091152Y-99925989D01*
X139159425Y-99940840D01*
X139174312Y-99950407D01*
X139213510Y-99979751D01*
X139213511Y-99979752D01*
X139348223Y-100029997D01*
X139348227Y-100029998D01*
X139407755Y-100036399D01*
X139407772Y-100036400D01*
X139485000Y-100036400D01*
X139985000Y-100036400D01*
X140062228Y-100036400D01*
X140062244Y-100036399D01*
X140121772Y-100029998D01*
X140121776Y-100029997D01*
X140256488Y-99979752D01*
X140256489Y-99979751D01*
X140295688Y-99950407D01*
X140361152Y-99925989D01*
X140429425Y-99940840D01*
X140444312Y-99950407D01*
X140483510Y-99979751D01*
X140483511Y-99979752D01*
X140618223Y-100029997D01*
X140618227Y-100029998D01*
X140677755Y-100036399D01*
X140677772Y-100036400D01*
X140755000Y-100036400D01*
X141255000Y-100036400D01*
X141332228Y-100036400D01*
X141332244Y-100036399D01*
X141391772Y-100029998D01*
X141391779Y-100029996D01*
X141526486Y-99979754D01*
X141526493Y-99979750D01*
X141641587Y-99893590D01*
X141641590Y-99893587D01*
X141727750Y-99778493D01*
X141727754Y-99778486D01*
X141777996Y-99643779D01*
X141777998Y-99643772D01*
X141784399Y-99584244D01*
X141784400Y-99584227D01*
X141784400Y-99056150D01*
X141255000Y-99056150D01*
X141255000Y-100036400D01*
X140755000Y-100036400D01*
X140755000Y-99056150D01*
X139985000Y-99056150D01*
X139985000Y-100036400D01*
X139485000Y-100036400D01*
X139485000Y-99056150D01*
X138715000Y-99056150D01*
X138715000Y-100036400D01*
X138215000Y-100036400D01*
X138215000Y-99056150D01*
X137445000Y-99056150D01*
X137445000Y-100036400D01*
X136945000Y-100036400D01*
X136945000Y-99056150D01*
X136415600Y-99056150D01*
X136415600Y-99584244D01*
X135900000Y-99584244D01*
X135900000Y-98625096D01*
X135919685Y-98558057D01*
X135936319Y-98537415D01*
X136036130Y-98437603D01*
X136036135Y-98437598D01*
X136117869Y-98299393D01*
X136162665Y-98145204D01*
X136165500Y-98109181D01*
X136165500Y-98028055D01*
X136415600Y-98028055D01*
X136415600Y-98556150D01*
X136945000Y-98556150D01*
X137445000Y-98556150D01*
X138215000Y-98556150D01*
X138715000Y-98556150D01*
X139485000Y-98556150D01*
X139985000Y-98556150D01*
X140755000Y-98556150D01*
X141255000Y-98556150D01*
X141784400Y-98556150D01*
X141784400Y-98028072D01*
X141784399Y-98028055D01*
X141777998Y-97968527D01*
X141777996Y-97968520D01*
X141727754Y-97833813D01*
X141727750Y-97833806D01*
X141641590Y-97718712D01*
X141641587Y-97718709D01*
X141526493Y-97632549D01*
X141526486Y-97632545D01*
X141391779Y-97582303D01*
X141391772Y-97582301D01*
X141332244Y-97575900D01*
X141255000Y-97575900D01*
X141255000Y-98556150D01*
X140755000Y-98556150D01*
X140755000Y-97575900D01*
X140677755Y-97575900D01*
X140618227Y-97582301D01*
X140618220Y-97582303D01*
X140483513Y-97632545D01*
X140483510Y-97632547D01*
X140444311Y-97661892D01*
X140378846Y-97686309D01*
X140310574Y-97671457D01*
X140295689Y-97661892D01*
X140256489Y-97632547D01*
X140256486Y-97632545D01*
X140121779Y-97582303D01*
X140121772Y-97582301D01*
X140062244Y-97575900D01*
X139985000Y-97575900D01*
X139985000Y-98556150D01*
X139485000Y-98556150D01*
X139485000Y-97575900D01*
X139407755Y-97575900D01*
X139348227Y-97582301D01*
X139348220Y-97582303D01*
X139213513Y-97632545D01*
X139213510Y-97632547D01*
X139174311Y-97661892D01*
X139108846Y-97686309D01*
X139040574Y-97671457D01*
X139025689Y-97661892D01*
X138986489Y-97632547D01*
X138986486Y-97632545D01*
X138851779Y-97582303D01*
X138851772Y-97582301D01*
X138792244Y-97575900D01*
X138715000Y-97575900D01*
X138715000Y-98556150D01*
X138215000Y-98556150D01*
X138215000Y-97575900D01*
X138137755Y-97575900D01*
X138078227Y-97582301D01*
X138078220Y-97582303D01*
X137943513Y-97632545D01*
X137943510Y-97632547D01*
X137904311Y-97661892D01*
X137838846Y-97686309D01*
X137770574Y-97671457D01*
X137755689Y-97661892D01*
X137716489Y-97632547D01*
X137716486Y-97632545D01*
X137581779Y-97582303D01*
X137581772Y-97582301D01*
X137522244Y-97575900D01*
X137445000Y-97575900D01*
X137445000Y-98556150D01*
X136945000Y-98556150D01*
X136945000Y-97575900D01*
X136867755Y-97575900D01*
X136808227Y-97582301D01*
X136808220Y-97582303D01*
X136673513Y-97632545D01*
X136673506Y-97632549D01*
X136558412Y-97718709D01*
X136558409Y-97718712D01*
X136472249Y-97833806D01*
X136472245Y-97833813D01*
X136422003Y-97968520D01*
X136422001Y-97968527D01*
X136415600Y-98028055D01*
X136165500Y-98028055D01*
X136165499Y-97710820D01*
X136162665Y-97674796D01*
X136117869Y-97520607D01*
X136098064Y-97487119D01*
X136080882Y-97419398D01*
X136103042Y-97353135D01*
X136157507Y-97309371D01*
X136204797Y-97300000D01*
X141719905Y-97300000D01*
X141786944Y-97319685D01*
G37*
%TD.AperFunction*%
%TD*%
M02*
