M48
; DRILL file {KiCad 8.0.6} date 2024-11-25T20:31:23+0100
; FORMAT={-:-/ absolute / inch / decimal}
; #@! TF.CreationDate,2024-11-25T20:31:23+01:00
; #@! TF.GenerationSoftware,Kicad,Pcbnew,8.0.6
; #@! TF.FileFunction,Plated,1,2,PTH
FMAT,2
INCH
; #@! TA.AperFunction,Plated,PTH,ViaDrill
T1C0.0118
; #@! TA.AperFunction,Plated,PTH,ComponentDrill
T2C0.0236
; #@! TA.AperFunction,Plated,PTH,ComponentDrill
T3C0.0394
; #@! TA.AperFunction,Plated,PTH,ComponentDrill
T4C0.0598
%
G90
G05
T1
X5.2496Y-3.9993
X5.2496Y-4.2355
X5.2582Y-4.126
X5.3579Y-3.6059
X5.391Y-3.6063
X5.4016Y-3.9562
X5.4252Y-3.3064
X5.4284Y-3.3634
X5.4567Y-3.2047
X5.4567Y-3.6253
X5.4567Y-3.9562
X5.4724Y-3.3359
X5.4724Y-3.3851
X5.4948Y-3.2074
X5.5039Y-3.6253
X5.5039Y-3.9562
X5.5512Y-3.3536
X5.5512Y-3.6253
X5.5512Y-3.9562
X5.6063Y-3.563
X5.6063Y-3.6181
X5.6142Y-3.3103
X5.6535Y-3.3346
T3
X5.1343Y-3.248
X5.1352Y-3.4016
X5.1352Y-3.5551
X5.1352Y-3.7047
X5.1352Y-3.8543
X5.174Y-4.3856
X5.2343Y-3.248
X5.2352Y-3.4016
X5.2352Y-3.5551
X5.2352Y-3.7047
X5.2352Y-3.8543
X5.274Y-4.3856
X5.374Y-4.3856
X5.574Y-4.3856
X5.674Y-4.3856
X5.7075Y-3.472
X5.7087Y-3.6614
X5.774Y-4.3856
X5.8075Y-3.472
X5.8087Y-3.6614
T4
X5.374Y-4.126
X5.574Y-4.126
T2
G00X5.3493Y-3.0737
M15
G01X5.3493Y-3.0501
M16
G05
G00X5.3493Y-3.2481
M15
G01X5.3493Y-3.2048
M16
G05
G00X5.6895Y-3.0737
M15
G01X5.6895Y-3.0501
M16
G05
G00X5.6895Y-3.2481
M15
G01X5.6895Y-3.2048
M16
G05
M30
