%TF.GenerationSoftware,KiCad,Pcbnew,8.0.6*%
%TF.CreationDate,2024-11-25T20:31:32+01:00*%
%TF.ProjectId,PD_trigger-board,50445f74-7269-4676-9765-722d626f6172,rev?*%
%TF.SameCoordinates,Original*%
%TF.FileFunction,Paste,Top*%
%TF.FilePolarity,Positive*%
%FSLAX46Y46*%
G04 Gerber Fmt 4.6, Leading zero omitted, Abs format (unit mm)*
G04 Created by KiCad (PCBNEW 8.0.6) date 2024-11-25 20:31:32*
%MOMM*%
%LPD*%
G01*
G04 APERTURE LIST*
G04 Aperture macros list*
%AMRoundRect*
0 Rectangle with rounded corners*
0 $1 Rounding radius*
0 $2 $3 $4 $5 $6 $7 $8 $9 X,Y pos of 4 corners*
0 Add a 4 corners polygon primitive as box body*
4,1,4,$2,$3,$4,$5,$6,$7,$8,$9,$2,$3,0*
0 Add four circle primitives for the rounded corners*
1,1,$1+$1,$2,$3*
1,1,$1+$1,$4,$5*
1,1,$1+$1,$6,$7*
1,1,$1+$1,$8,$9*
0 Add four rect primitives between the rounded corners*
20,1,$1+$1,$2,$3,$4,$5,0*
20,1,$1+$1,$4,$5,$6,$7,0*
20,1,$1+$1,$6,$7,$8,$9,0*
20,1,$1+$1,$8,$9,$2,$3,0*%
G04 Aperture macros list end*
%ADD10RoundRect,0.135000X-0.185000X0.135000X-0.185000X-0.135000X0.185000X-0.135000X0.185000X0.135000X0*%
%ADD11R,0.600000X1.450000*%
%ADD12R,0.300000X1.450000*%
%ADD13RoundRect,0.135000X0.135000X0.185000X-0.135000X0.185000X-0.135000X-0.185000X0.135000X-0.185000X0*%
%ADD14RoundRect,0.135000X-0.135000X-0.185000X0.135000X-0.185000X0.135000X0.185000X-0.135000X0.185000X0*%
%ADD15R,0.558800X1.460500*%
%ADD16RoundRect,0.225000X0.225000X0.250000X-0.225000X0.250000X-0.225000X-0.250000X0.225000X-0.250000X0*%
%ADD17R,1.050000X0.600000*%
%ADD18R,0.300000X0.650000*%
%ADD19RoundRect,0.225000X-0.250000X0.225000X-0.250000X-0.225000X0.250000X-0.225000X0.250000X0.225000X0*%
G04 APERTURE END LIST*
D10*
%TO.C,R5*%
X135375000Y-85380000D03*
X135375000Y-86400000D03*
%TD*%
%TO.C,R7*%
X135375000Y-93080000D03*
X135375000Y-94100000D03*
%TD*%
D11*
%TO.C,J1*%
X143443000Y-82867000D03*
X142643000Y-82867000D03*
D12*
X141443000Y-82867000D03*
X140443000Y-82867000D03*
X139943000Y-82867000D03*
X138943000Y-82867000D03*
D11*
X137743000Y-82867000D03*
X136943000Y-82867000D03*
X136943000Y-82867000D03*
X137743000Y-82867000D03*
D12*
X138443000Y-82867000D03*
X139443000Y-82867000D03*
X140943000Y-82867000D03*
X141943000Y-82867000D03*
D11*
X142643000Y-82867000D03*
X143443000Y-82867000D03*
%TD*%
D10*
%TO.C,R6*%
X135375000Y-89280000D03*
X135375000Y-90300000D03*
%TD*%
D13*
%TO.C,R3*%
X143410000Y-95700000D03*
X142390000Y-95700000D03*
%TD*%
D10*
%TO.C,R1*%
X140900000Y-86072000D03*
X140900000Y-87092000D03*
%TD*%
D14*
%TO.C,R2*%
X144540000Y-90600000D03*
X145560000Y-90600000D03*
%TD*%
D15*
%TO.C,U2*%
X141005000Y-93357850D03*
X139735000Y-93357850D03*
X138465000Y-93357850D03*
X137195000Y-93357850D03*
X137195000Y-98806150D03*
X138465000Y-98806150D03*
X139735000Y-98806150D03*
X141005000Y-98806150D03*
%TD*%
D16*
%TO.C,C2*%
X132315000Y-101772000D03*
X130765000Y-101772000D03*
%TD*%
D10*
%TO.C,R8*%
X135345000Y-96890000D03*
X135345000Y-97910000D03*
%TD*%
D17*
%TO.C,U1*%
X139020000Y-88207000D03*
X137780000Y-88207000D03*
X139020000Y-88982000D03*
X137780000Y-88982000D03*
D18*
X139400000Y-87044500D03*
X138900000Y-87044500D03*
X138400000Y-87044500D03*
X137900000Y-87044500D03*
X137400000Y-87044500D03*
X137400000Y-90144500D03*
X137900000Y-90144500D03*
X138400000Y-90144500D03*
X138900000Y-90144500D03*
X139400000Y-90144500D03*
%TD*%
D14*
%TO.C,R4*%
X142390000Y-96700000D03*
X143410000Y-96700000D03*
%TD*%
D16*
%TO.C,C4*%
X132315000Y-107792000D03*
X130765000Y-107792000D03*
%TD*%
%TO.C,C3*%
X132315000Y-104782000D03*
X130765000Y-104782000D03*
%TD*%
D19*
%TO.C,C1*%
X142200000Y-86725000D03*
X142200000Y-88275000D03*
%TD*%
M02*
