%TF.GenerationSoftware,KiCad,Pcbnew,8.0.7*%
%TF.CreationDate,2025-01-08T16:46:30+01:00*%
%TF.ProjectId,PD_trigger-board,50445f74-7269-4676-9765-722d626f6172,rev?*%
%TF.SameCoordinates,Original*%
%TF.FileFunction,Copper,L2,Bot*%
%TF.FilePolarity,Positive*%
%FSLAX46Y46*%
G04 Gerber Fmt 4.6, Leading zero omitted, Abs format (unit mm)*
G04 Created by KiCad (PCBNEW 8.0.7) date 2025-01-08 16:46:30*
%MOMM*%
%LPD*%
G01*
G04 APERTURE LIST*
%TA.AperFunction,ComponentPad*%
%ADD10R,2.760000X1.524000*%
%TD*%
%TA.AperFunction,ComponentPad*%
%ADD11C,1.524000*%
%TD*%
%TA.AperFunction,ViaPad*%
%ADD12C,0.600000*%
%TD*%
%TA.AperFunction,Conductor*%
%ADD13C,0.200000*%
%TD*%
%TA.AperFunction,Conductor*%
%ADD14C,0.500000*%
%TD*%
G04 APERTURE END LIST*
D10*
%TO.P,U3,1,SET_5V*%
%TO.N,VSET*%
X131081000Y-77597000D03*
D11*
X132461000Y-77597000D03*
D10*
%TO.P,U3,2,GND*%
%TO.N,GND*%
X131081000Y-80137000D03*
D11*
X132461000Y-80137000D03*
D10*
%TO.P,U3,3,SET_9V*%
%TO.N,Net-(U3-SET_9V)*%
X131081000Y-82677000D03*
D11*
X132461000Y-82677000D03*
D10*
%TO.P,U3,4,SET_12V*%
%TO.N,Net-(U3-SET_12V)*%
X131081000Y-85217000D03*
D11*
X132461000Y-85217000D03*
D10*
%TO.P,U3,5,GND*%
%TO.N,GND*%
X131098000Y-87757000D03*
D11*
X132461000Y-87757000D03*
D10*
%TO.P,U3,6,SET_15V*%
%TO.N,Net-(U3-SET_15V)*%
X131098000Y-90297000D03*
D11*
X132461000Y-90297000D03*
D10*
%TO.P,U3,7,SET_18V*%
%TO.N,Net-(U3-SET_18V)*%
X131098000Y-92837000D03*
D11*
X132461000Y-92837000D03*
D10*
%TO.P,U3,8,GND*%
%TO.N,GND*%
X131098000Y-95377000D03*
D11*
X132461000Y-95377000D03*
D10*
%TO.P,U3,9,SET_20V*%
%TO.N,unconnected-(U3-SET_20V-Pad9)*%
X131081000Y-97917000D03*
D11*
X132461000Y-97917000D03*
%TO.P,U3,10,GND*%
%TO.N,GND*%
X147701000Y-97917000D03*
D10*
X149081000Y-97917000D03*
D11*
%TO.P,U3,11,VOUT*%
%TO.N,VOUT*%
X147701000Y-95377000D03*
D10*
X149081000Y-95377000D03*
D11*
%TO.P,U3,12*%
%TO.N,unconnected-(U3-Pad12)*%
X147701000Y-92837000D03*
D10*
X149081000Y-92837000D03*
D11*
%TO.P,U3,13*%
%TO.N,unconnected-(U3-Pad13)*%
X147701000Y-90297000D03*
D10*
X149081000Y-90297000D03*
D11*
%TO.P,U3,14,SDA*%
%TO.N,SDA*%
X147701000Y-87757000D03*
D10*
X149064000Y-87757000D03*
D11*
%TO.P,U3,15,SCL*%
%TO.N,SCL*%
X147701000Y-85217000D03*
D10*
X149064000Y-85217000D03*
D11*
%TO.P,U3,16,GND*%
%TO.N,GND*%
X147701000Y-82677000D03*
D10*
X149064000Y-82677000D03*
D11*
%TO.P,U3,17,D-*%
%TO.N,D-*%
X147701000Y-80137000D03*
D10*
X149064000Y-80137000D03*
D11*
%TO.P,U3,18,D+*%
%TO.N,D+*%
X147701000Y-77597000D03*
D10*
X149081000Y-77597000D03*
%TD*%
D12*
%TO.N,GND*%
X134300000Y-81227000D03*
X146093000Y-77300000D03*
X146093000Y-82627000D03*
X146093000Y-81227000D03*
X144513000Y-78700000D03*
X144513000Y-81227000D03*
X144513000Y-77300000D03*
X134300000Y-78700000D03*
X144513000Y-82627000D03*
X134300000Y-82627000D03*
X145900000Y-90800000D03*
X134300000Y-77300000D03*
X146093000Y-78700000D03*
%TO.N,D-*%
X140000000Y-81200000D03*
X141200000Y-81200000D03*
%TO.N,VSET*%
X135600000Y-92900000D03*
X143041284Y-88900000D03*
%TO.N,VBUS*%
X138175850Y-89900000D03*
X137793000Y-83700000D03*
X136400000Y-92365000D03*
X142593000Y-83700000D03*
X136400000Y-91095000D03*
%TO.N,CC1*%
X139400000Y-83700000D03*
X141443000Y-83700000D03*
%TO.N,GATE*%
X142300000Y-87700000D03*
X137200000Y-96700000D03*
%TD*%
D13*
%TO.N,D-*%
X141200000Y-81402843D02*
X140997157Y-81200000D01*
X140997157Y-81200000D02*
X140000000Y-81200000D01*
%TO.N,VSET*%
X141000000Y-89665686D02*
X141000000Y-95365686D01*
X139065686Y-97300000D02*
X136151471Y-97300000D01*
X135600000Y-96748529D02*
X135600000Y-92900000D01*
X141765686Y-88900000D02*
X141000000Y-89665686D01*
X136151471Y-97300000D02*
X135600000Y-96748529D01*
X143041284Y-88900000D02*
X141765686Y-88900000D01*
X141000000Y-95365686D02*
X139065686Y-97300000D01*
%TO.N,CC1*%
X139343000Y-83700000D02*
X141400000Y-83700000D01*
%TO.N,GATE*%
X137210000Y-96710000D02*
X137200000Y-96700000D01*
X140600000Y-89400000D02*
X140600000Y-95200000D01*
X140600000Y-95200000D02*
X139090000Y-96710000D01*
X142300000Y-87700000D02*
X140600000Y-89400000D01*
D14*
X137190000Y-96710000D02*
X137200000Y-96700000D01*
D13*
X139090000Y-96710000D02*
X137210000Y-96710000D01*
%TD*%
%TA.AperFunction,Conductor*%
%TO.N,GND*%
G36*
X135050282Y-76617185D02*
G01*
X135096037Y-76669989D01*
X135107242Y-76720910D01*
X135180708Y-92148926D01*
X135161342Y-92216058D01*
X135122683Y-92254508D01*
X135097744Y-92270178D01*
X135097739Y-92270182D01*
X134970184Y-92397737D01*
X134874211Y-92550476D01*
X134814631Y-92720745D01*
X134814630Y-92720750D01*
X134794435Y-92899996D01*
X134794435Y-92900003D01*
X134814630Y-93079249D01*
X134814631Y-93079254D01*
X134874211Y-93249523D01*
X134970185Y-93402263D01*
X134972445Y-93405097D01*
X134973334Y-93407275D01*
X134973889Y-93408158D01*
X134973734Y-93408255D01*
X134998855Y-93469783D01*
X134999500Y-93482412D01*
X134999500Y-96661859D01*
X134999499Y-96661877D01*
X134999499Y-96827583D01*
X134999498Y-96827583D01*
X135040423Y-96980314D01*
X135069358Y-97030429D01*
X135069359Y-97030433D01*
X135069360Y-97030433D01*
X135119480Y-97117245D01*
X135231284Y-97229049D01*
X135231285Y-97229050D01*
X135782755Y-97780520D01*
X135782757Y-97780521D01*
X135782761Y-97780524D01*
X135919680Y-97859573D01*
X135919683Y-97859575D01*
X135919687Y-97859577D01*
X136072414Y-97900501D01*
X136072416Y-97900501D01*
X136238125Y-97900501D01*
X136238141Y-97900500D01*
X138979017Y-97900500D01*
X138979033Y-97900501D01*
X138986629Y-97900501D01*
X139144740Y-97900501D01*
X139144743Y-97900501D01*
X139297471Y-97859577D01*
X139348388Y-97830180D01*
X139348389Y-97830180D01*
X139434395Y-97780524D01*
X139434394Y-97780524D01*
X139434402Y-97780520D01*
X139546206Y-97668716D01*
X139546206Y-97668714D01*
X139556410Y-97658511D01*
X139556414Y-97658506D01*
X141358506Y-95856414D01*
X141358511Y-95856410D01*
X141368714Y-95846206D01*
X141368716Y-95846206D01*
X141480520Y-95734402D01*
X141538415Y-95634124D01*
X141559577Y-95597471D01*
X141600500Y-95444743D01*
X141600500Y-95286629D01*
X141600500Y-89965783D01*
X141620185Y-89898744D01*
X141636819Y-89878102D01*
X141978103Y-89536819D01*
X142039426Y-89503334D01*
X142065784Y-89500500D01*
X142458872Y-89500500D01*
X142525911Y-89520185D01*
X142536187Y-89527555D01*
X142539020Y-89529814D01*
X142539022Y-89529816D01*
X142691762Y-89625789D01*
X142799071Y-89663338D01*
X142862029Y-89685368D01*
X142862034Y-89685369D01*
X143041280Y-89705565D01*
X143041284Y-89705565D01*
X143041288Y-89705565D01*
X143220533Y-89685369D01*
X143220536Y-89685368D01*
X143220539Y-89685368D01*
X143390806Y-89625789D01*
X143543546Y-89529816D01*
X143671100Y-89402262D01*
X143767073Y-89249522D01*
X143826652Y-89079255D01*
X143832682Y-89025739D01*
X143846849Y-88900003D01*
X143846849Y-88899996D01*
X143826653Y-88720750D01*
X143826652Y-88720745D01*
X143767072Y-88550476D01*
X143671099Y-88397737D01*
X143543546Y-88270184D01*
X143390807Y-88174211D01*
X143220538Y-88114631D01*
X143220534Y-88114630D01*
X143165770Y-88108460D01*
X143101356Y-88081393D01*
X143061801Y-88023798D01*
X143059664Y-87953961D01*
X143062605Y-87944307D01*
X143071625Y-87918530D01*
X143112345Y-87861757D01*
X143177298Y-87836010D01*
X143198538Y-87835883D01*
X144000000Y-87900000D01*
X143822594Y-76723464D01*
X143841212Y-76656125D01*
X143893283Y-76609537D01*
X143946578Y-76597500D01*
X146621426Y-76597500D01*
X146688465Y-76617185D01*
X146734220Y-76669989D01*
X146744164Y-76739147D01*
X146723001Y-76792623D01*
X146603466Y-76963338D01*
X146603465Y-76963340D01*
X146510107Y-77163548D01*
X146510104Y-77163554D01*
X146452930Y-77376929D01*
X146452929Y-77376937D01*
X146433677Y-77596997D01*
X146433677Y-77597002D01*
X146452929Y-77817062D01*
X146452930Y-77817070D01*
X146510104Y-78030445D01*
X146510105Y-78030447D01*
X146510106Y-78030450D01*
X146603466Y-78230662D01*
X146603468Y-78230666D01*
X146730170Y-78411615D01*
X146730175Y-78411621D01*
X146886378Y-78567824D01*
X146886384Y-78567829D01*
X147067333Y-78694531D01*
X147067335Y-78694532D01*
X147067338Y-78694534D01*
X147186748Y-78750215D01*
X147196189Y-78754618D01*
X147248628Y-78800790D01*
X147267780Y-78867984D01*
X147247564Y-78934865D01*
X147196189Y-78979382D01*
X147067340Y-79039465D01*
X147067338Y-79039466D01*
X146886377Y-79166175D01*
X146730175Y-79322377D01*
X146603466Y-79503338D01*
X146603465Y-79503340D01*
X146510107Y-79703548D01*
X146510104Y-79703554D01*
X146452930Y-79916929D01*
X146452929Y-79916937D01*
X146433677Y-80136997D01*
X146433677Y-80137002D01*
X146452929Y-80357062D01*
X146452930Y-80357070D01*
X146510104Y-80570445D01*
X146510105Y-80570447D01*
X146510106Y-80570450D01*
X146569461Y-80697738D01*
X146603466Y-80770662D01*
X146603468Y-80770666D01*
X146730170Y-80951615D01*
X146730175Y-80951621D01*
X146886378Y-81107824D01*
X146886384Y-81107829D01*
X147067333Y-81234531D01*
X147067335Y-81234532D01*
X147067338Y-81234534D01*
X147195593Y-81294340D01*
X147196781Y-81294894D01*
X147249220Y-81341066D01*
X147268372Y-81408260D01*
X147248156Y-81475141D01*
X147196781Y-81519658D01*
X147067590Y-81579901D01*
X147002811Y-81625258D01*
X147673553Y-82296000D01*
X147650840Y-82296000D01*
X147553939Y-82321964D01*
X147467060Y-82372124D01*
X147396124Y-82443060D01*
X147345964Y-82529939D01*
X147320000Y-82626840D01*
X147320000Y-82649553D01*
X146649258Y-81978811D01*
X146603901Y-82043590D01*
X146510579Y-82243720D01*
X146510575Y-82243729D01*
X146453426Y-82457013D01*
X146453424Y-82457023D01*
X146434179Y-82676999D01*
X146434179Y-82677000D01*
X146453424Y-82896976D01*
X146453426Y-82896986D01*
X146510575Y-83110270D01*
X146510580Y-83110284D01*
X146603898Y-83310405D01*
X146603901Y-83310411D01*
X146649258Y-83375187D01*
X146649258Y-83375188D01*
X147320000Y-82704446D01*
X147320000Y-82727160D01*
X147345964Y-82824061D01*
X147396124Y-82910940D01*
X147467060Y-82981876D01*
X147553939Y-83032036D01*
X147650840Y-83058000D01*
X147673552Y-83058000D01*
X147002810Y-83728740D01*
X147067589Y-83774098D01*
X147196781Y-83834342D01*
X147249220Y-83880514D01*
X147268372Y-83947708D01*
X147248156Y-84014589D01*
X147196781Y-84059106D01*
X147067340Y-84119465D01*
X147067338Y-84119466D01*
X146886377Y-84246175D01*
X146730175Y-84402377D01*
X146603466Y-84583338D01*
X146603465Y-84583340D01*
X146510107Y-84783548D01*
X146510104Y-84783554D01*
X146452930Y-84996929D01*
X146452929Y-84996937D01*
X146433677Y-85216997D01*
X146433677Y-85217002D01*
X146452929Y-85437062D01*
X146452930Y-85437070D01*
X146510104Y-85650445D01*
X146510105Y-85650447D01*
X146510106Y-85650450D01*
X146603466Y-85850662D01*
X146603468Y-85850666D01*
X146730170Y-86031615D01*
X146730175Y-86031621D01*
X146886378Y-86187824D01*
X146886384Y-86187829D01*
X147067333Y-86314531D01*
X147067335Y-86314532D01*
X147067338Y-86314534D01*
X147186748Y-86370215D01*
X147196189Y-86374618D01*
X147248628Y-86420790D01*
X147267780Y-86487984D01*
X147247564Y-86554865D01*
X147196189Y-86599382D01*
X147067340Y-86659465D01*
X147067338Y-86659466D01*
X146886377Y-86786175D01*
X146730175Y-86942377D01*
X146603466Y-87123338D01*
X146603465Y-87123340D01*
X146510107Y-87323548D01*
X146510104Y-87323554D01*
X146452930Y-87536929D01*
X146452929Y-87536937D01*
X146433677Y-87756997D01*
X146433677Y-87757002D01*
X146452929Y-87977062D01*
X146452930Y-87977070D01*
X146510104Y-88190445D01*
X146510105Y-88190447D01*
X146510106Y-88190450D01*
X146603347Y-88390407D01*
X146603466Y-88390662D01*
X146603468Y-88390666D01*
X146730170Y-88571615D01*
X146730175Y-88571621D01*
X146886378Y-88727824D01*
X146886384Y-88727829D01*
X147067333Y-88854531D01*
X147067335Y-88854532D01*
X147067338Y-88854534D01*
X147164832Y-88899996D01*
X147196189Y-88914618D01*
X147248628Y-88960790D01*
X147267780Y-89027984D01*
X147247564Y-89094865D01*
X147196189Y-89139382D01*
X147067340Y-89199465D01*
X147067338Y-89199466D01*
X146886377Y-89326175D01*
X146730175Y-89482377D01*
X146603466Y-89663338D01*
X146603465Y-89663340D01*
X146510107Y-89863548D01*
X146510104Y-89863554D01*
X146452930Y-90076929D01*
X146452929Y-90076937D01*
X146433677Y-90296997D01*
X146433677Y-90297002D01*
X146452929Y-90517062D01*
X146452930Y-90517070D01*
X146510104Y-90730445D01*
X146510105Y-90730447D01*
X146510106Y-90730450D01*
X146517114Y-90745478D01*
X146603466Y-90930662D01*
X146603468Y-90930666D01*
X146730170Y-91111615D01*
X146730175Y-91111621D01*
X146886378Y-91267824D01*
X146886384Y-91267829D01*
X147067333Y-91394531D01*
X147067335Y-91394532D01*
X147067338Y-91394534D01*
X147174538Y-91444522D01*
X147196189Y-91454618D01*
X147248628Y-91500790D01*
X147267780Y-91567984D01*
X147247564Y-91634865D01*
X147196189Y-91679382D01*
X147067340Y-91739465D01*
X147067338Y-91739466D01*
X146886377Y-91866175D01*
X146730175Y-92022377D01*
X146603466Y-92203338D01*
X146603465Y-92203340D01*
X146510107Y-92403548D01*
X146510104Y-92403554D01*
X146452930Y-92616929D01*
X146452929Y-92616937D01*
X146433677Y-92836997D01*
X146433677Y-92837002D01*
X146452929Y-93057062D01*
X146452930Y-93057070D01*
X146510104Y-93270445D01*
X146510105Y-93270447D01*
X146510106Y-93270450D01*
X146571571Y-93402262D01*
X146603466Y-93470662D01*
X146603468Y-93470666D01*
X146730170Y-93651615D01*
X146730175Y-93651621D01*
X146886378Y-93807824D01*
X146886384Y-93807829D01*
X147067333Y-93934531D01*
X147067335Y-93934532D01*
X147067338Y-93934534D01*
X147186748Y-93990215D01*
X147196189Y-93994618D01*
X147248628Y-94040790D01*
X147267780Y-94107984D01*
X147247564Y-94174865D01*
X147196189Y-94219382D01*
X147067340Y-94279465D01*
X147067338Y-94279466D01*
X146886377Y-94406175D01*
X146730175Y-94562377D01*
X146603466Y-94743338D01*
X146603465Y-94743340D01*
X146510107Y-94943548D01*
X146510104Y-94943554D01*
X146452930Y-95156929D01*
X146452929Y-95156937D01*
X146433677Y-95376997D01*
X146433677Y-95377002D01*
X146452929Y-95597062D01*
X146452930Y-95597070D01*
X146510104Y-95810445D01*
X146510105Y-95810447D01*
X146510106Y-95810450D01*
X146549269Y-95894435D01*
X146603466Y-96010662D01*
X146603468Y-96010666D01*
X146730170Y-96191615D01*
X146730175Y-96191621D01*
X146886378Y-96347824D01*
X146886384Y-96347829D01*
X147067333Y-96474531D01*
X147067335Y-96474532D01*
X147067338Y-96474534D01*
X147195593Y-96534340D01*
X147196781Y-96534894D01*
X147249220Y-96581066D01*
X147268372Y-96648260D01*
X147248156Y-96715141D01*
X147196781Y-96759658D01*
X147067590Y-96819901D01*
X147002811Y-96865258D01*
X147673553Y-97536000D01*
X147650840Y-97536000D01*
X147553939Y-97561964D01*
X147467060Y-97612124D01*
X147396124Y-97683060D01*
X147345964Y-97769939D01*
X147320000Y-97866840D01*
X147320000Y-97889553D01*
X146649258Y-97218811D01*
X146603901Y-97283590D01*
X146510579Y-97483720D01*
X146510575Y-97483729D01*
X146453426Y-97697013D01*
X146453424Y-97697023D01*
X146434179Y-97916999D01*
X146434179Y-97917000D01*
X146453424Y-98136976D01*
X146453426Y-98136986D01*
X146510575Y-98350270D01*
X146510580Y-98350284D01*
X146603898Y-98550405D01*
X146603901Y-98550411D01*
X146649258Y-98615187D01*
X146649258Y-98615188D01*
X147320000Y-97944446D01*
X147320000Y-97967160D01*
X147345964Y-98064061D01*
X147396124Y-98150940D01*
X147467060Y-98221876D01*
X147553939Y-98272036D01*
X147650840Y-98298000D01*
X147673552Y-98298000D01*
X147000266Y-98971285D01*
X146988427Y-99030192D01*
X146939812Y-99080376D01*
X146878666Y-99096500D01*
X133366308Y-99096500D01*
X133299269Y-99076815D01*
X133253514Y-99024011D01*
X133243570Y-98954853D01*
X133272595Y-98891297D01*
X133278627Y-98884819D01*
X133349721Y-98813725D01*
X133431826Y-98731620D01*
X133558534Y-98550662D01*
X133651894Y-98350450D01*
X133709070Y-98137068D01*
X133728323Y-97917000D01*
X133726879Y-97900500D01*
X133720528Y-97827904D01*
X133709070Y-97696932D01*
X133651894Y-97483550D01*
X133558534Y-97283339D01*
X133431826Y-97102380D01*
X133275620Y-96946174D01*
X133275616Y-96946171D01*
X133275615Y-96946170D01*
X133094666Y-96819468D01*
X133094662Y-96819466D01*
X132965218Y-96759105D01*
X132912779Y-96712932D01*
X132893627Y-96645739D01*
X132913843Y-96578858D01*
X132965219Y-96534340D01*
X133094416Y-96474095D01*
X133094417Y-96474094D01*
X133159188Y-96428741D01*
X132488447Y-95758000D01*
X132511160Y-95758000D01*
X132608061Y-95732036D01*
X132694940Y-95681876D01*
X132765876Y-95610940D01*
X132816036Y-95524061D01*
X132842000Y-95427160D01*
X132842000Y-95404447D01*
X133512741Y-96075188D01*
X133558094Y-96010417D01*
X133558100Y-96010407D01*
X133651419Y-95810284D01*
X133651424Y-95810270D01*
X133708573Y-95596986D01*
X133708575Y-95596976D01*
X133727821Y-95377000D01*
X133727821Y-95376999D01*
X133708575Y-95157023D01*
X133708573Y-95157013D01*
X133651424Y-94943729D01*
X133651420Y-94943720D01*
X133558096Y-94743586D01*
X133512741Y-94678811D01*
X133512740Y-94678810D01*
X132842000Y-95349551D01*
X132842000Y-95326840D01*
X132816036Y-95229939D01*
X132765876Y-95143060D01*
X132694940Y-95072124D01*
X132608061Y-95021964D01*
X132511160Y-94996000D01*
X132488446Y-94996000D01*
X133159188Y-94325258D01*
X133094411Y-94279901D01*
X133094405Y-94279898D01*
X132965219Y-94219658D01*
X132912779Y-94173486D01*
X132893627Y-94106293D01*
X132913843Y-94039411D01*
X132965219Y-93994894D01*
X132965811Y-93994618D01*
X133094662Y-93934534D01*
X133275620Y-93807826D01*
X133431826Y-93651620D01*
X133558534Y-93470662D01*
X133651894Y-93270450D01*
X133709070Y-93057068D01*
X133723509Y-92892017D01*
X133728323Y-92837002D01*
X133728323Y-92836997D01*
X133709070Y-92616937D01*
X133709070Y-92616932D01*
X133651894Y-92403550D01*
X133558534Y-92203339D01*
X133431826Y-92022380D01*
X133275620Y-91866174D01*
X133275616Y-91866171D01*
X133275615Y-91866170D01*
X133094666Y-91739468D01*
X133094658Y-91739464D01*
X132965811Y-91679382D01*
X132913371Y-91633210D01*
X132894219Y-91566017D01*
X132914435Y-91499135D01*
X132965811Y-91454618D01*
X132987462Y-91444522D01*
X133094662Y-91394534D01*
X133275620Y-91267826D01*
X133431826Y-91111620D01*
X133558534Y-90930662D01*
X133651894Y-90730450D01*
X133709070Y-90517068D01*
X133728323Y-90297000D01*
X133709070Y-90076932D01*
X133651894Y-89863550D01*
X133558534Y-89663339D01*
X133465040Y-89529815D01*
X133431827Y-89482381D01*
X133376963Y-89427517D01*
X133275620Y-89326174D01*
X133275616Y-89326171D01*
X133275615Y-89326170D01*
X133094666Y-89199468D01*
X133094662Y-89199466D01*
X132965218Y-89139105D01*
X132912779Y-89092932D01*
X132893627Y-89025739D01*
X132913843Y-88958858D01*
X132965219Y-88914340D01*
X133094416Y-88854095D01*
X133094417Y-88854094D01*
X133159188Y-88808741D01*
X132488447Y-88138000D01*
X132511160Y-88138000D01*
X132608061Y-88112036D01*
X132694940Y-88061876D01*
X132765876Y-87990940D01*
X132816036Y-87904061D01*
X132842000Y-87807160D01*
X132842000Y-87784447D01*
X133512741Y-88455188D01*
X133558094Y-88390417D01*
X133558100Y-88390407D01*
X133651419Y-88190284D01*
X133651424Y-88190270D01*
X133708573Y-87976986D01*
X133708575Y-87976976D01*
X133727821Y-87757000D01*
X133727821Y-87756999D01*
X133708575Y-87537023D01*
X133708573Y-87537013D01*
X133651424Y-87323729D01*
X133651420Y-87323720D01*
X133558096Y-87123586D01*
X133512741Y-87058811D01*
X133512740Y-87058810D01*
X132842000Y-87729551D01*
X132842000Y-87706840D01*
X132816036Y-87609939D01*
X132765876Y-87523060D01*
X132694940Y-87452124D01*
X132608061Y-87401964D01*
X132511160Y-87376000D01*
X132488446Y-87376000D01*
X133159188Y-86705258D01*
X133094411Y-86659901D01*
X133094405Y-86659898D01*
X132965219Y-86599658D01*
X132912779Y-86553486D01*
X132893627Y-86486293D01*
X132913843Y-86419411D01*
X132965219Y-86374894D01*
X132965811Y-86374618D01*
X133094662Y-86314534D01*
X133275620Y-86187826D01*
X133431826Y-86031620D01*
X133558534Y-85850662D01*
X133651894Y-85650450D01*
X133709070Y-85437068D01*
X133728323Y-85217000D01*
X133709070Y-84996932D01*
X133651894Y-84783550D01*
X133558534Y-84583339D01*
X133431826Y-84402380D01*
X133275620Y-84246174D01*
X133275616Y-84246171D01*
X133275615Y-84246170D01*
X133094666Y-84119468D01*
X133094658Y-84119464D01*
X132965811Y-84059382D01*
X132913371Y-84013210D01*
X132894219Y-83946017D01*
X132914435Y-83879135D01*
X132965811Y-83834618D01*
X132971802Y-83831824D01*
X133094662Y-83774534D01*
X133275620Y-83647826D01*
X133431826Y-83491620D01*
X133558534Y-83310662D01*
X133651894Y-83110450D01*
X133709070Y-82897068D01*
X133728323Y-82677000D01*
X133709070Y-82456932D01*
X133651894Y-82243550D01*
X133558534Y-82043339D01*
X133431826Y-81862380D01*
X133275620Y-81706174D01*
X133275616Y-81706171D01*
X133275615Y-81706170D01*
X133094666Y-81579468D01*
X133094662Y-81579466D01*
X132965218Y-81519105D01*
X132912779Y-81472932D01*
X132893627Y-81405739D01*
X132913843Y-81338858D01*
X132965219Y-81294340D01*
X133094416Y-81234095D01*
X133094417Y-81234094D01*
X133159188Y-81188741D01*
X132488447Y-80518000D01*
X132511160Y-80518000D01*
X132608061Y-80492036D01*
X132694940Y-80441876D01*
X132765876Y-80370940D01*
X132816036Y-80284061D01*
X132842000Y-80187160D01*
X132842000Y-80164447D01*
X133512741Y-80835188D01*
X133558094Y-80770417D01*
X133558100Y-80770407D01*
X133651419Y-80570284D01*
X133651424Y-80570270D01*
X133708573Y-80356986D01*
X133708575Y-80356976D01*
X133727821Y-80137000D01*
X133727821Y-80136999D01*
X133708575Y-79917023D01*
X133708573Y-79917013D01*
X133651424Y-79703729D01*
X133651420Y-79703720D01*
X133558096Y-79503586D01*
X133512741Y-79438811D01*
X133512740Y-79438810D01*
X132842000Y-80109551D01*
X132842000Y-80086840D01*
X132816036Y-79989939D01*
X132765876Y-79903060D01*
X132694940Y-79832124D01*
X132608061Y-79781964D01*
X132511160Y-79756000D01*
X132488446Y-79756000D01*
X133159188Y-79085258D01*
X133094411Y-79039901D01*
X133094405Y-79039898D01*
X132965219Y-78979658D01*
X132912779Y-78933486D01*
X132893627Y-78866293D01*
X132913843Y-78799411D01*
X132965219Y-78754894D01*
X132965811Y-78754618D01*
X133094662Y-78694534D01*
X133275620Y-78567826D01*
X133431826Y-78411620D01*
X133558534Y-78230662D01*
X133651894Y-78030450D01*
X133709070Y-77817068D01*
X133728323Y-77597000D01*
X133709070Y-77376932D01*
X133651894Y-77163550D01*
X133558534Y-76963339D01*
X133526605Y-76917740D01*
X133438999Y-76792623D01*
X133416672Y-76726416D01*
X133433683Y-76658649D01*
X133484631Y-76610837D01*
X133540574Y-76597500D01*
X134983243Y-76597500D01*
X135050282Y-76617185D01*
G37*
%TD.AperFunction*%
%TD*%
%TA.AperFunction,Conductor*%
%TO.N,VBUS*%
G36*
X143260561Y-76617185D02*
G01*
X143306316Y-76669989D01*
X143317078Y-76727059D01*
X143317087Y-76727059D01*
X143317087Y-76727107D01*
X143317330Y-76728392D01*
X143317157Y-76731492D01*
X143380903Y-80747457D01*
X143362285Y-80814800D01*
X143310214Y-80861388D01*
X143241222Y-80872427D01*
X143224827Y-80869200D01*
X143158767Y-80851500D01*
X143158766Y-80851500D01*
X143007234Y-80851500D01*
X142860863Y-80890719D01*
X142729635Y-80966485D01*
X142729632Y-80966487D01*
X142622487Y-81073632D01*
X142622485Y-81073635D01*
X142546719Y-81204863D01*
X142507500Y-81351234D01*
X142507500Y-81502765D01*
X142546719Y-81649136D01*
X142577392Y-81702262D01*
X142622485Y-81780365D01*
X142729635Y-81887515D01*
X142860865Y-81963281D01*
X143007234Y-82002500D01*
X143007236Y-82002500D01*
X143158763Y-82002500D01*
X143158766Y-82002500D01*
X143246249Y-81979059D01*
X143316094Y-81980722D01*
X143373956Y-82019884D01*
X143401461Y-82084112D01*
X143402322Y-82096866D01*
X143483568Y-87215287D01*
X143464950Y-87282630D01*
X143412879Y-87329218D01*
X143349697Y-87340860D01*
X143238843Y-87331992D01*
X143195529Y-87330391D01*
X143174275Y-87330519D01*
X143130960Y-87332638D01*
X143130951Y-87332639D01*
X143116271Y-87336148D01*
X143046492Y-87332584D01*
X142989717Y-87291861D01*
X142982462Y-87281523D01*
X142940843Y-87215287D01*
X142929818Y-87197740D01*
X142802262Y-87070184D01*
X142649523Y-86974211D01*
X142479254Y-86914631D01*
X142479249Y-86914630D01*
X142300004Y-86894435D01*
X142299996Y-86894435D01*
X142120750Y-86914630D01*
X142120745Y-86914631D01*
X141950476Y-86974211D01*
X141797737Y-87070184D01*
X141670184Y-87197737D01*
X141574210Y-87350478D01*
X141514630Y-87520750D01*
X141504837Y-87607668D01*
X141477770Y-87672082D01*
X141469298Y-87681465D01*
X140231286Y-88919478D01*
X140119481Y-89031282D01*
X140119479Y-89031285D01*
X140082734Y-89094931D01*
X140082733Y-89094933D01*
X140040423Y-89168214D01*
X140040423Y-89168215D01*
X139999499Y-89320943D01*
X139999499Y-89320945D01*
X139999499Y-89489046D01*
X139999500Y-89489059D01*
X139999500Y-94899903D01*
X139979815Y-94966942D01*
X139963181Y-94987584D01*
X138877584Y-96073181D01*
X138816261Y-96106666D01*
X138789903Y-96109500D01*
X137792940Y-96109500D01*
X137725901Y-96089815D01*
X137705259Y-96073181D01*
X137702262Y-96070184D01*
X137549523Y-95974211D01*
X137379254Y-95914631D01*
X137379249Y-95914630D01*
X137200004Y-95894435D01*
X137199996Y-95894435D01*
X137020750Y-95914630D01*
X137020745Y-95914631D01*
X136850476Y-95974211D01*
X136697739Y-96070183D01*
X136569639Y-96198283D01*
X136508316Y-96231767D01*
X136478608Y-96234556D01*
X136321150Y-96230300D01*
X136254666Y-96208811D01*
X136210355Y-96154790D01*
X136200500Y-96106345D01*
X136200500Y-93482412D01*
X136220185Y-93415373D01*
X136227555Y-93405097D01*
X136229810Y-93402267D01*
X136229816Y-93402262D01*
X136325789Y-93249522D01*
X136385368Y-93079255D01*
X136385369Y-93079249D01*
X136405565Y-92900003D01*
X136405565Y-92899996D01*
X136385369Y-92720750D01*
X136385368Y-92720745D01*
X136335107Y-92577108D01*
X136325789Y-92550478D01*
X136229816Y-92397738D01*
X136102262Y-92270184D01*
X136077919Y-92254888D01*
X135949521Y-92174210D01*
X135844668Y-92137521D01*
X135779255Y-92114632D01*
X135779252Y-92114631D01*
X135772683Y-92112333D01*
X135773339Y-92110457D01*
X135720889Y-92081104D01*
X135688045Y-92019435D01*
X135685480Y-91994931D01*
X135683466Y-91571996D01*
X135645981Y-83699996D01*
X138594435Y-83699996D01*
X138594435Y-83700003D01*
X138614630Y-83879249D01*
X138614631Y-83879254D01*
X138674211Y-84049523D01*
X138738460Y-84151774D01*
X138770184Y-84202262D01*
X138897738Y-84329816D01*
X139050478Y-84425789D01*
X139220745Y-84485368D01*
X139220750Y-84485369D01*
X139399996Y-84505565D01*
X139400000Y-84505565D01*
X139400004Y-84505565D01*
X139579249Y-84485369D01*
X139579252Y-84485368D01*
X139579255Y-84485368D01*
X139749522Y-84425789D01*
X139902262Y-84329816D01*
X139902267Y-84329810D01*
X139905097Y-84327555D01*
X139907275Y-84326665D01*
X139908158Y-84326111D01*
X139908255Y-84326265D01*
X139969783Y-84301145D01*
X139982412Y-84300500D01*
X140860588Y-84300500D01*
X140927627Y-84320185D01*
X140937903Y-84327555D01*
X140940736Y-84329814D01*
X140940738Y-84329816D01*
X141093478Y-84425789D01*
X141263745Y-84485368D01*
X141263750Y-84485369D01*
X141442996Y-84505565D01*
X141443000Y-84505565D01*
X141443004Y-84505565D01*
X141622249Y-84485369D01*
X141622252Y-84485368D01*
X141622255Y-84485368D01*
X141792522Y-84425789D01*
X141945262Y-84329816D01*
X142072816Y-84202262D01*
X142168789Y-84049522D01*
X142228368Y-83879255D01*
X142228369Y-83879249D01*
X142248565Y-83700003D01*
X142248565Y-83699996D01*
X142228369Y-83520750D01*
X142228368Y-83520745D01*
X142191521Y-83415443D01*
X142168789Y-83350478D01*
X142072816Y-83197738D01*
X141945262Y-83070184D01*
X141811380Y-82986060D01*
X141792523Y-82974211D01*
X141622254Y-82914631D01*
X141622249Y-82914630D01*
X141443004Y-82894435D01*
X141442996Y-82894435D01*
X141263750Y-82914630D01*
X141263745Y-82914631D01*
X141093476Y-82974211D01*
X140940736Y-83070185D01*
X140937903Y-83072445D01*
X140935724Y-83073334D01*
X140934842Y-83073889D01*
X140934744Y-83073734D01*
X140873217Y-83098855D01*
X140860588Y-83099500D01*
X139982412Y-83099500D01*
X139915373Y-83079815D01*
X139905097Y-83072445D01*
X139902263Y-83070185D01*
X139902262Y-83070184D01*
X139768380Y-82986060D01*
X139749523Y-82974211D01*
X139579254Y-82914631D01*
X139579249Y-82914630D01*
X139400004Y-82894435D01*
X139399996Y-82894435D01*
X139220750Y-82914630D01*
X139220745Y-82914631D01*
X139050476Y-82974211D01*
X138897737Y-83070184D01*
X138770184Y-83197737D01*
X138674211Y-83350476D01*
X138614631Y-83520745D01*
X138614630Y-83520750D01*
X138594435Y-83699996D01*
X135645981Y-83699996D01*
X135634796Y-81351234D01*
X136727500Y-81351234D01*
X136727500Y-81502765D01*
X136766719Y-81649136D01*
X136797392Y-81702262D01*
X136842485Y-81780365D01*
X136949635Y-81887515D01*
X137080865Y-81963281D01*
X137227234Y-82002500D01*
X137227236Y-82002500D01*
X137378764Y-82002500D01*
X137378766Y-82002500D01*
X137525135Y-81963281D01*
X137656365Y-81887515D01*
X137763515Y-81780365D01*
X137839281Y-81649135D01*
X137878500Y-81502766D01*
X137878500Y-81351234D01*
X137839281Y-81204865D01*
X137836470Y-81199996D01*
X139194435Y-81199996D01*
X139194435Y-81200003D01*
X139214630Y-81379249D01*
X139214631Y-81379254D01*
X139274211Y-81549523D01*
X139370184Y-81702262D01*
X139497738Y-81829816D01*
X139650478Y-81925789D01*
X139820742Y-81985367D01*
X139820745Y-81985368D01*
X139820750Y-81985369D01*
X139999996Y-82005565D01*
X140000000Y-82005565D01*
X140000004Y-82005565D01*
X140179249Y-81985369D01*
X140179252Y-81985368D01*
X140179255Y-81985368D01*
X140349522Y-81925789D01*
X140502262Y-81829816D01*
X140502267Y-81829810D01*
X140505097Y-81827555D01*
X140507275Y-81826665D01*
X140508158Y-81826111D01*
X140508255Y-81826265D01*
X140569783Y-81801145D01*
X140582412Y-81800500D01*
X140617588Y-81800500D01*
X140684627Y-81820185D01*
X140694903Y-81827555D01*
X140697736Y-81829814D01*
X140697738Y-81829816D01*
X140850478Y-81925789D01*
X141020745Y-81985368D01*
X141068659Y-81990766D01*
X141086854Y-81994209D01*
X141120942Y-82003343D01*
X141173318Y-82003343D01*
X141187199Y-82004122D01*
X141200000Y-82005565D01*
X141212800Y-82004122D01*
X141226682Y-82003343D01*
X141279055Y-82003343D01*
X141279057Y-82003343D01*
X141313148Y-81994207D01*
X141331331Y-81990767D01*
X141379255Y-81985368D01*
X141549522Y-81925789D01*
X141702262Y-81829816D01*
X141829816Y-81702262D01*
X141925789Y-81549522D01*
X141985368Y-81379255D01*
X141988525Y-81351236D01*
X142005565Y-81200003D01*
X142005565Y-81199996D01*
X141985369Y-81020750D01*
X141985368Y-81020745D01*
X141932340Y-80869200D01*
X141925789Y-80850478D01*
X141829816Y-80697738D01*
X141702262Y-80570184D01*
X141549523Y-80474211D01*
X141379254Y-80414631D01*
X141379249Y-80414630D01*
X141200004Y-80394435D01*
X141199996Y-80394435D01*
X141020750Y-80414630D01*
X141020745Y-80414631D01*
X140850476Y-80474211D01*
X140697736Y-80570185D01*
X140694903Y-80572445D01*
X140692724Y-80573334D01*
X140691842Y-80573889D01*
X140691744Y-80573734D01*
X140630217Y-80598855D01*
X140617588Y-80599500D01*
X140582412Y-80599500D01*
X140515373Y-80579815D01*
X140505097Y-80572445D01*
X140502263Y-80570185D01*
X140502262Y-80570184D01*
X140445496Y-80534515D01*
X140349523Y-80474211D01*
X140179254Y-80414631D01*
X140179249Y-80414630D01*
X140000004Y-80394435D01*
X139999996Y-80394435D01*
X139820750Y-80414630D01*
X139820745Y-80414631D01*
X139650476Y-80474211D01*
X139497737Y-80570184D01*
X139370184Y-80697737D01*
X139274211Y-80850476D01*
X139214631Y-81020745D01*
X139214630Y-81020750D01*
X139194435Y-81199996D01*
X137836470Y-81199996D01*
X137763515Y-81073635D01*
X137656365Y-80966485D01*
X137568057Y-80915500D01*
X137525136Y-80890719D01*
X137444824Y-80869200D01*
X137378766Y-80851500D01*
X137227234Y-80851500D01*
X137080863Y-80890719D01*
X136949635Y-80966485D01*
X136949632Y-80966487D01*
X136842487Y-81073632D01*
X136842485Y-81073635D01*
X136766719Y-81204863D01*
X136727500Y-81351234D01*
X135634796Y-81351234D01*
X135612753Y-76722089D01*
X135632119Y-76654958D01*
X135684704Y-76608952D01*
X135736752Y-76597500D01*
X143193522Y-76597500D01*
X143260561Y-76617185D01*
G37*
%TD.AperFunction*%
%TD*%
M02*
