M48
; DRILL file {KiCad 8.0.7} date 2025-01-08T16:46:28+0100
; FORMAT={-:-/ absolute / inch / decimal}
; #@! TF.CreationDate,2025-01-08T16:46:28+01:00
; #@! TF.GenerationSoftware,Kicad,Pcbnew,8.0.7
; #@! TF.FileFunction,Plated,1,2,PTH
FMAT,2
INCH
; #@! TA.AperFunction,Plated,PTH,ViaDrill
T1C0.0118
; #@! TA.AperFunction,Plated,PTH,ComponentDrill
T2C0.0300
%
G90
G05
T1
X5.2874Y-3.0433
X5.2874Y-3.0984
X5.2874Y-3.1979
X5.2874Y-3.253
X5.3386Y-3.6575
X5.3701Y-3.5864
X5.3701Y-3.6364
X5.4016Y-3.8071
X5.4249Y-3.2953
X5.44Y-3.5394
X5.4882Y-3.2953
X5.5118Y-3.1969
X5.5591Y-3.1969
X5.5686Y-3.2953
X5.6024Y-3.4528
X5.6139Y-3.2953
X5.6315Y-3.5
X5.6895Y-3.0433
X5.6895Y-3.0984
X5.6895Y-3.1979
X5.6895Y-3.253
X5.7441Y-3.5748
X5.7517Y-3.0433
X5.7517Y-3.0984
X5.7517Y-3.1979
X5.7517Y-3.253
T2
X5.1607Y-3.055
X5.1607Y-3.155
X5.1607Y-3.255
X5.1607Y-3.355
X5.1607Y-3.855
X5.1613Y-3.455
X5.1613Y-3.555
X5.1613Y-3.655
X5.1613Y-3.755
X5.215Y-3.055
X5.215Y-3.155
X5.215Y-3.255
X5.215Y-3.355
X5.215Y-3.455
X5.215Y-3.555
X5.215Y-3.655
X5.215Y-3.755
X5.215Y-3.855
X5.815Y-3.055
X5.815Y-3.155
X5.815Y-3.255
X5.815Y-3.355
X5.815Y-3.455
X5.815Y-3.555
X5.815Y-3.655
X5.815Y-3.755
X5.815Y-3.855
X5.8687Y-3.155
X5.8687Y-3.255
X5.8687Y-3.355
X5.8687Y-3.455
X5.8693Y-3.055
X5.8693Y-3.555
X5.8693Y-3.655
X5.8693Y-3.755
X5.8693Y-3.855
M30
