%TF.GenerationSoftware,KiCad,Pcbnew,8.0.6*%
%TF.CreationDate,2024-11-25T20:31:32+01:00*%
%TF.ProjectId,PD_trigger-board,50445f74-7269-4676-9765-722d626f6172,rev?*%
%TF.SameCoordinates,Original*%
%TF.FileFunction,Legend,Bot*%
%TF.FilePolarity,Positive*%
%FSLAX46Y46*%
G04 Gerber Fmt 4.6, Leading zero omitted, Abs format (unit mm)*
G04 Created by KiCad (PCBNEW 8.0.6) date 2024-11-25 20:31:32*
%MOMM*%
%LPD*%
G01*
G04 APERTURE LIST*
%ADD10C,0.100000*%
G04 APERTURE END LIST*
D10*
X138605639Y-93045075D02*
X138605639Y-93616503D01*
X138605639Y-93616503D02*
X138643734Y-93730789D01*
X138643734Y-93730789D02*
X138719925Y-93806980D01*
X138719925Y-93806980D02*
X138834210Y-93845075D01*
X138834210Y-93845075D02*
X138910401Y-93845075D01*
X138300877Y-93045075D02*
X137767543Y-93045075D01*
X137767543Y-93045075D02*
X138110401Y-93845075D01*
X137462781Y-93768884D02*
X137424686Y-93806980D01*
X137424686Y-93806980D02*
X137462781Y-93845075D01*
X137462781Y-93845075D02*
X137500877Y-93806980D01*
X137500877Y-93806980D02*
X137462781Y-93768884D01*
X137462781Y-93768884D02*
X137462781Y-93845075D01*
X137462781Y-93349837D02*
X137424686Y-93387932D01*
X137424686Y-93387932D02*
X137462781Y-93426027D01*
X137462781Y-93426027D02*
X137500877Y-93387932D01*
X137500877Y-93387932D02*
X137462781Y-93349837D01*
X137462781Y-93349837D02*
X137462781Y-93426027D01*
X135481829Y-93045075D02*
X135862781Y-93045075D01*
X135862781Y-93045075D02*
X135900877Y-93426027D01*
X135900877Y-93426027D02*
X135862781Y-93387932D01*
X135862781Y-93387932D02*
X135786591Y-93349837D01*
X135786591Y-93349837D02*
X135596115Y-93349837D01*
X135596115Y-93349837D02*
X135519924Y-93387932D01*
X135519924Y-93387932D02*
X135481829Y-93426027D01*
X135481829Y-93426027D02*
X135443734Y-93502218D01*
X135443734Y-93502218D02*
X135443734Y-93692694D01*
X135443734Y-93692694D02*
X135481829Y-93768884D01*
X135481829Y-93768884D02*
X135519924Y-93806980D01*
X135519924Y-93806980D02*
X135596115Y-93845075D01*
X135596115Y-93845075D02*
X135786591Y-93845075D01*
X135786591Y-93845075D02*
X135862781Y-93806980D01*
X135862781Y-93806980D02*
X135900877Y-93768884D01*
X135215162Y-93045075D02*
X134948495Y-93845075D01*
X134948495Y-93845075D02*
X134681829Y-93045075D01*
X138605639Y-94333030D02*
X138605639Y-94904458D01*
X138605639Y-94904458D02*
X138643734Y-95018744D01*
X138643734Y-95018744D02*
X138719925Y-95094935D01*
X138719925Y-95094935D02*
X138834210Y-95133030D01*
X138834210Y-95133030D02*
X138910401Y-95133030D01*
X138110401Y-94675887D02*
X138186591Y-94637792D01*
X138186591Y-94637792D02*
X138224686Y-94599696D01*
X138224686Y-94599696D02*
X138262782Y-94523506D01*
X138262782Y-94523506D02*
X138262782Y-94485411D01*
X138262782Y-94485411D02*
X138224686Y-94409220D01*
X138224686Y-94409220D02*
X138186591Y-94371125D01*
X138186591Y-94371125D02*
X138110401Y-94333030D01*
X138110401Y-94333030D02*
X137958020Y-94333030D01*
X137958020Y-94333030D02*
X137881829Y-94371125D01*
X137881829Y-94371125D02*
X137843734Y-94409220D01*
X137843734Y-94409220D02*
X137805639Y-94485411D01*
X137805639Y-94485411D02*
X137805639Y-94523506D01*
X137805639Y-94523506D02*
X137843734Y-94599696D01*
X137843734Y-94599696D02*
X137881829Y-94637792D01*
X137881829Y-94637792D02*
X137958020Y-94675887D01*
X137958020Y-94675887D02*
X138110401Y-94675887D01*
X138110401Y-94675887D02*
X138186591Y-94713982D01*
X138186591Y-94713982D02*
X138224686Y-94752077D01*
X138224686Y-94752077D02*
X138262782Y-94828268D01*
X138262782Y-94828268D02*
X138262782Y-94980649D01*
X138262782Y-94980649D02*
X138224686Y-95056839D01*
X138224686Y-95056839D02*
X138186591Y-95094935D01*
X138186591Y-95094935D02*
X138110401Y-95133030D01*
X138110401Y-95133030D02*
X137958020Y-95133030D01*
X137958020Y-95133030D02*
X137881829Y-95094935D01*
X137881829Y-95094935D02*
X137843734Y-95056839D01*
X137843734Y-95056839D02*
X137805639Y-94980649D01*
X137805639Y-94980649D02*
X137805639Y-94828268D01*
X137805639Y-94828268D02*
X137843734Y-94752077D01*
X137843734Y-94752077D02*
X137881829Y-94713982D01*
X137881829Y-94713982D02*
X137958020Y-94675887D01*
X137462781Y-95056839D02*
X137424686Y-95094935D01*
X137424686Y-95094935D02*
X137462781Y-95133030D01*
X137462781Y-95133030D02*
X137500877Y-95094935D01*
X137500877Y-95094935D02*
X137462781Y-95056839D01*
X137462781Y-95056839D02*
X137462781Y-95133030D01*
X137462781Y-94637792D02*
X137424686Y-94675887D01*
X137424686Y-94675887D02*
X137462781Y-94713982D01*
X137462781Y-94713982D02*
X137500877Y-94675887D01*
X137500877Y-94675887D02*
X137462781Y-94637792D01*
X137462781Y-94637792D02*
X137462781Y-94713982D01*
X135824686Y-95133030D02*
X135672305Y-95133030D01*
X135672305Y-95133030D02*
X135596115Y-95094935D01*
X135596115Y-95094935D02*
X135558019Y-95056839D01*
X135558019Y-95056839D02*
X135481829Y-94942554D01*
X135481829Y-94942554D02*
X135443734Y-94790173D01*
X135443734Y-94790173D02*
X135443734Y-94485411D01*
X135443734Y-94485411D02*
X135481829Y-94409220D01*
X135481829Y-94409220D02*
X135519924Y-94371125D01*
X135519924Y-94371125D02*
X135596115Y-94333030D01*
X135596115Y-94333030D02*
X135748496Y-94333030D01*
X135748496Y-94333030D02*
X135824686Y-94371125D01*
X135824686Y-94371125D02*
X135862781Y-94409220D01*
X135862781Y-94409220D02*
X135900877Y-94485411D01*
X135900877Y-94485411D02*
X135900877Y-94675887D01*
X135900877Y-94675887D02*
X135862781Y-94752077D01*
X135862781Y-94752077D02*
X135824686Y-94790173D01*
X135824686Y-94790173D02*
X135748496Y-94828268D01*
X135748496Y-94828268D02*
X135596115Y-94828268D01*
X135596115Y-94828268D02*
X135519924Y-94790173D01*
X135519924Y-94790173D02*
X135481829Y-94752077D01*
X135481829Y-94752077D02*
X135443734Y-94675887D01*
X135215162Y-94333030D02*
X134948495Y-95133030D01*
X134948495Y-95133030D02*
X134681829Y-94333030D01*
X138605639Y-95620985D02*
X138605639Y-96192413D01*
X138605639Y-96192413D02*
X138643734Y-96306699D01*
X138643734Y-96306699D02*
X138719925Y-96382890D01*
X138719925Y-96382890D02*
X138834210Y-96420985D01*
X138834210Y-96420985D02*
X138910401Y-96420985D01*
X138186591Y-96420985D02*
X138034210Y-96420985D01*
X138034210Y-96420985D02*
X137958020Y-96382890D01*
X137958020Y-96382890D02*
X137919924Y-96344794D01*
X137919924Y-96344794D02*
X137843734Y-96230509D01*
X137843734Y-96230509D02*
X137805639Y-96078128D01*
X137805639Y-96078128D02*
X137805639Y-95773366D01*
X137805639Y-95773366D02*
X137843734Y-95697175D01*
X137843734Y-95697175D02*
X137881829Y-95659080D01*
X137881829Y-95659080D02*
X137958020Y-95620985D01*
X137958020Y-95620985D02*
X138110401Y-95620985D01*
X138110401Y-95620985D02*
X138186591Y-95659080D01*
X138186591Y-95659080D02*
X138224686Y-95697175D01*
X138224686Y-95697175D02*
X138262782Y-95773366D01*
X138262782Y-95773366D02*
X138262782Y-95963842D01*
X138262782Y-95963842D02*
X138224686Y-96040032D01*
X138224686Y-96040032D02*
X138186591Y-96078128D01*
X138186591Y-96078128D02*
X138110401Y-96116223D01*
X138110401Y-96116223D02*
X137958020Y-96116223D01*
X137958020Y-96116223D02*
X137881829Y-96078128D01*
X137881829Y-96078128D02*
X137843734Y-96040032D01*
X137843734Y-96040032D02*
X137805639Y-95963842D01*
X137462781Y-96344794D02*
X137424686Y-96382890D01*
X137424686Y-96382890D02*
X137462781Y-96420985D01*
X137462781Y-96420985D02*
X137500877Y-96382890D01*
X137500877Y-96382890D02*
X137462781Y-96344794D01*
X137462781Y-96344794D02*
X137462781Y-96420985D01*
X137462781Y-95925747D02*
X137424686Y-95963842D01*
X137424686Y-95963842D02*
X137462781Y-96001937D01*
X137462781Y-96001937D02*
X137500877Y-95963842D01*
X137500877Y-95963842D02*
X137462781Y-95925747D01*
X137462781Y-95925747D02*
X137462781Y-96001937D01*
X136053258Y-96420985D02*
X136510401Y-96420985D01*
X136281829Y-96420985D02*
X136281829Y-95620985D01*
X136281829Y-95620985D02*
X136358020Y-95735270D01*
X136358020Y-95735270D02*
X136434210Y-95811461D01*
X136434210Y-95811461D02*
X136510401Y-95849556D01*
X135748496Y-95697175D02*
X135710400Y-95659080D01*
X135710400Y-95659080D02*
X135634210Y-95620985D01*
X135634210Y-95620985D02*
X135443734Y-95620985D01*
X135443734Y-95620985D02*
X135367543Y-95659080D01*
X135367543Y-95659080D02*
X135329448Y-95697175D01*
X135329448Y-95697175D02*
X135291353Y-95773366D01*
X135291353Y-95773366D02*
X135291353Y-95849556D01*
X135291353Y-95849556D02*
X135329448Y-95963842D01*
X135329448Y-95963842D02*
X135786591Y-96420985D01*
X135786591Y-96420985D02*
X135291353Y-96420985D01*
X135062781Y-95620985D02*
X134796114Y-96420985D01*
X134796114Y-96420985D02*
X134529448Y-95620985D01*
X139215163Y-96908940D02*
X139215163Y-97480368D01*
X139215163Y-97480368D02*
X139253258Y-97594654D01*
X139253258Y-97594654D02*
X139329449Y-97670845D01*
X139329449Y-97670845D02*
X139443734Y-97708940D01*
X139443734Y-97708940D02*
X139519925Y-97708940D01*
X138415163Y-97708940D02*
X138872306Y-97708940D01*
X138643734Y-97708940D02*
X138643734Y-96908940D01*
X138643734Y-96908940D02*
X138719925Y-97023225D01*
X138719925Y-97023225D02*
X138796115Y-97099416D01*
X138796115Y-97099416D02*
X138872306Y-97137511D01*
X137919924Y-96908940D02*
X137843734Y-96908940D01*
X137843734Y-96908940D02*
X137767543Y-96947035D01*
X137767543Y-96947035D02*
X137729448Y-96985130D01*
X137729448Y-96985130D02*
X137691353Y-97061321D01*
X137691353Y-97061321D02*
X137653258Y-97213702D01*
X137653258Y-97213702D02*
X137653258Y-97404178D01*
X137653258Y-97404178D02*
X137691353Y-97556559D01*
X137691353Y-97556559D02*
X137729448Y-97632749D01*
X137729448Y-97632749D02*
X137767543Y-97670845D01*
X137767543Y-97670845D02*
X137843734Y-97708940D01*
X137843734Y-97708940D02*
X137919924Y-97708940D01*
X137919924Y-97708940D02*
X137996115Y-97670845D01*
X137996115Y-97670845D02*
X138034210Y-97632749D01*
X138034210Y-97632749D02*
X138072305Y-97556559D01*
X138072305Y-97556559D02*
X138110401Y-97404178D01*
X138110401Y-97404178D02*
X138110401Y-97213702D01*
X138110401Y-97213702D02*
X138072305Y-97061321D01*
X138072305Y-97061321D02*
X138034210Y-96985130D01*
X138034210Y-96985130D02*
X137996115Y-96947035D01*
X137996115Y-96947035D02*
X137919924Y-96908940D01*
X137310400Y-97632749D02*
X137272305Y-97670845D01*
X137272305Y-97670845D02*
X137310400Y-97708940D01*
X137310400Y-97708940D02*
X137348496Y-97670845D01*
X137348496Y-97670845D02*
X137310400Y-97632749D01*
X137310400Y-97632749D02*
X137310400Y-97708940D01*
X137310400Y-97213702D02*
X137272305Y-97251797D01*
X137272305Y-97251797D02*
X137310400Y-97289892D01*
X137310400Y-97289892D02*
X137348496Y-97251797D01*
X137348496Y-97251797D02*
X137310400Y-97213702D01*
X137310400Y-97213702D02*
X137310400Y-97289892D01*
X135900877Y-97708940D02*
X136358020Y-97708940D01*
X136129448Y-97708940D02*
X136129448Y-96908940D01*
X136129448Y-96908940D02*
X136205639Y-97023225D01*
X136205639Y-97023225D02*
X136281829Y-97099416D01*
X136281829Y-97099416D02*
X136358020Y-97137511D01*
X135177067Y-96908940D02*
X135558019Y-96908940D01*
X135558019Y-96908940D02*
X135596115Y-97289892D01*
X135596115Y-97289892D02*
X135558019Y-97251797D01*
X135558019Y-97251797D02*
X135481829Y-97213702D01*
X135481829Y-97213702D02*
X135291353Y-97213702D01*
X135291353Y-97213702D02*
X135215162Y-97251797D01*
X135215162Y-97251797D02*
X135177067Y-97289892D01*
X135177067Y-97289892D02*
X135138972Y-97366083D01*
X135138972Y-97366083D02*
X135138972Y-97556559D01*
X135138972Y-97556559D02*
X135177067Y-97632749D01*
X135177067Y-97632749D02*
X135215162Y-97670845D01*
X135215162Y-97670845D02*
X135291353Y-97708940D01*
X135291353Y-97708940D02*
X135481829Y-97708940D01*
X135481829Y-97708940D02*
X135558019Y-97670845D01*
X135558019Y-97670845D02*
X135596115Y-97632749D01*
X134910400Y-96908940D02*
X134643733Y-97708940D01*
X134643733Y-97708940D02*
X134377067Y-96908940D01*
X139215163Y-98196895D02*
X139215163Y-98768323D01*
X139215163Y-98768323D02*
X139253258Y-98882609D01*
X139253258Y-98882609D02*
X139329449Y-98958800D01*
X139329449Y-98958800D02*
X139443734Y-98996895D01*
X139443734Y-98996895D02*
X139519925Y-98996895D01*
X138415163Y-98996895D02*
X138872306Y-98996895D01*
X138643734Y-98996895D02*
X138643734Y-98196895D01*
X138643734Y-98196895D02*
X138719925Y-98311180D01*
X138719925Y-98311180D02*
X138796115Y-98387371D01*
X138796115Y-98387371D02*
X138872306Y-98425466D01*
X137653258Y-98996895D02*
X138110401Y-98996895D01*
X137881829Y-98996895D02*
X137881829Y-98196895D01*
X137881829Y-98196895D02*
X137958020Y-98311180D01*
X137958020Y-98311180D02*
X138034210Y-98387371D01*
X138034210Y-98387371D02*
X138110401Y-98425466D01*
X137310400Y-98920704D02*
X137272305Y-98958800D01*
X137272305Y-98958800D02*
X137310400Y-98996895D01*
X137310400Y-98996895D02*
X137348496Y-98958800D01*
X137348496Y-98958800D02*
X137310400Y-98920704D01*
X137310400Y-98920704D02*
X137310400Y-98996895D01*
X137310400Y-98501657D02*
X137272305Y-98539752D01*
X137272305Y-98539752D02*
X137310400Y-98577847D01*
X137310400Y-98577847D02*
X137348496Y-98539752D01*
X137348496Y-98539752D02*
X137310400Y-98501657D01*
X137310400Y-98501657D02*
X137310400Y-98577847D01*
X135900877Y-98996895D02*
X136358020Y-98996895D01*
X136129448Y-98996895D02*
X136129448Y-98196895D01*
X136129448Y-98196895D02*
X136205639Y-98311180D01*
X136205639Y-98311180D02*
X136281829Y-98387371D01*
X136281829Y-98387371D02*
X136358020Y-98425466D01*
X135443734Y-98539752D02*
X135519924Y-98501657D01*
X135519924Y-98501657D02*
X135558019Y-98463561D01*
X135558019Y-98463561D02*
X135596115Y-98387371D01*
X135596115Y-98387371D02*
X135596115Y-98349276D01*
X135596115Y-98349276D02*
X135558019Y-98273085D01*
X135558019Y-98273085D02*
X135519924Y-98234990D01*
X135519924Y-98234990D02*
X135443734Y-98196895D01*
X135443734Y-98196895D02*
X135291353Y-98196895D01*
X135291353Y-98196895D02*
X135215162Y-98234990D01*
X135215162Y-98234990D02*
X135177067Y-98273085D01*
X135177067Y-98273085D02*
X135138972Y-98349276D01*
X135138972Y-98349276D02*
X135138972Y-98387371D01*
X135138972Y-98387371D02*
X135177067Y-98463561D01*
X135177067Y-98463561D02*
X135215162Y-98501657D01*
X135215162Y-98501657D02*
X135291353Y-98539752D01*
X135291353Y-98539752D02*
X135443734Y-98539752D01*
X135443734Y-98539752D02*
X135519924Y-98577847D01*
X135519924Y-98577847D02*
X135558019Y-98615942D01*
X135558019Y-98615942D02*
X135596115Y-98692133D01*
X135596115Y-98692133D02*
X135596115Y-98844514D01*
X135596115Y-98844514D02*
X135558019Y-98920704D01*
X135558019Y-98920704D02*
X135519924Y-98958800D01*
X135519924Y-98958800D02*
X135443734Y-98996895D01*
X135443734Y-98996895D02*
X135291353Y-98996895D01*
X135291353Y-98996895D02*
X135215162Y-98958800D01*
X135215162Y-98958800D02*
X135177067Y-98920704D01*
X135177067Y-98920704D02*
X135138972Y-98844514D01*
X135138972Y-98844514D02*
X135138972Y-98692133D01*
X135138972Y-98692133D02*
X135177067Y-98615942D01*
X135177067Y-98615942D02*
X135215162Y-98577847D01*
X135215162Y-98577847D02*
X135291353Y-98539752D01*
X134910400Y-98196895D02*
X134643733Y-98996895D01*
X134643733Y-98996895D02*
X134377067Y-98196895D01*
X143115163Y-80305300D02*
X143115163Y-80876728D01*
X143115163Y-80876728D02*
X143153258Y-80991014D01*
X143153258Y-80991014D02*
X143229449Y-81067205D01*
X143229449Y-81067205D02*
X143343734Y-81105300D01*
X143343734Y-81105300D02*
X143419925Y-81105300D01*
X142353258Y-80305300D02*
X142734210Y-80305300D01*
X142734210Y-80305300D02*
X142772306Y-80686252D01*
X142772306Y-80686252D02*
X142734210Y-80648157D01*
X142734210Y-80648157D02*
X142658020Y-80610062D01*
X142658020Y-80610062D02*
X142467544Y-80610062D01*
X142467544Y-80610062D02*
X142391353Y-80648157D01*
X142391353Y-80648157D02*
X142353258Y-80686252D01*
X142353258Y-80686252D02*
X142315163Y-80762443D01*
X142315163Y-80762443D02*
X142315163Y-80952919D01*
X142315163Y-80952919D02*
X142353258Y-81029109D01*
X142353258Y-81029109D02*
X142391353Y-81067205D01*
X142391353Y-81067205D02*
X142467544Y-81105300D01*
X142467544Y-81105300D02*
X142658020Y-81105300D01*
X142658020Y-81105300D02*
X142734210Y-81067205D01*
X142734210Y-81067205D02*
X142772306Y-81029109D01*
X141972305Y-81029109D02*
X141934210Y-81067205D01*
X141934210Y-81067205D02*
X141972305Y-81105300D01*
X141972305Y-81105300D02*
X142010401Y-81067205D01*
X142010401Y-81067205D02*
X141972305Y-81029109D01*
X141972305Y-81029109D02*
X141972305Y-81105300D01*
X141972305Y-80610062D02*
X141934210Y-80648157D01*
X141934210Y-80648157D02*
X141972305Y-80686252D01*
X141972305Y-80686252D02*
X142010401Y-80648157D01*
X142010401Y-80648157D02*
X141972305Y-80610062D01*
X141972305Y-80610062D02*
X141972305Y-80686252D01*
X138124686Y-81105300D02*
X138581829Y-81105300D01*
X138353257Y-81105300D02*
X138353257Y-80305300D01*
X138353257Y-80305300D02*
X138429448Y-80419585D01*
X138429448Y-80419585D02*
X138505638Y-80495776D01*
X138505638Y-80495776D02*
X138581829Y-80533871D01*
X137781828Y-81029109D02*
X137743733Y-81067205D01*
X137743733Y-81067205D02*
X137781828Y-81105300D01*
X137781828Y-81105300D02*
X137819924Y-81067205D01*
X137819924Y-81067205D02*
X137781828Y-81029109D01*
X137781828Y-81029109D02*
X137781828Y-81105300D01*
X137438972Y-80381490D02*
X137400876Y-80343395D01*
X137400876Y-80343395D02*
X137324686Y-80305300D01*
X137324686Y-80305300D02*
X137134210Y-80305300D01*
X137134210Y-80305300D02*
X137058019Y-80343395D01*
X137058019Y-80343395D02*
X137019924Y-80381490D01*
X137019924Y-80381490D02*
X136981829Y-80457681D01*
X136981829Y-80457681D02*
X136981829Y-80533871D01*
X136981829Y-80533871D02*
X137019924Y-80648157D01*
X137019924Y-80648157D02*
X137477067Y-81105300D01*
X137477067Y-81105300D02*
X136981829Y-81105300D01*
X136258019Y-80305300D02*
X136638971Y-80305300D01*
X136638971Y-80305300D02*
X136677067Y-80686252D01*
X136677067Y-80686252D02*
X136638971Y-80648157D01*
X136638971Y-80648157D02*
X136562781Y-80610062D01*
X136562781Y-80610062D02*
X136372305Y-80610062D01*
X136372305Y-80610062D02*
X136296114Y-80648157D01*
X136296114Y-80648157D02*
X136258019Y-80686252D01*
X136258019Y-80686252D02*
X136219924Y-80762443D01*
X136219924Y-80762443D02*
X136219924Y-80952919D01*
X136219924Y-80952919D02*
X136258019Y-81029109D01*
X136258019Y-81029109D02*
X136296114Y-81067205D01*
X136296114Y-81067205D02*
X136372305Y-81105300D01*
X136372305Y-81105300D02*
X136562781Y-81105300D01*
X136562781Y-81105300D02*
X136638971Y-81067205D01*
X136638971Y-81067205D02*
X136677067Y-81029109D01*
X135915162Y-80876728D02*
X135534209Y-80876728D01*
X135991352Y-81105300D02*
X135724685Y-80305300D01*
X135724685Y-80305300D02*
X135458019Y-81105300D01*
X143115163Y-81593255D02*
X143115163Y-82164683D01*
X143115163Y-82164683D02*
X143153258Y-82278969D01*
X143153258Y-82278969D02*
X143229449Y-82355160D01*
X143229449Y-82355160D02*
X143343734Y-82393255D01*
X143343734Y-82393255D02*
X143419925Y-82393255D01*
X142391353Y-81593255D02*
X142543734Y-81593255D01*
X142543734Y-81593255D02*
X142619925Y-81631350D01*
X142619925Y-81631350D02*
X142658020Y-81669445D01*
X142658020Y-81669445D02*
X142734210Y-81783731D01*
X142734210Y-81783731D02*
X142772306Y-81936112D01*
X142772306Y-81936112D02*
X142772306Y-82240874D01*
X142772306Y-82240874D02*
X142734210Y-82317064D01*
X142734210Y-82317064D02*
X142696115Y-82355160D01*
X142696115Y-82355160D02*
X142619925Y-82393255D01*
X142619925Y-82393255D02*
X142467544Y-82393255D01*
X142467544Y-82393255D02*
X142391353Y-82355160D01*
X142391353Y-82355160D02*
X142353258Y-82317064D01*
X142353258Y-82317064D02*
X142315163Y-82240874D01*
X142315163Y-82240874D02*
X142315163Y-82050398D01*
X142315163Y-82050398D02*
X142353258Y-81974207D01*
X142353258Y-81974207D02*
X142391353Y-81936112D01*
X142391353Y-81936112D02*
X142467544Y-81898017D01*
X142467544Y-81898017D02*
X142619925Y-81898017D01*
X142619925Y-81898017D02*
X142696115Y-81936112D01*
X142696115Y-81936112D02*
X142734210Y-81974207D01*
X142734210Y-81974207D02*
X142772306Y-82050398D01*
X141362781Y-82088493D02*
X140753258Y-82088493D01*
X141058019Y-82393255D02*
X141058019Y-81783731D01*
X139305638Y-82393255D02*
X139572305Y-82012302D01*
X139762781Y-82393255D02*
X139762781Y-81593255D01*
X139762781Y-81593255D02*
X139458019Y-81593255D01*
X139458019Y-81593255D02*
X139381829Y-81631350D01*
X139381829Y-81631350D02*
X139343734Y-81669445D01*
X139343734Y-81669445D02*
X139305638Y-81745636D01*
X139305638Y-81745636D02*
X139305638Y-81859921D01*
X139305638Y-81859921D02*
X139343734Y-81936112D01*
X139343734Y-81936112D02*
X139381829Y-81974207D01*
X139381829Y-81974207D02*
X139458019Y-82012302D01*
X139458019Y-82012302D02*
X139762781Y-82012302D01*
X139000877Y-81669445D02*
X138962781Y-81631350D01*
X138962781Y-81631350D02*
X138886591Y-81593255D01*
X138886591Y-81593255D02*
X138696115Y-81593255D01*
X138696115Y-81593255D02*
X138619924Y-81631350D01*
X138619924Y-81631350D02*
X138581829Y-81669445D01*
X138581829Y-81669445D02*
X138543734Y-81745636D01*
X138543734Y-81745636D02*
X138543734Y-81821826D01*
X138543734Y-81821826D02*
X138581829Y-81936112D01*
X138581829Y-81936112D02*
X139038972Y-82393255D01*
X139038972Y-82393255D02*
X138543734Y-82393255D01*
X138200876Y-82317064D02*
X138162781Y-82355160D01*
X138162781Y-82355160D02*
X138200876Y-82393255D01*
X138200876Y-82393255D02*
X138238972Y-82355160D01*
X138238972Y-82355160D02*
X138200876Y-82317064D01*
X138200876Y-82317064D02*
X138200876Y-82393255D01*
X138200876Y-81898017D02*
X138162781Y-81936112D01*
X138162781Y-81936112D02*
X138200876Y-81974207D01*
X138200876Y-81974207D02*
X138238972Y-81936112D01*
X138238972Y-81936112D02*
X138200876Y-81898017D01*
X138200876Y-81898017D02*
X138200876Y-81974207D01*
X143000877Y-83147876D02*
X143000877Y-83681210D01*
X143191353Y-82843115D02*
X143381830Y-83414543D01*
X143381830Y-83414543D02*
X142886591Y-83414543D01*
X142543734Y-83643115D02*
X142543734Y-83681210D01*
X142543734Y-83681210D02*
X142581829Y-83757400D01*
X142581829Y-83757400D02*
X142619925Y-83795495D01*
X141819925Y-82881210D02*
X142200877Y-82881210D01*
X142200877Y-82881210D02*
X142238973Y-83262162D01*
X142238973Y-83262162D02*
X142200877Y-83224067D01*
X142200877Y-83224067D02*
X142124687Y-83185972D01*
X142124687Y-83185972D02*
X141934211Y-83185972D01*
X141934211Y-83185972D02*
X141858020Y-83224067D01*
X141858020Y-83224067D02*
X141819925Y-83262162D01*
X141819925Y-83262162D02*
X141781830Y-83338353D01*
X141781830Y-83338353D02*
X141781830Y-83528829D01*
X141781830Y-83528829D02*
X141819925Y-83605019D01*
X141819925Y-83605019D02*
X141858020Y-83643115D01*
X141858020Y-83643115D02*
X141934211Y-83681210D01*
X141934211Y-83681210D02*
X142124687Y-83681210D01*
X142124687Y-83681210D02*
X142200877Y-83643115D01*
X142200877Y-83643115D02*
X142238973Y-83605019D01*
X141515163Y-82881210D02*
X141019925Y-82881210D01*
X141019925Y-82881210D02*
X141286591Y-83185972D01*
X141286591Y-83185972D02*
X141172306Y-83185972D01*
X141172306Y-83185972D02*
X141096115Y-83224067D01*
X141096115Y-83224067D02*
X141058020Y-83262162D01*
X141058020Y-83262162D02*
X141019925Y-83338353D01*
X141019925Y-83338353D02*
X141019925Y-83528829D01*
X141019925Y-83528829D02*
X141058020Y-83605019D01*
X141058020Y-83605019D02*
X141096115Y-83643115D01*
X141096115Y-83643115D02*
X141172306Y-83681210D01*
X141172306Y-83681210D02*
X141400877Y-83681210D01*
X141400877Y-83681210D02*
X141477068Y-83643115D01*
X141477068Y-83643115D02*
X141515163Y-83605019D01*
X140677067Y-83681210D02*
X140677067Y-82881210D01*
X140600877Y-83376448D02*
X140372305Y-83681210D01*
X140372305Y-83147876D02*
X140677067Y-83452638D01*
X139419924Y-83376448D02*
X138810401Y-83376448D01*
X137400877Y-83681210D02*
X137858020Y-83681210D01*
X137629448Y-83681210D02*
X137629448Y-82881210D01*
X137629448Y-82881210D02*
X137705639Y-82995495D01*
X137705639Y-82995495D02*
X137781829Y-83071686D01*
X137781829Y-83071686D02*
X137858020Y-83109781D01*
X137019924Y-83643115D02*
X137019924Y-83681210D01*
X137019924Y-83681210D02*
X137058019Y-83757400D01*
X137058019Y-83757400D02*
X137096115Y-83795495D01*
X136296115Y-82881210D02*
X136677067Y-82881210D01*
X136677067Y-82881210D02*
X136715163Y-83262162D01*
X136715163Y-83262162D02*
X136677067Y-83224067D01*
X136677067Y-83224067D02*
X136600877Y-83185972D01*
X136600877Y-83185972D02*
X136410401Y-83185972D01*
X136410401Y-83185972D02*
X136334210Y-83224067D01*
X136334210Y-83224067D02*
X136296115Y-83262162D01*
X136296115Y-83262162D02*
X136258020Y-83338353D01*
X136258020Y-83338353D02*
X136258020Y-83528829D01*
X136258020Y-83528829D02*
X136296115Y-83605019D01*
X136296115Y-83605019D02*
X136334210Y-83643115D01*
X136334210Y-83643115D02*
X136410401Y-83681210D01*
X136410401Y-83681210D02*
X136600877Y-83681210D01*
X136600877Y-83681210D02*
X136677067Y-83643115D01*
X136677067Y-83643115D02*
X136715163Y-83605019D01*
X135762781Y-82881210D02*
X135686591Y-82881210D01*
X135686591Y-82881210D02*
X135610400Y-82919305D01*
X135610400Y-82919305D02*
X135572305Y-82957400D01*
X135572305Y-82957400D02*
X135534210Y-83033591D01*
X135534210Y-83033591D02*
X135496115Y-83185972D01*
X135496115Y-83185972D02*
X135496115Y-83376448D01*
X135496115Y-83376448D02*
X135534210Y-83528829D01*
X135534210Y-83528829D02*
X135572305Y-83605019D01*
X135572305Y-83605019D02*
X135610400Y-83643115D01*
X135610400Y-83643115D02*
X135686591Y-83681210D01*
X135686591Y-83681210D02*
X135762781Y-83681210D01*
X135762781Y-83681210D02*
X135838972Y-83643115D01*
X135838972Y-83643115D02*
X135877067Y-83605019D01*
X135877067Y-83605019D02*
X135915162Y-83528829D01*
X135915162Y-83528829D02*
X135953258Y-83376448D01*
X135953258Y-83376448D02*
X135953258Y-83185972D01*
X135953258Y-83185972D02*
X135915162Y-83033591D01*
X135915162Y-83033591D02*
X135877067Y-82957400D01*
X135877067Y-82957400D02*
X135838972Y-82919305D01*
X135838972Y-82919305D02*
X135762781Y-82881210D01*
X135191353Y-83452638D02*
X134810400Y-83452638D01*
X135267543Y-83681210D02*
X135000876Y-82881210D01*
X135000876Y-82881210D02*
X134734210Y-83681210D01*
X142810401Y-84169165D02*
X142277067Y-84169165D01*
X142277067Y-84169165D02*
X142619925Y-84969165D01*
X141934210Y-84931070D02*
X141934210Y-84969165D01*
X141934210Y-84969165D02*
X141972305Y-85045355D01*
X141972305Y-85045355D02*
X142010401Y-85083450D01*
X141210401Y-84169165D02*
X141591353Y-84169165D01*
X141591353Y-84169165D02*
X141629449Y-84550117D01*
X141629449Y-84550117D02*
X141591353Y-84512022D01*
X141591353Y-84512022D02*
X141515163Y-84473927D01*
X141515163Y-84473927D02*
X141324687Y-84473927D01*
X141324687Y-84473927D02*
X141248496Y-84512022D01*
X141248496Y-84512022D02*
X141210401Y-84550117D01*
X141210401Y-84550117D02*
X141172306Y-84626308D01*
X141172306Y-84626308D02*
X141172306Y-84816784D01*
X141172306Y-84816784D02*
X141210401Y-84892974D01*
X141210401Y-84892974D02*
X141248496Y-84931070D01*
X141248496Y-84931070D02*
X141324687Y-84969165D01*
X141324687Y-84969165D02*
X141515163Y-84969165D01*
X141515163Y-84969165D02*
X141591353Y-84931070D01*
X141591353Y-84931070D02*
X141629449Y-84892974D01*
X140829448Y-84969165D02*
X140829448Y-84169165D01*
X140753258Y-84664403D02*
X140524686Y-84969165D01*
X140524686Y-84435831D02*
X140829448Y-84740593D01*
X139572305Y-84664403D02*
X138962782Y-84664403D01*
X137553258Y-84969165D02*
X138010401Y-84969165D01*
X137781829Y-84969165D02*
X137781829Y-84169165D01*
X137781829Y-84169165D02*
X137858020Y-84283450D01*
X137858020Y-84283450D02*
X137934210Y-84359641D01*
X137934210Y-84359641D02*
X138010401Y-84397736D01*
X137172305Y-84931070D02*
X137172305Y-84969165D01*
X137172305Y-84969165D02*
X137210400Y-85045355D01*
X137210400Y-85045355D02*
X137248496Y-85083450D01*
X136905639Y-84169165D02*
X136372305Y-84169165D01*
X136372305Y-84169165D02*
X136715163Y-84969165D01*
X135686591Y-84169165D02*
X136067543Y-84169165D01*
X136067543Y-84169165D02*
X136105639Y-84550117D01*
X136105639Y-84550117D02*
X136067543Y-84512022D01*
X136067543Y-84512022D02*
X135991353Y-84473927D01*
X135991353Y-84473927D02*
X135800877Y-84473927D01*
X135800877Y-84473927D02*
X135724686Y-84512022D01*
X135724686Y-84512022D02*
X135686591Y-84550117D01*
X135686591Y-84550117D02*
X135648496Y-84626308D01*
X135648496Y-84626308D02*
X135648496Y-84816784D01*
X135648496Y-84816784D02*
X135686591Y-84892974D01*
X135686591Y-84892974D02*
X135724686Y-84931070D01*
X135724686Y-84931070D02*
X135800877Y-84969165D01*
X135800877Y-84969165D02*
X135991353Y-84969165D01*
X135991353Y-84969165D02*
X136067543Y-84931070D01*
X136067543Y-84931070D02*
X136105639Y-84892974D01*
X135343734Y-84740593D02*
X134962781Y-84740593D01*
X135419924Y-84969165D02*
X135153257Y-84169165D01*
X135153257Y-84169165D02*
X134886591Y-84969165D01*
X142924687Y-86257120D02*
X143381830Y-86257120D01*
X143153258Y-86257120D02*
X143153258Y-85457120D01*
X143153258Y-85457120D02*
X143229449Y-85571405D01*
X143229449Y-85571405D02*
X143305639Y-85647596D01*
X143305639Y-85647596D02*
X143381830Y-85685691D01*
X142429448Y-85457120D02*
X142353258Y-85457120D01*
X142353258Y-85457120D02*
X142277067Y-85495215D01*
X142277067Y-85495215D02*
X142238972Y-85533310D01*
X142238972Y-85533310D02*
X142200877Y-85609501D01*
X142200877Y-85609501D02*
X142162782Y-85761882D01*
X142162782Y-85761882D02*
X142162782Y-85952358D01*
X142162782Y-85952358D02*
X142200877Y-86104739D01*
X142200877Y-86104739D02*
X142238972Y-86180929D01*
X142238972Y-86180929D02*
X142277067Y-86219025D01*
X142277067Y-86219025D02*
X142353258Y-86257120D01*
X142353258Y-86257120D02*
X142429448Y-86257120D01*
X142429448Y-86257120D02*
X142505639Y-86219025D01*
X142505639Y-86219025D02*
X142543734Y-86180929D01*
X142543734Y-86180929D02*
X142581829Y-86104739D01*
X142581829Y-86104739D02*
X142619925Y-85952358D01*
X142619925Y-85952358D02*
X142619925Y-85761882D01*
X142619925Y-85761882D02*
X142581829Y-85609501D01*
X142581829Y-85609501D02*
X142543734Y-85533310D01*
X142543734Y-85533310D02*
X142505639Y-85495215D01*
X142505639Y-85495215D02*
X142429448Y-85457120D01*
X141781829Y-86219025D02*
X141781829Y-86257120D01*
X141781829Y-86257120D02*
X141819924Y-86333310D01*
X141819924Y-86333310D02*
X141858020Y-86371405D01*
X141058020Y-85457120D02*
X141438972Y-85457120D01*
X141438972Y-85457120D02*
X141477068Y-85838072D01*
X141477068Y-85838072D02*
X141438972Y-85799977D01*
X141438972Y-85799977D02*
X141362782Y-85761882D01*
X141362782Y-85761882D02*
X141172306Y-85761882D01*
X141172306Y-85761882D02*
X141096115Y-85799977D01*
X141096115Y-85799977D02*
X141058020Y-85838072D01*
X141058020Y-85838072D02*
X141019925Y-85914263D01*
X141019925Y-85914263D02*
X141019925Y-86104739D01*
X141019925Y-86104739D02*
X141058020Y-86180929D01*
X141058020Y-86180929D02*
X141096115Y-86219025D01*
X141096115Y-86219025D02*
X141172306Y-86257120D01*
X141172306Y-86257120D02*
X141362782Y-86257120D01*
X141362782Y-86257120D02*
X141438972Y-86219025D01*
X141438972Y-86219025D02*
X141477068Y-86180929D01*
X140677067Y-86257120D02*
X140677067Y-85457120D01*
X140600877Y-85952358D02*
X140372305Y-86257120D01*
X140372305Y-85723786D02*
X140677067Y-86028548D01*
X139419924Y-85952358D02*
X138810401Y-85952358D01*
X137858020Y-85533310D02*
X137819924Y-85495215D01*
X137819924Y-85495215D02*
X137743734Y-85457120D01*
X137743734Y-85457120D02*
X137553258Y-85457120D01*
X137553258Y-85457120D02*
X137477067Y-85495215D01*
X137477067Y-85495215D02*
X137438972Y-85533310D01*
X137438972Y-85533310D02*
X137400877Y-85609501D01*
X137400877Y-85609501D02*
X137400877Y-85685691D01*
X137400877Y-85685691D02*
X137438972Y-85799977D01*
X137438972Y-85799977D02*
X137896115Y-86257120D01*
X137896115Y-86257120D02*
X137400877Y-86257120D01*
X137019924Y-86219025D02*
X137019924Y-86257120D01*
X137019924Y-86257120D02*
X137058019Y-86333310D01*
X137058019Y-86333310D02*
X137096115Y-86371405D01*
X136524686Y-85457120D02*
X136448496Y-85457120D01*
X136448496Y-85457120D02*
X136372305Y-85495215D01*
X136372305Y-85495215D02*
X136334210Y-85533310D01*
X136334210Y-85533310D02*
X136296115Y-85609501D01*
X136296115Y-85609501D02*
X136258020Y-85761882D01*
X136258020Y-85761882D02*
X136258020Y-85952358D01*
X136258020Y-85952358D02*
X136296115Y-86104739D01*
X136296115Y-86104739D02*
X136334210Y-86180929D01*
X136334210Y-86180929D02*
X136372305Y-86219025D01*
X136372305Y-86219025D02*
X136448496Y-86257120D01*
X136448496Y-86257120D02*
X136524686Y-86257120D01*
X136524686Y-86257120D02*
X136600877Y-86219025D01*
X136600877Y-86219025D02*
X136638972Y-86180929D01*
X136638972Y-86180929D02*
X136677067Y-86104739D01*
X136677067Y-86104739D02*
X136715163Y-85952358D01*
X136715163Y-85952358D02*
X136715163Y-85761882D01*
X136715163Y-85761882D02*
X136677067Y-85609501D01*
X136677067Y-85609501D02*
X136638972Y-85533310D01*
X136638972Y-85533310D02*
X136600877Y-85495215D01*
X136600877Y-85495215D02*
X136524686Y-85457120D01*
X135762781Y-85457120D02*
X135686591Y-85457120D01*
X135686591Y-85457120D02*
X135610400Y-85495215D01*
X135610400Y-85495215D02*
X135572305Y-85533310D01*
X135572305Y-85533310D02*
X135534210Y-85609501D01*
X135534210Y-85609501D02*
X135496115Y-85761882D01*
X135496115Y-85761882D02*
X135496115Y-85952358D01*
X135496115Y-85952358D02*
X135534210Y-86104739D01*
X135534210Y-86104739D02*
X135572305Y-86180929D01*
X135572305Y-86180929D02*
X135610400Y-86219025D01*
X135610400Y-86219025D02*
X135686591Y-86257120D01*
X135686591Y-86257120D02*
X135762781Y-86257120D01*
X135762781Y-86257120D02*
X135838972Y-86219025D01*
X135838972Y-86219025D02*
X135877067Y-86180929D01*
X135877067Y-86180929D02*
X135915162Y-86104739D01*
X135915162Y-86104739D02*
X135953258Y-85952358D01*
X135953258Y-85952358D02*
X135953258Y-85761882D01*
X135953258Y-85761882D02*
X135915162Y-85609501D01*
X135915162Y-85609501D02*
X135877067Y-85533310D01*
X135877067Y-85533310D02*
X135838972Y-85495215D01*
X135838972Y-85495215D02*
X135762781Y-85457120D01*
X135191353Y-86028548D02*
X134810400Y-86028548D01*
X135267543Y-86257120D02*
X135000876Y-85457120D01*
X135000876Y-85457120D02*
X134734210Y-86257120D01*
X142924687Y-87545075D02*
X143381830Y-87545075D01*
X143153258Y-87545075D02*
X143153258Y-86745075D01*
X143153258Y-86745075D02*
X143229449Y-86859360D01*
X143229449Y-86859360D02*
X143305639Y-86935551D01*
X143305639Y-86935551D02*
X143381830Y-86973646D01*
X142658020Y-86745075D02*
X142162782Y-86745075D01*
X142162782Y-86745075D02*
X142429448Y-87049837D01*
X142429448Y-87049837D02*
X142315163Y-87049837D01*
X142315163Y-87049837D02*
X142238972Y-87087932D01*
X142238972Y-87087932D02*
X142200877Y-87126027D01*
X142200877Y-87126027D02*
X142162782Y-87202218D01*
X142162782Y-87202218D02*
X142162782Y-87392694D01*
X142162782Y-87392694D02*
X142200877Y-87468884D01*
X142200877Y-87468884D02*
X142238972Y-87506980D01*
X142238972Y-87506980D02*
X142315163Y-87545075D01*
X142315163Y-87545075D02*
X142543734Y-87545075D01*
X142543734Y-87545075D02*
X142619925Y-87506980D01*
X142619925Y-87506980D02*
X142658020Y-87468884D01*
X141781829Y-87506980D02*
X141781829Y-87545075D01*
X141781829Y-87545075D02*
X141819924Y-87621265D01*
X141819924Y-87621265D02*
X141858020Y-87659360D01*
X141515163Y-86745075D02*
X140981829Y-86745075D01*
X140981829Y-86745075D02*
X141324687Y-87545075D01*
X140677067Y-87545075D02*
X140677067Y-86745075D01*
X140600877Y-87240313D02*
X140372305Y-87545075D01*
X140372305Y-87011741D02*
X140677067Y-87316503D01*
X139419924Y-87240313D02*
X138810401Y-87240313D01*
X137858020Y-86821265D02*
X137819924Y-86783170D01*
X137819924Y-86783170D02*
X137743734Y-86745075D01*
X137743734Y-86745075D02*
X137553258Y-86745075D01*
X137553258Y-86745075D02*
X137477067Y-86783170D01*
X137477067Y-86783170D02*
X137438972Y-86821265D01*
X137438972Y-86821265D02*
X137400877Y-86897456D01*
X137400877Y-86897456D02*
X137400877Y-86973646D01*
X137400877Y-86973646D02*
X137438972Y-87087932D01*
X137438972Y-87087932D02*
X137896115Y-87545075D01*
X137896115Y-87545075D02*
X137400877Y-87545075D01*
X137019924Y-87506980D02*
X137019924Y-87545075D01*
X137019924Y-87545075D02*
X137058019Y-87621265D01*
X137058019Y-87621265D02*
X137096115Y-87659360D01*
X136715163Y-86821265D02*
X136677067Y-86783170D01*
X136677067Y-86783170D02*
X136600877Y-86745075D01*
X136600877Y-86745075D02*
X136410401Y-86745075D01*
X136410401Y-86745075D02*
X136334210Y-86783170D01*
X136334210Y-86783170D02*
X136296115Y-86821265D01*
X136296115Y-86821265D02*
X136258020Y-86897456D01*
X136258020Y-86897456D02*
X136258020Y-86973646D01*
X136258020Y-86973646D02*
X136296115Y-87087932D01*
X136296115Y-87087932D02*
X136753258Y-87545075D01*
X136753258Y-87545075D02*
X136258020Y-87545075D01*
X135534210Y-86745075D02*
X135915162Y-86745075D01*
X135915162Y-86745075D02*
X135953258Y-87126027D01*
X135953258Y-87126027D02*
X135915162Y-87087932D01*
X135915162Y-87087932D02*
X135838972Y-87049837D01*
X135838972Y-87049837D02*
X135648496Y-87049837D01*
X135648496Y-87049837D02*
X135572305Y-87087932D01*
X135572305Y-87087932D02*
X135534210Y-87126027D01*
X135534210Y-87126027D02*
X135496115Y-87202218D01*
X135496115Y-87202218D02*
X135496115Y-87392694D01*
X135496115Y-87392694D02*
X135534210Y-87468884D01*
X135534210Y-87468884D02*
X135572305Y-87506980D01*
X135572305Y-87506980D02*
X135648496Y-87545075D01*
X135648496Y-87545075D02*
X135838972Y-87545075D01*
X135838972Y-87545075D02*
X135915162Y-87506980D01*
X135915162Y-87506980D02*
X135953258Y-87468884D01*
X135191353Y-87316503D02*
X134810400Y-87316503D01*
X135267543Y-87545075D02*
X135000876Y-86745075D01*
X135000876Y-86745075D02*
X134734210Y-87545075D01*
X142924687Y-88833030D02*
X143381830Y-88833030D01*
X143153258Y-88833030D02*
X143153258Y-88033030D01*
X143153258Y-88033030D02*
X143229449Y-88147315D01*
X143229449Y-88147315D02*
X143305639Y-88223506D01*
X143305639Y-88223506D02*
X143381830Y-88261601D01*
X142238972Y-88033030D02*
X142391353Y-88033030D01*
X142391353Y-88033030D02*
X142467544Y-88071125D01*
X142467544Y-88071125D02*
X142505639Y-88109220D01*
X142505639Y-88109220D02*
X142581829Y-88223506D01*
X142581829Y-88223506D02*
X142619925Y-88375887D01*
X142619925Y-88375887D02*
X142619925Y-88680649D01*
X142619925Y-88680649D02*
X142581829Y-88756839D01*
X142581829Y-88756839D02*
X142543734Y-88794935D01*
X142543734Y-88794935D02*
X142467544Y-88833030D01*
X142467544Y-88833030D02*
X142315163Y-88833030D01*
X142315163Y-88833030D02*
X142238972Y-88794935D01*
X142238972Y-88794935D02*
X142200877Y-88756839D01*
X142200877Y-88756839D02*
X142162782Y-88680649D01*
X142162782Y-88680649D02*
X142162782Y-88490173D01*
X142162782Y-88490173D02*
X142200877Y-88413982D01*
X142200877Y-88413982D02*
X142238972Y-88375887D01*
X142238972Y-88375887D02*
X142315163Y-88337792D01*
X142315163Y-88337792D02*
X142467544Y-88337792D01*
X142467544Y-88337792D02*
X142543734Y-88375887D01*
X142543734Y-88375887D02*
X142581829Y-88413982D01*
X142581829Y-88413982D02*
X142619925Y-88490173D01*
X141781829Y-88794935D02*
X141781829Y-88833030D01*
X141781829Y-88833030D02*
X141819924Y-88909220D01*
X141819924Y-88909220D02*
X141858020Y-88947315D01*
X141058020Y-88033030D02*
X141438972Y-88033030D01*
X141438972Y-88033030D02*
X141477068Y-88413982D01*
X141477068Y-88413982D02*
X141438972Y-88375887D01*
X141438972Y-88375887D02*
X141362782Y-88337792D01*
X141362782Y-88337792D02*
X141172306Y-88337792D01*
X141172306Y-88337792D02*
X141096115Y-88375887D01*
X141096115Y-88375887D02*
X141058020Y-88413982D01*
X141058020Y-88413982D02*
X141019925Y-88490173D01*
X141019925Y-88490173D02*
X141019925Y-88680649D01*
X141019925Y-88680649D02*
X141058020Y-88756839D01*
X141058020Y-88756839D02*
X141096115Y-88794935D01*
X141096115Y-88794935D02*
X141172306Y-88833030D01*
X141172306Y-88833030D02*
X141362782Y-88833030D01*
X141362782Y-88833030D02*
X141438972Y-88794935D01*
X141438972Y-88794935D02*
X141477068Y-88756839D01*
X140677067Y-88833030D02*
X140677067Y-88033030D01*
X140600877Y-88528268D02*
X140372305Y-88833030D01*
X140372305Y-88299696D02*
X140677067Y-88604458D01*
X139419924Y-88528268D02*
X138810401Y-88528268D01*
X137858020Y-88109220D02*
X137819924Y-88071125D01*
X137819924Y-88071125D02*
X137743734Y-88033030D01*
X137743734Y-88033030D02*
X137553258Y-88033030D01*
X137553258Y-88033030D02*
X137477067Y-88071125D01*
X137477067Y-88071125D02*
X137438972Y-88109220D01*
X137438972Y-88109220D02*
X137400877Y-88185411D01*
X137400877Y-88185411D02*
X137400877Y-88261601D01*
X137400877Y-88261601D02*
X137438972Y-88375887D01*
X137438972Y-88375887D02*
X137896115Y-88833030D01*
X137896115Y-88833030D02*
X137400877Y-88833030D01*
X137019924Y-88794935D02*
X137019924Y-88833030D01*
X137019924Y-88833030D02*
X137058019Y-88909220D01*
X137058019Y-88909220D02*
X137096115Y-88947315D01*
X136296115Y-88033030D02*
X136677067Y-88033030D01*
X136677067Y-88033030D02*
X136715163Y-88413982D01*
X136715163Y-88413982D02*
X136677067Y-88375887D01*
X136677067Y-88375887D02*
X136600877Y-88337792D01*
X136600877Y-88337792D02*
X136410401Y-88337792D01*
X136410401Y-88337792D02*
X136334210Y-88375887D01*
X136334210Y-88375887D02*
X136296115Y-88413982D01*
X136296115Y-88413982D02*
X136258020Y-88490173D01*
X136258020Y-88490173D02*
X136258020Y-88680649D01*
X136258020Y-88680649D02*
X136296115Y-88756839D01*
X136296115Y-88756839D02*
X136334210Y-88794935D01*
X136334210Y-88794935D02*
X136410401Y-88833030D01*
X136410401Y-88833030D02*
X136600877Y-88833030D01*
X136600877Y-88833030D02*
X136677067Y-88794935D01*
X136677067Y-88794935D02*
X136715163Y-88756839D01*
X135762781Y-88033030D02*
X135686591Y-88033030D01*
X135686591Y-88033030D02*
X135610400Y-88071125D01*
X135610400Y-88071125D02*
X135572305Y-88109220D01*
X135572305Y-88109220D02*
X135534210Y-88185411D01*
X135534210Y-88185411D02*
X135496115Y-88337792D01*
X135496115Y-88337792D02*
X135496115Y-88528268D01*
X135496115Y-88528268D02*
X135534210Y-88680649D01*
X135534210Y-88680649D02*
X135572305Y-88756839D01*
X135572305Y-88756839D02*
X135610400Y-88794935D01*
X135610400Y-88794935D02*
X135686591Y-88833030D01*
X135686591Y-88833030D02*
X135762781Y-88833030D01*
X135762781Y-88833030D02*
X135838972Y-88794935D01*
X135838972Y-88794935D02*
X135877067Y-88756839D01*
X135877067Y-88756839D02*
X135915162Y-88680649D01*
X135915162Y-88680649D02*
X135953258Y-88528268D01*
X135953258Y-88528268D02*
X135953258Y-88337792D01*
X135953258Y-88337792D02*
X135915162Y-88185411D01*
X135915162Y-88185411D02*
X135877067Y-88109220D01*
X135877067Y-88109220D02*
X135838972Y-88071125D01*
X135838972Y-88071125D02*
X135762781Y-88033030D01*
X135191353Y-88604458D02*
X134810400Y-88604458D01*
X135267543Y-88833030D02*
X135000876Y-88033030D01*
X135000876Y-88033030D02*
X134734210Y-88833030D01*
X142924687Y-90120985D02*
X143381830Y-90120985D01*
X143153258Y-90120985D02*
X143153258Y-89320985D01*
X143153258Y-89320985D02*
X143229449Y-89435270D01*
X143229449Y-89435270D02*
X143305639Y-89511461D01*
X143305639Y-89511461D02*
X143381830Y-89549556D01*
X142543734Y-90120985D02*
X142391353Y-90120985D01*
X142391353Y-90120985D02*
X142315163Y-90082890D01*
X142315163Y-90082890D02*
X142277067Y-90044794D01*
X142277067Y-90044794D02*
X142200877Y-89930509D01*
X142200877Y-89930509D02*
X142162782Y-89778128D01*
X142162782Y-89778128D02*
X142162782Y-89473366D01*
X142162782Y-89473366D02*
X142200877Y-89397175D01*
X142200877Y-89397175D02*
X142238972Y-89359080D01*
X142238972Y-89359080D02*
X142315163Y-89320985D01*
X142315163Y-89320985D02*
X142467544Y-89320985D01*
X142467544Y-89320985D02*
X142543734Y-89359080D01*
X142543734Y-89359080D02*
X142581829Y-89397175D01*
X142581829Y-89397175D02*
X142619925Y-89473366D01*
X142619925Y-89473366D02*
X142619925Y-89663842D01*
X142619925Y-89663842D02*
X142581829Y-89740032D01*
X142581829Y-89740032D02*
X142543734Y-89778128D01*
X142543734Y-89778128D02*
X142467544Y-89816223D01*
X142467544Y-89816223D02*
X142315163Y-89816223D01*
X142315163Y-89816223D02*
X142238972Y-89778128D01*
X142238972Y-89778128D02*
X142200877Y-89740032D01*
X142200877Y-89740032D02*
X142162782Y-89663842D01*
X141781829Y-90082890D02*
X141781829Y-90120985D01*
X141781829Y-90120985D02*
X141819924Y-90197175D01*
X141819924Y-90197175D02*
X141858020Y-90235270D01*
X141096115Y-89320985D02*
X141248496Y-89320985D01*
X141248496Y-89320985D02*
X141324687Y-89359080D01*
X141324687Y-89359080D02*
X141362782Y-89397175D01*
X141362782Y-89397175D02*
X141438972Y-89511461D01*
X141438972Y-89511461D02*
X141477068Y-89663842D01*
X141477068Y-89663842D02*
X141477068Y-89968604D01*
X141477068Y-89968604D02*
X141438972Y-90044794D01*
X141438972Y-90044794D02*
X141400877Y-90082890D01*
X141400877Y-90082890D02*
X141324687Y-90120985D01*
X141324687Y-90120985D02*
X141172306Y-90120985D01*
X141172306Y-90120985D02*
X141096115Y-90082890D01*
X141096115Y-90082890D02*
X141058020Y-90044794D01*
X141058020Y-90044794D02*
X141019925Y-89968604D01*
X141019925Y-89968604D02*
X141019925Y-89778128D01*
X141019925Y-89778128D02*
X141058020Y-89701937D01*
X141058020Y-89701937D02*
X141096115Y-89663842D01*
X141096115Y-89663842D02*
X141172306Y-89625747D01*
X141172306Y-89625747D02*
X141324687Y-89625747D01*
X141324687Y-89625747D02*
X141400877Y-89663842D01*
X141400877Y-89663842D02*
X141438972Y-89701937D01*
X141438972Y-89701937D02*
X141477068Y-89778128D01*
X140677067Y-90120985D02*
X140677067Y-89320985D01*
X140600877Y-89816223D02*
X140372305Y-90120985D01*
X140372305Y-89587651D02*
X140677067Y-89892413D01*
X139419924Y-89816223D02*
X138810401Y-89816223D01*
X137858020Y-89397175D02*
X137819924Y-89359080D01*
X137819924Y-89359080D02*
X137743734Y-89320985D01*
X137743734Y-89320985D02*
X137553258Y-89320985D01*
X137553258Y-89320985D02*
X137477067Y-89359080D01*
X137477067Y-89359080D02*
X137438972Y-89397175D01*
X137438972Y-89397175D02*
X137400877Y-89473366D01*
X137400877Y-89473366D02*
X137400877Y-89549556D01*
X137400877Y-89549556D02*
X137438972Y-89663842D01*
X137438972Y-89663842D02*
X137896115Y-90120985D01*
X137896115Y-90120985D02*
X137400877Y-90120985D01*
X137019924Y-90082890D02*
X137019924Y-90120985D01*
X137019924Y-90120985D02*
X137058019Y-90197175D01*
X137058019Y-90197175D02*
X137096115Y-90235270D01*
X136753258Y-89320985D02*
X136219924Y-89320985D01*
X136219924Y-89320985D02*
X136562782Y-90120985D01*
X135534210Y-89320985D02*
X135915162Y-89320985D01*
X135915162Y-89320985D02*
X135953258Y-89701937D01*
X135953258Y-89701937D02*
X135915162Y-89663842D01*
X135915162Y-89663842D02*
X135838972Y-89625747D01*
X135838972Y-89625747D02*
X135648496Y-89625747D01*
X135648496Y-89625747D02*
X135572305Y-89663842D01*
X135572305Y-89663842D02*
X135534210Y-89701937D01*
X135534210Y-89701937D02*
X135496115Y-89778128D01*
X135496115Y-89778128D02*
X135496115Y-89968604D01*
X135496115Y-89968604D02*
X135534210Y-90044794D01*
X135534210Y-90044794D02*
X135572305Y-90082890D01*
X135572305Y-90082890D02*
X135648496Y-90120985D01*
X135648496Y-90120985D02*
X135838972Y-90120985D01*
X135838972Y-90120985D02*
X135915162Y-90082890D01*
X135915162Y-90082890D02*
X135953258Y-90044794D01*
X135191353Y-89892413D02*
X134810400Y-89892413D01*
X135267543Y-90120985D02*
X135000876Y-89320985D01*
X135000876Y-89320985D02*
X134734210Y-90120985D01*
X143381830Y-90685130D02*
X143343734Y-90647035D01*
X143343734Y-90647035D02*
X143267544Y-90608940D01*
X143267544Y-90608940D02*
X143077068Y-90608940D01*
X143077068Y-90608940D02*
X143000877Y-90647035D01*
X143000877Y-90647035D02*
X142962782Y-90685130D01*
X142962782Y-90685130D02*
X142924687Y-90761321D01*
X142924687Y-90761321D02*
X142924687Y-90837511D01*
X142924687Y-90837511D02*
X142962782Y-90951797D01*
X142962782Y-90951797D02*
X143419925Y-91408940D01*
X143419925Y-91408940D02*
X142924687Y-91408940D01*
X142619925Y-90685130D02*
X142581829Y-90647035D01*
X142581829Y-90647035D02*
X142505639Y-90608940D01*
X142505639Y-90608940D02*
X142315163Y-90608940D01*
X142315163Y-90608940D02*
X142238972Y-90647035D01*
X142238972Y-90647035D02*
X142200877Y-90685130D01*
X142200877Y-90685130D02*
X142162782Y-90761321D01*
X142162782Y-90761321D02*
X142162782Y-90837511D01*
X142162782Y-90837511D02*
X142200877Y-90951797D01*
X142200877Y-90951797D02*
X142658020Y-91408940D01*
X142658020Y-91408940D02*
X142162782Y-91408940D01*
X141781829Y-91370845D02*
X141781829Y-91408940D01*
X141781829Y-91408940D02*
X141819924Y-91485130D01*
X141819924Y-91485130D02*
X141858020Y-91523225D01*
X141096115Y-90608940D02*
X141248496Y-90608940D01*
X141248496Y-90608940D02*
X141324687Y-90647035D01*
X141324687Y-90647035D02*
X141362782Y-90685130D01*
X141362782Y-90685130D02*
X141438972Y-90799416D01*
X141438972Y-90799416D02*
X141477068Y-90951797D01*
X141477068Y-90951797D02*
X141477068Y-91256559D01*
X141477068Y-91256559D02*
X141438972Y-91332749D01*
X141438972Y-91332749D02*
X141400877Y-91370845D01*
X141400877Y-91370845D02*
X141324687Y-91408940D01*
X141324687Y-91408940D02*
X141172306Y-91408940D01*
X141172306Y-91408940D02*
X141096115Y-91370845D01*
X141096115Y-91370845D02*
X141058020Y-91332749D01*
X141058020Y-91332749D02*
X141019925Y-91256559D01*
X141019925Y-91256559D02*
X141019925Y-91066083D01*
X141019925Y-91066083D02*
X141058020Y-90989892D01*
X141058020Y-90989892D02*
X141096115Y-90951797D01*
X141096115Y-90951797D02*
X141172306Y-90913702D01*
X141172306Y-90913702D02*
X141324687Y-90913702D01*
X141324687Y-90913702D02*
X141400877Y-90951797D01*
X141400877Y-90951797D02*
X141438972Y-90989892D01*
X141438972Y-90989892D02*
X141477068Y-91066083D01*
X140677067Y-91408940D02*
X140677067Y-90608940D01*
X140600877Y-91104178D02*
X140372305Y-91408940D01*
X140372305Y-90875606D02*
X140677067Y-91180368D01*
X139419924Y-91104178D02*
X138810401Y-91104178D01*
X137896115Y-90608940D02*
X137400877Y-90608940D01*
X137400877Y-90608940D02*
X137667543Y-90913702D01*
X137667543Y-90913702D02*
X137553258Y-90913702D01*
X137553258Y-90913702D02*
X137477067Y-90951797D01*
X137477067Y-90951797D02*
X137438972Y-90989892D01*
X137438972Y-90989892D02*
X137400877Y-91066083D01*
X137400877Y-91066083D02*
X137400877Y-91256559D01*
X137400877Y-91256559D02*
X137438972Y-91332749D01*
X137438972Y-91332749D02*
X137477067Y-91370845D01*
X137477067Y-91370845D02*
X137553258Y-91408940D01*
X137553258Y-91408940D02*
X137781829Y-91408940D01*
X137781829Y-91408940D02*
X137858020Y-91370845D01*
X137858020Y-91370845D02*
X137896115Y-91332749D01*
X137019924Y-91370845D02*
X137019924Y-91408940D01*
X137019924Y-91408940D02*
X137058019Y-91485130D01*
X137058019Y-91485130D02*
X137096115Y-91523225D01*
X136524686Y-90608940D02*
X136448496Y-90608940D01*
X136448496Y-90608940D02*
X136372305Y-90647035D01*
X136372305Y-90647035D02*
X136334210Y-90685130D01*
X136334210Y-90685130D02*
X136296115Y-90761321D01*
X136296115Y-90761321D02*
X136258020Y-90913702D01*
X136258020Y-90913702D02*
X136258020Y-91104178D01*
X136258020Y-91104178D02*
X136296115Y-91256559D01*
X136296115Y-91256559D02*
X136334210Y-91332749D01*
X136334210Y-91332749D02*
X136372305Y-91370845D01*
X136372305Y-91370845D02*
X136448496Y-91408940D01*
X136448496Y-91408940D02*
X136524686Y-91408940D01*
X136524686Y-91408940D02*
X136600877Y-91370845D01*
X136600877Y-91370845D02*
X136638972Y-91332749D01*
X136638972Y-91332749D02*
X136677067Y-91256559D01*
X136677067Y-91256559D02*
X136715163Y-91104178D01*
X136715163Y-91104178D02*
X136715163Y-90913702D01*
X136715163Y-90913702D02*
X136677067Y-90761321D01*
X136677067Y-90761321D02*
X136638972Y-90685130D01*
X136638972Y-90685130D02*
X136600877Y-90647035D01*
X136600877Y-90647035D02*
X136524686Y-90608940D01*
X135762781Y-90608940D02*
X135686591Y-90608940D01*
X135686591Y-90608940D02*
X135610400Y-90647035D01*
X135610400Y-90647035D02*
X135572305Y-90685130D01*
X135572305Y-90685130D02*
X135534210Y-90761321D01*
X135534210Y-90761321D02*
X135496115Y-90913702D01*
X135496115Y-90913702D02*
X135496115Y-91104178D01*
X135496115Y-91104178D02*
X135534210Y-91256559D01*
X135534210Y-91256559D02*
X135572305Y-91332749D01*
X135572305Y-91332749D02*
X135610400Y-91370845D01*
X135610400Y-91370845D02*
X135686591Y-91408940D01*
X135686591Y-91408940D02*
X135762781Y-91408940D01*
X135762781Y-91408940D02*
X135838972Y-91370845D01*
X135838972Y-91370845D02*
X135877067Y-91332749D01*
X135877067Y-91332749D02*
X135915162Y-91256559D01*
X135915162Y-91256559D02*
X135953258Y-91104178D01*
X135953258Y-91104178D02*
X135953258Y-90913702D01*
X135953258Y-90913702D02*
X135915162Y-90761321D01*
X135915162Y-90761321D02*
X135877067Y-90685130D01*
X135877067Y-90685130D02*
X135838972Y-90647035D01*
X135838972Y-90647035D02*
X135762781Y-90608940D01*
X135191353Y-91180368D02*
X134810400Y-91180368D01*
X135267543Y-91408940D02*
X135000876Y-90608940D01*
X135000876Y-90608940D02*
X134734210Y-91408940D01*
X143229449Y-92696895D02*
X143305639Y-92658800D01*
X143305639Y-92658800D02*
X143343734Y-92620704D01*
X143343734Y-92620704D02*
X143381830Y-92544514D01*
X143381830Y-92544514D02*
X143381830Y-92315942D01*
X143381830Y-92315942D02*
X143343734Y-92239752D01*
X143343734Y-92239752D02*
X143305639Y-92201657D01*
X143305639Y-92201657D02*
X143229449Y-92163561D01*
X143229449Y-92163561D02*
X143115163Y-92163561D01*
X143115163Y-92163561D02*
X143038972Y-92201657D01*
X143038972Y-92201657D02*
X143000877Y-92239752D01*
X143000877Y-92239752D02*
X142962782Y-92315942D01*
X142962782Y-92315942D02*
X142962782Y-92544514D01*
X142962782Y-92544514D02*
X143000877Y-92620704D01*
X143000877Y-92620704D02*
X143038972Y-92658800D01*
X143038972Y-92658800D02*
X143115163Y-92696895D01*
X143115163Y-92696895D02*
X143229449Y-92696895D01*
X142619924Y-92163561D02*
X142619924Y-92963561D01*
X142619924Y-92201657D02*
X142543734Y-92163561D01*
X142543734Y-92163561D02*
X142391353Y-92163561D01*
X142391353Y-92163561D02*
X142315162Y-92201657D01*
X142315162Y-92201657D02*
X142277067Y-92239752D01*
X142277067Y-92239752D02*
X142238972Y-92315942D01*
X142238972Y-92315942D02*
X142238972Y-92544514D01*
X142238972Y-92544514D02*
X142277067Y-92620704D01*
X142277067Y-92620704D02*
X142315162Y-92658800D01*
X142315162Y-92658800D02*
X142391353Y-92696895D01*
X142391353Y-92696895D02*
X142543734Y-92696895D01*
X142543734Y-92696895D02*
X142619924Y-92658800D01*
X141591352Y-92658800D02*
X141667543Y-92696895D01*
X141667543Y-92696895D02*
X141819924Y-92696895D01*
X141819924Y-92696895D02*
X141896114Y-92658800D01*
X141896114Y-92658800D02*
X141934210Y-92582609D01*
X141934210Y-92582609D02*
X141934210Y-92277847D01*
X141934210Y-92277847D02*
X141896114Y-92201657D01*
X141896114Y-92201657D02*
X141819924Y-92163561D01*
X141819924Y-92163561D02*
X141667543Y-92163561D01*
X141667543Y-92163561D02*
X141591352Y-92201657D01*
X141591352Y-92201657D02*
X141553257Y-92277847D01*
X141553257Y-92277847D02*
X141553257Y-92354038D01*
X141553257Y-92354038D02*
X141934210Y-92430228D01*
X141210400Y-92163561D02*
X141210400Y-92696895D01*
X141210400Y-92239752D02*
X141172305Y-92201657D01*
X141172305Y-92201657D02*
X141096115Y-92163561D01*
X141096115Y-92163561D02*
X140981829Y-92163561D01*
X140981829Y-92163561D02*
X140905638Y-92201657D01*
X140905638Y-92201657D02*
X140867543Y-92277847D01*
X140867543Y-92277847D02*
X140867543Y-92696895D01*
X139267542Y-92392133D02*
X138658019Y-92392133D01*
X137743733Y-91896895D02*
X137248495Y-91896895D01*
X137248495Y-91896895D02*
X137515161Y-92201657D01*
X137515161Y-92201657D02*
X137400876Y-92201657D01*
X137400876Y-92201657D02*
X137324685Y-92239752D01*
X137324685Y-92239752D02*
X137286590Y-92277847D01*
X137286590Y-92277847D02*
X137248495Y-92354038D01*
X137248495Y-92354038D02*
X137248495Y-92544514D01*
X137248495Y-92544514D02*
X137286590Y-92620704D01*
X137286590Y-92620704D02*
X137324685Y-92658800D01*
X137324685Y-92658800D02*
X137400876Y-92696895D01*
X137400876Y-92696895D02*
X137629447Y-92696895D01*
X137629447Y-92696895D02*
X137705638Y-92658800D01*
X137705638Y-92658800D02*
X137743733Y-92620704D01*
X136867542Y-92658800D02*
X136867542Y-92696895D01*
X136867542Y-92696895D02*
X136905637Y-92773085D01*
X136905637Y-92773085D02*
X136943733Y-92811180D01*
X136562781Y-91973085D02*
X136524685Y-91934990D01*
X136524685Y-91934990D02*
X136448495Y-91896895D01*
X136448495Y-91896895D02*
X136258019Y-91896895D01*
X136258019Y-91896895D02*
X136181828Y-91934990D01*
X136181828Y-91934990D02*
X136143733Y-91973085D01*
X136143733Y-91973085D02*
X136105638Y-92049276D01*
X136105638Y-92049276D02*
X136105638Y-92125466D01*
X136105638Y-92125466D02*
X136143733Y-92239752D01*
X136143733Y-92239752D02*
X136600876Y-92696895D01*
X136600876Y-92696895D02*
X136105638Y-92696895D01*
X135381828Y-91896895D02*
X135762780Y-91896895D01*
X135762780Y-91896895D02*
X135800876Y-92277847D01*
X135800876Y-92277847D02*
X135762780Y-92239752D01*
X135762780Y-92239752D02*
X135686590Y-92201657D01*
X135686590Y-92201657D02*
X135496114Y-92201657D01*
X135496114Y-92201657D02*
X135419923Y-92239752D01*
X135419923Y-92239752D02*
X135381828Y-92277847D01*
X135381828Y-92277847D02*
X135343733Y-92354038D01*
X135343733Y-92354038D02*
X135343733Y-92544514D01*
X135343733Y-92544514D02*
X135381828Y-92620704D01*
X135381828Y-92620704D02*
X135419923Y-92658800D01*
X135419923Y-92658800D02*
X135496114Y-92696895D01*
X135496114Y-92696895D02*
X135686590Y-92696895D01*
X135686590Y-92696895D02*
X135762780Y-92658800D01*
X135762780Y-92658800D02*
X135800876Y-92620704D01*
X135038971Y-92468323D02*
X134658018Y-92468323D01*
X135115161Y-92696895D02*
X134848494Y-91896895D01*
X134848494Y-91896895D02*
X134581828Y-92696895D01*
X128689895Y-94747619D02*
X129261323Y-94747619D01*
X129261323Y-94747619D02*
X129375609Y-94785714D01*
X129375609Y-94785714D02*
X129451800Y-94861905D01*
X129451800Y-94861905D02*
X129489895Y-94976190D01*
X129489895Y-94976190D02*
X129489895Y-95052381D01*
X129489895Y-93947619D02*
X129489895Y-94404762D01*
X129489895Y-94176190D02*
X128689895Y-94176190D01*
X128689895Y-94176190D02*
X128804180Y-94252381D01*
X128804180Y-94252381D02*
X128880371Y-94328571D01*
X128880371Y-94328571D02*
X128918466Y-94404762D01*
X128689895Y-93452380D02*
X128689895Y-93376190D01*
X128689895Y-93376190D02*
X128727990Y-93299999D01*
X128727990Y-93299999D02*
X128766085Y-93261904D01*
X128766085Y-93261904D02*
X128842276Y-93223809D01*
X128842276Y-93223809D02*
X128994657Y-93185714D01*
X128994657Y-93185714D02*
X129185133Y-93185714D01*
X129185133Y-93185714D02*
X129337514Y-93223809D01*
X129337514Y-93223809D02*
X129413704Y-93261904D01*
X129413704Y-93261904D02*
X129451800Y-93299999D01*
X129451800Y-93299999D02*
X129489895Y-93376190D01*
X129489895Y-93376190D02*
X129489895Y-93452380D01*
X129489895Y-93452380D02*
X129451800Y-93528571D01*
X129451800Y-93528571D02*
X129413704Y-93566666D01*
X129413704Y-93566666D02*
X129337514Y-93604761D01*
X129337514Y-93604761D02*
X129185133Y-93642857D01*
X129185133Y-93642857D02*
X128994657Y-93642857D01*
X128994657Y-93642857D02*
X128842276Y-93604761D01*
X128842276Y-93604761D02*
X128766085Y-93566666D01*
X128766085Y-93566666D02*
X128727990Y-93528571D01*
X128727990Y-93528571D02*
X128689895Y-93452380D01*
X128664895Y-82766666D02*
X129236323Y-82766666D01*
X129236323Y-82766666D02*
X129350609Y-82804761D01*
X129350609Y-82804761D02*
X129426800Y-82880952D01*
X129426800Y-82880952D02*
X129464895Y-82995237D01*
X129464895Y-82995237D02*
X129464895Y-83071428D01*
X128664895Y-82461904D02*
X128664895Y-81928570D01*
X128664895Y-81928570D02*
X129464895Y-82271428D01*
X128689895Y-98547619D02*
X129261323Y-98547619D01*
X129261323Y-98547619D02*
X129375609Y-98585714D01*
X129375609Y-98585714D02*
X129451800Y-98661905D01*
X129451800Y-98661905D02*
X129489895Y-98776190D01*
X129489895Y-98776190D02*
X129489895Y-98852381D01*
X129489895Y-97747619D02*
X129489895Y-98204762D01*
X129489895Y-97976190D02*
X128689895Y-97976190D01*
X128689895Y-97976190D02*
X128804180Y-98052381D01*
X128804180Y-98052381D02*
X128880371Y-98128571D01*
X128880371Y-98128571D02*
X128918466Y-98204762D01*
X129489895Y-96985714D02*
X129489895Y-97442857D01*
X129489895Y-97214285D02*
X128689895Y-97214285D01*
X128689895Y-97214285D02*
X128804180Y-97290476D01*
X128804180Y-97290476D02*
X128880371Y-97366666D01*
X128880371Y-97366666D02*
X128918466Y-97442857D01*
X128689895Y-86666666D02*
X129261323Y-86666666D01*
X129261323Y-86666666D02*
X129375609Y-86704761D01*
X129375609Y-86704761D02*
X129451800Y-86780952D01*
X129451800Y-86780952D02*
X129489895Y-86895237D01*
X129489895Y-86895237D02*
X129489895Y-86971428D01*
X129032752Y-86171428D02*
X128994657Y-86247618D01*
X128994657Y-86247618D02*
X128956561Y-86285713D01*
X128956561Y-86285713D02*
X128880371Y-86323809D01*
X128880371Y-86323809D02*
X128842276Y-86323809D01*
X128842276Y-86323809D02*
X128766085Y-86285713D01*
X128766085Y-86285713D02*
X128727990Y-86247618D01*
X128727990Y-86247618D02*
X128689895Y-86171428D01*
X128689895Y-86171428D02*
X128689895Y-86019047D01*
X128689895Y-86019047D02*
X128727990Y-85942856D01*
X128727990Y-85942856D02*
X128766085Y-85904761D01*
X128766085Y-85904761D02*
X128842276Y-85866666D01*
X128842276Y-85866666D02*
X128880371Y-85866666D01*
X128880371Y-85866666D02*
X128956561Y-85904761D01*
X128956561Y-85904761D02*
X128994657Y-85942856D01*
X128994657Y-85942856D02*
X129032752Y-86019047D01*
X129032752Y-86019047D02*
X129032752Y-86171428D01*
X129032752Y-86171428D02*
X129070847Y-86247618D01*
X129070847Y-86247618D02*
X129108942Y-86285713D01*
X129108942Y-86285713D02*
X129185133Y-86323809D01*
X129185133Y-86323809D02*
X129337514Y-86323809D01*
X129337514Y-86323809D02*
X129413704Y-86285713D01*
X129413704Y-86285713D02*
X129451800Y-86247618D01*
X129451800Y-86247618D02*
X129489895Y-86171428D01*
X129489895Y-86171428D02*
X129489895Y-86019047D01*
X129489895Y-86019047D02*
X129451800Y-85942856D01*
X129451800Y-85942856D02*
X129413704Y-85904761D01*
X129413704Y-85904761D02*
X129337514Y-85866666D01*
X129337514Y-85866666D02*
X129185133Y-85866666D01*
X129185133Y-85866666D02*
X129108942Y-85904761D01*
X129108942Y-85904761D02*
X129070847Y-85942856D01*
X129070847Y-85942856D02*
X129032752Y-86019047D01*
X128689895Y-90033333D02*
X129261323Y-90033333D01*
X129261323Y-90033333D02*
X129375609Y-89995238D01*
X129375609Y-89995238D02*
X129451800Y-89919047D01*
X129451800Y-89919047D02*
X129489895Y-89804762D01*
X129489895Y-89804762D02*
X129489895Y-89728571D01*
X129489895Y-90452381D02*
X129489895Y-90604762D01*
X129489895Y-90604762D02*
X129451800Y-90680952D01*
X129451800Y-90680952D02*
X129413704Y-90719048D01*
X129413704Y-90719048D02*
X129299419Y-90795238D01*
X129299419Y-90795238D02*
X129147038Y-90833333D01*
X129147038Y-90833333D02*
X128842276Y-90833333D01*
X128842276Y-90833333D02*
X128766085Y-90795238D01*
X128766085Y-90795238D02*
X128727990Y-90757143D01*
X128727990Y-90757143D02*
X128689895Y-90680952D01*
X128689895Y-90680952D02*
X128689895Y-90528571D01*
X128689895Y-90528571D02*
X128727990Y-90452381D01*
X128727990Y-90452381D02*
X128766085Y-90414286D01*
X128766085Y-90414286D02*
X128842276Y-90376190D01*
X128842276Y-90376190D02*
X129032752Y-90376190D01*
X129032752Y-90376190D02*
X129108942Y-90414286D01*
X129108942Y-90414286D02*
X129147038Y-90452381D01*
X129147038Y-90452381D02*
X129185133Y-90528571D01*
X129185133Y-90528571D02*
X129185133Y-90680952D01*
X129185133Y-90680952D02*
X129147038Y-90757143D01*
X129147038Y-90757143D02*
X129108942Y-90795238D01*
X129108942Y-90795238D02*
X129032752Y-90833333D01*
M02*
