%TF.GenerationSoftware,KiCad,Pcbnew,8.0.7*%
%TF.CreationDate,2025-01-08T16:46:30+01:00*%
%TF.ProjectId,PD_trigger-board,50445f74-7269-4676-9765-722d626f6172,rev?*%
%TF.SameCoordinates,Original*%
%TF.FileFunction,Legend,Bot*%
%TF.FilePolarity,Positive*%
%FSLAX46Y46*%
G04 Gerber Fmt 4.6, Leading zero omitted, Abs format (unit mm)*
G04 Created by KiCad (PCBNEW 8.0.7) date 2025-01-08 16:46:30*
%MOMM*%
%LPD*%
G01*
G04 APERTURE LIST*
%ADD10C,0.100000*%
%ADD11C,0.160000*%
%ADD12C,0.000000*%
G04 APERTURE END LIST*
D10*
G36*
X145121496Y-84791844D02*
G01*
X145133036Y-84821702D01*
X145133036Y-85570917D01*
X145121496Y-85600776D01*
X145092003Y-85612500D01*
X145062694Y-85600776D01*
X145051154Y-85571100D01*
X145051154Y-85319408D01*
X144882077Y-85319408D01*
X144858239Y-85318563D01*
X144817517Y-85312781D01*
X144779606Y-85301523D01*
X144744507Y-85284787D01*
X144726432Y-85273289D01*
X144697143Y-85249459D01*
X144672027Y-85221601D01*
X144651084Y-85189715D01*
X144639629Y-85166435D01*
X144626891Y-85129219D01*
X144619485Y-85089251D01*
X144617378Y-85051413D01*
X144617385Y-85051229D01*
X144697246Y-85051229D01*
X144698723Y-85077791D01*
X144706476Y-85114885D01*
X144720876Y-85148682D01*
X144730388Y-85164100D01*
X144755460Y-85192997D01*
X144786639Y-85215727D01*
X144808334Y-85226226D01*
X144843583Y-85236349D01*
X144882077Y-85239724D01*
X145051154Y-85239724D01*
X145051154Y-84859621D01*
X144882077Y-84859621D01*
X144859227Y-84860804D01*
X144822627Y-84868339D01*
X144786639Y-84884351D01*
X144771490Y-84894199D01*
X144743130Y-84919957D01*
X144720876Y-84951762D01*
X144709453Y-84976886D01*
X144700038Y-85013855D01*
X144697246Y-85051229D01*
X144617385Y-85051229D01*
X144618563Y-85022070D01*
X144623830Y-84985050D01*
X144634791Y-84946276D01*
X144651084Y-84910546D01*
X144662204Y-84892127D01*
X144685465Y-84862220D01*
X144712899Y-84836486D01*
X144744507Y-84814924D01*
X144767594Y-84803096D01*
X144804568Y-84789943D01*
X144844353Y-84782295D01*
X144882077Y-84780120D01*
X145092003Y-84780120D01*
X145121496Y-84791844D01*
G37*
G36*
X144478893Y-84791844D02*
G01*
X144490433Y-84821702D01*
X144490433Y-85570917D01*
X144478893Y-85600776D01*
X144449400Y-85612500D01*
X144260356Y-85612500D01*
X144249149Y-85612381D01*
X144210849Y-85610094D01*
X144173986Y-85604897D01*
X144133617Y-85595395D01*
X144095126Y-85582091D01*
X144058856Y-85565296D01*
X144025151Y-85545317D01*
X143994010Y-85522156D01*
X143965433Y-85495812D01*
X143939685Y-85466526D01*
X143917027Y-85434721D01*
X143897461Y-85400397D01*
X143880986Y-85363555D01*
X143875617Y-85349132D01*
X143863882Y-85309347D01*
X143856695Y-85272957D01*
X143852382Y-85235095D01*
X143850951Y-85195943D01*
X143931728Y-85195943D01*
X143932386Y-85220381D01*
X143936706Y-85261521D01*
X143945058Y-85300593D01*
X143957443Y-85337596D01*
X143973860Y-85372531D01*
X143984848Y-85391341D01*
X144006487Y-85421780D01*
X144031195Y-85449064D01*
X144058970Y-85473192D01*
X144089814Y-85494164D01*
X144108667Y-85504511D01*
X144143355Y-85519298D01*
X144180199Y-85529861D01*
X144219200Y-85536198D01*
X144260356Y-85538311D01*
X144408551Y-85538311D01*
X144408551Y-84854492D01*
X144260356Y-84854492D01*
X144236574Y-84855176D01*
X144196650Y-84859665D01*
X144158881Y-84868344D01*
X144123269Y-84881213D01*
X144089814Y-84898272D01*
X144071813Y-84909741D01*
X144042723Y-84932333D01*
X144016701Y-84958132D01*
X143993746Y-84987140D01*
X143973860Y-85019356D01*
X143963985Y-85039025D01*
X143949872Y-85075099D01*
X143939792Y-85113277D01*
X143933744Y-85153558D01*
X143931728Y-85195943D01*
X143850951Y-85195943D01*
X143850944Y-85195760D01*
X143851062Y-85184374D01*
X143853321Y-85145501D01*
X143858455Y-85108153D01*
X143867843Y-85067338D01*
X143880986Y-85028515D01*
X143897461Y-84991924D01*
X143917027Y-84957807D01*
X143939685Y-84926162D01*
X143965433Y-84896990D01*
X143994010Y-84870566D01*
X144025151Y-84847348D01*
X144058856Y-84827335D01*
X144095126Y-84810528D01*
X144104573Y-84806846D01*
X144143533Y-84794493D01*
X144184372Y-84785940D01*
X144221645Y-84781575D01*
X144260356Y-84780120D01*
X144449400Y-84780120D01*
X144478893Y-84791844D01*
G37*
G36*
X143707330Y-85366303D02*
G01*
X143735723Y-85354762D01*
X143747263Y-85326003D01*
X143735723Y-85296327D01*
X143707330Y-85284603D01*
X143460583Y-85284603D01*
X143431274Y-85296327D01*
X143419734Y-85326003D01*
X143431274Y-85354762D01*
X143460583Y-85366303D01*
X143707330Y-85366303D01*
G37*
G36*
X143149357Y-85612500D02*
G01*
X143178116Y-85600226D01*
X143190206Y-85570917D01*
X143190206Y-84780120D01*
X143108324Y-84780120D01*
X143108324Y-85570917D01*
X143119864Y-85600226D01*
X143149357Y-85612500D01*
G37*
G36*
X143439151Y-84855408D02*
G01*
X143466445Y-84844783D01*
X143476886Y-84818222D01*
X143466445Y-84790744D01*
X143439151Y-84780120D01*
X142858464Y-84780120D01*
X142831169Y-84790744D01*
X142820728Y-84818222D01*
X142831169Y-84844783D01*
X142858464Y-84855408D01*
X143439151Y-84855408D01*
G37*
G36*
X142823842Y-85249249D02*
G01*
X142819177Y-85210599D01*
X142809073Y-85174560D01*
X142793531Y-85141133D01*
X142789770Y-85134760D01*
X142766153Y-85102556D01*
X142738120Y-85075460D01*
X142708804Y-85055259D01*
X142673228Y-85038781D01*
X142635012Y-85029143D01*
X142597979Y-85026317D01*
X142560031Y-85028946D01*
X142523607Y-85040055D01*
X142502267Y-85070725D01*
X142503457Y-85080172D01*
X142517745Y-85101421D01*
X142541925Y-85105635D01*
X142573799Y-85104535D01*
X142612688Y-85103502D01*
X142651607Y-85108350D01*
X142678396Y-85116076D01*
X142712342Y-85132671D01*
X142741934Y-85157034D01*
X142750752Y-85167367D01*
X142769035Y-85199900D01*
X142777079Y-85237551D01*
X142777497Y-85249249D01*
X142823842Y-85249249D01*
G37*
G36*
X142817431Y-85612500D02*
G01*
X142846923Y-85601875D01*
X142857364Y-85571833D01*
X142857364Y-85066983D01*
X142846923Y-85037124D01*
X142817431Y-85026317D01*
X142788122Y-85037124D01*
X142777497Y-85066983D01*
X142777497Y-85571833D01*
X142788122Y-85601875D01*
X142817431Y-85612500D01*
G37*
G36*
X142318992Y-85612500D02*
G01*
X142348851Y-85601325D01*
X142359842Y-85570734D01*
X142359842Y-85068082D01*
X142348851Y-85037674D01*
X142318992Y-85026317D01*
X142290049Y-85037674D01*
X142279058Y-85068082D01*
X142279058Y-85570734D01*
X142290049Y-85601325D01*
X142318992Y-85612500D01*
G37*
G36*
X142320091Y-84920804D02*
G01*
X142355714Y-84907901D01*
X142360025Y-84903951D01*
X142376288Y-84869986D01*
X142376695Y-84862552D01*
X142365327Y-84826766D01*
X142359475Y-84820603D01*
X142324674Y-84805456D01*
X142318992Y-84805216D01*
X142284030Y-84816997D01*
X142279608Y-84820603D01*
X142262631Y-84854524D01*
X142262206Y-84862552D01*
X142274203Y-84898448D01*
X142279058Y-84903951D01*
X142312714Y-84920392D01*
X142320091Y-84920804D01*
G37*
G36*
X141852794Y-85028652D02*
G01*
X141891445Y-85035659D01*
X141927898Y-85047337D01*
X141962153Y-85063686D01*
X141993443Y-85084179D01*
X142021184Y-85108291D01*
X142045375Y-85136020D01*
X142066018Y-85167367D01*
X142068339Y-85171531D01*
X142084259Y-85206247D01*
X142095462Y-85243459D01*
X142101947Y-85283166D01*
X142103753Y-85319958D01*
X142101498Y-85361368D01*
X142094731Y-85400420D01*
X142083454Y-85437114D01*
X142067666Y-85471449D01*
X142055657Y-85491465D01*
X142030636Y-85523932D01*
X142001239Y-85551821D01*
X141967466Y-85575130D01*
X141934230Y-85591479D01*
X141898635Y-85603157D01*
X141860682Y-85610164D01*
X141820370Y-85612500D01*
X141797761Y-85611668D01*
X141759092Y-85605978D01*
X141723031Y-85594898D01*
X141689578Y-85578428D01*
X141675674Y-85569500D01*
X141644268Y-85543601D01*
X141620102Y-85515917D01*
X141599819Y-85484089D01*
X141599819Y-85531899D01*
X141600064Y-85544726D01*
X141603735Y-85581333D01*
X141612980Y-85618710D01*
X141627663Y-85652616D01*
X141646961Y-85682534D01*
X141672570Y-85710236D01*
X141702767Y-85732484D01*
X141733433Y-85747457D01*
X141769768Y-85757522D01*
X141808830Y-85760877D01*
X141846729Y-85758623D01*
X141884989Y-85750937D01*
X141919655Y-85737796D01*
X141939668Y-85726988D01*
X141970142Y-85705157D01*
X141997691Y-85676796D01*
X142024069Y-85661043D01*
X142054477Y-85667454D01*
X142069681Y-85691451D01*
X142059789Y-85718928D01*
X142046430Y-85735155D01*
X142019678Y-85761614D01*
X141989449Y-85784537D01*
X141955742Y-85803925D01*
X141927218Y-85816130D01*
X141887736Y-85827418D01*
X141849989Y-85833291D01*
X141809746Y-85835249D01*
X141768976Y-85832776D01*
X141730565Y-85825357D01*
X141694513Y-85812992D01*
X141660819Y-85795682D01*
X141629930Y-85774215D01*
X141602475Y-85749199D01*
X141578455Y-85720634D01*
X141557870Y-85688520D01*
X141541281Y-85653544D01*
X141529431Y-85616392D01*
X141522322Y-85577065D01*
X141519952Y-85535563D01*
X141519952Y-85321057D01*
X141519973Y-85319958D01*
X141599819Y-85319958D01*
X141602485Y-85358501D01*
X141611574Y-85397634D01*
X141627113Y-85433347D01*
X141646176Y-85462052D01*
X141671772Y-85488792D01*
X141702218Y-85510467D01*
X141736754Y-85526319D01*
X141774624Y-85535592D01*
X141811944Y-85538311D01*
X141849317Y-85535592D01*
X141887370Y-85526319D01*
X141922220Y-85510467D01*
X141950291Y-85490972D01*
X141976458Y-85464692D01*
X141997691Y-85433347D01*
X142013230Y-85397634D01*
X142022319Y-85358501D01*
X142024985Y-85319958D01*
X142022319Y-85281282D01*
X142013230Y-85241962D01*
X141997691Y-85206018D01*
X141978593Y-85177024D01*
X141952874Y-85150089D01*
X141922220Y-85128349D01*
X141887370Y-85112497D01*
X141849317Y-85103225D01*
X141811944Y-85100505D01*
X141774624Y-85103225D01*
X141736754Y-85112497D01*
X141702218Y-85128349D01*
X141674340Y-85147898D01*
X141648302Y-85174361D01*
X141627113Y-85206018D01*
X141625434Y-85209146D01*
X141610481Y-85245397D01*
X141602485Y-85281282D01*
X141599819Y-85319958D01*
X141519973Y-85319958D01*
X141520056Y-85315661D01*
X141522768Y-85278994D01*
X141530118Y-85239449D01*
X141542002Y-85202423D01*
X141558420Y-85167916D01*
X141576056Y-85140147D01*
X141599561Y-85111846D01*
X141630273Y-85084385D01*
X141661368Y-85063869D01*
X141695371Y-85047440D01*
X141731802Y-85035705D01*
X141770659Y-85028664D01*
X141811944Y-85026317D01*
X141852794Y-85028652D01*
G37*
G36*
X141142047Y-85028652D02*
G01*
X141180698Y-85035659D01*
X141217152Y-85047337D01*
X141251407Y-85063686D01*
X141282696Y-85084179D01*
X141310437Y-85108291D01*
X141334629Y-85136020D01*
X141355271Y-85167367D01*
X141357593Y-85171531D01*
X141373512Y-85206247D01*
X141384715Y-85243459D01*
X141391201Y-85283166D01*
X141393006Y-85319958D01*
X141390751Y-85361368D01*
X141383985Y-85400420D01*
X141372708Y-85437114D01*
X141356920Y-85471449D01*
X141344910Y-85491465D01*
X141319889Y-85523932D01*
X141290492Y-85551821D01*
X141256719Y-85575130D01*
X141223483Y-85591479D01*
X141187888Y-85603157D01*
X141149935Y-85610164D01*
X141109624Y-85612500D01*
X141087014Y-85611668D01*
X141048345Y-85605978D01*
X141012284Y-85594898D01*
X140978832Y-85578428D01*
X140964927Y-85569500D01*
X140933521Y-85543601D01*
X140909355Y-85515917D01*
X140889072Y-85484089D01*
X140889072Y-85531899D01*
X140889317Y-85544726D01*
X140892988Y-85581333D01*
X140902233Y-85618710D01*
X140916916Y-85652616D01*
X140936215Y-85682534D01*
X140961823Y-85710236D01*
X140992021Y-85732484D01*
X141022686Y-85747457D01*
X141059021Y-85757522D01*
X141098083Y-85760877D01*
X141135983Y-85758623D01*
X141174242Y-85750937D01*
X141208908Y-85737796D01*
X141228921Y-85726988D01*
X141259396Y-85705157D01*
X141286944Y-85676796D01*
X141313322Y-85661043D01*
X141343730Y-85667454D01*
X141358935Y-85691451D01*
X141349043Y-85718928D01*
X141335683Y-85735155D01*
X141308932Y-85761614D01*
X141278702Y-85784537D01*
X141244995Y-85803925D01*
X141216471Y-85816130D01*
X141176989Y-85827418D01*
X141139242Y-85833291D01*
X141098999Y-85835249D01*
X141058230Y-85832776D01*
X141019819Y-85825357D01*
X140983766Y-85812992D01*
X140950072Y-85795682D01*
X140919183Y-85774215D01*
X140891729Y-85749199D01*
X140867709Y-85720634D01*
X140847124Y-85688520D01*
X140830534Y-85653544D01*
X140818685Y-85616392D01*
X140811575Y-85577065D01*
X140809205Y-85535563D01*
X140809205Y-85321057D01*
X140809226Y-85319958D01*
X140889072Y-85319958D01*
X140891738Y-85358501D01*
X140900827Y-85397634D01*
X140916367Y-85433347D01*
X140935429Y-85462052D01*
X140961026Y-85488792D01*
X140991471Y-85510467D01*
X141026008Y-85526319D01*
X141063878Y-85535592D01*
X141101197Y-85538311D01*
X141138571Y-85535592D01*
X141176624Y-85526319D01*
X141211473Y-85510467D01*
X141239544Y-85490972D01*
X141265712Y-85464692D01*
X141286944Y-85433347D01*
X141302484Y-85397634D01*
X141311573Y-85358501D01*
X141314238Y-85319958D01*
X141311573Y-85281282D01*
X141302484Y-85241962D01*
X141286944Y-85206018D01*
X141267846Y-85177024D01*
X141242127Y-85150089D01*
X141211473Y-85128349D01*
X141176624Y-85112497D01*
X141138571Y-85103225D01*
X141101197Y-85100505D01*
X141063878Y-85103225D01*
X141026008Y-85112497D01*
X140991471Y-85128349D01*
X140963593Y-85147898D01*
X140937556Y-85174361D01*
X140916367Y-85206018D01*
X140914687Y-85209146D01*
X140899734Y-85245397D01*
X140891738Y-85281282D01*
X140889072Y-85319958D01*
X140809226Y-85319958D01*
X140809309Y-85315661D01*
X140812021Y-85278994D01*
X140819372Y-85239449D01*
X140831256Y-85202423D01*
X140847673Y-85167916D01*
X140865310Y-85140147D01*
X140888814Y-85111846D01*
X140919526Y-85084385D01*
X140950622Y-85063869D01*
X140984625Y-85047440D01*
X141021055Y-85035705D01*
X141059913Y-85028664D01*
X141101197Y-85026317D01*
X141142047Y-85028652D01*
G37*
G36*
X140391550Y-85612500D02*
G01*
X140432834Y-85610164D01*
X140471692Y-85603157D01*
X140508122Y-85591479D01*
X140542125Y-85575130D01*
X140573152Y-85554637D01*
X140603842Y-85527257D01*
X140627375Y-85499076D01*
X140645074Y-85471449D01*
X140661343Y-85437114D01*
X140672963Y-85400420D01*
X140679936Y-85361368D01*
X140682260Y-85319958D01*
X140680577Y-85283192D01*
X140674532Y-85243579D01*
X140664090Y-85206531D01*
X140649253Y-85172047D01*
X140647089Y-85167916D01*
X140625190Y-85133128D01*
X140599059Y-85102744D01*
X140568698Y-85076765D01*
X140550002Y-85064235D01*
X140513682Y-85045906D01*
X140474377Y-85033575D01*
X140436934Y-85027650D01*
X140407303Y-85026317D01*
X140368652Y-85028561D01*
X140332565Y-85035293D01*
X140295033Y-85048231D01*
X140268085Y-85062220D01*
X140236830Y-85084604D01*
X140209835Y-85111364D01*
X140187100Y-85142500D01*
X140176311Y-85161688D01*
X140160549Y-85198834D01*
X140150869Y-85234188D01*
X140145265Y-85271741D01*
X140143704Y-85306402D01*
X140154146Y-85332964D01*
X140181440Y-85342855D01*
X140627672Y-85342855D01*
X140627672Y-85275078D01*
X140173013Y-85275078D01*
X140218259Y-85307868D01*
X140220361Y-85268158D01*
X140228177Y-85231392D01*
X140240241Y-85200523D01*
X140260308Y-85167851D01*
X140285888Y-85141000D01*
X140306004Y-85126334D01*
X140340170Y-85109925D01*
X140378922Y-85101089D01*
X140407303Y-85099406D01*
X140446649Y-85102761D01*
X140482575Y-85112827D01*
X140512267Y-85127800D01*
X140543205Y-85152108D01*
X140568424Y-85182445D01*
X140582059Y-85206018D01*
X140596139Y-85241962D01*
X140604374Y-85281282D01*
X140606789Y-85319958D01*
X140604070Y-85358580D01*
X140595912Y-85394304D01*
X140580658Y-85430253D01*
X140578945Y-85433347D01*
X140557400Y-85464757D01*
X140531049Y-85491231D01*
X140502924Y-85511017D01*
X140467945Y-85527182D01*
X140429503Y-85536637D01*
X140391550Y-85539410D01*
X140353539Y-85536067D01*
X140317738Y-85526860D01*
X140315346Y-85526038D01*
X140280862Y-85510925D01*
X140253980Y-85492332D01*
X140227785Y-85482623D01*
X140202506Y-85491050D01*
X140188401Y-85518527D01*
X140200308Y-85543806D01*
X140231670Y-85566255D01*
X140266094Y-85584025D01*
X140288601Y-85593082D01*
X140324899Y-85604137D01*
X140363410Y-85610964D01*
X140391550Y-85612500D01*
G37*
G36*
X139974261Y-85249249D02*
G01*
X139969595Y-85210599D01*
X139959492Y-85174560D01*
X139943950Y-85141133D01*
X139940189Y-85134760D01*
X139916572Y-85102556D01*
X139888539Y-85075460D01*
X139859222Y-85055259D01*
X139823647Y-85038781D01*
X139785431Y-85029143D01*
X139748397Y-85026317D01*
X139710450Y-85028946D01*
X139674025Y-85040055D01*
X139652686Y-85070725D01*
X139653875Y-85080172D01*
X139668163Y-85101421D01*
X139692344Y-85105635D01*
X139724217Y-85104535D01*
X139763106Y-85103502D01*
X139802025Y-85108350D01*
X139828814Y-85116076D01*
X139862760Y-85132671D01*
X139892353Y-85157034D01*
X139901171Y-85167367D01*
X139919454Y-85199900D01*
X139927498Y-85237551D01*
X139927916Y-85249249D01*
X139974261Y-85249249D01*
G37*
G36*
X139967849Y-85612500D02*
G01*
X139997342Y-85601875D01*
X140007783Y-85571833D01*
X140007783Y-85066983D01*
X139997342Y-85037124D01*
X139967849Y-85026317D01*
X139938540Y-85037124D01*
X139927916Y-85066983D01*
X139927916Y-85571833D01*
X139938540Y-85601875D01*
X139967849Y-85612500D01*
G37*
G36*
X139541768Y-85366303D02*
G01*
X139570161Y-85354762D01*
X139581702Y-85326003D01*
X139570161Y-85296327D01*
X139541768Y-85284603D01*
X139295021Y-85284603D01*
X139265712Y-85296327D01*
X139254172Y-85326003D01*
X139265712Y-85354762D01*
X139295021Y-85366303D01*
X139541768Y-85366303D01*
G37*
G36*
X139094803Y-84791844D02*
G01*
X139106344Y-84821702D01*
X139106344Y-85570917D01*
X139093338Y-85601325D01*
X139060182Y-85612500D01*
X138792370Y-85612500D01*
X138769813Y-85611739D01*
X138731216Y-85606539D01*
X138695199Y-85596412D01*
X138661761Y-85581359D01*
X138654691Y-85577373D01*
X138622262Y-85554654D01*
X138594699Y-85527284D01*
X138572002Y-85495263D01*
X138564359Y-85481261D01*
X138549712Y-85443952D01*
X138541974Y-85407559D01*
X138539395Y-85368501D01*
X138620178Y-85368501D01*
X138620720Y-85384018D01*
X138627192Y-85421180D01*
X138642344Y-85456062D01*
X138646613Y-85462819D01*
X138672405Y-85492210D01*
X138703160Y-85513032D01*
X138715578Y-85518784D01*
X138753345Y-85529703D01*
X138792370Y-85532998D01*
X139024461Y-85532998D01*
X139024461Y-85211514D01*
X138792370Y-85211514D01*
X138776909Y-85211992D01*
X138739349Y-85217716D01*
X138703160Y-85231114D01*
X138698372Y-85233604D01*
X138666655Y-85256243D01*
X138642344Y-85285886D01*
X138635958Y-85297176D01*
X138623837Y-85331978D01*
X138620178Y-85368501D01*
X138539395Y-85368501D01*
X138540446Y-85344112D01*
X138547635Y-85303661D01*
X138561634Y-85267644D01*
X138582443Y-85236060D01*
X138596562Y-85220555D01*
X138625334Y-85196725D01*
X138658424Y-85178141D01*
X138695833Y-85164802D01*
X138669519Y-85149800D01*
X138639122Y-85124478D01*
X138615965Y-85095926D01*
X138599930Y-85066298D01*
X138589150Y-85030857D01*
X138585557Y-84992428D01*
X138585600Y-84991878D01*
X138665241Y-84991878D01*
X138669248Y-85030365D01*
X138682913Y-85066129D01*
X138706274Y-85095010D01*
X138736977Y-85115973D01*
X138772919Y-85128234D01*
X138810138Y-85131830D01*
X139024461Y-85131830D01*
X139024461Y-84859621D01*
X138810138Y-84859621D01*
X138776446Y-84862287D01*
X138740028Y-84872787D01*
X138706274Y-84893326D01*
X138682913Y-84920096D01*
X138669248Y-84954312D01*
X138665241Y-84991878D01*
X138585600Y-84991878D01*
X138588473Y-84954854D01*
X138598416Y-84916911D01*
X138615416Y-84882519D01*
X138636135Y-84854816D01*
X138663678Y-84828847D01*
X138696199Y-84807597D01*
X138699394Y-84805907D01*
X138736093Y-84790853D01*
X138771935Y-84782803D01*
X138810138Y-84780120D01*
X139065311Y-84780120D01*
X139094803Y-84791844D01*
G37*
G36*
X138166436Y-85028687D02*
G01*
X138205088Y-85035796D01*
X138241541Y-85047646D01*
X138275796Y-85064235D01*
X138307086Y-85084969D01*
X138334827Y-85109252D01*
X138359018Y-85137085D01*
X138379660Y-85168466D01*
X138396170Y-85202801D01*
X138407962Y-85239495D01*
X138415037Y-85278547D01*
X138417396Y-85319958D01*
X138415037Y-85360887D01*
X138407962Y-85399596D01*
X138396170Y-85436084D01*
X138379660Y-85470350D01*
X138359018Y-85501732D01*
X138334827Y-85529564D01*
X138307086Y-85553847D01*
X138275796Y-85574581D01*
X138241541Y-85591170D01*
X138205088Y-85603020D01*
X138166436Y-85610130D01*
X138125587Y-85612500D01*
X138084703Y-85610130D01*
X138046131Y-85603020D01*
X138009873Y-85591170D01*
X137975927Y-85574581D01*
X137944843Y-85553847D01*
X137917171Y-85529564D01*
X137892911Y-85501732D01*
X137872063Y-85470350D01*
X137855233Y-85436084D01*
X137843211Y-85399596D01*
X137835999Y-85360887D01*
X137833594Y-85319958D01*
X137913462Y-85319958D01*
X137916127Y-85358018D01*
X137925216Y-85396827D01*
X137940756Y-85432431D01*
X137959872Y-85461190D01*
X137985652Y-85488113D01*
X138016410Y-85510101D01*
X138051047Y-85526162D01*
X138088714Y-85535556D01*
X138125587Y-85538311D01*
X138162381Y-85535556D01*
X138200044Y-85526162D01*
X138234763Y-85510101D01*
X138262985Y-85490316D01*
X138289400Y-85463841D01*
X138310967Y-85432431D01*
X138326715Y-85396827D01*
X138335926Y-85358018D01*
X138338628Y-85319958D01*
X138335926Y-85281861D01*
X138326715Y-85242931D01*
X138310967Y-85207117D01*
X138291561Y-85177991D01*
X138265587Y-85150869D01*
X138234763Y-85128899D01*
X138200044Y-85112733D01*
X138162381Y-85103278D01*
X138125587Y-85100505D01*
X138088714Y-85103278D01*
X138051047Y-85112733D01*
X138016410Y-85128899D01*
X137988242Y-85148659D01*
X137962010Y-85175312D01*
X137940756Y-85207117D01*
X137925216Y-85242931D01*
X137916127Y-85281861D01*
X137913462Y-85319958D01*
X137833594Y-85319958D01*
X137836445Y-85278547D01*
X137843898Y-85239495D01*
X137855954Y-85202801D01*
X137872612Y-85168466D01*
X137893220Y-85137085D01*
X137917309Y-85109252D01*
X137944878Y-85084969D01*
X137975927Y-85064235D01*
X138009873Y-85047646D01*
X138046131Y-85035796D01*
X138084703Y-85028687D01*
X138125587Y-85026317D01*
X138166436Y-85028687D01*
G37*
G36*
X137455278Y-85028721D02*
G01*
X137493608Y-85035934D01*
X137529833Y-85047955D01*
X137563950Y-85064785D01*
X137595274Y-85085679D01*
X137623118Y-85110077D01*
X137647481Y-85137978D01*
X137668364Y-85169382D01*
X137685114Y-85203660D01*
X137697078Y-85240182D01*
X137704256Y-85278948D01*
X137706649Y-85319958D01*
X137704325Y-85360487D01*
X137697353Y-85398909D01*
X137685732Y-85435225D01*
X137669463Y-85469434D01*
X137651843Y-85497113D01*
X137628593Y-85525484D01*
X137598469Y-85553240D01*
X137568163Y-85574214D01*
X137535065Y-85590964D01*
X137499882Y-85602928D01*
X137462616Y-85610107D01*
X137423266Y-85612500D01*
X137399684Y-85611641D01*
X137359263Y-85605768D01*
X137321450Y-85594330D01*
X137286246Y-85577329D01*
X137267973Y-85565725D01*
X137238191Y-85541750D01*
X137212408Y-85513806D01*
X137204730Y-85502556D01*
X137204730Y-85571650D01*
X137193190Y-85601325D01*
X137163881Y-85612500D01*
X137134388Y-85601325D01*
X137122848Y-85572016D01*
X137122848Y-85321057D01*
X137122925Y-85319958D01*
X137202715Y-85319958D01*
X137205434Y-85357492D01*
X137214706Y-85396094D01*
X137230559Y-85431882D01*
X137249911Y-85460930D01*
X137275703Y-85488048D01*
X137306213Y-85510101D01*
X137340537Y-85526162D01*
X137378021Y-85535556D01*
X137414840Y-85538311D01*
X137451151Y-85535556D01*
X137488489Y-85526162D01*
X137523101Y-85510101D01*
X137551279Y-85490262D01*
X137577813Y-85463604D01*
X137599671Y-85431882D01*
X137615732Y-85396094D01*
X137625126Y-85357492D01*
X137627881Y-85319958D01*
X137625126Y-85281915D01*
X137615732Y-85243168D01*
X137599671Y-85207667D01*
X137579993Y-85178776D01*
X137553885Y-85151666D01*
X137523101Y-85129448D01*
X137491749Y-85114185D01*
X137454658Y-85103925D01*
X137414840Y-85100505D01*
X137378021Y-85103332D01*
X137340537Y-85112970D01*
X137306213Y-85129448D01*
X137278281Y-85149444D01*
X137252061Y-85176110D01*
X137230559Y-85207667D01*
X137214706Y-85243168D01*
X137205434Y-85281915D01*
X137202715Y-85319958D01*
X137122925Y-85319958D01*
X137125733Y-85279955D01*
X137133289Y-85241098D01*
X137145517Y-85204484D01*
X137162415Y-85170115D01*
X137183263Y-85138539D01*
X137207524Y-85110489D01*
X137235196Y-85085965D01*
X137266279Y-85064968D01*
X137300157Y-85048058D01*
X137336209Y-85035980D01*
X137374437Y-85028732D01*
X137414840Y-85026317D01*
X137455278Y-85028721D01*
G37*
G36*
X136931972Y-85249249D02*
G01*
X136927307Y-85210599D01*
X136917203Y-85174560D01*
X136901661Y-85141133D01*
X136897900Y-85134760D01*
X136874283Y-85102556D01*
X136846250Y-85075460D01*
X136816934Y-85055259D01*
X136781358Y-85038781D01*
X136743142Y-85029143D01*
X136706108Y-85026317D01*
X136668161Y-85028946D01*
X136631736Y-85040055D01*
X136610397Y-85070725D01*
X136611586Y-85080172D01*
X136625875Y-85101421D01*
X136650055Y-85105635D01*
X136681928Y-85104535D01*
X136720817Y-85103502D01*
X136759737Y-85108350D01*
X136786525Y-85116076D01*
X136820471Y-85132671D01*
X136850064Y-85157034D01*
X136858882Y-85167367D01*
X136877165Y-85199900D01*
X136885209Y-85237551D01*
X136885627Y-85249249D01*
X136931972Y-85249249D01*
G37*
G36*
X136925561Y-85612500D02*
G01*
X136955053Y-85601875D01*
X136965494Y-85571833D01*
X136965494Y-85066983D01*
X136955053Y-85037124D01*
X136925561Y-85026317D01*
X136896251Y-85037124D01*
X136885627Y-85066983D01*
X136885627Y-85571833D01*
X136896251Y-85601875D01*
X136925561Y-85612500D01*
G37*
G36*
X136043539Y-84791477D02*
G01*
X136055079Y-84822069D01*
X136055079Y-85138058D01*
X136059515Y-85131816D01*
X136084274Y-85102947D01*
X136113325Y-85077978D01*
X136146670Y-85056908D01*
X136161036Y-85049738D01*
X136198828Y-85035996D01*
X136235135Y-85028736D01*
X136273615Y-85026317D01*
X136312965Y-85028721D01*
X136350231Y-85035934D01*
X136385414Y-85047955D01*
X136418512Y-85064785D01*
X136441553Y-85080127D01*
X136472611Y-85106835D01*
X136499467Y-85137978D01*
X136519812Y-85169382D01*
X136536081Y-85203591D01*
X136547702Y-85239907D01*
X136554674Y-85278329D01*
X136556998Y-85318859D01*
X136554605Y-85359868D01*
X136547427Y-85398634D01*
X136535463Y-85435156D01*
X136518713Y-85469434D01*
X136497830Y-85500850D01*
X136473467Y-85528785D01*
X136445623Y-85553240D01*
X136414299Y-85574214D01*
X136380182Y-85590964D01*
X136343957Y-85602928D01*
X136305626Y-85610107D01*
X136265189Y-85612500D01*
X136225267Y-85610118D01*
X136187382Y-85602974D01*
X136151536Y-85591067D01*
X136117727Y-85574398D01*
X136086563Y-85553595D01*
X136058834Y-85529289D01*
X136034540Y-85501480D01*
X136013680Y-85470167D01*
X135996793Y-85435992D01*
X135984417Y-85399779D01*
X135976551Y-85361529D01*
X135973197Y-85321240D01*
X135973197Y-85318859D01*
X136053064Y-85318859D01*
X136055783Y-85356919D01*
X136065055Y-85395727D01*
X136080908Y-85431332D01*
X136100260Y-85460144D01*
X136126052Y-85487250D01*
X136156562Y-85509551D01*
X136190886Y-85525925D01*
X136228370Y-85535502D01*
X136265189Y-85538311D01*
X136301500Y-85535502D01*
X136338838Y-85525925D01*
X136373450Y-85509551D01*
X136401628Y-85489476D01*
X136428162Y-85462807D01*
X136450020Y-85431332D01*
X136466081Y-85395727D01*
X136475475Y-85356919D01*
X136478230Y-85318859D01*
X136475475Y-85281342D01*
X136466081Y-85242801D01*
X136450020Y-85207117D01*
X136430342Y-85177991D01*
X136404234Y-85150869D01*
X136373450Y-85128899D01*
X136342098Y-85113926D01*
X136305007Y-85103860D01*
X136265189Y-85100505D01*
X136228370Y-85103278D01*
X136190886Y-85112733D01*
X136156562Y-85128899D01*
X136128630Y-85148659D01*
X136102410Y-85175312D01*
X136080908Y-85207117D01*
X136065055Y-85242801D01*
X136055783Y-85281342D01*
X136053064Y-85318859D01*
X135973197Y-85318859D01*
X135973197Y-84821336D01*
X135984737Y-84791294D01*
X136014229Y-84780120D01*
X136043539Y-84791477D01*
G37*
G36*
X145121496Y-86051844D02*
G01*
X145133036Y-86081702D01*
X145133036Y-86830917D01*
X145121496Y-86860776D01*
X145092003Y-86872500D01*
X145062694Y-86860776D01*
X145051154Y-86831100D01*
X145051154Y-86579408D01*
X144882077Y-86579408D01*
X144858239Y-86578563D01*
X144817517Y-86572781D01*
X144779606Y-86561523D01*
X144744507Y-86544787D01*
X144726432Y-86533289D01*
X144697143Y-86509459D01*
X144672027Y-86481601D01*
X144651084Y-86449715D01*
X144639629Y-86426435D01*
X144626891Y-86389219D01*
X144619485Y-86349251D01*
X144617378Y-86311413D01*
X144617385Y-86311229D01*
X144697246Y-86311229D01*
X144698723Y-86337791D01*
X144706476Y-86374885D01*
X144720876Y-86408682D01*
X144730388Y-86424100D01*
X144755460Y-86452997D01*
X144786639Y-86475727D01*
X144808334Y-86486226D01*
X144843583Y-86496349D01*
X144882077Y-86499724D01*
X145051154Y-86499724D01*
X145051154Y-86119621D01*
X144882077Y-86119621D01*
X144859227Y-86120804D01*
X144822627Y-86128339D01*
X144786639Y-86144351D01*
X144771490Y-86154199D01*
X144743130Y-86179957D01*
X144720876Y-86211762D01*
X144709453Y-86236886D01*
X144700038Y-86273855D01*
X144697246Y-86311229D01*
X144617385Y-86311229D01*
X144618563Y-86282070D01*
X144623830Y-86245050D01*
X144634791Y-86206276D01*
X144651084Y-86170546D01*
X144662204Y-86152127D01*
X144685465Y-86122220D01*
X144712899Y-86096486D01*
X144744507Y-86074924D01*
X144767594Y-86063096D01*
X144804568Y-86049943D01*
X144844353Y-86042295D01*
X144882077Y-86040120D01*
X145092003Y-86040120D01*
X145121496Y-86051844D01*
G37*
G36*
X144478893Y-86051844D02*
G01*
X144490433Y-86081702D01*
X144490433Y-86830917D01*
X144478893Y-86860776D01*
X144449400Y-86872500D01*
X144260356Y-86872500D01*
X144249149Y-86872381D01*
X144210849Y-86870094D01*
X144173986Y-86864897D01*
X144133617Y-86855395D01*
X144095126Y-86842091D01*
X144058856Y-86825296D01*
X144025151Y-86805317D01*
X143994010Y-86782156D01*
X143965433Y-86755812D01*
X143939685Y-86726526D01*
X143917027Y-86694721D01*
X143897461Y-86660397D01*
X143880986Y-86623555D01*
X143875617Y-86609132D01*
X143863882Y-86569347D01*
X143856695Y-86532957D01*
X143852382Y-86495095D01*
X143850951Y-86455943D01*
X143931728Y-86455943D01*
X143932386Y-86480381D01*
X143936706Y-86521521D01*
X143945058Y-86560593D01*
X143957443Y-86597596D01*
X143973860Y-86632531D01*
X143984848Y-86651341D01*
X144006487Y-86681780D01*
X144031195Y-86709064D01*
X144058970Y-86733192D01*
X144089814Y-86754164D01*
X144108667Y-86764511D01*
X144143355Y-86779298D01*
X144180199Y-86789861D01*
X144219200Y-86796198D01*
X144260356Y-86798311D01*
X144408551Y-86798311D01*
X144408551Y-86114492D01*
X144260356Y-86114492D01*
X144236574Y-86115176D01*
X144196650Y-86119665D01*
X144158881Y-86128344D01*
X144123269Y-86141213D01*
X144089814Y-86158272D01*
X144071813Y-86169741D01*
X144042723Y-86192333D01*
X144016701Y-86218132D01*
X143993746Y-86247140D01*
X143973860Y-86279356D01*
X143963985Y-86299025D01*
X143949872Y-86335099D01*
X143939792Y-86373277D01*
X143933744Y-86413558D01*
X143931728Y-86455943D01*
X143850951Y-86455943D01*
X143850944Y-86455760D01*
X143851062Y-86444374D01*
X143853321Y-86405501D01*
X143858455Y-86368153D01*
X143867843Y-86327338D01*
X143880986Y-86288515D01*
X143897461Y-86251924D01*
X143917027Y-86217807D01*
X143939685Y-86186162D01*
X143965433Y-86156990D01*
X143994010Y-86130566D01*
X144025151Y-86107348D01*
X144058856Y-86087335D01*
X144095126Y-86070528D01*
X144104573Y-86066846D01*
X144143533Y-86054493D01*
X144184372Y-86045940D01*
X144221645Y-86041575D01*
X144260356Y-86040120D01*
X144449400Y-86040120D01*
X144478893Y-86051844D01*
G37*
G36*
X143165110Y-86872500D02*
G01*
X143205315Y-86869964D01*
X143243086Y-86862357D01*
X143278422Y-86849678D01*
X143297002Y-86840443D01*
X143327827Y-86820541D01*
X143357522Y-86794044D01*
X143382424Y-86762932D01*
X143388959Y-86752698D01*
X143406637Y-86716445D01*
X143417767Y-86677293D01*
X143422187Y-86639579D01*
X143422481Y-86626486D01*
X143412040Y-86596078D01*
X143383647Y-86583438D01*
X143355254Y-86596078D01*
X143344812Y-86626486D01*
X143341003Y-86663997D01*
X143328380Y-86700742D01*
X143321731Y-86712948D01*
X143298114Y-86743432D01*
X143267976Y-86767885D01*
X143258167Y-86773764D01*
X143223823Y-86788353D01*
X143186577Y-86795504D01*
X143168408Y-86796296D01*
X143129699Y-86793445D01*
X143091489Y-86783423D01*
X143058930Y-86766184D01*
X143040363Y-86750683D01*
X143015924Y-86719564D01*
X143000536Y-86683221D01*
X142994426Y-86646046D01*
X142994018Y-86632714D01*
X142997135Y-86596075D01*
X143007547Y-86560510D01*
X143016183Y-86543138D01*
X143038468Y-86512864D01*
X143066853Y-86489042D01*
X143076084Y-86483421D01*
X143110891Y-86468644D01*
X143149274Y-86462143D01*
X143160897Y-86461805D01*
X143189290Y-86450265D01*
X143200831Y-86420406D01*
X143189290Y-86391830D01*
X143160897Y-86380106D01*
X143123574Y-86374936D01*
X143093303Y-86361788D01*
X143063823Y-86338770D01*
X143043478Y-86312878D01*
X143028613Y-86278812D01*
X143024427Y-86245833D01*
X143029759Y-86206670D01*
X143045756Y-86172709D01*
X143062345Y-86152960D01*
X143094202Y-86130188D01*
X143129649Y-86118547D01*
X143163095Y-86115591D01*
X143199901Y-86118922D01*
X143235289Y-86129883D01*
X143241864Y-86132993D01*
X143272684Y-86153143D01*
X143295903Y-86179155D01*
X143311603Y-86214060D01*
X143315320Y-86244734D01*
X143326311Y-86274593D01*
X143354154Y-86286683D01*
X143382548Y-86274593D01*
X143392989Y-86245650D01*
X143389461Y-86207048D01*
X143378876Y-86171087D01*
X143363130Y-86140687D01*
X143340048Y-86110828D01*
X143311858Y-86085731D01*
X143281797Y-86067048D01*
X143244547Y-86051717D01*
X143207453Y-86043302D01*
X143167282Y-86040146D01*
X143163095Y-86040120D01*
X143126169Y-86042750D01*
X143088319Y-86051717D01*
X143053369Y-86067048D01*
X143022125Y-86087837D01*
X142995643Y-86113432D01*
X142975700Y-86140870D01*
X142959222Y-86174409D01*
X142949584Y-86210545D01*
X142946757Y-86245650D01*
X142951669Y-86283178D01*
X142964160Y-86315259D01*
X142984172Y-86347271D01*
X143009772Y-86375893D01*
X143039448Y-86399661D01*
X143071688Y-86417475D01*
X143037013Y-86430297D01*
X143003976Y-86448827D01*
X142982478Y-86465835D01*
X142956599Y-86494142D01*
X142937009Y-86526076D01*
X142930088Y-86542039D01*
X142919176Y-86578066D01*
X142913827Y-86615303D01*
X142913235Y-86632897D01*
X142915858Y-86670747D01*
X142924924Y-86709981D01*
X142940466Y-86746245D01*
X142946391Y-86756545D01*
X142969414Y-86788065D01*
X142997267Y-86815078D01*
X143029950Y-86837582D01*
X143037066Y-86841542D01*
X143070524Y-86856507D01*
X143105981Y-86866574D01*
X143143437Y-86871744D01*
X143165110Y-86872500D01*
G37*
G36*
X142752767Y-86884223D02*
G01*
X142788888Y-86872372D01*
X142795815Y-86866271D01*
X142812734Y-86833463D01*
X142813584Y-86822674D01*
X142802403Y-86786601D01*
X142795266Y-86778344D01*
X142761629Y-86760846D01*
X142752767Y-86760209D01*
X142717853Y-86771613D01*
X142709720Y-86778893D01*
X142692627Y-86811939D01*
X142691768Y-86822674D01*
X142703256Y-86858515D01*
X142709170Y-86865722D01*
X142741728Y-86883338D01*
X142752767Y-86884223D01*
G37*
G36*
X142405978Y-86041341D02*
G01*
X142446068Y-86049692D01*
X142482652Y-86065954D01*
X142515730Y-86090129D01*
X142522564Y-86096550D01*
X142547826Y-86125642D01*
X142569768Y-86160183D01*
X142586243Y-86194877D01*
X142600177Y-86233743D01*
X142606917Y-86257649D01*
X142615343Y-86295567D01*
X142621746Y-86335959D01*
X142626128Y-86378824D01*
X142628234Y-86416433D01*
X142628936Y-86455760D01*
X142628487Y-86487869D01*
X142626661Y-86526346D01*
X142623432Y-86562980D01*
X142617702Y-86604510D01*
X142609951Y-86643386D01*
X142600177Y-86679609D01*
X142596455Y-86691050D01*
X142581795Y-86728459D01*
X142564594Y-86761766D01*
X142541822Y-86794807D01*
X142515730Y-86822491D01*
X142494068Y-86839486D01*
X142458653Y-86858386D01*
X142419731Y-86869374D01*
X142382190Y-86872500D01*
X142353171Y-86870729D01*
X142317165Y-86862857D01*
X142280325Y-86846476D01*
X142247368Y-86822124D01*
X142240579Y-86815639D01*
X142215483Y-86786375D01*
X142193684Y-86751800D01*
X142177315Y-86717188D01*
X142163471Y-86678510D01*
X142156687Y-86654673D01*
X142148208Y-86616772D01*
X142141763Y-86576294D01*
X142137354Y-86533240D01*
X142135234Y-86495395D01*
X142134531Y-86455943D01*
X142216410Y-86455943D01*
X142216568Y-86473892D01*
X142218163Y-86514318D01*
X142221477Y-86552711D01*
X142226508Y-86589071D01*
X142234362Y-86628135D01*
X142237861Y-86642000D01*
X142250368Y-86680178D01*
X142267798Y-86716582D01*
X142288950Y-86746653D01*
X142311138Y-86767463D01*
X142345635Y-86784614D01*
X142382190Y-86789701D01*
X142408820Y-86787011D01*
X142444214Y-86772886D01*
X142474147Y-86746653D01*
X142485044Y-86732423D01*
X142504206Y-86699293D01*
X142518455Y-86664153D01*
X142528736Y-86628684D01*
X142532009Y-86614435D01*
X142539165Y-86574470D01*
X142543548Y-86537152D01*
X142546177Y-86497644D01*
X142547054Y-86455943D01*
X142546982Y-86444047D01*
X142545605Y-86403662D01*
X142542474Y-86365222D01*
X142536750Y-86323674D01*
X142528736Y-86284668D01*
X142526376Y-86275361D01*
X142514021Y-86236613D01*
X142496962Y-86199576D01*
X142474147Y-86166149D01*
X142454799Y-86147316D01*
X142421225Y-86129155D01*
X142382190Y-86123101D01*
X142352447Y-86126550D01*
X142317388Y-86141877D01*
X142289866Y-86166699D01*
X142278812Y-86181088D01*
X142259413Y-86214454D01*
X142245044Y-86249715D01*
X142234728Y-86285218D01*
X142231455Y-86299449D01*
X142224299Y-86339194D01*
X142219916Y-86376112D01*
X142217287Y-86415028D01*
X142216410Y-86455943D01*
X142134531Y-86455943D01*
X142134528Y-86455760D01*
X142134782Y-86432153D01*
X142136337Y-86394131D01*
X142140068Y-86350689D01*
X142145834Y-86309629D01*
X142153635Y-86270953D01*
X142163471Y-86234659D01*
X142167169Y-86223127D01*
X142181734Y-86185426D01*
X142198825Y-86151861D01*
X142221448Y-86118568D01*
X142247368Y-86090678D01*
X142268908Y-86073496D01*
X142304453Y-86054389D01*
X142343882Y-86043280D01*
X142382190Y-86040120D01*
X142405978Y-86041341D01*
G37*
G36*
X135807536Y-84515000D02*
G01*
X135830787Y-84506222D01*
X135841120Y-84492529D01*
X135989497Y-84180875D01*
X135990596Y-84157428D01*
X135973468Y-84139993D01*
X135972644Y-84139598D01*
X135948586Y-84137522D01*
X135930024Y-84153520D01*
X135791416Y-84452473D01*
X135825000Y-84452473D01*
X135687857Y-84153520D01*
X135668562Y-84137522D01*
X135643968Y-84138846D01*
X135642306Y-84139598D01*
X135625575Y-84157062D01*
X135626919Y-84180875D01*
X135775296Y-84492529D01*
X135791729Y-84511291D01*
X135807536Y-84515000D01*
G37*
G36*
X135433596Y-83976840D02*
G01*
X135457757Y-83981859D01*
X135482584Y-83992303D01*
X135504919Y-84007829D01*
X135509521Y-84011939D01*
X135526546Y-84030593D01*
X135541357Y-84052789D01*
X135552501Y-84075115D01*
X135561950Y-84100153D01*
X135566530Y-84115619D01*
X135572254Y-84140255D01*
X135576605Y-84166618D01*
X135579581Y-84194706D01*
X135581012Y-84219431D01*
X135581489Y-84245355D01*
X135581413Y-84255869D01*
X135580554Y-84281313D01*
X135578265Y-84310265D01*
X135574601Y-84337490D01*
X135569563Y-84362990D01*
X135561950Y-84390558D01*
X135559423Y-84397989D01*
X135549490Y-84422261D01*
X135537862Y-84443833D01*
X135522497Y-84465182D01*
X135504919Y-84483004D01*
X135490306Y-84493877D01*
X135466310Y-84505969D01*
X135439821Y-84513000D01*
X135414183Y-84515000D01*
X135394812Y-84513849D01*
X135370693Y-84508735D01*
X135345894Y-84498092D01*
X135323569Y-84482271D01*
X135318953Y-84478072D01*
X135301890Y-84459120D01*
X135287071Y-84436719D01*
X135275946Y-84414287D01*
X135266538Y-84389214D01*
X135261930Y-84373743D01*
X135256170Y-84349191D01*
X135251792Y-84323025D01*
X135248797Y-84295244D01*
X135247357Y-84270860D01*
X135246877Y-84245355D01*
X135319050Y-84245355D01*
X135319553Y-84269478D01*
X135321358Y-84295673D01*
X135324476Y-84320403D01*
X135329553Y-84346472D01*
X135336291Y-84370116D01*
X135346783Y-84394948D01*
X135361060Y-84416936D01*
X135367896Y-84424359D01*
X135389921Y-84438451D01*
X135414183Y-84442704D01*
X135423782Y-84442083D01*
X135448025Y-84433749D01*
X135467062Y-84417302D01*
X135468387Y-84415688D01*
X135482632Y-84393400D01*
X135492168Y-84370708D01*
X135498935Y-84347083D01*
X135503530Y-84323963D01*
X135506812Y-84299303D01*
X135508781Y-84273100D01*
X135509438Y-84245355D01*
X135508935Y-84220947D01*
X135507130Y-84194512D01*
X135504012Y-84169633D01*
X135498935Y-84143506D01*
X135492197Y-84119862D01*
X135481705Y-84095030D01*
X135467428Y-84073042D01*
X135460590Y-84065619D01*
X135438524Y-84051527D01*
X135414183Y-84047274D01*
X135404417Y-84047912D01*
X135379961Y-84056488D01*
X135361060Y-84073408D01*
X135358476Y-84076748D01*
X135345727Y-84097706D01*
X135336291Y-84120565D01*
X135329553Y-84144239D01*
X135324958Y-84167320D01*
X135321676Y-84191866D01*
X135319707Y-84217878D01*
X135319050Y-84245355D01*
X135246877Y-84245355D01*
X135246953Y-84235019D01*
X135247818Y-84209968D01*
X135250122Y-84181395D01*
X135253808Y-84154444D01*
X135258877Y-84129116D01*
X135266538Y-84101618D01*
X135269051Y-84094171D01*
X135278949Y-84069808D01*
X135290566Y-84048099D01*
X135305945Y-84026537D01*
X135323569Y-84008440D01*
X135338178Y-83997317D01*
X135362152Y-83984948D01*
X135388599Y-83977757D01*
X135414183Y-83975711D01*
X135433596Y-83976840D01*
G37*
G36*
X135156629Y-84522815D02*
G01*
X135181071Y-84516062D01*
X135190579Y-84508527D01*
X135203179Y-84487565D01*
X135204867Y-84474822D01*
X135198713Y-84450899D01*
X135190579Y-84440383D01*
X135169456Y-84427783D01*
X135156629Y-84426095D01*
X135132704Y-84432249D01*
X135122313Y-84440383D01*
X135109928Y-84461661D01*
X135108269Y-84474822D01*
X135114907Y-84499096D01*
X135122313Y-84508527D01*
X135143428Y-84521127D01*
X135156629Y-84522815D01*
G37*
G36*
X134992131Y-84515000D02*
G01*
X135015708Y-84506575D01*
X135017655Y-84504741D01*
X135027751Y-84481629D01*
X135027791Y-84479829D01*
X135019204Y-84456265D01*
X135018021Y-84455038D01*
X134819207Y-84225938D01*
X134803713Y-84206755D01*
X134789742Y-84185773D01*
X134786723Y-84180387D01*
X134777342Y-84157001D01*
X134775122Y-84139720D01*
X134777132Y-84114726D01*
X134784352Y-84090111D01*
X134785624Y-84087330D01*
X134799368Y-84066671D01*
X134815788Y-84053136D01*
X134838755Y-84043703D01*
X134862683Y-84041046D01*
X134887901Y-84044405D01*
X134910554Y-84054480D01*
X134929666Y-84070142D01*
X134944260Y-84090261D01*
X134953419Y-84113739D01*
X134956472Y-84139476D01*
X134965381Y-84162345D01*
X134966608Y-84163656D01*
X134989292Y-84173824D01*
X134992131Y-84173914D01*
X135015283Y-84165389D01*
X135017288Y-84163534D01*
X135027750Y-84141066D01*
X135027791Y-84139354D01*
X135026081Y-84113768D01*
X135020952Y-84089766D01*
X135011241Y-84064955D01*
X135006175Y-84055579D01*
X134991063Y-84033978D01*
X134972897Y-84015431D01*
X134951679Y-83999937D01*
X134947069Y-83997205D01*
X134922718Y-83985870D01*
X134896531Y-83978734D01*
X134871393Y-83975900D01*
X134862683Y-83975711D01*
X134836897Y-83977296D01*
X134810603Y-83982772D01*
X134786789Y-83992160D01*
X134780129Y-83995739D01*
X134759762Y-84009867D01*
X134742471Y-84027214D01*
X134728258Y-84047782D01*
X134725785Y-84052281D01*
X134715609Y-84076462D01*
X134709674Y-84100550D01*
X134706791Y-84126840D01*
X134706489Y-84139232D01*
X134709503Y-84164232D01*
X134716015Y-84184050D01*
X134726670Y-84206277D01*
X134739829Y-84227526D01*
X134755148Y-84248317D01*
X134768893Y-84264773D01*
X134929117Y-84444047D01*
X134733112Y-84444047D01*
X134709924Y-84452368D01*
X134707222Y-84454916D01*
X134696761Y-84477856D01*
X134696720Y-84479584D01*
X134705345Y-84502615D01*
X134707222Y-84504619D01*
X134730270Y-84514908D01*
X134733112Y-84515000D01*
X134992131Y-84515000D01*
G37*
D11*
G36*
X145246663Y-93713274D02*
G01*
X145282958Y-93728575D01*
X145285857Y-93731555D01*
X145299176Y-93769217D01*
X145299176Y-94270403D01*
X145296147Y-94312767D01*
X145288234Y-94352908D01*
X145275436Y-94390827D01*
X145257752Y-94426523D01*
X145241635Y-94451445D01*
X145213620Y-94485015D01*
X145180999Y-94514011D01*
X145148136Y-94535944D01*
X145112245Y-94553468D01*
X145074131Y-94565986D01*
X145033794Y-94573496D01*
X144991235Y-94576000D01*
X144948175Y-94573484D01*
X144907508Y-94565937D01*
X144869235Y-94553358D01*
X144833356Y-94535748D01*
X144808281Y-94519624D01*
X144774454Y-94491573D01*
X144745172Y-94458885D01*
X144722958Y-94425937D01*
X144705092Y-94390045D01*
X144692330Y-94351931D01*
X144684673Y-94311594D01*
X144682133Y-94269230D01*
X144791933Y-94269230D01*
X144793581Y-94297660D01*
X144802237Y-94337741D01*
X144818311Y-94374743D01*
X144828782Y-94391761D01*
X144855947Y-94423731D01*
X144889239Y-94448993D01*
X144912393Y-94460790D01*
X144950055Y-94472166D01*
X144991235Y-94475958D01*
X145018529Y-94474272D01*
X145057043Y-94465425D01*
X145092644Y-94448993D01*
X145111542Y-94436224D01*
X145141676Y-94407350D01*
X145163768Y-94374743D01*
X145174966Y-94350417D01*
X145185765Y-94311362D01*
X145189364Y-94269230D01*
X145187765Y-94240361D01*
X145179366Y-94200171D01*
X145163768Y-94163718D01*
X145153409Y-94147032D01*
X145126251Y-94115546D01*
X145092644Y-94090445D01*
X145069234Y-94078648D01*
X145031690Y-94067272D01*
X144991235Y-94063480D01*
X144966786Y-94064771D01*
X144927658Y-94072986D01*
X144889239Y-94090445D01*
X144873112Y-94101236D01*
X144842648Y-94129284D01*
X144818311Y-94163718D01*
X144805560Y-94190707D01*
X144795049Y-94229963D01*
X144791933Y-94269230D01*
X144682133Y-94269230D01*
X144682121Y-94269035D01*
X144684466Y-94226598D01*
X144691500Y-94186432D01*
X144703224Y-94148538D01*
X144719637Y-94112915D01*
X144732033Y-94092006D01*
X144757736Y-94057927D01*
X144787798Y-94028423D01*
X144822219Y-94003494D01*
X144847136Y-93989815D01*
X144886727Y-93974603D01*
X144928977Y-93965759D01*
X144968764Y-93963243D01*
X145009011Y-93965953D01*
X145050902Y-93975192D01*
X145090300Y-93990989D01*
X145123379Y-94010277D01*
X145156064Y-94035989D01*
X145184870Y-94066411D01*
X145184870Y-93769217D01*
X145185010Y-93764576D01*
X145200697Y-93728575D01*
X145204764Y-93724957D01*
X145242121Y-93713138D01*
X145246663Y-93713274D01*
G37*
G36*
X144366559Y-94576000D02*
G01*
X144407512Y-94570951D01*
X144444201Y-94555804D01*
X144453900Y-94549621D01*
X144484023Y-94522667D01*
X144507713Y-94488307D01*
X144513300Y-94477130D01*
X144527090Y-94437565D01*
X144533579Y-94397036D01*
X144534598Y-94371617D01*
X144534598Y-93768435D01*
X144521031Y-93730539D01*
X144519162Y-93728575D01*
X144483127Y-93713274D01*
X144478520Y-93713138D01*
X144441052Y-93725816D01*
X144438073Y-93728575D01*
X144422698Y-93765245D01*
X144422637Y-93768240D01*
X144422637Y-94370836D01*
X144418171Y-94410200D01*
X144406810Y-94438247D01*
X144376833Y-94463363D01*
X144366559Y-94464625D01*
X144338618Y-94464625D01*
X144301884Y-94480256D01*
X144288259Y-94517293D01*
X144288206Y-94520312D01*
X144304363Y-94556323D01*
X144309309Y-94560368D01*
X144346205Y-94574763D01*
X144364214Y-94576000D01*
X144366559Y-94576000D01*
G37*
G36*
X144107662Y-94576000D02*
G01*
X144145578Y-94562680D01*
X144148695Y-94559782D01*
X144164770Y-94523487D01*
X144164912Y-94518944D01*
X144164912Y-94020298D01*
X144152496Y-93983134D01*
X144148695Y-93979070D01*
X144112239Y-93963382D01*
X144107662Y-93963243D01*
X144070497Y-93975361D01*
X144066434Y-93979070D01*
X144050746Y-94015586D01*
X144050607Y-94020298D01*
X144050607Y-94518944D01*
X144063605Y-94556667D01*
X144066434Y-94559782D01*
X144102950Y-94575857D01*
X144107662Y-94576000D01*
G37*
G36*
X144107857Y-93863201D02*
G01*
X144147053Y-93851997D01*
X144160027Y-93841512D01*
X144180001Y-93806095D01*
X144181716Y-93789928D01*
X144170512Y-93751013D01*
X144160027Y-93738149D01*
X144125965Y-93718578D01*
X144107857Y-93716460D01*
X144068762Y-93727665D01*
X144055882Y-93738149D01*
X144036135Y-93771942D01*
X144033998Y-93789928D01*
X144045303Y-93828663D01*
X144055882Y-93841512D01*
X144089768Y-93861083D01*
X144107857Y-93863201D01*
G37*
G36*
X143321004Y-94576000D02*
G01*
X143358727Y-94562841D01*
X143361842Y-94559977D01*
X143377917Y-94524036D01*
X143378060Y-94519531D01*
X143378060Y-94247151D01*
X143380853Y-94206397D01*
X143390273Y-94168259D01*
X143401702Y-94143983D01*
X143427290Y-94111122D01*
X143460092Y-94087276D01*
X143465010Y-94084778D01*
X143501998Y-94071555D01*
X143543549Y-94065737D01*
X143556259Y-94065434D01*
X143595609Y-94068912D01*
X143634034Y-94080358D01*
X143641256Y-94083606D01*
X143675450Y-94104855D01*
X143701828Y-94132259D01*
X143719839Y-94169457D01*
X143724103Y-94202406D01*
X143794836Y-94202406D01*
X143791496Y-94160991D01*
X143781478Y-94122477D01*
X143764782Y-94086864D01*
X143760642Y-94080089D01*
X143736809Y-94048681D01*
X143708053Y-94021623D01*
X143674374Y-93998916D01*
X143667048Y-93994897D01*
X143628511Y-93978204D01*
X143587150Y-93967694D01*
X143547510Y-93963521D01*
X143533789Y-93963243D01*
X143491657Y-93965840D01*
X143452092Y-93973629D01*
X143415092Y-93986613D01*
X143395645Y-93996069D01*
X143359959Y-94019440D01*
X143329348Y-94048765D01*
X143306139Y-94080247D01*
X143299316Y-94091812D01*
X143282220Y-94129601D01*
X143270719Y-94171964D01*
X143265193Y-94213461D01*
X143263949Y-94246956D01*
X143263949Y-94519531D01*
X143277269Y-94556899D01*
X143280167Y-94559977D01*
X143316462Y-94575859D01*
X143321004Y-94576000D01*
G37*
G36*
X143781353Y-94576000D02*
G01*
X143819076Y-94562680D01*
X143822191Y-94559782D01*
X143838266Y-94523487D01*
X143838408Y-94518944D01*
X143838408Y-94020298D01*
X143825992Y-93982941D01*
X143822191Y-93978875D01*
X143785896Y-93963380D01*
X143781353Y-93963243D01*
X143743996Y-93975211D01*
X143739930Y-93978875D01*
X143724242Y-94015551D01*
X143724103Y-94020298D01*
X143724103Y-94518944D01*
X143737101Y-94556667D01*
X143739930Y-94559782D01*
X143776607Y-94575857D01*
X143781353Y-94576000D01*
G37*
G36*
X142967341Y-94358721D02*
G01*
X143036706Y-94282517D01*
X142693007Y-93978679D01*
X142656782Y-93963258D01*
X142655491Y-93963243D01*
X142620125Y-93980047D01*
X142605666Y-94016781D01*
X142623447Y-94052538D01*
X142967341Y-94358721D01*
G37*
G36*
X143019902Y-94576000D02*
G01*
X143057821Y-94562948D01*
X143059762Y-94561150D01*
X143074749Y-94524868D01*
X143074808Y-94521875D01*
X143074808Y-93767263D01*
X143061584Y-93730077D01*
X143059762Y-93728184D01*
X143022943Y-93713197D01*
X143019902Y-93713138D01*
X142982155Y-93726362D01*
X142980237Y-93728184D01*
X142965056Y-93764271D01*
X142964996Y-93767263D01*
X142964996Y-94521875D01*
X142978391Y-94559233D01*
X142980237Y-94561150D01*
X143016862Y-94575941D01*
X143019902Y-94576000D01*
G37*
G36*
X142620125Y-94576781D02*
G01*
X142657265Y-94589833D01*
X142659986Y-94589677D01*
X142695406Y-94571245D01*
X142696329Y-94570138D01*
X142923572Y-94288965D01*
X142845219Y-94216865D01*
X142612309Y-94501750D01*
X142599319Y-94539146D01*
X142599413Y-94540438D01*
X142618945Y-94575799D01*
X142620125Y-94576781D01*
G37*
G36*
X142328011Y-94838609D02*
G01*
X142354975Y-94831771D01*
X142385423Y-94805178D01*
X142383262Y-94764224D01*
X142381939Y-94761233D01*
X142040195Y-93989621D01*
X142013602Y-93960243D01*
X141972649Y-93961465D01*
X141969658Y-93962657D01*
X141938411Y-93988763D01*
X141940383Y-94030144D01*
X141941716Y-94033194D01*
X142284438Y-94803829D01*
X142309286Y-94834500D01*
X142328011Y-94838609D01*
G37*
G36*
X142195924Y-94551380D02*
G01*
X142235785Y-94553138D01*
X142264586Y-94525733D01*
X142265289Y-94524415D01*
X142521842Y-94037297D01*
X142525083Y-93997683D01*
X142524577Y-93996460D01*
X142496196Y-93968493D01*
X142494877Y-93967933D01*
X142454822Y-93966174D01*
X142426156Y-93993384D01*
X142425512Y-93994702D01*
X142180293Y-94482015D01*
X142171580Y-94520380D01*
X142171891Y-94522852D01*
X142195924Y-94551380D01*
G37*
G36*
X141569112Y-93965795D02*
G01*
X141609204Y-93973452D01*
X141647172Y-93986214D01*
X141683014Y-94004080D01*
X141711978Y-94023283D01*
X141745150Y-94052147D01*
X141770795Y-94081750D01*
X141792826Y-94115064D01*
X141810594Y-94151261D01*
X141823454Y-94189705D01*
X141831404Y-94230396D01*
X141834445Y-94273334D01*
X141834445Y-94781750D01*
X141834302Y-94786257D01*
X141818227Y-94822392D01*
X141815112Y-94825290D01*
X141777390Y-94838609D01*
X141772676Y-94838465D01*
X141735966Y-94822196D01*
X141732257Y-94817959D01*
X141720139Y-94780773D01*
X141720139Y-94474785D01*
X141694112Y-94502083D01*
X141661780Y-94527747D01*
X141625568Y-94548840D01*
X141586171Y-94564303D01*
X141544280Y-94573347D01*
X141504033Y-94576000D01*
X141478925Y-94575017D01*
X141435821Y-94568295D01*
X141395407Y-94555206D01*
X141357683Y-94535748D01*
X141338074Y-94522469D01*
X141306119Y-94495031D01*
X141278462Y-94463049D01*
X141255101Y-94426523D01*
X141238602Y-94390815D01*
X141226817Y-94352859D01*
X141219747Y-94312657D01*
X141217390Y-94270207D01*
X141327201Y-94270207D01*
X141328850Y-94298686D01*
X141337505Y-94338657D01*
X141353579Y-94375330D01*
X141364051Y-94392148D01*
X141391216Y-94423828D01*
X141424508Y-94448993D01*
X141447662Y-94460790D01*
X141485324Y-94472166D01*
X141526503Y-94475958D01*
X141553956Y-94474272D01*
X141592571Y-94465425D01*
X141628108Y-94448993D01*
X141644414Y-94438188D01*
X141674982Y-94410016D01*
X141699036Y-94375330D01*
X141710235Y-94351247D01*
X141721034Y-94312376D01*
X141724633Y-94270207D01*
X141723033Y-94241301D01*
X141714634Y-94200919D01*
X141699036Y-94164108D01*
X141688737Y-94147290D01*
X141661614Y-94115610D01*
X141627913Y-94090445D01*
X141604515Y-94078648D01*
X141567035Y-94067272D01*
X141526699Y-94063480D01*
X141502393Y-94064771D01*
X141463380Y-94072986D01*
X141424898Y-94090445D01*
X141406058Y-94103186D01*
X141375882Y-94131859D01*
X141353579Y-94164108D01*
X141340828Y-94191381D01*
X141330318Y-94230871D01*
X141327201Y-94270207D01*
X141217390Y-94270207D01*
X141219942Y-94227648D01*
X141227599Y-94187311D01*
X141240361Y-94149197D01*
X141258227Y-94113306D01*
X141277468Y-94084276D01*
X141302823Y-94054533D01*
X141335640Y-94025452D01*
X141368625Y-94003494D01*
X141404528Y-93985884D01*
X141442875Y-93973306D01*
X141483663Y-93965759D01*
X141526894Y-93963243D01*
X141569112Y-93965795D01*
G37*
G36*
X140812411Y-93965759D02*
G01*
X140852882Y-93973306D01*
X140891154Y-93985884D01*
X140927229Y-94003494D01*
X140956373Y-94022507D01*
X140989804Y-94051073D01*
X141015706Y-94080357D01*
X141038018Y-94113306D01*
X141055884Y-94149197D01*
X141068646Y-94187311D01*
X141076303Y-94227648D01*
X141078855Y-94270207D01*
X141076498Y-94312657D01*
X141069427Y-94352859D01*
X141057643Y-94390815D01*
X141041144Y-94426523D01*
X141028701Y-94447376D01*
X141002986Y-94481378D01*
X140973004Y-94510835D01*
X140938757Y-94535748D01*
X140913833Y-94549427D01*
X140874206Y-94564640D01*
X140831889Y-94573484D01*
X140792016Y-94576000D01*
X140766795Y-94575022D01*
X140723537Y-94568333D01*
X140683031Y-94555307D01*
X140645275Y-94535944D01*
X140625727Y-94522669D01*
X140593883Y-94495264D01*
X140575910Y-94474439D01*
X140575910Y-94518944D01*
X140575768Y-94523487D01*
X140559692Y-94559782D01*
X140556576Y-94562680D01*
X140518660Y-94576000D01*
X140514084Y-94575859D01*
X140477822Y-94559977D01*
X140474924Y-94556864D01*
X140461605Y-94519335D01*
X140461605Y-94271184D01*
X140461664Y-94270207D01*
X140571416Y-94270207D01*
X140573028Y-94298686D01*
X140581491Y-94338657D01*
X140597208Y-94375330D01*
X140607546Y-94392148D01*
X140634518Y-94423828D01*
X140667745Y-94448993D01*
X140690900Y-94460790D01*
X140728562Y-94472166D01*
X140769741Y-94475958D01*
X140797109Y-94474272D01*
X140835641Y-94465425D01*
X140871151Y-94448993D01*
X140890000Y-94436252D01*
X140920244Y-94407579D01*
X140942665Y-94375330D01*
X140954206Y-94351247D01*
X140965334Y-94312376D01*
X140969043Y-94270207D01*
X140967395Y-94241301D01*
X140958739Y-94200919D01*
X140942665Y-94164108D01*
X140932107Y-94147290D01*
X140904659Y-94115610D01*
X140870956Y-94090445D01*
X140847618Y-94078648D01*
X140810093Y-94067272D01*
X140769546Y-94063480D01*
X140745173Y-94064771D01*
X140706133Y-94072986D01*
X140667745Y-94090445D01*
X140651632Y-94101250D01*
X140621292Y-94129422D01*
X140597208Y-94164108D01*
X140584740Y-94191381D01*
X140574464Y-94230871D01*
X140571416Y-94270207D01*
X140461664Y-94270207D01*
X140464169Y-94228527D01*
X140471863Y-94188093D01*
X140484685Y-94149881D01*
X140502637Y-94113892D01*
X140521869Y-94084776D01*
X140547191Y-94054936D01*
X140579940Y-94025745D01*
X140612840Y-94003690D01*
X140648585Y-93985994D01*
X140686650Y-93973355D01*
X140727035Y-93965771D01*
X140769741Y-93963243D01*
X140812411Y-93965759D01*
G37*
G36*
X140236706Y-94191268D02*
G01*
X140233481Y-94152060D01*
X140222484Y-94112016D01*
X140203684Y-94075204D01*
X140178280Y-94042368D01*
X140147474Y-94014519D01*
X140114780Y-93993529D01*
X140078643Y-93977558D01*
X140040331Y-93967502D01*
X139999844Y-93963361D01*
X139991486Y-93963243D01*
X139949316Y-93965783D01*
X139909897Y-93975333D01*
X139891249Y-93984736D01*
X139865924Y-94014565D01*
X139866043Y-94035539D01*
X139878939Y-94059182D01*
X139900823Y-94069538D01*
X139927592Y-94071687D01*
X139966785Y-94065640D01*
X140007650Y-94063816D01*
X140049339Y-94067760D01*
X140056552Y-94069147D01*
X140095964Y-94080806D01*
X140131032Y-94099577D01*
X140146629Y-94112329D01*
X140170331Y-94145147D01*
X140179522Y-94185350D01*
X140179651Y-94191268D01*
X140236706Y-94191268D01*
G37*
G36*
X140235729Y-94576000D02*
G01*
X140274298Y-94564606D01*
X140277152Y-94562127D01*
X140291484Y-94525073D01*
X140291612Y-94519921D01*
X140291612Y-94019321D01*
X140280541Y-93981708D01*
X140277152Y-93977898D01*
X140240641Y-93963372D01*
X140235729Y-93963243D01*
X140197410Y-93974014D01*
X140193719Y-93977311D01*
X140179774Y-94014171D01*
X140179651Y-94019321D01*
X140179651Y-94519921D01*
X140190422Y-94557684D01*
X140193719Y-94561540D01*
X140230578Y-94575872D01*
X140235729Y-94576000D01*
G37*
G36*
X139524689Y-94576000D02*
G01*
X139565181Y-94572015D01*
X139602541Y-94560063D01*
X139625708Y-94547667D01*
X139656601Y-94523533D01*
X139682165Y-94493629D01*
X139696245Y-94470487D01*
X139711843Y-94432147D01*
X139720242Y-94390399D01*
X139721842Y-94360675D01*
X139721842Y-93831157D01*
X139708103Y-93793261D01*
X139706210Y-93791296D01*
X139669001Y-93775726D01*
X139665959Y-93775665D01*
X139628718Y-93788503D01*
X139625708Y-93791296D01*
X139609943Y-93828139D01*
X139609881Y-93831157D01*
X139609881Y-94360284D01*
X139603726Y-94401073D01*
X139585261Y-94434729D01*
X139553978Y-94458903D01*
X139524689Y-94464625D01*
X139486782Y-94464625D01*
X139452588Y-94480256D01*
X139438575Y-94517293D01*
X139438520Y-94520312D01*
X139453765Y-94557360D01*
X139457083Y-94560368D01*
X139494024Y-94575450D01*
X139504563Y-94576000D01*
X139524689Y-94576000D01*
G37*
G36*
X139773426Y-94083801D02*
G01*
X139810603Y-94071332D01*
X139811528Y-94070515D01*
X139825987Y-94037102D01*
X139811528Y-94001540D01*
X139773426Y-93988254D01*
X139514724Y-93988254D01*
X139477535Y-94000723D01*
X139476622Y-94001540D01*
X139461967Y-94037102D01*
X139476622Y-94070515D01*
X139514724Y-94083801D01*
X139773426Y-94083801D01*
G37*
G36*
X139076064Y-94576000D02*
G01*
X139119304Y-94574114D01*
X139160660Y-94568457D01*
X139200129Y-94559029D01*
X139221242Y-94552161D01*
X139259985Y-94535919D01*
X139295902Y-94515232D01*
X139324801Y-94491589D01*
X139339210Y-94455189D01*
X139338869Y-94450947D01*
X139320398Y-94416058D01*
X139316985Y-94413236D01*
X139280987Y-94397827D01*
X139272826Y-94398191D01*
X139237117Y-94415685D01*
X139235115Y-94417730D01*
X139204479Y-94442057D01*
X139174152Y-94457591D01*
X139135560Y-94470146D01*
X139096444Y-94475509D01*
X139080558Y-94475958D01*
X139039584Y-94473487D01*
X139000507Y-94464197D01*
X138981493Y-94455050D01*
X138953535Y-94427635D01*
X138946322Y-94400926D01*
X138958213Y-94363084D01*
X138978171Y-94343676D01*
X139013966Y-94325441D01*
X139053701Y-94313389D01*
X139093128Y-94304984D01*
X139098534Y-94304011D01*
X139138775Y-94294955D01*
X139180200Y-94282427D01*
X139220262Y-94265522D01*
X139256048Y-94243206D01*
X139262665Y-94237772D01*
X139289559Y-94208245D01*
X139307637Y-94171314D01*
X139313663Y-94129719D01*
X139308937Y-94090234D01*
X139293151Y-94053598D01*
X139280055Y-94036516D01*
X139249621Y-94009606D01*
X139212931Y-93988889D01*
X139193886Y-93981415D01*
X139153715Y-93970341D01*
X139112334Y-93964379D01*
X139084075Y-93963243D01*
X139043764Y-93965098D01*
X139002128Y-93971509D01*
X138963813Y-93982500D01*
X138952965Y-93986690D01*
X138916511Y-94004800D01*
X138883061Y-94029402D01*
X138862302Y-94051170D01*
X138847591Y-94087455D01*
X138847648Y-94088686D01*
X138866796Y-94121708D01*
X138906146Y-94130020D01*
X138909197Y-94129524D01*
X138945179Y-94114011D01*
X138950621Y-94109398D01*
X138981729Y-94085546D01*
X139011193Y-94072468D01*
X139050898Y-94064253D01*
X139086224Y-94062308D01*
X139126429Y-94065487D01*
X139165325Y-94076905D01*
X139169658Y-94078916D01*
X139199043Y-94105539D01*
X139203852Y-94127374D01*
X139193300Y-94163131D01*
X139162293Y-94186975D01*
X139151290Y-94191854D01*
X139112554Y-94204408D01*
X139073948Y-94213632D01*
X139059260Y-94216669D01*
X139019546Y-94225438D01*
X138980123Y-94236645D01*
X138942845Y-94250765D01*
X138926782Y-94258484D01*
X138891640Y-94280477D01*
X138862391Y-94309219D01*
X138856636Y-94317493D01*
X138840662Y-94353739D01*
X138835359Y-94392510D01*
X138835338Y-94395260D01*
X138839885Y-94434766D01*
X138854952Y-94473704D01*
X138862889Y-94486704D01*
X138889371Y-94517144D01*
X138921373Y-94540376D01*
X138943391Y-94551771D01*
X138983047Y-94565565D01*
X139024507Y-94573137D01*
X139066226Y-94575905D01*
X139076064Y-94576000D01*
G37*
G36*
X137960362Y-94588505D02*
G01*
X137999466Y-94586878D01*
X138042783Y-94581034D01*
X138084634Y-94570941D01*
X138125019Y-94556598D01*
X138129965Y-94554506D01*
X138168176Y-94535846D01*
X138203872Y-94513864D01*
X138237053Y-94488561D01*
X138267718Y-94459935D01*
X138295512Y-94428269D01*
X138320083Y-94394039D01*
X138341430Y-94357243D01*
X138359553Y-94317884D01*
X138374000Y-94276326D01*
X138384319Y-94233131D01*
X138389962Y-94193994D01*
X138392446Y-94153604D01*
X138392575Y-94141833D01*
X138390994Y-94101503D01*
X138386254Y-94062407D01*
X138376967Y-94019237D01*
X138363552Y-93977679D01*
X138359553Y-93967542D01*
X138341430Y-93928353D01*
X138320083Y-93891680D01*
X138295512Y-93857523D01*
X138267718Y-93825881D01*
X138237090Y-93797146D01*
X138204019Y-93771708D01*
X138168506Y-93749567D01*
X138130551Y-93730724D01*
X138090532Y-93715593D01*
X138048827Y-93704785D01*
X138005437Y-93698301D01*
X137966089Y-93696173D01*
X137960362Y-93696139D01*
X137918695Y-93697531D01*
X137875438Y-93702426D01*
X137836015Y-93710844D01*
X137811863Y-93718414D01*
X137772971Y-93735141D01*
X137737870Y-93754991D01*
X137702677Y-93779386D01*
X137687006Y-93791687D01*
X137673133Y-93805755D01*
X137666294Y-93820214D01*
X137664535Y-93837605D01*
X137679776Y-93873557D01*
X137716706Y-93889189D01*
X137753964Y-93877319D01*
X137757543Y-93874534D01*
X137789023Y-93850079D01*
X137824056Y-93828920D01*
X137843321Y-93819824D01*
X137883941Y-93807426D01*
X137925717Y-93801872D01*
X137960362Y-93800675D01*
X138000876Y-93803289D01*
X138039863Y-93811132D01*
X138077324Y-93824202D01*
X138084633Y-93827444D01*
X138119671Y-93846140D01*
X138151998Y-93868767D01*
X138181617Y-93895324D01*
X138187215Y-93901108D01*
X138212906Y-93931783D01*
X138234781Y-93965435D01*
X138252840Y-94002064D01*
X138255994Y-94009747D01*
X138268977Y-94049261D01*
X138277151Y-94090378D01*
X138280517Y-94133097D01*
X138280614Y-94141833D01*
X138278666Y-94181208D01*
X138271934Y-94223218D01*
X138260394Y-94263396D01*
X138255994Y-94275092D01*
X138238698Y-94312336D01*
X138217587Y-94346640D01*
X138192659Y-94378006D01*
X138187215Y-94383927D01*
X138158139Y-94411110D01*
X138126353Y-94434287D01*
X138091857Y-94453456D01*
X138084633Y-94456809D01*
X138047478Y-94470616D01*
X138008796Y-94479310D01*
X137968587Y-94482890D01*
X137960362Y-94482992D01*
X137918331Y-94480244D01*
X137878114Y-94472001D01*
X137852309Y-94463452D01*
X137814610Y-94446655D01*
X137778011Y-94425570D01*
X137754221Y-94409133D01*
X137717001Y-94396276D01*
X137714556Y-94396432D01*
X137681535Y-94412064D01*
X137668066Y-94449212D01*
X137668053Y-94450752D01*
X137671960Y-94472441D01*
X137685833Y-94491785D01*
X137720050Y-94517378D01*
X137755873Y-94538984D01*
X137793304Y-94556602D01*
X137814794Y-94564667D01*
X137854352Y-94576190D01*
X137894993Y-94583942D01*
X137936716Y-94587923D01*
X137960362Y-94588505D01*
G37*
G36*
X137668053Y-94450752D02*
G01*
X137780013Y-94428477D01*
X137780013Y-94228002D01*
X137934570Y-94228002D01*
X137972774Y-94216127D01*
X137975994Y-94213543D01*
X137992781Y-94178194D01*
X137992798Y-94176809D01*
X137975994Y-94140270D01*
X137939118Y-94125938D01*
X137934570Y-94125811D01*
X137725108Y-94125811D01*
X137687751Y-94138228D01*
X137683684Y-94142029D01*
X137668190Y-94179126D01*
X137668053Y-94183843D01*
X137668053Y-94450752D01*
G37*
G36*
X136689518Y-94576000D02*
G01*
X136727241Y-94562841D01*
X136730355Y-94559977D01*
X136746431Y-94524036D01*
X136746573Y-94519531D01*
X136746573Y-94202796D01*
X136749970Y-94162710D01*
X136763012Y-94123875D01*
X136781353Y-94099237D01*
X136815729Y-94076130D01*
X136855017Y-94066260D01*
X136872016Y-94065434D01*
X136912774Y-94070820D01*
X136950355Y-94088809D01*
X136967759Y-94103732D01*
X136990621Y-94135450D01*
X137002930Y-94173158D01*
X137005275Y-94201624D01*
X137098283Y-94201624D01*
X137095230Y-94159301D01*
X137086071Y-94120261D01*
X137068943Y-94081107D01*
X137067020Y-94077744D01*
X137042437Y-94043573D01*
X137011943Y-94014943D01*
X136979092Y-93993725D01*
X136942093Y-93977650D01*
X136901927Y-93967530D01*
X136858593Y-93963362D01*
X136849546Y-93963243D01*
X136807350Y-93966522D01*
X136768618Y-93976357D01*
X136736413Y-93990989D01*
X136702561Y-94015453D01*
X136674863Y-94047226D01*
X136659818Y-94072468D01*
X136644133Y-94112088D01*
X136635523Y-94152755D01*
X136632375Y-94193140D01*
X136632267Y-94202601D01*
X136632267Y-94519531D01*
X136645266Y-94556899D01*
X136648094Y-94559977D01*
X136684771Y-94575859D01*
X136689518Y-94576000D01*
G37*
G36*
X137436510Y-94576000D02*
G01*
X137474233Y-94562680D01*
X137477348Y-94559782D01*
X137493423Y-94523487D01*
X137493565Y-94518944D01*
X137493565Y-94020298D01*
X137481149Y-93983134D01*
X137477348Y-93979070D01*
X137441053Y-93963382D01*
X137436510Y-93963243D01*
X137399153Y-93975361D01*
X137395087Y-93979070D01*
X137379399Y-94015586D01*
X137379260Y-94020298D01*
X137379260Y-94518944D01*
X137392258Y-94556667D01*
X137395087Y-94559782D01*
X137431764Y-94575857D01*
X137436510Y-94576000D01*
G37*
G36*
X137062330Y-94576000D02*
G01*
X137100213Y-94562841D01*
X137103363Y-94559977D01*
X137119438Y-94524036D01*
X137119581Y-94519531D01*
X137119581Y-94202796D01*
X137122977Y-94162710D01*
X137136020Y-94123875D01*
X137154361Y-94099237D01*
X137188737Y-94076130D01*
X137228024Y-94066260D01*
X137245024Y-94065434D01*
X137285864Y-94070820D01*
X137323721Y-94088809D01*
X137341353Y-94103732D01*
X137364453Y-94135330D01*
X137376891Y-94172974D01*
X137379260Y-94201429D01*
X137449993Y-94201429D01*
X137447149Y-94159106D01*
X137438620Y-94120065D01*
X137422670Y-94080911D01*
X137420879Y-94077549D01*
X137398208Y-94043378D01*
X137370227Y-94014748D01*
X137340181Y-93993529D01*
X137303008Y-93976286D01*
X137262419Y-93966201D01*
X137222554Y-93963243D01*
X137180358Y-93966522D01*
X137141626Y-93976357D01*
X137109420Y-93990989D01*
X137075568Y-94015453D01*
X137047871Y-94047226D01*
X137032826Y-94072468D01*
X137017140Y-94112088D01*
X137008531Y-94152755D01*
X137005383Y-94193140D01*
X137005275Y-94202601D01*
X137005275Y-94519531D01*
X137018113Y-94556899D01*
X137020907Y-94559977D01*
X137057584Y-94575859D01*
X137062330Y-94576000D01*
G37*
G36*
X136390613Y-93713274D02*
G01*
X136426908Y-93728575D01*
X136429806Y-93731555D01*
X136443126Y-93769217D01*
X136443126Y-94270403D01*
X136440097Y-94312767D01*
X136432184Y-94352908D01*
X136419385Y-94390827D01*
X136401702Y-94426523D01*
X136385584Y-94451445D01*
X136357570Y-94485015D01*
X136324949Y-94514011D01*
X136292086Y-94535944D01*
X136256195Y-94553468D01*
X136218080Y-94565986D01*
X136177744Y-94573496D01*
X136135184Y-94576000D01*
X136092124Y-94573484D01*
X136051458Y-94565937D01*
X136013185Y-94553358D01*
X135977306Y-94535748D01*
X135952231Y-94519624D01*
X135918404Y-94491573D01*
X135889122Y-94458885D01*
X135866908Y-94425937D01*
X135849042Y-94390045D01*
X135836280Y-94351931D01*
X135828623Y-94311594D01*
X135826083Y-94269230D01*
X135935882Y-94269230D01*
X135937531Y-94297660D01*
X135946186Y-94337741D01*
X135962260Y-94374743D01*
X135972732Y-94391761D01*
X135999897Y-94423731D01*
X136033189Y-94448993D01*
X136056343Y-94460790D01*
X136094005Y-94472166D01*
X136135184Y-94475958D01*
X136162479Y-94474272D01*
X136200993Y-94465425D01*
X136236594Y-94448993D01*
X136255492Y-94436224D01*
X136285626Y-94407350D01*
X136307718Y-94374743D01*
X136318916Y-94350417D01*
X136329715Y-94311362D01*
X136333314Y-94269230D01*
X136331714Y-94240361D01*
X136323316Y-94200171D01*
X136307718Y-94163718D01*
X136297359Y-94147032D01*
X136270201Y-94115546D01*
X136236594Y-94090445D01*
X136213183Y-94078648D01*
X136175640Y-94067272D01*
X136135184Y-94063480D01*
X136110736Y-94064771D01*
X136071608Y-94072986D01*
X136033189Y-94090445D01*
X136017062Y-94101236D01*
X135986598Y-94129284D01*
X135962260Y-94163718D01*
X135949509Y-94190707D01*
X135938999Y-94229963D01*
X135935882Y-94269230D01*
X135826083Y-94269230D01*
X135826071Y-94269035D01*
X135828415Y-94226598D01*
X135835450Y-94186432D01*
X135847173Y-94148538D01*
X135863586Y-94112915D01*
X135875983Y-94092006D01*
X135901686Y-94057927D01*
X135931748Y-94028423D01*
X135966168Y-94003494D01*
X135991086Y-93989815D01*
X136030677Y-93974603D01*
X136072927Y-93965759D01*
X136112714Y-93963243D01*
X136152961Y-93965953D01*
X136194852Y-93975192D01*
X136234249Y-93990989D01*
X136267329Y-94010277D01*
X136300014Y-94035989D01*
X136328820Y-94066411D01*
X136328820Y-93769217D01*
X136328959Y-93764576D01*
X136344647Y-93728575D01*
X136348714Y-93724957D01*
X136386071Y-93713138D01*
X136390613Y-93713274D01*
G37*
G36*
X135586713Y-94576000D02*
G01*
X135623813Y-94563284D01*
X135628136Y-94559391D01*
X135644792Y-94523030D01*
X135644940Y-94518554D01*
X135644940Y-93770584D01*
X135632075Y-93733313D01*
X135628136Y-93729161D01*
X135591260Y-93713279D01*
X135586713Y-93713138D01*
X135548907Y-93725405D01*
X135544703Y-93729161D01*
X135528628Y-93765710D01*
X135528485Y-93770389D01*
X135528485Y-94085951D01*
X135008736Y-94085951D01*
X135008736Y-93770389D01*
X134995871Y-93733267D01*
X134991933Y-93729161D01*
X134955056Y-93713279D01*
X134950509Y-93713138D01*
X134913152Y-93725405D01*
X134909085Y-93729161D01*
X134893591Y-93765904D01*
X134893454Y-93770584D01*
X134893454Y-94518554D01*
X134906292Y-94556210D01*
X134909085Y-94559391D01*
X134945762Y-94575854D01*
X134950509Y-94576000D01*
X134987609Y-94563284D01*
X134991933Y-94559391D01*
X135008589Y-94522869D01*
X135008736Y-94518358D01*
X135008736Y-94188337D01*
X135528485Y-94188337D01*
X135528485Y-94518358D01*
X135541805Y-94556208D01*
X135544703Y-94559391D01*
X135580414Y-94575740D01*
X135586713Y-94576000D01*
G37*
G36*
X145229811Y-95920000D02*
G01*
X145266912Y-95907284D01*
X145271235Y-95903391D01*
X145287891Y-95867030D01*
X145288039Y-95862554D01*
X145288039Y-95114584D01*
X145275173Y-95077313D01*
X145271235Y-95073161D01*
X145234359Y-95057279D01*
X145229811Y-95057138D01*
X144723545Y-95057138D01*
X144686188Y-95068657D01*
X144682121Y-95072184D01*
X144666550Y-95108637D01*
X144666489Y-95111653D01*
X144681159Y-95148647D01*
X144682121Y-95149560D01*
X144718798Y-95163892D01*
X144723545Y-95164019D01*
X145171584Y-95164019D01*
X145171584Y-95425457D01*
X144850160Y-95425457D01*
X144812803Y-95436976D01*
X144808736Y-95440502D01*
X144792925Y-95477354D01*
X144792909Y-95478799D01*
X144806820Y-95515378D01*
X144808736Y-95517292D01*
X144845413Y-95532205D01*
X144850160Y-95532337D01*
X145171584Y-95532337D01*
X145171584Y-95813119D01*
X144723545Y-95813119D01*
X144685141Y-95824994D01*
X144682121Y-95827578D01*
X144666505Y-95864028D01*
X144666489Y-95865484D01*
X144680228Y-95903037D01*
X144682121Y-95904954D01*
X144718798Y-95919867D01*
X144723545Y-95920000D01*
X145229811Y-95920000D01*
G37*
G36*
X144281612Y-95309698D02*
G01*
X144322986Y-95317062D01*
X144361723Y-95329335D01*
X144397822Y-95346517D01*
X144422797Y-95362223D01*
X144456369Y-95389723D01*
X144485273Y-95421952D01*
X144507048Y-95454570D01*
X144524401Y-95490413D01*
X144536796Y-95528967D01*
X144544234Y-95570232D01*
X144546713Y-95614207D01*
X144544405Y-95657670D01*
X144537480Y-95698569D01*
X144525940Y-95736903D01*
X144509783Y-95772672D01*
X144497519Y-95793502D01*
X144472100Y-95827340D01*
X144442385Y-95856480D01*
X144408374Y-95880921D01*
X144383507Y-95894201D01*
X144343630Y-95908970D01*
X144300662Y-95917557D01*
X144259874Y-95920000D01*
X144236189Y-95919045D01*
X144195744Y-95912520D01*
X144158112Y-95899811D01*
X144123293Y-95880921D01*
X144105346Y-95867983D01*
X144076143Y-95841042D01*
X144050927Y-95809402D01*
X144039274Y-95789453D01*
X144039274Y-95846531D01*
X144039300Y-95851028D01*
X144042460Y-95893603D01*
X144050886Y-95931827D01*
X144066238Y-95968848D01*
X144078838Y-95989563D01*
X144104570Y-96019637D01*
X144138339Y-96044466D01*
X144158583Y-96054439D01*
X144198361Y-96066463D01*
X144237599Y-96070062D01*
X144262484Y-96069043D01*
X144302404Y-96062554D01*
X144341744Y-96048764D01*
X144355707Y-96041703D01*
X144388394Y-96019549D01*
X144417752Y-95989560D01*
X144419471Y-95987365D01*
X144453119Y-95967090D01*
X144457207Y-95966405D01*
X144495129Y-95976078D01*
X144517013Y-96008513D01*
X144517239Y-96009770D01*
X144506266Y-96047787D01*
X144490725Y-96065827D01*
X144460131Y-96094740D01*
X144426167Y-96119078D01*
X144388834Y-96138841D01*
X144362399Y-96149466D01*
X144321432Y-96161281D01*
X144278888Y-96168150D01*
X144239748Y-96170104D01*
X144195198Y-96167466D01*
X144153384Y-96159553D01*
X144114305Y-96146364D01*
X144077962Y-96127899D01*
X144044904Y-96104965D01*
X144015680Y-96078367D01*
X143990291Y-96048105D01*
X143968736Y-96014180D01*
X143951554Y-95977409D01*
X143939281Y-95938611D01*
X143931917Y-95897786D01*
X143929462Y-95854933D01*
X143929462Y-95615184D01*
X143929517Y-95614207D01*
X144039274Y-95614207D01*
X144040849Y-95643602D01*
X144049120Y-95684351D01*
X144064480Y-95721088D01*
X144074626Y-95737687D01*
X144101369Y-95768890D01*
X144134626Y-95793579D01*
X144157841Y-95805120D01*
X144195824Y-95816248D01*
X144237599Y-95819958D01*
X144262428Y-95818695D01*
X144301991Y-95810658D01*
X144340572Y-95793579D01*
X144356685Y-95782994D01*
X144387025Y-95755298D01*
X144411109Y-95721088D01*
X144423577Y-95693911D01*
X144433853Y-95654165D01*
X144436901Y-95614207D01*
X144435289Y-95584874D01*
X144426826Y-95544079D01*
X144411109Y-95507131D01*
X144400771Y-95490267D01*
X144373799Y-95458677D01*
X144340572Y-95433859D01*
X144317356Y-95422318D01*
X144279374Y-95411190D01*
X144237599Y-95407480D01*
X144212770Y-95408743D01*
X144173207Y-95416780D01*
X144134626Y-95433859D01*
X144118467Y-95444472D01*
X144088216Y-95472416D01*
X144064480Y-95507131D01*
X144052295Y-95534482D01*
X144042252Y-95574315D01*
X144039274Y-95614207D01*
X143929517Y-95614207D01*
X143931953Y-95571111D01*
X143939427Y-95529748D01*
X143951884Y-95491097D01*
X143969323Y-95455157D01*
X143985248Y-95430269D01*
X144013077Y-95396879D01*
X144045636Y-95368218D01*
X144078548Y-95346713D01*
X144114501Y-95329445D01*
X144152993Y-95317110D01*
X144194026Y-95309710D01*
X144237599Y-95307243D01*
X144281612Y-95309698D01*
G37*
G36*
X143471653Y-95920000D02*
G01*
X143511353Y-95918130D01*
X143554297Y-95911413D01*
X143594652Y-95899811D01*
X143632418Y-95883325D01*
X143636957Y-95880921D01*
X143671065Y-95859427D01*
X143701290Y-95834221D01*
X143727632Y-95805303D01*
X143750090Y-95772672D01*
X143767957Y-95736903D01*
X143780718Y-95698569D01*
X143788375Y-95657670D01*
X143790928Y-95614207D01*
X143788510Y-95570232D01*
X143781256Y-95528967D01*
X143769166Y-95490413D01*
X143752240Y-95454570D01*
X143728144Y-95418137D01*
X143699380Y-95386433D01*
X143665949Y-95359459D01*
X143645359Y-95346517D01*
X143609907Y-95329335D01*
X143571939Y-95317062D01*
X143531456Y-95309698D01*
X143488457Y-95307243D01*
X143446325Y-95309588D01*
X143407271Y-95316622D01*
X143367013Y-95330141D01*
X143338394Y-95344759D01*
X143305463Y-95367993D01*
X143277230Y-95395709D01*
X143253696Y-95427907D01*
X143242651Y-95447732D01*
X143226689Y-95486143D01*
X143215950Y-95527739D01*
X143210791Y-95567385D01*
X143209630Y-95598771D01*
X143224284Y-95632965D01*
X143261018Y-95646448D01*
X143712379Y-95646448D01*
X143712379Y-95557348D01*
X143264535Y-95557348D01*
X143310453Y-95588611D01*
X143314601Y-95547426D01*
X143326569Y-95507183D01*
X143332728Y-95493845D01*
X143354805Y-95460452D01*
X143383763Y-95433791D01*
X143393300Y-95427411D01*
X143430748Y-95410714D01*
X143471348Y-95403583D01*
X143488457Y-95402986D01*
X143530191Y-95406242D01*
X143570715Y-95417219D01*
X143597683Y-95430537D01*
X143630935Y-95456275D01*
X143657028Y-95488722D01*
X143666657Y-95505959D01*
X143680945Y-95543621D01*
X143688639Y-95584801D01*
X143690104Y-95614207D01*
X143686803Y-95654281D01*
X143675670Y-95694416D01*
X143662163Y-95722065D01*
X143638093Y-95754754D01*
X143608087Y-95781892D01*
X143584787Y-95796901D01*
X143545796Y-95813690D01*
X143506435Y-95822272D01*
X143471653Y-95824452D01*
X143432031Y-95820248D01*
X143400530Y-95811165D01*
X143364033Y-95794981D01*
X143341716Y-95780683D01*
X143305373Y-95767983D01*
X143271179Y-95780293D01*
X143251269Y-95814719D01*
X143251053Y-95817222D01*
X143268834Y-95851807D01*
X143302855Y-95874544D01*
X143339698Y-95892212D01*
X143363600Y-95901046D01*
X143401846Y-95911837D01*
X143442251Y-95918500D01*
X143471653Y-95920000D01*
G37*
G36*
X143008960Y-95535268D02*
G01*
X143005735Y-95496060D01*
X142994738Y-95456016D01*
X142975938Y-95419204D01*
X142950534Y-95386368D01*
X142919728Y-95358519D01*
X142887034Y-95337529D01*
X142850897Y-95321558D01*
X142812585Y-95311502D01*
X142772098Y-95307361D01*
X142763740Y-95307243D01*
X142721570Y-95309783D01*
X142682151Y-95319333D01*
X142663503Y-95328736D01*
X142638178Y-95358565D01*
X142638297Y-95379539D01*
X142651193Y-95403182D01*
X142673077Y-95413538D01*
X142699846Y-95415687D01*
X142739039Y-95409640D01*
X142779904Y-95407816D01*
X142821593Y-95411760D01*
X142828806Y-95413147D01*
X142868218Y-95424806D01*
X142903286Y-95443577D01*
X142918883Y-95456329D01*
X142942585Y-95489147D01*
X142951776Y-95529350D01*
X142951905Y-95535268D01*
X143008960Y-95535268D01*
G37*
G36*
X143007983Y-95920000D02*
G01*
X143046552Y-95908606D01*
X143049406Y-95906127D01*
X143063738Y-95869073D01*
X143063866Y-95863921D01*
X143063866Y-95363321D01*
X143052795Y-95325708D01*
X143049406Y-95321898D01*
X143012895Y-95307372D01*
X143007983Y-95307243D01*
X142969664Y-95318014D01*
X142965973Y-95321311D01*
X142952028Y-95358171D01*
X142951905Y-95363321D01*
X142951905Y-95863921D01*
X142962676Y-95901684D01*
X142965973Y-95905540D01*
X143002832Y-95919872D01*
X143007983Y-95920000D01*
G37*
G36*
X142296943Y-95920000D02*
G01*
X142340184Y-95918114D01*
X142381539Y-95912457D01*
X142421008Y-95903029D01*
X142442121Y-95896161D01*
X142480864Y-95879919D01*
X142516781Y-95859232D01*
X142545680Y-95835589D01*
X142560089Y-95799189D01*
X142559748Y-95794947D01*
X142541277Y-95760058D01*
X142537864Y-95757236D01*
X142501866Y-95741827D01*
X142493705Y-95742191D01*
X142457996Y-95759685D01*
X142455994Y-95761730D01*
X142425359Y-95786057D01*
X142395031Y-95801591D01*
X142356440Y-95814146D01*
X142317323Y-95819509D01*
X142301437Y-95819958D01*
X142260463Y-95817487D01*
X142221386Y-95808197D01*
X142202372Y-95799050D01*
X142174414Y-95771635D01*
X142167201Y-95744926D01*
X142179093Y-95707084D01*
X142199050Y-95687676D01*
X142234845Y-95669441D01*
X142274581Y-95657389D01*
X142314008Y-95648984D01*
X142319413Y-95648011D01*
X142359654Y-95638955D01*
X142401079Y-95626427D01*
X142441141Y-95609522D01*
X142476927Y-95587206D01*
X142483545Y-95581772D01*
X142510438Y-95552245D01*
X142528516Y-95515314D01*
X142534542Y-95473719D01*
X142529816Y-95434234D01*
X142514030Y-95397598D01*
X142500935Y-95380516D01*
X142470500Y-95353606D01*
X142433810Y-95332889D01*
X142414766Y-95325415D01*
X142374594Y-95314341D01*
X142333213Y-95308379D01*
X142304954Y-95307243D01*
X142264643Y-95309098D01*
X142223007Y-95315509D01*
X142184692Y-95326500D01*
X142173845Y-95330690D01*
X142137390Y-95348800D01*
X142103941Y-95373402D01*
X142083182Y-95395170D01*
X142068470Y-95431455D01*
X142068527Y-95432686D01*
X142087676Y-95465708D01*
X142127026Y-95474020D01*
X142130076Y-95473524D01*
X142166058Y-95458011D01*
X142171500Y-95453398D01*
X142202608Y-95429546D01*
X142232072Y-95416468D01*
X142271777Y-95408253D01*
X142307103Y-95406308D01*
X142347308Y-95409487D01*
X142386204Y-95420905D01*
X142390537Y-95422916D01*
X142419922Y-95449539D01*
X142424731Y-95471374D01*
X142414180Y-95507131D01*
X142383172Y-95530975D01*
X142372170Y-95535854D01*
X142333433Y-95548408D01*
X142294827Y-95557632D01*
X142280139Y-95560669D01*
X142240425Y-95569438D01*
X142201002Y-95580645D01*
X142163725Y-95594765D01*
X142147662Y-95602484D01*
X142112519Y-95624477D01*
X142083270Y-95653219D01*
X142077515Y-95661493D01*
X142061542Y-95697739D01*
X142056238Y-95736510D01*
X142056217Y-95739260D01*
X142060764Y-95778766D01*
X142075831Y-95817704D01*
X142083768Y-95830704D01*
X142110251Y-95861144D01*
X142142253Y-95884376D01*
X142164270Y-95895771D01*
X142203926Y-95909565D01*
X142245386Y-95917137D01*
X142287105Y-95919905D01*
X142296943Y-95920000D01*
G37*
G36*
X141688876Y-95920000D02*
G01*
X141729368Y-95916015D01*
X141766728Y-95904063D01*
X141789895Y-95891667D01*
X141820788Y-95867533D01*
X141846352Y-95837629D01*
X141860432Y-95814487D01*
X141876030Y-95776147D01*
X141884429Y-95734399D01*
X141886029Y-95704675D01*
X141886029Y-95175157D01*
X141872290Y-95137261D01*
X141870397Y-95135296D01*
X141833188Y-95119726D01*
X141830146Y-95119665D01*
X141792905Y-95132503D01*
X141789895Y-95135296D01*
X141774130Y-95172139D01*
X141774068Y-95175157D01*
X141774068Y-95704284D01*
X141767913Y-95745073D01*
X141749448Y-95778729D01*
X141718165Y-95802903D01*
X141688876Y-95808625D01*
X141650969Y-95808625D01*
X141616775Y-95824256D01*
X141602762Y-95861293D01*
X141602707Y-95864312D01*
X141617952Y-95901360D01*
X141621270Y-95904368D01*
X141658211Y-95919450D01*
X141668750Y-95920000D01*
X141688876Y-95920000D01*
G37*
G36*
X141937613Y-95427801D02*
G01*
X141974790Y-95415332D01*
X141975715Y-95414515D01*
X141990174Y-95381102D01*
X141975715Y-95345540D01*
X141937613Y-95332254D01*
X141678911Y-95332254D01*
X141641722Y-95344723D01*
X141640809Y-95345540D01*
X141626154Y-95381102D01*
X141640809Y-95414515D01*
X141678911Y-95427801D01*
X141937613Y-95427801D01*
G37*
G36*
X141408290Y-95535268D02*
G01*
X141405065Y-95496060D01*
X141394069Y-95456016D01*
X141375268Y-95419204D01*
X141349864Y-95386368D01*
X141319058Y-95358519D01*
X141286364Y-95337529D01*
X141250227Y-95321558D01*
X141211915Y-95311502D01*
X141171428Y-95307361D01*
X141163070Y-95307243D01*
X141120900Y-95309783D01*
X141081481Y-95319333D01*
X141062833Y-95328736D01*
X141037508Y-95358565D01*
X141037627Y-95379539D01*
X141050523Y-95403182D01*
X141072407Y-95413538D01*
X141099176Y-95415687D01*
X141138369Y-95409640D01*
X141179234Y-95407816D01*
X141220923Y-95411760D01*
X141228136Y-95413147D01*
X141267548Y-95424806D01*
X141302616Y-95443577D01*
X141318213Y-95456329D01*
X141341915Y-95489147D01*
X141351106Y-95529350D01*
X141351235Y-95535268D01*
X141408290Y-95535268D01*
G37*
G36*
X141407313Y-95920000D02*
G01*
X141445882Y-95908606D01*
X141448736Y-95906127D01*
X141463069Y-95869073D01*
X141463196Y-95863921D01*
X141463196Y-95363321D01*
X141452125Y-95325708D01*
X141448736Y-95321898D01*
X141412226Y-95307372D01*
X141407313Y-95307243D01*
X141368994Y-95318014D01*
X141365303Y-95321311D01*
X141351358Y-95358171D01*
X141351235Y-95363321D01*
X141351235Y-95863921D01*
X141362006Y-95901684D01*
X141365303Y-95905540D01*
X141402163Y-95919872D01*
X141407313Y-95920000D01*
G37*
G36*
X141032156Y-95932505D02*
G01*
X141071264Y-95921699D01*
X141086475Y-95909644D01*
X141106635Y-95876104D01*
X141109337Y-95855715D01*
X141099491Y-95817439D01*
X141086475Y-95800614D01*
X141052679Y-95780454D01*
X141032156Y-95777752D01*
X140993876Y-95787598D01*
X140977250Y-95800614D01*
X140957435Y-95834658D01*
X140954780Y-95855715D01*
X140965400Y-95894554D01*
X140977250Y-95909644D01*
X141011034Y-95929803D01*
X141032156Y-95932505D01*
G37*
G36*
X140276871Y-95045161D02*
G01*
X140317710Y-95050212D01*
X140355704Y-95060610D01*
X140394584Y-95078436D01*
X140401885Y-95082737D01*
X140435388Y-95107242D01*
X140463892Y-95136746D01*
X140487397Y-95171249D01*
X140495273Y-95186318D01*
X140510371Y-95226344D01*
X140518346Y-95265238D01*
X140521004Y-95306852D01*
X140520479Y-95325912D01*
X140515458Y-95366721D01*
X140505119Y-95404655D01*
X140487397Y-95443433D01*
X140483096Y-95450734D01*
X140458591Y-95484264D01*
X140429087Y-95512833D01*
X140394584Y-95536441D01*
X140379453Y-95544317D01*
X140339169Y-95559415D01*
X140299910Y-95567390D01*
X140257808Y-95570048D01*
X140241499Y-95569597D01*
X140392240Y-95820153D01*
X140392993Y-95821411D01*
X140400642Y-95860404D01*
X140381102Y-95894012D01*
X140379117Y-95895645D01*
X140341828Y-95907494D01*
X140319947Y-95903070D01*
X140290439Y-95876036D01*
X140053201Y-95480400D01*
X140050824Y-95477955D01*
X140027243Y-95443433D01*
X140019366Y-95428348D01*
X140004269Y-95388151D01*
X139996294Y-95348939D01*
X139993635Y-95306852D01*
X140101102Y-95306852D01*
X140101274Y-95315832D01*
X140106617Y-95354920D01*
X140120642Y-95391653D01*
X140144138Y-95424138D01*
X140175547Y-95448904D01*
X140177768Y-95450190D01*
X140216102Y-95465217D01*
X140256831Y-95469811D01*
X140259691Y-95469791D01*
X140300111Y-95464584D01*
X140338115Y-95448904D01*
X140369525Y-95424138D01*
X140393412Y-95391653D01*
X140397009Y-95384733D01*
X140409685Y-95346934D01*
X140413538Y-95306852D01*
X140413459Y-95300959D01*
X140407858Y-95259437D01*
X140393412Y-95222637D01*
X140369525Y-95189860D01*
X140338115Y-95165387D01*
X140335895Y-95164125D01*
X140297561Y-95149378D01*
X140256831Y-95144870D01*
X140253972Y-95144890D01*
X140213551Y-95150000D01*
X140175547Y-95165387D01*
X140144138Y-95189860D01*
X140120642Y-95222637D01*
X140117150Y-95229619D01*
X140104842Y-95267364D01*
X140101102Y-95306852D01*
X139993635Y-95306852D01*
X139993931Y-95292679D01*
X139998361Y-95251971D01*
X140009520Y-95209931D01*
X140027243Y-95171249D01*
X140031547Y-95163948D01*
X140056158Y-95130445D01*
X140085922Y-95101941D01*
X140120837Y-95078436D01*
X140136056Y-95070514D01*
X140176482Y-95055329D01*
X140215770Y-95047307D01*
X140257808Y-95044633D01*
X140276871Y-95045161D01*
G37*
G36*
X139986796Y-96107578D02*
G01*
X140007508Y-96098590D01*
X140014738Y-96078660D01*
X140002635Y-96041187D01*
X140001842Y-96040167D01*
X139978468Y-96008719D01*
X139976050Y-96005191D01*
X139963469Y-95967644D01*
X139963154Y-95959469D01*
X139972142Y-95928401D01*
X139992463Y-95905540D01*
X140012588Y-95881702D01*
X140021381Y-95848290D01*
X140010984Y-95810283D01*
X140001256Y-95798269D01*
X139964754Y-95779735D01*
X139946350Y-95778143D01*
X139907089Y-95786305D01*
X139882065Y-95807062D01*
X139864659Y-95843467D01*
X139859009Y-95885024D01*
X139862780Y-95926082D01*
X139870928Y-95959469D01*
X139884605Y-95997131D01*
X139902191Y-96031960D01*
X139925100Y-96065654D01*
X139944200Y-96086475D01*
X139977879Y-96106568D01*
X139986796Y-96107578D01*
G37*
G36*
X139310004Y-95057279D02*
G01*
X139346880Y-95073161D01*
X139350819Y-95077313D01*
X139363684Y-95114584D01*
X139363684Y-95862554D01*
X139363536Y-95867030D01*
X139346880Y-95903391D01*
X139342557Y-95907284D01*
X139305457Y-95920000D01*
X139299158Y-95919737D01*
X139263447Y-95903196D01*
X139259646Y-95898869D01*
X139247229Y-95861577D01*
X139247229Y-95582358D01*
X139103810Y-95582358D01*
X139083455Y-95581596D01*
X138891025Y-95892058D01*
X138869141Y-95913356D01*
X138840614Y-95920000D01*
X138820326Y-95917214D01*
X138790202Y-95891472D01*
X138784129Y-95869408D01*
X138795868Y-95830314D01*
X138967052Y-95554598D01*
X138954919Y-95549532D01*
X138942972Y-95543155D01*
X138910159Y-95521368D01*
X138879029Y-95492482D01*
X138853510Y-95458674D01*
X138847015Y-95447650D01*
X138829979Y-95408846D01*
X138820041Y-95366874D01*
X138817166Y-95326392D01*
X138817173Y-95326196D01*
X138929127Y-95326196D01*
X138934745Y-95367229D01*
X138951598Y-95403572D01*
X138953006Y-95405683D01*
X138980062Y-95435450D01*
X139013147Y-95456524D01*
X139025664Y-95461984D01*
X139063961Y-95472349D01*
X139103810Y-95475478D01*
X139247229Y-95475478D01*
X139247229Y-95164019D01*
X139103810Y-95164019D01*
X139091109Y-95164340D01*
X139049734Y-95170511D01*
X139013147Y-95184535D01*
X139008304Y-95187164D01*
X138976216Y-95210966D01*
X138951598Y-95241981D01*
X138947582Y-95248963D01*
X138933428Y-95286708D01*
X138929127Y-95326196D01*
X138817173Y-95326196D01*
X138818054Y-95301900D01*
X138824123Y-95260242D01*
X138835941Y-95221707D01*
X138853510Y-95186294D01*
X138863044Y-95171652D01*
X138890808Y-95138572D01*
X138920591Y-95113107D01*
X138954919Y-95091723D01*
X138979919Y-95079970D01*
X139019943Y-95066899D01*
X139062997Y-95059300D01*
X139103810Y-95057138D01*
X139305457Y-95057138D01*
X139310004Y-95057279D01*
G37*
G36*
X138264396Y-95932505D02*
G01*
X138303500Y-95930878D01*
X138346816Y-95925034D01*
X138388667Y-95914941D01*
X138429053Y-95900598D01*
X138433998Y-95898506D01*
X138472210Y-95879846D01*
X138507906Y-95857864D01*
X138541086Y-95832561D01*
X138571751Y-95803935D01*
X138599546Y-95772269D01*
X138624117Y-95738039D01*
X138645464Y-95701243D01*
X138663586Y-95661884D01*
X138678033Y-95620326D01*
X138688353Y-95577131D01*
X138693996Y-95537994D01*
X138696479Y-95497604D01*
X138696608Y-95485833D01*
X138695028Y-95445503D01*
X138690287Y-95406407D01*
X138681000Y-95363237D01*
X138667585Y-95321679D01*
X138663586Y-95311542D01*
X138645464Y-95272353D01*
X138624117Y-95235680D01*
X138599546Y-95201523D01*
X138571751Y-95169881D01*
X138541123Y-95141146D01*
X138508053Y-95115708D01*
X138472540Y-95093567D01*
X138434584Y-95074724D01*
X138394565Y-95059593D01*
X138352861Y-95048785D01*
X138309471Y-95042301D01*
X138270122Y-95040173D01*
X138264396Y-95040139D01*
X138222728Y-95041531D01*
X138179472Y-95046426D01*
X138140049Y-95054844D01*
X138115896Y-95062414D01*
X138077004Y-95079141D01*
X138041904Y-95098991D01*
X138006711Y-95123386D01*
X137991039Y-95135687D01*
X137977166Y-95149755D01*
X137970327Y-95164214D01*
X137968569Y-95181605D01*
X137983810Y-95217557D01*
X138020739Y-95233189D01*
X138057997Y-95221319D01*
X138061577Y-95218534D01*
X138093056Y-95194079D01*
X138128090Y-95172920D01*
X138147355Y-95163824D01*
X138187974Y-95151426D01*
X138229750Y-95145872D01*
X138264396Y-95144675D01*
X138304910Y-95147289D01*
X138343897Y-95155132D01*
X138381358Y-95168202D01*
X138388667Y-95171444D01*
X138423704Y-95190140D01*
X138456032Y-95212767D01*
X138485650Y-95239324D01*
X138491249Y-95245108D01*
X138516940Y-95275783D01*
X138538815Y-95309435D01*
X138556874Y-95346064D01*
X138560027Y-95353747D01*
X138573010Y-95393261D01*
X138581185Y-95434378D01*
X138584551Y-95477097D01*
X138584647Y-95485833D01*
X138582700Y-95525208D01*
X138575968Y-95567218D01*
X138564427Y-95607396D01*
X138560027Y-95619092D01*
X138542732Y-95656336D01*
X138521620Y-95690640D01*
X138496692Y-95722006D01*
X138491249Y-95727927D01*
X138462172Y-95755110D01*
X138430386Y-95778287D01*
X138395891Y-95797456D01*
X138388667Y-95800809D01*
X138351511Y-95814616D01*
X138312829Y-95823310D01*
X138272621Y-95826890D01*
X138264396Y-95826992D01*
X138222365Y-95824244D01*
X138182147Y-95816001D01*
X138156343Y-95807452D01*
X138118644Y-95790655D01*
X138082044Y-95769570D01*
X138058255Y-95753133D01*
X138021035Y-95740276D01*
X138018590Y-95740432D01*
X137985568Y-95756064D01*
X137972099Y-95793212D01*
X137972086Y-95794752D01*
X137975994Y-95816441D01*
X137989867Y-95835785D01*
X138024083Y-95861378D01*
X138059907Y-95882984D01*
X138097338Y-95900602D01*
X138118827Y-95908667D01*
X138158386Y-95920190D01*
X138199027Y-95927942D01*
X138240749Y-95931923D01*
X138264396Y-95932505D01*
G37*
G36*
X137972086Y-95794752D02*
G01*
X138084047Y-95772477D01*
X138084047Y-95572002D01*
X138238604Y-95572002D01*
X138276808Y-95560127D01*
X138280027Y-95557543D01*
X138296815Y-95522194D01*
X138296831Y-95520809D01*
X138280027Y-95484270D01*
X138243151Y-95469938D01*
X138238604Y-95469811D01*
X138029141Y-95469811D01*
X137991784Y-95482228D01*
X137987718Y-95486029D01*
X137972223Y-95523126D01*
X137972086Y-95527843D01*
X137972086Y-95794752D01*
G37*
G36*
X137732781Y-95057279D02*
G01*
X137769658Y-95073161D01*
X137773596Y-95077313D01*
X137786461Y-95114584D01*
X137786461Y-95862554D01*
X137786314Y-95867030D01*
X137769658Y-95903391D01*
X137765334Y-95907284D01*
X137728234Y-95920000D01*
X137436901Y-95920000D01*
X137406133Y-95918804D01*
X137367183Y-95913492D01*
X137326195Y-95902436D01*
X137288206Y-95886001D01*
X137276259Y-95879406D01*
X137243446Y-95856985D01*
X137212316Y-95827431D01*
X137186796Y-95792993D01*
X137178233Y-95777914D01*
X137161819Y-95737786D01*
X137153148Y-95698701D01*
X137150272Y-95656999D01*
X137262219Y-95656999D01*
X137262416Y-95666452D01*
X137268560Y-95706704D01*
X137284689Y-95742777D01*
X137311214Y-95773210D01*
X137346238Y-95795338D01*
X137358807Y-95800460D01*
X137397147Y-95810184D01*
X137436901Y-95813119D01*
X137670006Y-95813119D01*
X137670006Y-95514166D01*
X137436901Y-95514166D01*
X137427372Y-95514308D01*
X137385720Y-95518743D01*
X137346238Y-95530383D01*
X137313154Y-95548893D01*
X137284689Y-95577864D01*
X137283307Y-95579822D01*
X137267156Y-95615671D01*
X137262219Y-95656999D01*
X137150272Y-95656999D01*
X137150258Y-95656803D01*
X137150960Y-95636156D01*
X137157675Y-95593382D01*
X137171499Y-95555709D01*
X137195198Y-95519832D01*
X137206840Y-95507235D01*
X137239923Y-95480498D01*
X137274560Y-95462243D01*
X137313803Y-95449490D01*
X137289378Y-95435764D01*
X137257871Y-95410961D01*
X137232519Y-95381102D01*
X137222425Y-95364545D01*
X137207720Y-95326172D01*
X137202911Y-95285163D01*
X137314975Y-95285163D01*
X137316411Y-95307145D01*
X137329372Y-95347232D01*
X137355812Y-95376999D01*
X137380607Y-95391639D01*
X137419341Y-95403706D01*
X137460544Y-95407285D01*
X137670006Y-95407285D01*
X137670006Y-95164019D01*
X137460544Y-95164019D01*
X137433694Y-95165440D01*
X137392798Y-95174489D01*
X137355812Y-95193719D01*
X137339900Y-95208246D01*
X137320718Y-95243361D01*
X137314975Y-95285163D01*
X137202911Y-95285163D01*
X137202819Y-95284382D01*
X137206063Y-95244227D01*
X137217124Y-95203494D01*
X137236036Y-95166364D01*
X137261647Y-95133689D01*
X137293077Y-95106325D01*
X137326699Y-95086057D01*
X137337670Y-95080889D01*
X137376596Y-95067333D01*
X137419148Y-95059426D01*
X137460544Y-95057138D01*
X137728234Y-95057138D01*
X137732781Y-95057279D01*
G37*
G36*
X144896078Y-97276505D02*
G01*
X144935182Y-97274878D01*
X144978498Y-97269034D01*
X145020349Y-97258941D01*
X145060735Y-97244598D01*
X145065680Y-97242506D01*
X145103892Y-97223846D01*
X145139588Y-97201864D01*
X145172768Y-97176561D01*
X145203433Y-97147935D01*
X145231228Y-97116269D01*
X145255799Y-97082039D01*
X145277145Y-97045243D01*
X145295268Y-97005884D01*
X145309715Y-96964326D01*
X145320034Y-96921131D01*
X145325678Y-96881994D01*
X145328161Y-96841604D01*
X145328290Y-96829833D01*
X145326710Y-96789503D01*
X145321969Y-96750407D01*
X145312682Y-96707237D01*
X145299267Y-96665679D01*
X145295268Y-96655542D01*
X145277145Y-96616353D01*
X145255799Y-96579680D01*
X145231228Y-96545523D01*
X145203433Y-96513881D01*
X145172805Y-96485146D01*
X145139734Y-96459708D01*
X145104221Y-96437567D01*
X145066266Y-96418724D01*
X145026247Y-96403593D01*
X144984542Y-96392785D01*
X144941153Y-96386301D01*
X144901804Y-96384173D01*
X144896078Y-96384139D01*
X144854410Y-96385531D01*
X144811154Y-96390426D01*
X144771731Y-96398844D01*
X144747578Y-96406414D01*
X144708686Y-96423141D01*
X144673586Y-96442991D01*
X144638392Y-96467386D01*
X144622721Y-96479687D01*
X144608848Y-96493755D01*
X144602009Y-96508214D01*
X144600251Y-96525605D01*
X144615491Y-96560971D01*
X144651835Y-96576602D01*
X144689475Y-96565314D01*
X144693258Y-96562534D01*
X144724738Y-96538079D01*
X144759772Y-96516920D01*
X144779036Y-96507824D01*
X144819656Y-96495426D01*
X144861432Y-96489872D01*
X144896078Y-96488675D01*
X144936591Y-96491289D01*
X144975579Y-96499132D01*
X145013039Y-96512202D01*
X145020348Y-96515444D01*
X145055386Y-96534140D01*
X145087714Y-96556767D01*
X145117332Y-96583324D01*
X145122930Y-96589108D01*
X145148622Y-96619783D01*
X145170497Y-96653435D01*
X145188555Y-96690064D01*
X145191709Y-96697747D01*
X145204692Y-96737261D01*
X145212867Y-96778378D01*
X145216233Y-96821097D01*
X145216329Y-96829833D01*
X145214381Y-96869208D01*
X145207649Y-96911218D01*
X145196109Y-96951396D01*
X145191709Y-96963092D01*
X145174414Y-97000336D01*
X145153302Y-97034640D01*
X145128374Y-97066006D01*
X145122930Y-97071927D01*
X145093854Y-97099110D01*
X145062068Y-97122287D01*
X145027573Y-97141456D01*
X145020348Y-97144809D01*
X144983193Y-97158616D01*
X144944511Y-97167310D01*
X144904303Y-97170890D01*
X144896078Y-97170992D01*
X144854047Y-97168244D01*
X144813829Y-97160001D01*
X144788025Y-97151452D01*
X144750326Y-97134655D01*
X144713726Y-97113570D01*
X144689937Y-97097133D01*
X144652716Y-97084276D01*
X144650272Y-97084432D01*
X144617250Y-97100064D01*
X144603781Y-97137212D01*
X144603768Y-97138752D01*
X144608262Y-97160441D01*
X144621549Y-97179785D01*
X144656285Y-97204858D01*
X144692351Y-97226221D01*
X144729746Y-97243875D01*
X144751095Y-97252080D01*
X144790370Y-97263887D01*
X144830821Y-97271830D01*
X144872445Y-97275908D01*
X144896078Y-97276505D01*
G37*
G36*
X144026182Y-97276505D02*
G01*
X144065286Y-97274878D01*
X144108603Y-97269034D01*
X144150454Y-97258941D01*
X144190839Y-97244598D01*
X144195785Y-97242506D01*
X144233996Y-97223846D01*
X144269692Y-97201864D01*
X144302873Y-97176561D01*
X144333538Y-97147935D01*
X144361332Y-97116269D01*
X144385903Y-97082039D01*
X144407250Y-97045243D01*
X144425373Y-97005884D01*
X144439820Y-96964326D01*
X144450139Y-96921131D01*
X144455782Y-96881994D01*
X144458265Y-96841604D01*
X144458394Y-96829833D01*
X144456814Y-96789503D01*
X144452074Y-96750407D01*
X144442787Y-96707237D01*
X144429372Y-96665679D01*
X144425373Y-96655542D01*
X144407250Y-96616353D01*
X144385903Y-96579680D01*
X144361332Y-96545523D01*
X144333538Y-96513881D01*
X144302909Y-96485146D01*
X144269839Y-96459708D01*
X144234326Y-96437567D01*
X144196371Y-96418724D01*
X144156352Y-96403593D01*
X144114647Y-96392785D01*
X144071257Y-96386301D01*
X144031909Y-96384173D01*
X144026182Y-96384139D01*
X143984515Y-96385531D01*
X143941258Y-96390426D01*
X143901835Y-96398844D01*
X143877683Y-96406414D01*
X143838791Y-96423141D01*
X143803690Y-96442991D01*
X143768497Y-96467386D01*
X143752826Y-96479687D01*
X143738953Y-96493755D01*
X143732114Y-96508214D01*
X143730355Y-96525605D01*
X143745596Y-96560971D01*
X143781939Y-96576602D01*
X143819579Y-96565314D01*
X143823363Y-96562534D01*
X143854843Y-96538079D01*
X143889876Y-96516920D01*
X143909141Y-96507824D01*
X143949761Y-96495426D01*
X143991536Y-96489872D01*
X144026182Y-96488675D01*
X144066696Y-96491289D01*
X144105683Y-96499132D01*
X144143144Y-96512202D01*
X144150453Y-96515444D01*
X144185490Y-96534140D01*
X144217818Y-96556767D01*
X144247437Y-96583324D01*
X144253035Y-96589108D01*
X144278726Y-96619783D01*
X144300601Y-96653435D01*
X144318660Y-96690064D01*
X144321814Y-96697747D01*
X144334797Y-96737261D01*
X144342971Y-96778378D01*
X144346337Y-96821097D01*
X144346434Y-96829833D01*
X144344486Y-96869208D01*
X144337754Y-96911218D01*
X144326214Y-96951396D01*
X144321814Y-96963092D01*
X144304518Y-97000336D01*
X144283407Y-97034640D01*
X144258479Y-97066006D01*
X144253035Y-97071927D01*
X144223959Y-97099110D01*
X144192173Y-97122287D01*
X144157677Y-97141456D01*
X144150453Y-97144809D01*
X144113298Y-97158616D01*
X144074616Y-97167310D01*
X144034407Y-97170890D01*
X144026182Y-97170992D01*
X143984151Y-97168244D01*
X143943934Y-97160001D01*
X143918129Y-97151452D01*
X143880430Y-97134655D01*
X143843831Y-97113570D01*
X143820041Y-97097133D01*
X143782821Y-97084276D01*
X143780376Y-97084432D01*
X143747355Y-97100064D01*
X143733886Y-97137212D01*
X143733872Y-97138752D01*
X143738367Y-97160441D01*
X143751653Y-97179785D01*
X143786390Y-97204858D01*
X143822456Y-97226221D01*
X143859850Y-97243875D01*
X143881200Y-97252080D01*
X143920475Y-97263887D01*
X143960925Y-97271830D01*
X144002550Y-97275908D01*
X144026182Y-97276505D01*
G37*
G36*
X143562707Y-97013895D02*
G01*
X143600590Y-97001217D01*
X143603740Y-96998459D01*
X143619815Y-96962745D01*
X143619958Y-96958207D01*
X143606638Y-96920158D01*
X143603740Y-96917175D01*
X143567251Y-96901681D01*
X143562707Y-96901543D01*
X143312993Y-96901543D01*
X143275752Y-96914381D01*
X143272742Y-96917175D01*
X143257054Y-96953497D01*
X143256915Y-96958207D01*
X143269914Y-96995449D01*
X143272742Y-96998459D01*
X143309951Y-97013835D01*
X143312993Y-97013895D01*
X143562707Y-97013895D01*
G37*
G36*
X143056885Y-96401279D02*
G01*
X143093761Y-96417161D01*
X143097699Y-96421313D01*
X143110565Y-96458584D01*
X143110565Y-97206554D01*
X143110417Y-97211030D01*
X143093761Y-97247391D01*
X143089438Y-97251284D01*
X143052337Y-97264000D01*
X142761004Y-97264000D01*
X142730237Y-97262804D01*
X142691286Y-97257492D01*
X142650298Y-97246436D01*
X142612309Y-97230001D01*
X142600362Y-97223406D01*
X142567549Y-97200985D01*
X142536419Y-97171431D01*
X142510900Y-97136993D01*
X142502336Y-97121914D01*
X142485922Y-97081786D01*
X142477251Y-97042701D01*
X142474375Y-97000999D01*
X142586322Y-97000999D01*
X142586519Y-97010452D01*
X142592664Y-97050704D01*
X142608792Y-97086777D01*
X142635317Y-97117210D01*
X142670341Y-97139338D01*
X142682910Y-97144460D01*
X142721250Y-97154184D01*
X142761004Y-97157119D01*
X142994110Y-97157119D01*
X142994110Y-96858166D01*
X142761004Y-96858166D01*
X142751475Y-96858308D01*
X142709823Y-96862743D01*
X142670341Y-96874383D01*
X142637257Y-96892893D01*
X142608792Y-96921864D01*
X142607410Y-96923822D01*
X142591259Y-96959671D01*
X142586322Y-97000999D01*
X142474375Y-97000999D01*
X142474361Y-97000803D01*
X142475063Y-96980156D01*
X142481778Y-96937382D01*
X142495602Y-96899709D01*
X142519302Y-96863832D01*
X142530943Y-96851235D01*
X142564026Y-96824498D01*
X142598663Y-96806243D01*
X142637906Y-96793490D01*
X142613482Y-96779764D01*
X142581974Y-96754961D01*
X142556622Y-96725102D01*
X142546529Y-96708545D01*
X142531824Y-96670172D01*
X142527014Y-96629163D01*
X142639078Y-96629163D01*
X142640514Y-96651145D01*
X142653475Y-96691232D01*
X142679916Y-96720999D01*
X142704711Y-96735639D01*
X142743444Y-96747706D01*
X142784647Y-96751285D01*
X142994110Y-96751285D01*
X142994110Y-96508019D01*
X142784647Y-96508019D01*
X142757797Y-96509440D01*
X142716901Y-96518489D01*
X142679916Y-96537719D01*
X142664004Y-96552246D01*
X142644821Y-96587361D01*
X142639078Y-96629163D01*
X142527014Y-96629163D01*
X142526922Y-96628382D01*
X142530166Y-96588227D01*
X142541227Y-96547494D01*
X142560139Y-96510364D01*
X142585751Y-96477689D01*
X142617180Y-96450325D01*
X142650802Y-96430057D01*
X142661773Y-96424889D01*
X142700699Y-96411333D01*
X142743251Y-96403426D01*
X142784647Y-96401138D01*
X143052337Y-96401138D01*
X143056885Y-96401279D01*
G37*
G36*
X142095101Y-97264000D02*
G01*
X142132143Y-97250520D01*
X142135352Y-97247586D01*
X142152008Y-97211419D01*
X142152156Y-97206944D01*
X142152156Y-96951759D01*
X142451109Y-96491020D01*
X142463041Y-96453730D01*
X142462442Y-96447251D01*
X142442707Y-96414034D01*
X142405191Y-96401138D01*
X142375101Y-96409540D01*
X142353803Y-96433183D01*
X142069309Y-96878291D01*
X142114054Y-96878291D01*
X141825066Y-96428689D01*
X141803768Y-96408368D01*
X141773482Y-96401138D01*
X141740069Y-96415011D01*
X141724438Y-96449401D01*
X141733952Y-96488384D01*
X141735575Y-96491020D01*
X142036678Y-96951759D01*
X142036678Y-97206944D01*
X142050479Y-97244440D01*
X142053482Y-97247586D01*
X142090518Y-97263855D01*
X142095101Y-97264000D01*
G37*
G36*
X141733817Y-97013895D02*
G01*
X141771700Y-97001217D01*
X141774849Y-96998459D01*
X141790925Y-96962745D01*
X141791067Y-96958207D01*
X141777748Y-96920158D01*
X141774849Y-96917175D01*
X141738361Y-96901681D01*
X141733817Y-96901543D01*
X141484103Y-96901543D01*
X141446861Y-96914381D01*
X141443852Y-96917175D01*
X141428164Y-96953497D01*
X141428025Y-96958207D01*
X141441023Y-96995449D01*
X141443852Y-96998459D01*
X141481060Y-97013835D01*
X141484103Y-97013895D01*
X141733817Y-97013895D01*
G37*
G36*
X141003824Y-97276505D02*
G01*
X141043635Y-97274758D01*
X141082395Y-97269519D01*
X141124229Y-97259600D01*
X141140600Y-97254425D01*
X141179522Y-97238767D01*
X141215201Y-97219636D01*
X141247635Y-97197032D01*
X141253733Y-97192094D01*
X141283754Y-97162967D01*
X141307727Y-97130931D01*
X141324270Y-97099282D01*
X141325681Y-97059512D01*
X141323684Y-97055709D01*
X141292216Y-97031989D01*
X141283824Y-97029917D01*
X141244159Y-97036170D01*
X141216413Y-97063960D01*
X141214459Y-97067824D01*
X141190889Y-97101163D01*
X141170300Y-97119408D01*
X141136252Y-97140657D01*
X141098565Y-97156585D01*
X141095854Y-97157510D01*
X141056697Y-97167527D01*
X141015819Y-97171935D01*
X141003824Y-97172164D01*
X140964705Y-97169829D01*
X140924993Y-97162027D01*
X140904759Y-97155556D01*
X140868422Y-97138143D01*
X140836878Y-97113096D01*
X140831486Y-97107293D01*
X140810383Y-97071878D01*
X140803377Y-97031844D01*
X140803349Y-97028940D01*
X140808844Y-96989960D01*
X140825329Y-96953890D01*
X140849853Y-96923623D01*
X140884776Y-96897908D01*
X140921150Y-96882338D01*
X140959128Y-96872360D01*
X141002847Y-96865786D01*
X141044754Y-96860308D01*
X141083771Y-96852177D01*
X141126775Y-96838919D01*
X141165617Y-96821842D01*
X141200296Y-96800946D01*
X141221102Y-96784893D01*
X141252089Y-96753696D01*
X141275465Y-96719433D01*
X141291231Y-96682102D01*
X141299385Y-96641705D01*
X141300628Y-96617244D01*
X141297351Y-96577790D01*
X141286024Y-96538086D01*
X141266607Y-96502732D01*
X141259204Y-96492974D01*
X141230414Y-96463485D01*
X141195823Y-96438767D01*
X141159731Y-96420599D01*
X141146657Y-96415402D01*
X141105367Y-96402462D01*
X141066511Y-96394515D01*
X141025628Y-96389914D01*
X140988192Y-96388633D01*
X140947167Y-96390465D01*
X140906006Y-96396711D01*
X140869002Y-96407391D01*
X140832567Y-96423493D01*
X140797188Y-96445525D01*
X140779902Y-96459366D01*
X140750621Y-96488451D01*
X140724694Y-96521728D01*
X140713859Y-96538501D01*
X140700578Y-96575299D01*
X140700963Y-96585004D01*
X140721666Y-96618224D01*
X140722847Y-96619003D01*
X140762619Y-96626291D01*
X140768764Y-96624669D01*
X140801546Y-96601882D01*
X140805694Y-96595556D01*
X140828232Y-96562219D01*
X140849267Y-96540650D01*
X140883063Y-96517411D01*
X140909839Y-96505479D01*
X140950115Y-96495416D01*
X140991514Y-96492583D01*
X141031264Y-96494561D01*
X141071984Y-96501516D01*
X141112261Y-96515118D01*
X141130439Y-96524237D01*
X141162366Y-96549882D01*
X141182081Y-96587022D01*
X141186517Y-96621152D01*
X141180387Y-96659796D01*
X141169127Y-96685046D01*
X141142434Y-96715117D01*
X141108111Y-96736403D01*
X141105233Y-96737803D01*
X141068436Y-96751412D01*
X141026610Y-96761060D01*
X140987406Y-96766910D01*
X140971388Y-96768675D01*
X140931181Y-96774144D01*
X140886722Y-96784182D01*
X140846399Y-96798012D01*
X140810212Y-96815635D01*
X140773219Y-96840986D01*
X140763684Y-96849177D01*
X140734677Y-96880546D01*
X140712794Y-96916011D01*
X140698036Y-96955570D01*
X140690402Y-96999225D01*
X140689239Y-97026009D01*
X140692356Y-97067460D01*
X140702866Y-97108254D01*
X140715617Y-97135821D01*
X140737810Y-97168610D01*
X140765113Y-97197224D01*
X140786154Y-97213979D01*
X140821032Y-97235347D01*
X140859427Y-97252264D01*
X140886978Y-97261069D01*
X140926262Y-97269857D01*
X140966470Y-97274997D01*
X141003824Y-97276505D01*
G37*
G36*
X140545624Y-97264000D02*
G01*
X140583275Y-97250372D01*
X140593886Y-97237621D01*
X140602677Y-97199513D01*
X140597208Y-97181152D01*
X140282428Y-96439826D01*
X140256847Y-96408544D01*
X140227718Y-96401138D01*
X140190438Y-96413380D01*
X140172812Y-96439826D01*
X139856859Y-97183302D01*
X139853417Y-97223064D01*
X139860767Y-97239184D01*
X139892559Y-97262037D01*
X139909616Y-97264000D01*
X139941465Y-97254621D01*
X139963349Y-97228633D01*
X140241004Y-96547293D01*
X140209741Y-96547293D01*
X140491891Y-97228633D01*
X140514947Y-97255207D01*
X140545624Y-97264000D01*
G37*
G36*
X140486420Y-97071927D02*
G01*
X140441479Y-96976379D01*
X140002428Y-96976379D01*
X139957683Y-97071927D01*
X140486420Y-97071927D01*
G37*
G36*
X139025261Y-96407782D02*
G01*
X139045973Y-96425367D01*
X139474863Y-96978138D01*
X139485610Y-97015067D01*
X139469392Y-97050824D01*
X139466547Y-97053583D01*
X139428946Y-97066260D01*
X139055938Y-97066260D01*
X139055938Y-97206944D01*
X139055801Y-97211282D01*
X139040307Y-97247196D01*
X139039323Y-97248229D01*
X139002205Y-97264000D01*
X138997667Y-97263852D01*
X138961953Y-97247196D01*
X138959160Y-97243986D01*
X138946322Y-97206944D01*
X138946322Y-97066260D01*
X138879106Y-97066260D01*
X138876178Y-97066202D01*
X138838660Y-97051215D01*
X138821856Y-97015067D01*
X138821921Y-97011522D01*
X138838660Y-96975011D01*
X138840787Y-96973663D01*
X138879106Y-96963874D01*
X138946322Y-96963874D01*
X139055938Y-96963874D01*
X139337309Y-96963874D01*
X139055938Y-96601419D01*
X139055938Y-96963874D01*
X138946322Y-96963874D01*
X138946322Y-96458193D01*
X138946379Y-96455219D01*
X138960976Y-96417747D01*
X138961889Y-96416725D01*
X138998883Y-96401138D01*
X139025261Y-96407782D01*
G37*
G36*
X138644438Y-97276505D02*
G01*
X138683546Y-97265699D01*
X138698757Y-97253644D01*
X138718917Y-97220104D01*
X138721618Y-97199715D01*
X138711773Y-97161439D01*
X138698757Y-97144614D01*
X138664961Y-97124454D01*
X138644438Y-97121752D01*
X138606158Y-97131598D01*
X138589532Y-97144614D01*
X138569717Y-97178658D01*
X138567062Y-97199715D01*
X138577682Y-97238554D01*
X138589532Y-97253644D01*
X138623316Y-97273803D01*
X138644438Y-97276505D01*
G37*
G36*
X138263803Y-96402945D02*
G01*
X138302460Y-96410974D01*
X138342184Y-96427686D01*
X138377920Y-96452527D01*
X138385283Y-96459103D01*
X138412522Y-96488950D01*
X138436220Y-96524463D01*
X138454050Y-96560185D01*
X138469169Y-96600245D01*
X138476496Y-96624990D01*
X138485655Y-96664408D01*
X138492616Y-96706588D01*
X138497379Y-96751530D01*
X138499669Y-96791091D01*
X138500432Y-96832569D01*
X138500310Y-96849390D01*
X138498936Y-96890102D01*
X138495273Y-96936424D01*
X138489411Y-96979985D01*
X138481351Y-97020784D01*
X138469169Y-97064893D01*
X138465126Y-97076782D01*
X138449233Y-97115618D01*
X138430628Y-97150133D01*
X138406045Y-97184291D01*
X138377920Y-97212806D01*
X138354539Y-97230204D01*
X138316145Y-97249551D01*
X138273763Y-97260800D01*
X138232742Y-97264000D01*
X138201748Y-97262159D01*
X138163157Y-97253976D01*
X138123480Y-97236947D01*
X138087759Y-97211634D01*
X138080373Y-97204916D01*
X138053073Y-97174593D01*
X138029363Y-97138750D01*
X138011562Y-97102860D01*
X137996510Y-97062743D01*
X137989137Y-97037989D01*
X137979921Y-96998706D01*
X137972916Y-96956840D01*
X137968124Y-96912391D01*
X137965820Y-96873377D01*
X137965052Y-96832569D01*
X138080530Y-96832569D01*
X138081334Y-96871165D01*
X138084222Y-96913077D01*
X138089211Y-96952645D01*
X138097334Y-96994355D01*
X138108115Y-97032187D01*
X138124903Y-97071918D01*
X138147745Y-97107098D01*
X138158682Y-97118975D01*
X138193923Y-97141522D01*
X138232742Y-97148326D01*
X138248100Y-97147334D01*
X138286889Y-97133998D01*
X138317348Y-97107684D01*
X138319468Y-97105102D01*
X138342260Y-97069441D01*
X138357518Y-97033133D01*
X138368346Y-96995332D01*
X138375697Y-96958342D01*
X138380949Y-96918884D01*
X138384099Y-96876960D01*
X138385150Y-96832569D01*
X138384345Y-96793516D01*
X138381457Y-96751219D01*
X138376469Y-96711413D01*
X138368346Y-96669610D01*
X138357564Y-96631779D01*
X138340777Y-96592048D01*
X138317934Y-96556868D01*
X138306993Y-96544990D01*
X138271687Y-96522444D01*
X138232742Y-96515639D01*
X138217117Y-96516660D01*
X138177986Y-96530381D01*
X138147745Y-96557454D01*
X138143610Y-96562797D01*
X138123212Y-96596330D01*
X138108115Y-96632905D01*
X138097334Y-96670782D01*
X138089982Y-96707712D01*
X138084731Y-96746986D01*
X138081580Y-96788605D01*
X138080530Y-96832569D01*
X137965052Y-96832569D01*
X137965175Y-96816031D01*
X137966557Y-96775950D01*
X137970244Y-96730232D01*
X137976142Y-96687111D01*
X137984253Y-96646587D01*
X137996510Y-96602590D01*
X138000530Y-96590673D01*
X138016368Y-96551693D01*
X138034954Y-96516958D01*
X138059562Y-96482459D01*
X138087759Y-96453504D01*
X138111133Y-96435708D01*
X138149492Y-96415917D01*
X138191807Y-96404411D01*
X138232742Y-96401138D01*
X138263803Y-96402945D01*
G37*
D12*
%TO.C,weee-symbol_mask_3mm*%
G36*
X138577723Y-91066839D02*
G01*
X138742244Y-91089359D01*
X138742244Y-91078510D01*
X138845212Y-91078510D01*
X138845212Y-91118656D01*
X138965861Y-91238073D01*
X139035306Y-91238073D01*
X139035306Y-91293219D01*
X138953328Y-91293219D01*
X138836027Y-92679803D01*
X138813758Y-92705181D01*
X138813758Y-92790547D01*
X138783192Y-92790547D01*
X138704273Y-92790547D01*
X138704273Y-92705827D01*
X138277908Y-92705827D01*
X138126938Y-92793364D01*
X138003950Y-92742417D01*
X137953002Y-92619428D01*
X138089910Y-92449468D01*
X138013553Y-91598147D01*
X138009502Y-91598147D01*
X137874339Y-91598147D01*
X137874339Y-91553027D01*
X137919458Y-91553027D01*
X138009502Y-91553027D01*
X137999415Y-91440504D01*
X137919458Y-91440504D01*
X137919458Y-91553027D01*
X137874339Y-91553027D01*
X137874339Y-91395385D01*
X137995360Y-91395385D01*
X137986606Y-91297761D01*
X137949989Y-91306574D01*
X137936634Y-91293219D01*
X138041341Y-91293219D01*
X138050506Y-91395385D01*
X138074695Y-91395385D01*
X138074695Y-91598147D01*
X138068679Y-91598147D01*
X138144780Y-92446410D01*
X138255689Y-92502524D01*
X138300859Y-92619428D01*
X138298057Y-92650681D01*
X138783192Y-92650681D01*
X138898007Y-91293219D01*
X138845212Y-91293219D01*
X138742244Y-91293219D01*
X138041341Y-91293219D01*
X137936634Y-91293219D01*
X137881488Y-91238073D01*
X138038363Y-91238073D01*
X138742244Y-91238073D01*
X138845212Y-91238073D01*
X138908795Y-91238073D01*
X138845212Y-91179402D01*
X138845212Y-91238073D01*
X138742244Y-91238073D01*
X138742244Y-91145718D01*
X138577723Y-91121865D01*
X138577723Y-91174073D01*
X138337892Y-91174073D01*
X138292773Y-91174073D01*
X138292773Y-91128818D01*
X138153298Y-91152942D01*
X138038363Y-91238073D01*
X137881488Y-91238073D01*
X137869541Y-91226126D01*
X137949989Y-91145698D01*
X138014946Y-91178715D01*
X138134774Y-91101245D01*
X138292773Y-91073652D01*
X138292773Y-91048721D01*
X138577723Y-91048721D01*
X138577723Y-91066839D01*
G37*
G36*
X138587810Y-91718762D02*
G01*
X138219433Y-91718762D01*
X138219433Y-91602945D01*
X138587810Y-91602945D01*
X138587810Y-91718762D01*
G37*
G36*
X138500197Y-91944710D02*
G01*
X139528663Y-90863896D01*
X139528663Y-90943697D01*
X138538835Y-91983914D01*
X139502870Y-92962172D01*
X139463019Y-93000067D01*
X138500899Y-92023770D01*
X137579081Y-92992527D01*
X137539211Y-92954612D01*
X138462262Y-91984581D01*
X137421338Y-90928287D01*
X137421338Y-90849934D01*
X138500197Y-91944710D01*
G37*
%TO.C,rohs-symbol_mask_3mm*%
G36*
X137012828Y-86874682D02*
G01*
X137142314Y-87008843D01*
X137237586Y-87145982D01*
X137346769Y-87328241D01*
X137442032Y-87510922D01*
X137528002Y-87691616D01*
X137631177Y-87893941D01*
X137671985Y-87873939D01*
X137719105Y-87773407D01*
X137792409Y-87606987D01*
X137812306Y-87560308D01*
X137828749Y-87560308D01*
X137957926Y-87643924D01*
X138146329Y-87809805D01*
X137997903Y-87948931D01*
X137845685Y-88091902D01*
X137756290Y-88194042D01*
X137654114Y-88344049D01*
X137610397Y-88367790D01*
X137568784Y-88286512D01*
X137472042Y-88102018D01*
X137358440Y-87919152D01*
X137215565Y-87717877D01*
X137094502Y-87570351D01*
X136948093Y-87434690D01*
X136909857Y-87303486D01*
X136915496Y-87026481D01*
X136905429Y-86841949D01*
X136947291Y-86825189D01*
X137012828Y-86874682D01*
G37*
G36*
X136950847Y-86823766D02*
G01*
X136947291Y-86825189D01*
X136924975Y-86808336D01*
X136950847Y-86823766D01*
G37*
G36*
X137628310Y-86432675D02*
G01*
X137848464Y-86471864D01*
X138060998Y-86544007D01*
X138285432Y-86662970D01*
X138484230Y-86815674D01*
X138653995Y-86997810D01*
X138791332Y-87205069D01*
X138892845Y-87433141D01*
X138955135Y-87677719D01*
X138972591Y-87930151D01*
X138963967Y-88117670D01*
X138914015Y-88351273D01*
X138832245Y-88566138D01*
X138716678Y-88767271D01*
X138560128Y-88961395D01*
X138375574Y-89125675D01*
X138166937Y-89257172D01*
X137938133Y-89352947D01*
X137770414Y-89396982D01*
X137578109Y-89423055D01*
X137570498Y-89423206D01*
X137481116Y-89424977D01*
X137327060Y-89419026D01*
X137178654Y-89396768D01*
X136937426Y-89326600D01*
X136713526Y-89218161D01*
X136511295Y-89075084D01*
X136335071Y-88901000D01*
X136189196Y-88699543D01*
X136078009Y-88474343D01*
X136009670Y-88249038D01*
X135977405Y-88016715D01*
X135979609Y-87890235D01*
X136084603Y-87890235D01*
X136093760Y-88103364D01*
X136135091Y-88312367D01*
X136208078Y-88512919D01*
X136312207Y-88700696D01*
X136467855Y-88895377D01*
X136652753Y-89057560D01*
X136861884Y-89184218D01*
X137090228Y-89272321D01*
X137332768Y-89318841D01*
X137570498Y-89322607D01*
X137821752Y-89280647D01*
X138055923Y-89196920D01*
X138270130Y-89072764D01*
X138461492Y-88909515D01*
X138582643Y-88769194D01*
X138697494Y-88588579D01*
X138783268Y-88393061D01*
X138837232Y-88188895D01*
X138859570Y-87962898D01*
X138845789Y-87740008D01*
X138797080Y-87524059D01*
X138714632Y-87318881D01*
X138599636Y-87128306D01*
X138453284Y-86956164D01*
X138277532Y-86807199D01*
X138083341Y-86691150D01*
X137874960Y-86608941D01*
X137656641Y-86561494D01*
X137432630Y-86549731D01*
X137207180Y-86574575D01*
X136984537Y-86636948D01*
X136854743Y-86695014D01*
X136730364Y-86763580D01*
X136544717Y-86904492D01*
X136387342Y-87070574D01*
X136260105Y-87259490D01*
X136164872Y-87468900D01*
X136108135Y-87677305D01*
X136084603Y-87890235D01*
X135979609Y-87890235D01*
X135981494Y-87782035D01*
X136022214Y-87549658D01*
X136101869Y-87320215D01*
X136215932Y-87109520D01*
X136360869Y-86920923D01*
X136533144Y-86757774D01*
X136729223Y-86623424D01*
X136945571Y-86521223D01*
X137178654Y-86454521D01*
X137403914Y-86426780D01*
X137628310Y-86432675D01*
G37*
G36*
X138335380Y-88643263D02*
G01*
X138335380Y-88927074D01*
X138259271Y-88927074D01*
X138259271Y-88683552D01*
X138225996Y-88683656D01*
X138099053Y-88732152D01*
X138043854Y-88839510D01*
X138002553Y-88927074D01*
X137924522Y-88927074D01*
X137962888Y-88850056D01*
X138084844Y-88667213D01*
X138104118Y-88658095D01*
X138085649Y-88653420D01*
X138007135Y-88525671D01*
X138067103Y-88525671D01*
X138077649Y-88581675D01*
X138142978Y-88622379D01*
X138212385Y-88626535D01*
X138259271Y-88626535D01*
X138259271Y-88421067D01*
X138208125Y-88421067D01*
X138137523Y-88425223D01*
X138076636Y-88470680D01*
X138067103Y-88525671D01*
X138007135Y-88525671D01*
X137989175Y-88496448D01*
X138067492Y-88382804D01*
X138229737Y-88361193D01*
X138335380Y-88359374D01*
X138335380Y-88643263D01*
G37*
G36*
X137796072Y-88525177D02*
G01*
X137866284Y-88734100D01*
X137815060Y-88885773D01*
X137750017Y-88927594D01*
X137713287Y-88926539D01*
X137615254Y-88923723D01*
X137509429Y-88757427D01*
X137527184Y-88632224D01*
X137586941Y-88632224D01*
X137588681Y-88800339D01*
X137639100Y-88868837D01*
X137713287Y-88878084D01*
X137777499Y-88825509D01*
X137774356Y-88598013D01*
X137687597Y-88549725D01*
X137586941Y-88632224D01*
X137527184Y-88632224D01*
X137534496Y-88580662D01*
X137595175Y-88514216D01*
X137796072Y-88525177D01*
G37*
G36*
X137110156Y-88592247D02*
G01*
X137326975Y-88592247D01*
X137326975Y-88360180D01*
X137399344Y-88360180D01*
X137399344Y-88643679D01*
X137399344Y-88927074D01*
X137327079Y-88927074D01*
X137326170Y-88791117D01*
X137325157Y-88655056D01*
X137112078Y-88655056D01*
X137111065Y-88791117D01*
X137110052Y-88927074D01*
X137037813Y-88927074D01*
X137037813Y-88360180D01*
X137110156Y-88360180D01*
X137110156Y-88592247D01*
G37*
G36*
X136882141Y-88400754D02*
G01*
X136929813Y-88511440D01*
X136888141Y-88617703D01*
X136762418Y-88670070D01*
X136658412Y-88715320D01*
X136649294Y-88823483D01*
X136739992Y-88876376D01*
X136882764Y-88846004D01*
X136923650Y-88826133D01*
X136923650Y-88903229D01*
X136892297Y-88913697D01*
X136836190Y-88928996D01*
X136694933Y-88929204D01*
X136584043Y-88847640D01*
X136571756Y-88773064D01*
X136582407Y-88700696D01*
X136742339Y-88601260D01*
X136847645Y-88552270D01*
X136854970Y-88475460D01*
X136772880Y-88412813D01*
X136631527Y-88437094D01*
X136603109Y-88450887D01*
X136600278Y-88415975D01*
X136600278Y-88379765D01*
X136624020Y-88371947D01*
X136744859Y-88352153D01*
X136882141Y-88400754D01*
G37*
%TO.C,ce-symbol_mask_3mm*%
G36*
X143918311Y-90244632D02*
G01*
X144149121Y-90301470D01*
X144364342Y-90392425D01*
X144560886Y-90514409D01*
X144735665Y-90664335D01*
X144885591Y-90839114D01*
X145007575Y-91035658D01*
X145098530Y-91250879D01*
X145155368Y-91481689D01*
X145175000Y-91725000D01*
X145155368Y-91968311D01*
X145098530Y-92199121D01*
X145007575Y-92414342D01*
X144885591Y-92610886D01*
X144735665Y-92785665D01*
X144560886Y-92935590D01*
X144364342Y-93057575D01*
X144149121Y-93148530D01*
X143918311Y-93205368D01*
X143675000Y-93225000D01*
X143525000Y-93217500D01*
X143525000Y-92767500D01*
X143675000Y-92775000D01*
X143915762Y-92747270D01*
X144136773Y-92668280D01*
X144331730Y-92544333D01*
X144494333Y-92381730D01*
X144618281Y-92186772D01*
X144697270Y-91965762D01*
X144725000Y-91725000D01*
X144697270Y-91484238D01*
X144618281Y-91263227D01*
X144494333Y-91068270D01*
X144331730Y-90905667D01*
X144136773Y-90781719D01*
X143915762Y-90702730D01*
X143675000Y-90675000D01*
X143525000Y-90682500D01*
X143525000Y-90232500D01*
X143675000Y-90225000D01*
X143918311Y-90244632D01*
G37*
G36*
X141368311Y-90244632D02*
G01*
X141599121Y-90301470D01*
X141814342Y-90392425D01*
X142010886Y-90514409D01*
X142185665Y-90664335D01*
X142335591Y-90839114D01*
X142457575Y-91035658D01*
X142548530Y-91250879D01*
X142605368Y-91481689D01*
X142625000Y-91725000D01*
X142605368Y-91968311D01*
X142548530Y-92199121D01*
X142457575Y-92414342D01*
X142335591Y-92610886D01*
X142185665Y-92785665D01*
X142010886Y-92935590D01*
X141814342Y-93057575D01*
X141599121Y-93148530D01*
X141368311Y-93205368D01*
X141125000Y-93225000D01*
X140975000Y-93217500D01*
X140975000Y-92767500D01*
X141125000Y-92775000D01*
X141364888Y-92747375D01*
X141586634Y-92668213D01*
X141783163Y-92543205D01*
X141947400Y-92378040D01*
X142072271Y-92178408D01*
X142150700Y-91950000D01*
X141275000Y-91950000D01*
X141275000Y-91500000D01*
X142150700Y-91500000D01*
X142072271Y-91271592D01*
X141947400Y-91071960D01*
X141783163Y-90906795D01*
X141586634Y-90781787D01*
X141364888Y-90702625D01*
X141125000Y-90675000D01*
X140975000Y-90682500D01*
X140975000Y-90232500D01*
X141125000Y-90225000D01*
X141368311Y-90244632D01*
G37*
%TD*%
M02*
