%TF.GenerationSoftware,KiCad,Pcbnew,8.0.6*%
%TF.CreationDate,2024-11-25T20:31:32+01:00*%
%TF.ProjectId,PD_trigger-board,50445f74-7269-4676-9765-722d626f6172,rev?*%
%TF.SameCoordinates,Original*%
%TF.FileFunction,Copper,L2,Bot*%
%TF.FilePolarity,Positive*%
%FSLAX46Y46*%
G04 Gerber Fmt 4.6, Leading zero omitted, Abs format (unit mm)*
G04 Created by KiCad (PCBNEW 8.0.6) date 2024-11-25 20:31:32*
%MOMM*%
%LPD*%
G01*
G04 APERTURE LIST*
%TA.AperFunction,ComponentPad*%
%ADD10O,1.000000X2.100000*%
%TD*%
%TA.AperFunction,ComponentPad*%
%ADD11O,1.000000X1.600000*%
%TD*%
%TA.AperFunction,ComponentPad*%
%ADD12R,1.700000X1.700000*%
%TD*%
%TA.AperFunction,ComponentPad*%
%ADD13O,1.700000X1.700000*%
%TD*%
%TA.AperFunction,ComponentPad*%
%ADD14R,3.000000X3.000000*%
%TD*%
%TA.AperFunction,ComponentPad*%
%ADD15C,3.000000*%
%TD*%
%TA.AperFunction,ViaPad*%
%ADD16C,0.600000*%
%TD*%
%TA.AperFunction,Conductor*%
%ADD17C,0.200000*%
%TD*%
G04 APERTURE END LIST*
D10*
%TO.P,J1,S1,SHIELD*%
%TO.N,GND*%
X144513000Y-81952000D03*
D11*
X144513000Y-77772000D03*
D10*
X135873000Y-81952000D03*
D11*
X135873000Y-77772000D03*
%TD*%
D12*
%TO.P,J2,1,Pin_1*%
%TO.N,GND*%
X141580000Y-111394000D03*
D13*
%TO.P,J2,2,Pin_2*%
%TO.N,D-*%
X144120000Y-111394000D03*
%TO.P,J2,3,Pin_3*%
%TO.N,D+*%
X146660000Y-111394000D03*
%TD*%
D12*
%TO.P,J10,1,Pin_1*%
%TO.N,Net-(J10-Pin_1)*%
X132975000Y-94100000D03*
D13*
%TO.P,J10,2,Pin_2*%
%TO.N,GND*%
X130435000Y-94100000D03*
%TD*%
D12*
%TO.P,J7,1,Pin_1*%
%TO.N,VSET*%
X132950000Y-82500000D03*
D13*
%TO.P,J7,2,Pin_2*%
%TO.N,GND*%
X130410000Y-82500000D03*
%TD*%
D12*
%TO.P,J11,1,Pin_1*%
%TO.N,Net-(J11-Pin_1)*%
X132975000Y-97900000D03*
D13*
%TO.P,J11,2,Pin_2*%
%TO.N,GND*%
X130435000Y-97900000D03*
%TD*%
D14*
%TO.P,J4,1,Pin_1*%
%TO.N,GND*%
X141580000Y-104800000D03*
D15*
%TO.P,J4,2,Pin_2*%
%TO.N,VOUT*%
X136500000Y-104800000D03*
%TD*%
D12*
%TO.P,J5,1,Pin_1*%
%TO.N,ISET*%
X144971000Y-88190000D03*
D13*
%TO.P,J5,2,Pin_2*%
%TO.N,GND*%
X147511000Y-88190000D03*
%TD*%
D12*
%TO.P,J8,1,Pin_1*%
%TO.N,Net-(J8-Pin_1)*%
X132975000Y-86400000D03*
D13*
%TO.P,J8,2,Pin_2*%
%TO.N,GND*%
X130435000Y-86400000D03*
%TD*%
D12*
%TO.P,J6,1,Pin_1*%
%TO.N,Net-(J6-Pin_1)*%
X145000000Y-93000000D03*
D13*
%TO.P,J6,2,Pin_2*%
%TO.N,GND*%
X147540000Y-93000000D03*
%TD*%
D12*
%TO.P,J3,1,Pin_1*%
%TO.N,VOUT*%
X136500000Y-111394000D03*
D13*
%TO.P,J3,2,Pin_2*%
%TO.N,SCL*%
X133960000Y-111394000D03*
%TO.P,J3,3,Pin_3*%
%TO.N,SDA*%
X131420000Y-111394000D03*
%TD*%
D12*
%TO.P,J9,1,Pin_1*%
%TO.N,Net-(J9-Pin_1)*%
X132975000Y-90300000D03*
D13*
%TO.P,J9,2,Pin_2*%
%TO.N,GND*%
X130435000Y-90300000D03*
%TD*%
D16*
%TO.N,VOUT*%
X138600000Y-100487000D03*
X133340000Y-107582000D03*
X133340000Y-101582000D03*
X141000000Y-100487000D03*
X139800000Y-100487000D03*
X133558000Y-104800000D03*
X137200000Y-100487000D03*
%TO.N,D+*%
X139000000Y-85982000D03*
X139000000Y-84732000D03*
X139566735Y-81466735D03*
%TO.N,D-*%
X143600000Y-84700000D03*
%TO.N,VBUS*%
X141000000Y-92082000D03*
X138600000Y-92082000D03*
X141000000Y-85182000D03*
X139800000Y-92082000D03*
X137800000Y-83982000D03*
X142600000Y-84082000D03*
%TO.N,CC1*%
X137881810Y-85431015D03*
X138600000Y-81400000D03*
%TO.N,SCL*%
X136930339Y-91600000D03*
%TO.N,SDA*%
X136090905Y-91590905D03*
%TO.N,GATE*%
X142400000Y-90500000D03*
X142400000Y-91900000D03*
%TD*%
D17*
%TO.N,D+*%
X144200000Y-84948529D02*
X143800000Y-85348529D01*
X143800000Y-100334314D02*
X145600000Y-102134314D01*
X139566735Y-81466735D02*
X141566735Y-81466735D01*
X145600000Y-110334000D02*
X146660000Y-111394000D01*
X143800000Y-85348529D02*
X143800000Y-100334314D01*
X141566735Y-81466735D02*
X144200000Y-84100000D01*
X139000000Y-84732000D02*
X139000000Y-85682000D01*
X145600000Y-102134314D02*
X145600000Y-110334000D01*
X139000000Y-85682000D02*
X139000000Y-85982000D01*
X144200000Y-84100000D02*
X144200000Y-84948529D01*
%TO.N,D-*%
X143600000Y-84700000D02*
X143400000Y-84900000D01*
X143400000Y-100500000D02*
X145200000Y-102300000D01*
X145200000Y-110314000D02*
X144120000Y-111394000D01*
X143400000Y-84900000D02*
X143400000Y-100500000D01*
X145200000Y-102700000D02*
X145200000Y-110314000D01*
X145200000Y-102300000D02*
X145200000Y-102700000D01*
%TO.N,CC1*%
X137200000Y-82800000D02*
X137200000Y-84749205D01*
X138600000Y-81400000D02*
X137200000Y-82800000D01*
X137200000Y-84749205D02*
X137881810Y-85431015D01*
%TO.N,SCL*%
X136100000Y-98965685D02*
X134932842Y-100132843D01*
X131800000Y-109234000D02*
X133960000Y-111394000D01*
X131800000Y-101165686D02*
X131800000Y-109234000D01*
X136100000Y-92430339D02*
X136100000Y-98965685D01*
X136930339Y-91600000D02*
X136100000Y-92430339D01*
X132832843Y-100132844D02*
X131800000Y-101165686D01*
X134932842Y-100132843D02*
X132832843Y-100132843D01*
X132832843Y-100132843D02*
X132832843Y-100132844D01*
%TO.N,SDA*%
X132667157Y-99732843D02*
X132432843Y-99967158D01*
X136090905Y-91590905D02*
X135700000Y-91981810D01*
X131400000Y-101000000D02*
X131400000Y-111374000D01*
X135700000Y-98800000D02*
X134767157Y-99732843D01*
X131400000Y-111374000D02*
X131420000Y-111394000D01*
X134767157Y-99732843D02*
X132667157Y-99732843D01*
X132432843Y-99967158D02*
X131400000Y-101000000D01*
X135700000Y-91981810D02*
X135700000Y-98800000D01*
%TO.N,GATE*%
X142400000Y-90500000D02*
X142400000Y-91900000D01*
%TD*%
%TA.AperFunction,Conductor*%
%TO.N,VOUT*%
G36*
X142742539Y-96819685D02*
G01*
X142788294Y-96872489D01*
X142799500Y-96924000D01*
X142799500Y-100413330D01*
X142799499Y-100413348D01*
X142799499Y-100579054D01*
X142799498Y-100579054D01*
X142840424Y-100731789D01*
X142840425Y-100731790D01*
X142861455Y-100768214D01*
X142861456Y-100768216D01*
X142919475Y-100868709D01*
X142919481Y-100868717D01*
X143038349Y-100987585D01*
X143038355Y-100987590D01*
X144563181Y-102512416D01*
X144596666Y-102573739D01*
X144599500Y-102600097D01*
X144599500Y-109962740D01*
X144579815Y-110029779D01*
X144527011Y-110075534D01*
X144457853Y-110085478D01*
X144443408Y-110082515D01*
X144355416Y-110058939D01*
X144355412Y-110058938D01*
X144355408Y-110058937D01*
X144355406Y-110058936D01*
X144355403Y-110058936D01*
X144120001Y-110038341D01*
X144119999Y-110038341D01*
X143884596Y-110058936D01*
X143884586Y-110058938D01*
X143656344Y-110120094D01*
X143656335Y-110120098D01*
X143442171Y-110219964D01*
X143442169Y-110219965D01*
X143248600Y-110355503D01*
X143126673Y-110477430D01*
X143065350Y-110510914D01*
X142995658Y-110505930D01*
X142939725Y-110464058D01*
X142922810Y-110433081D01*
X142873797Y-110301671D01*
X142873793Y-110301664D01*
X142787547Y-110186455D01*
X142787544Y-110186452D01*
X142672335Y-110100206D01*
X142672328Y-110100202D01*
X142537482Y-110049908D01*
X142537483Y-110049908D01*
X142477883Y-110043501D01*
X142477881Y-110043500D01*
X142477873Y-110043500D01*
X142477864Y-110043500D01*
X140682129Y-110043500D01*
X140682123Y-110043501D01*
X140622516Y-110049908D01*
X140487671Y-110100202D01*
X140487664Y-110100206D01*
X140372455Y-110186452D01*
X140372452Y-110186455D01*
X140286206Y-110301664D01*
X140286202Y-110301671D01*
X140235908Y-110436517D01*
X140229501Y-110496116D01*
X140229500Y-110496135D01*
X140229500Y-112291870D01*
X140229501Y-112291876D01*
X140235908Y-112351483D01*
X140286202Y-112486328D01*
X140286206Y-112486335D01*
X140372452Y-112601544D01*
X140372455Y-112601547D01*
X140487664Y-112687793D01*
X140487671Y-112687797D01*
X140622517Y-112738091D01*
X140622516Y-112738091D01*
X140629444Y-112738835D01*
X140682127Y-112744500D01*
X142477872Y-112744499D01*
X142537483Y-112738091D01*
X142672331Y-112687796D01*
X142787546Y-112601546D01*
X142873796Y-112486331D01*
X142922810Y-112354916D01*
X142964681Y-112298984D01*
X143030145Y-112274566D01*
X143098418Y-112289417D01*
X143126673Y-112310569D01*
X143248599Y-112432495D01*
X143330603Y-112489915D01*
X143442165Y-112568032D01*
X143442167Y-112568033D01*
X143442170Y-112568035D01*
X143656337Y-112667903D01*
X143884592Y-112729063D01*
X144061034Y-112744500D01*
X144119999Y-112749659D01*
X144120000Y-112749659D01*
X144120001Y-112749659D01*
X144178966Y-112744500D01*
X144355408Y-112729063D01*
X144583663Y-112667903D01*
X144797830Y-112568035D01*
X144991401Y-112432495D01*
X145158495Y-112265401D01*
X145288425Y-112079842D01*
X145343002Y-112036217D01*
X145412500Y-112029023D01*
X145474855Y-112060546D01*
X145491575Y-112079842D01*
X145621500Y-112265395D01*
X145621505Y-112265401D01*
X145788599Y-112432495D01*
X145870603Y-112489915D01*
X145982165Y-112568032D01*
X145982167Y-112568033D01*
X145982170Y-112568035D01*
X146196337Y-112667903D01*
X146424592Y-112729063D01*
X146601034Y-112744500D01*
X146659999Y-112749659D01*
X146660000Y-112749659D01*
X146660001Y-112749659D01*
X146718966Y-112744500D01*
X146895408Y-112729063D01*
X147123663Y-112667903D01*
X147337830Y-112568035D01*
X147531401Y-112432495D01*
X147698495Y-112265401D01*
X147834035Y-112071830D01*
X147933903Y-111857663D01*
X147995063Y-111629408D01*
X148015659Y-111394000D01*
X147995063Y-111158592D01*
X147933903Y-110930337D01*
X147834035Y-110716171D01*
X147698495Y-110522599D01*
X147698494Y-110522597D01*
X147531402Y-110355506D01*
X147531395Y-110355501D01*
X147337834Y-110219967D01*
X147337830Y-110219965D01*
X147266727Y-110186809D01*
X147123663Y-110120097D01*
X147123659Y-110120096D01*
X147123655Y-110120094D01*
X146895413Y-110058938D01*
X146895403Y-110058936D01*
X146660001Y-110038341D01*
X146659999Y-110038341D01*
X146424596Y-110058936D01*
X146424580Y-110058939D01*
X146356591Y-110077156D01*
X146286742Y-110075492D01*
X146228880Y-110036329D01*
X146201377Y-109972100D01*
X146200500Y-109957381D01*
X146200500Y-102055259D01*
X146200500Y-102055257D01*
X146159577Y-101902530D01*
X146159573Y-101902523D01*
X146080524Y-101765604D01*
X146080521Y-101765600D01*
X146080520Y-101765598D01*
X145968716Y-101653794D01*
X145968715Y-101653793D01*
X145964385Y-101649463D01*
X145964374Y-101649453D01*
X144436819Y-100121898D01*
X144403334Y-100060575D01*
X144400500Y-100034217D01*
X144400500Y-96924000D01*
X144420185Y-96856961D01*
X144472989Y-96811206D01*
X144524500Y-96800000D01*
X148858476Y-96800000D01*
X148925515Y-96819685D01*
X148971270Y-96872489D01*
X148982476Y-96923860D01*
X148999493Y-111994517D01*
X148999021Y-112005464D01*
X148985260Y-112162752D01*
X148981507Y-112184038D01*
X148942030Y-112331369D01*
X148934637Y-112351681D01*
X148870177Y-112489915D01*
X148859370Y-112508633D01*
X148771880Y-112633582D01*
X148757986Y-112650140D01*
X148650140Y-112757986D01*
X148633582Y-112771880D01*
X148508633Y-112859370D01*
X148489915Y-112870177D01*
X148351681Y-112934637D01*
X148331369Y-112942030D01*
X148184038Y-112981507D01*
X148162753Y-112985260D01*
X148005395Y-112999028D01*
X147994587Y-112999500D01*
X130005413Y-112999500D01*
X129994605Y-112999028D01*
X129837246Y-112985260D01*
X129815961Y-112981507D01*
X129668630Y-112942030D01*
X129648318Y-112934637D01*
X129510084Y-112870177D01*
X129491366Y-112859370D01*
X129366417Y-112771880D01*
X129349859Y-112757986D01*
X129242013Y-112650140D01*
X129228119Y-112633582D01*
X129140629Y-112508633D01*
X129129822Y-112489915D01*
X129065362Y-112351681D01*
X129057969Y-112331369D01*
X129044655Y-112281680D01*
X129018491Y-112184035D01*
X129014739Y-112162752D01*
X129006215Y-112065327D01*
X129000977Y-112005461D01*
X129000506Y-111994517D01*
X129000662Y-111857664D01*
X129011152Y-102620943D01*
X129015706Y-98611056D01*
X129035467Y-98544039D01*
X129088323Y-98498344D01*
X129157492Y-98488479D01*
X129221015Y-98517576D01*
X129252086Y-98558789D01*
X129260965Y-98577830D01*
X129396505Y-98771401D01*
X129563599Y-98938495D01*
X129660384Y-99006265D01*
X129757165Y-99074032D01*
X129757167Y-99074033D01*
X129757170Y-99074035D01*
X129971337Y-99173903D01*
X130199592Y-99235063D01*
X130376034Y-99250500D01*
X130434999Y-99255659D01*
X130435000Y-99255659D01*
X130435001Y-99255659D01*
X130493966Y-99250500D01*
X130670408Y-99235063D01*
X130898663Y-99173903D01*
X131112830Y-99074035D01*
X131306401Y-98938495D01*
X131428329Y-98816566D01*
X131489648Y-98783084D01*
X131559340Y-98788068D01*
X131615274Y-98829939D01*
X131632189Y-98860917D01*
X131681202Y-98992328D01*
X131681206Y-98992335D01*
X131767452Y-99107544D01*
X131767455Y-99107547D01*
X131882664Y-99193793D01*
X131882671Y-99193797D01*
X131927618Y-99210561D01*
X132017517Y-99244091D01*
X132020912Y-99244456D01*
X132023371Y-99245474D01*
X132025062Y-99245874D01*
X132024997Y-99246148D01*
X132085461Y-99271193D01*
X132125310Y-99328585D01*
X132127805Y-99398410D01*
X132095338Y-99455425D01*
X132046687Y-99504077D01*
X132046686Y-99504078D01*
X130919481Y-100631282D01*
X130919479Y-100631284D01*
X130900889Y-100663485D01*
X130884183Y-100692421D01*
X130862303Y-100730318D01*
X130840423Y-100768214D01*
X130799500Y-100920942D01*
X130799499Y-100920944D01*
X130799499Y-101089045D01*
X130799500Y-101089058D01*
X130799500Y-110115274D01*
X130779815Y-110182313D01*
X130745740Y-110215625D01*
X130746605Y-110216860D01*
X130548597Y-110355505D01*
X130381505Y-110522597D01*
X130245965Y-110716169D01*
X130245964Y-110716171D01*
X130146098Y-110930335D01*
X130146094Y-110930344D01*
X130084938Y-111158586D01*
X130084936Y-111158596D01*
X130064341Y-111393999D01*
X130064341Y-111394000D01*
X130084936Y-111629403D01*
X130084938Y-111629413D01*
X130146094Y-111857655D01*
X130146096Y-111857659D01*
X130146097Y-111857663D01*
X130226004Y-112029023D01*
X130245965Y-112071830D01*
X130245967Y-112071834D01*
X130287480Y-112131120D01*
X130381505Y-112265401D01*
X130548599Y-112432495D01*
X130630603Y-112489915D01*
X130742165Y-112568032D01*
X130742167Y-112568033D01*
X130742170Y-112568035D01*
X130956337Y-112667903D01*
X131184592Y-112729063D01*
X131361034Y-112744500D01*
X131419999Y-112749659D01*
X131420000Y-112749659D01*
X131420001Y-112749659D01*
X131478966Y-112744500D01*
X131655408Y-112729063D01*
X131883663Y-112667903D01*
X132097830Y-112568035D01*
X132291401Y-112432495D01*
X132458495Y-112265401D01*
X132588425Y-112079842D01*
X132643002Y-112036217D01*
X132712500Y-112029023D01*
X132774855Y-112060546D01*
X132791575Y-112079842D01*
X132921500Y-112265395D01*
X132921505Y-112265401D01*
X133088599Y-112432495D01*
X133170603Y-112489915D01*
X133282165Y-112568032D01*
X133282167Y-112568033D01*
X133282170Y-112568035D01*
X133496337Y-112667903D01*
X133724592Y-112729063D01*
X133901034Y-112744500D01*
X133959999Y-112749659D01*
X133960000Y-112749659D01*
X133960001Y-112749659D01*
X134018966Y-112744500D01*
X134195408Y-112729063D01*
X134423663Y-112667903D01*
X134637830Y-112568035D01*
X134831401Y-112432495D01*
X134953717Y-112310178D01*
X135015036Y-112276696D01*
X135084728Y-112281680D01*
X135140662Y-112323551D01*
X135157577Y-112354528D01*
X135206646Y-112486088D01*
X135206649Y-112486093D01*
X135292809Y-112601187D01*
X135292812Y-112601190D01*
X135407906Y-112687350D01*
X135407913Y-112687354D01*
X135542620Y-112737596D01*
X135542627Y-112737598D01*
X135602155Y-112743999D01*
X135602172Y-112744000D01*
X136250000Y-112744000D01*
X136250000Y-111827012D01*
X136307007Y-111859925D01*
X136434174Y-111894000D01*
X136565826Y-111894000D01*
X136692993Y-111859925D01*
X136750000Y-111827012D01*
X136750000Y-112744000D01*
X137397828Y-112744000D01*
X137397844Y-112743999D01*
X137457372Y-112737598D01*
X137457379Y-112737596D01*
X137592086Y-112687354D01*
X137592093Y-112687350D01*
X137707187Y-112601190D01*
X137707190Y-112601187D01*
X137793350Y-112486093D01*
X137793354Y-112486086D01*
X137843596Y-112351379D01*
X137843598Y-112351372D01*
X137849999Y-112291844D01*
X137850000Y-112291827D01*
X137850000Y-111644000D01*
X136933012Y-111644000D01*
X136965925Y-111586993D01*
X137000000Y-111459826D01*
X137000000Y-111328174D01*
X136965925Y-111201007D01*
X136933012Y-111144000D01*
X137850000Y-111144000D01*
X137850000Y-110496172D01*
X137849999Y-110496155D01*
X137843598Y-110436627D01*
X137843596Y-110436620D01*
X137793354Y-110301913D01*
X137793350Y-110301906D01*
X137707190Y-110186812D01*
X137707187Y-110186809D01*
X137592093Y-110100649D01*
X137592086Y-110100645D01*
X137457379Y-110050403D01*
X137457372Y-110050401D01*
X137397844Y-110044000D01*
X136750000Y-110044000D01*
X136750000Y-110960988D01*
X136692993Y-110928075D01*
X136565826Y-110894000D01*
X136434174Y-110894000D01*
X136307007Y-110928075D01*
X136250000Y-110960988D01*
X136250000Y-110044000D01*
X135602155Y-110044000D01*
X135542627Y-110050401D01*
X135542620Y-110050403D01*
X135407913Y-110100645D01*
X135407906Y-110100649D01*
X135292812Y-110186809D01*
X135292809Y-110186812D01*
X135206649Y-110301906D01*
X135206645Y-110301913D01*
X135157578Y-110433470D01*
X135115707Y-110489404D01*
X135050242Y-110513821D01*
X134981969Y-110498969D01*
X134953715Y-110477819D01*
X134908977Y-110433081D01*
X134831401Y-110355505D01*
X134831397Y-110355502D01*
X134831396Y-110355501D01*
X134637834Y-110219967D01*
X134637830Y-110219965D01*
X134566727Y-110186809D01*
X134423663Y-110120097D01*
X134423659Y-110120096D01*
X134423655Y-110120094D01*
X134195413Y-110058938D01*
X134195403Y-110058936D01*
X133960001Y-110038341D01*
X133959999Y-110038341D01*
X133724596Y-110058936D01*
X133724583Y-110058939D01*
X133596241Y-110093327D01*
X133526392Y-110091664D01*
X133476468Y-110061233D01*
X132436819Y-109021584D01*
X132403334Y-108960261D01*
X132400500Y-108933903D01*
X132400500Y-104799998D01*
X134494891Y-104799998D01*
X134494891Y-104800001D01*
X134515300Y-105085362D01*
X134576109Y-105364895D01*
X134676091Y-105632958D01*
X134813191Y-105884038D01*
X134813196Y-105884046D01*
X134919882Y-106026561D01*
X134919883Y-106026562D01*
X135814767Y-105131677D01*
X135826497Y-105159995D01*
X135909670Y-105284472D01*
X136015528Y-105390330D01*
X136140005Y-105473503D01*
X136168320Y-105485231D01*
X135273436Y-106380115D01*
X135415960Y-106486807D01*
X135415961Y-106486808D01*
X135667042Y-106623908D01*
X135667041Y-106623908D01*
X135935104Y-106723890D01*
X136214637Y-106784699D01*
X136499999Y-106805109D01*
X136500001Y-106805109D01*
X136785362Y-106784699D01*
X137064895Y-106723890D01*
X137332958Y-106623908D01*
X137584047Y-106486803D01*
X137726561Y-106380116D01*
X137726562Y-106380115D01*
X136831679Y-105485231D01*
X136859995Y-105473503D01*
X136984472Y-105390330D01*
X137090330Y-105284472D01*
X137173503Y-105159995D01*
X137185231Y-105131678D01*
X138080115Y-106026562D01*
X138080116Y-106026561D01*
X138186803Y-105884047D01*
X138323908Y-105632958D01*
X138423890Y-105364895D01*
X138484699Y-105085362D01*
X138505109Y-104800001D01*
X138505109Y-104799998D01*
X138484699Y-104514637D01*
X138423890Y-104235104D01*
X138323908Y-103967041D01*
X138186808Y-103715961D01*
X138186807Y-103715960D01*
X138080115Y-103573436D01*
X137185231Y-104468320D01*
X137173503Y-104440005D01*
X137090330Y-104315528D01*
X136984472Y-104209670D01*
X136859995Y-104126497D01*
X136831678Y-104114767D01*
X137694310Y-103252135D01*
X139579500Y-103252135D01*
X139579500Y-106347870D01*
X139579501Y-106347876D01*
X139585908Y-106407483D01*
X139636202Y-106542328D01*
X139636206Y-106542335D01*
X139722452Y-106657544D01*
X139722455Y-106657547D01*
X139837664Y-106743793D01*
X139837671Y-106743797D01*
X139972517Y-106794091D01*
X139972516Y-106794091D01*
X139979444Y-106794835D01*
X140032127Y-106800500D01*
X143127872Y-106800499D01*
X143187483Y-106794091D01*
X143322331Y-106743796D01*
X143437546Y-106657546D01*
X143523796Y-106542331D01*
X143574091Y-106407483D01*
X143580500Y-106347873D01*
X143580499Y-103252128D01*
X143574091Y-103192517D01*
X143544506Y-103113196D01*
X143523797Y-103057671D01*
X143523793Y-103057664D01*
X143437547Y-102942455D01*
X143437544Y-102942452D01*
X143322335Y-102856206D01*
X143322328Y-102856202D01*
X143187482Y-102805908D01*
X143187483Y-102805908D01*
X143127883Y-102799501D01*
X143127881Y-102799500D01*
X143127873Y-102799500D01*
X143127864Y-102799500D01*
X140032129Y-102799500D01*
X140032123Y-102799501D01*
X139972516Y-102805908D01*
X139837671Y-102856202D01*
X139837664Y-102856206D01*
X139722455Y-102942452D01*
X139722452Y-102942455D01*
X139636206Y-103057664D01*
X139636202Y-103057671D01*
X139585908Y-103192517D01*
X139579501Y-103252116D01*
X139579501Y-103252123D01*
X139579500Y-103252135D01*
X137694310Y-103252135D01*
X137726562Y-103219883D01*
X137726561Y-103219882D01*
X137584046Y-103113196D01*
X137584038Y-103113191D01*
X137332957Y-102976091D01*
X137332958Y-102976091D01*
X137064895Y-102876109D01*
X136785362Y-102815300D01*
X136500001Y-102794891D01*
X136499999Y-102794891D01*
X136214637Y-102815300D01*
X135935104Y-102876109D01*
X135667041Y-102976091D01*
X135415961Y-103113191D01*
X135415953Y-103113196D01*
X135273437Y-103219882D01*
X135273436Y-103219883D01*
X136168321Y-104114767D01*
X136140005Y-104126497D01*
X136015528Y-104209670D01*
X135909670Y-104315528D01*
X135826497Y-104440005D01*
X135814768Y-104468321D01*
X134919883Y-103573436D01*
X134919882Y-103573437D01*
X134813196Y-103715953D01*
X134813191Y-103715961D01*
X134676091Y-103967041D01*
X134576109Y-104235104D01*
X134515300Y-104514637D01*
X134494891Y-104799998D01*
X132400500Y-104799998D01*
X132400500Y-101465784D01*
X132420185Y-101398745D01*
X132436819Y-101378103D01*
X133045260Y-100769662D01*
X133106583Y-100736177D01*
X133132941Y-100733343D01*
X134846173Y-100733343D01*
X134846189Y-100733344D01*
X134853785Y-100733344D01*
X135011896Y-100733344D01*
X135011899Y-100733344D01*
X135164627Y-100692420D01*
X135214746Y-100663482D01*
X135301558Y-100613363D01*
X135413362Y-100501559D01*
X135413362Y-100501557D01*
X135423570Y-100491350D01*
X135423571Y-100491347D01*
X136580520Y-99334401D01*
X136659577Y-99197469D01*
X136700501Y-99044742D01*
X136700501Y-98886627D01*
X136700501Y-98879032D01*
X136700500Y-98879014D01*
X136700500Y-96924000D01*
X136720185Y-96856961D01*
X136772989Y-96811206D01*
X136824500Y-96800000D01*
X142675500Y-96800000D01*
X142742539Y-96819685D01*
G37*
%TD.AperFunction*%
%TD*%
%TA.AperFunction,Conductor*%
%TO.N,VBUS*%
G36*
X148005395Y-76200972D02*
G01*
X148155929Y-76214141D01*
X148177208Y-76217893D01*
X148317924Y-76255597D01*
X148338231Y-76262989D01*
X148470261Y-76324555D01*
X148488979Y-76335361D01*
X148608310Y-76418915D01*
X148624862Y-76432803D01*
X148727879Y-76535817D01*
X148741767Y-76552368D01*
X148825327Y-76671700D01*
X148836134Y-76690418D01*
X148897701Y-76822441D01*
X148905094Y-76842752D01*
X148942799Y-76983459D01*
X148946553Y-77004744D01*
X148959688Y-77154827D01*
X148960160Y-77165634D01*
X148960161Y-77233904D01*
X148960243Y-77235139D01*
X148971911Y-87567909D01*
X148952302Y-87634971D01*
X148899550Y-87680785D01*
X148830403Y-87690807D01*
X148766814Y-87661854D01*
X148735529Y-87620454D01*
X148685035Y-87512171D01*
X148685034Y-87512169D01*
X148549494Y-87318597D01*
X148382402Y-87151506D01*
X148382395Y-87151501D01*
X148188834Y-87015967D01*
X148188830Y-87015965D01*
X148188157Y-87015651D01*
X147974663Y-86916097D01*
X147974659Y-86916096D01*
X147974655Y-86916094D01*
X147746413Y-86854938D01*
X147746403Y-86854936D01*
X147511001Y-86834341D01*
X147510999Y-86834341D01*
X147275596Y-86854936D01*
X147275586Y-86854938D01*
X147047344Y-86916094D01*
X147047335Y-86916098D01*
X146833171Y-87015964D01*
X146833169Y-87015965D01*
X146639600Y-87151503D01*
X146517673Y-87273430D01*
X146456350Y-87306914D01*
X146386658Y-87301930D01*
X146330725Y-87260058D01*
X146313810Y-87229081D01*
X146264797Y-87097671D01*
X146264793Y-87097664D01*
X146178547Y-86982455D01*
X146178544Y-86982452D01*
X146063335Y-86896206D01*
X146063328Y-86896202D01*
X145928482Y-86845908D01*
X145928483Y-86845908D01*
X145868883Y-86839501D01*
X145868881Y-86839500D01*
X145868873Y-86839500D01*
X145868865Y-86839500D01*
X144524500Y-86839500D01*
X144457461Y-86819815D01*
X144411706Y-86767011D01*
X144400500Y-86715500D01*
X144400500Y-85648626D01*
X144420185Y-85581587D01*
X144436814Y-85560949D01*
X144558506Y-85439256D01*
X144558510Y-85439254D01*
X144568714Y-85429049D01*
X144568716Y-85429049D01*
X144680520Y-85317245D01*
X144759577Y-85180313D01*
X144796011Y-85044341D01*
X144800500Y-85027587D01*
X144800500Y-84869472D01*
X144800500Y-84020943D01*
X144787978Y-83974211D01*
X144759577Y-83868215D01*
X144716611Y-83793796D01*
X144680520Y-83731284D01*
X144642289Y-83693053D01*
X144608804Y-83631730D01*
X144613788Y-83562038D01*
X144655660Y-83506105D01*
X144705779Y-83483755D01*
X144740183Y-83476911D01*
X144804835Y-83464051D01*
X144964604Y-83397873D01*
X144986907Y-83388635D01*
X144986907Y-83388634D01*
X144986914Y-83388632D01*
X145150782Y-83279139D01*
X145290139Y-83139782D01*
X145399632Y-82975914D01*
X145404707Y-82963663D01*
X145475049Y-82793839D01*
X145475051Y-82793835D01*
X145513500Y-82600541D01*
X145513500Y-81303459D01*
X145513500Y-81303456D01*
X145475052Y-81110170D01*
X145475051Y-81110169D01*
X145475051Y-81110165D01*
X145450328Y-81050478D01*
X145399635Y-80928092D01*
X145399628Y-80928079D01*
X145290139Y-80764218D01*
X145290136Y-80764214D01*
X145150785Y-80624863D01*
X145150781Y-80624860D01*
X144986920Y-80515371D01*
X144986907Y-80515364D01*
X144804839Y-80439950D01*
X144804829Y-80439947D01*
X144611543Y-80401500D01*
X144611541Y-80401500D01*
X144414459Y-80401500D01*
X144414457Y-80401500D01*
X144221170Y-80439947D01*
X144221160Y-80439950D01*
X144039092Y-80515364D01*
X144039079Y-80515371D01*
X143875218Y-80624860D01*
X143875214Y-80624863D01*
X143735863Y-80764214D01*
X143735860Y-80764218D01*
X143622983Y-80933151D01*
X143621534Y-80932182D01*
X143578356Y-80976122D01*
X143510215Y-80991570D01*
X143444540Y-80967725D01*
X143442493Y-80966188D01*
X143436367Y-80961487D01*
X143436365Y-80961485D01*
X143342270Y-80907159D01*
X143305136Y-80885719D01*
X143231950Y-80866109D01*
X143158766Y-80846500D01*
X143007234Y-80846500D01*
X142860863Y-80885719D01*
X142729635Y-80961485D01*
X142729632Y-80961487D01*
X142622487Y-81068632D01*
X142622485Y-81068635D01*
X142598508Y-81110165D01*
X142546719Y-81199865D01*
X142539690Y-81226098D01*
X142518280Y-81306002D01*
X142481915Y-81365662D01*
X142419068Y-81396191D01*
X142349692Y-81387896D01*
X142310824Y-81361589D01*
X142054325Y-81105090D01*
X142054323Y-81105087D01*
X141935452Y-80986216D01*
X141935444Y-80986210D01*
X141833671Y-80927452D01*
X141833669Y-80927451D01*
X141798525Y-80907160D01*
X141798524Y-80907159D01*
X141763372Y-80897740D01*
X141645792Y-80866234D01*
X141487678Y-80866234D01*
X141480082Y-80866234D01*
X141480066Y-80866235D01*
X140149147Y-80866235D01*
X140082108Y-80846550D01*
X140071832Y-80839180D01*
X140068998Y-80836920D01*
X140068997Y-80836919D01*
X139962789Y-80770184D01*
X139916258Y-80740946D01*
X139745989Y-80681366D01*
X139745984Y-80681365D01*
X139566739Y-80661170D01*
X139566731Y-80661170D01*
X139387485Y-80681365D01*
X139387472Y-80681368D01*
X139217215Y-80740944D01*
X139202440Y-80750228D01*
X139135202Y-80769226D01*
X139070499Y-80750226D01*
X138949523Y-80674211D01*
X138779254Y-80614631D01*
X138779249Y-80614630D01*
X138600004Y-80594435D01*
X138599996Y-80594435D01*
X138420750Y-80614630D01*
X138420745Y-80614631D01*
X138250476Y-80674211D01*
X138097737Y-80770184D01*
X137970184Y-80897737D01*
X137970182Y-80897740D01*
X137907214Y-80997952D01*
X137854879Y-81044243D01*
X137785826Y-81054890D01*
X137721978Y-81026515D01*
X137714540Y-81019660D01*
X137656367Y-80961487D01*
X137656365Y-80961485D01*
X137562270Y-80907159D01*
X137525136Y-80885719D01*
X137451950Y-80866109D01*
X137378766Y-80846500D01*
X137227234Y-80846500D01*
X137080863Y-80885719D01*
X136949627Y-80961489D01*
X136943502Y-80966190D01*
X136878333Y-80991383D01*
X136809888Y-80977343D01*
X136763976Y-80932509D01*
X136763017Y-80933151D01*
X136759982Y-80928609D01*
X136759899Y-80928528D01*
X136759766Y-80928286D01*
X136650139Y-80764218D01*
X136650136Y-80764214D01*
X136510785Y-80624863D01*
X136510781Y-80624860D01*
X136346920Y-80515371D01*
X136346907Y-80515364D01*
X136164839Y-80439950D01*
X136164829Y-80439947D01*
X135971543Y-80401500D01*
X135971541Y-80401500D01*
X135774459Y-80401500D01*
X135774457Y-80401500D01*
X135581170Y-80439947D01*
X135581160Y-80439950D01*
X135399092Y-80515364D01*
X135399079Y-80515371D01*
X135235218Y-80624860D01*
X135235214Y-80624863D01*
X135095863Y-80764214D01*
X135095860Y-80764218D01*
X134986371Y-80928079D01*
X134986364Y-80928092D01*
X134910950Y-81110160D01*
X134910947Y-81110170D01*
X134872500Y-81303456D01*
X134872500Y-81303459D01*
X134872500Y-82600541D01*
X134872500Y-82600543D01*
X134872499Y-82600543D01*
X134910947Y-82793829D01*
X134910950Y-82793839D01*
X134986364Y-82975907D01*
X134986371Y-82975920D01*
X135095860Y-83139781D01*
X135095863Y-83139785D01*
X135235214Y-83279136D01*
X135235218Y-83279139D01*
X135399079Y-83388628D01*
X135399092Y-83388635D01*
X135565306Y-83457482D01*
X135581165Y-83464051D01*
X135581169Y-83464051D01*
X135581170Y-83464052D01*
X135774456Y-83502500D01*
X135774459Y-83502500D01*
X135971543Y-83502500D01*
X136101582Y-83476632D01*
X136164835Y-83464051D01*
X136324604Y-83397873D01*
X136346907Y-83388635D01*
X136346907Y-83388634D01*
X136346914Y-83388632D01*
X136406610Y-83348744D01*
X136473286Y-83327867D01*
X136540666Y-83346351D01*
X136587357Y-83398330D01*
X136599500Y-83451847D01*
X136599500Y-84662535D01*
X136599499Y-84662553D01*
X136599499Y-84828259D01*
X136599498Y-84828259D01*
X136640423Y-84980990D01*
X136654010Y-85004523D01*
X136654009Y-85004523D01*
X136654010Y-85004524D01*
X136719475Y-85117914D01*
X136719481Y-85117922D01*
X136838349Y-85236790D01*
X136838355Y-85236795D01*
X137051108Y-85449548D01*
X137084593Y-85510871D01*
X137086647Y-85523345D01*
X137096440Y-85610264D01*
X137156020Y-85780536D01*
X137156021Y-85780537D01*
X137251994Y-85933277D01*
X137379548Y-86060831D01*
X137532288Y-86156804D01*
X137655412Y-86199887D01*
X137702555Y-86216383D01*
X137702560Y-86216384D01*
X137881806Y-86236580D01*
X137881810Y-86236580D01*
X137881814Y-86236580D01*
X138061058Y-86216384D01*
X138061058Y-86216383D01*
X138061065Y-86216383D01*
X138098025Y-86203449D01*
X138167800Y-86199887D01*
X138228428Y-86234615D01*
X138256019Y-86279535D01*
X138274210Y-86331520D01*
X138274210Y-86331522D01*
X138370184Y-86484262D01*
X138497738Y-86611816D01*
X138650478Y-86707789D01*
X138819725Y-86767011D01*
X138820745Y-86767368D01*
X138820750Y-86767369D01*
X138999996Y-86787565D01*
X139000000Y-86787565D01*
X139000004Y-86787565D01*
X139179249Y-86767369D01*
X139179252Y-86767368D01*
X139179255Y-86767368D01*
X139349522Y-86707789D01*
X139502262Y-86611816D01*
X139629816Y-86484262D01*
X139725789Y-86331522D01*
X139785368Y-86161255D01*
X139805565Y-85982000D01*
X139800420Y-85936337D01*
X139785369Y-85802750D01*
X139785368Y-85802745D01*
X139773540Y-85768943D01*
X139725789Y-85632478D01*
X139629816Y-85479738D01*
X139629814Y-85479736D01*
X139629813Y-85479734D01*
X139627550Y-85476896D01*
X139626659Y-85474715D01*
X139626111Y-85473842D01*
X139626264Y-85473745D01*
X139601144Y-85412209D01*
X139600500Y-85399587D01*
X139600500Y-85314412D01*
X139620185Y-85247373D01*
X139627555Y-85237097D01*
X139629810Y-85234267D01*
X139629816Y-85234262D01*
X139725789Y-85081522D01*
X139785368Y-84911255D01*
X139794719Y-84828262D01*
X139805565Y-84732003D01*
X139805565Y-84731996D01*
X139785369Y-84552750D01*
X139785368Y-84552745D01*
X139725788Y-84382476D01*
X139629815Y-84229737D01*
X139502262Y-84102184D01*
X139349523Y-84006211D01*
X139179254Y-83946631D01*
X139179249Y-83946630D01*
X139000004Y-83926435D01*
X138999996Y-83926435D01*
X138820750Y-83946630D01*
X138820745Y-83946631D01*
X138650476Y-84006211D01*
X138497737Y-84102184D01*
X138370184Y-84229737D01*
X138274210Y-84382478D01*
X138214630Y-84552750D01*
X138214463Y-84553485D01*
X138214224Y-84553911D01*
X138212333Y-84559317D01*
X138211385Y-84558985D01*
X138180346Y-84614459D01*
X138118681Y-84647309D01*
X138065993Y-84646770D01*
X138061071Y-84645647D01*
X137974140Y-84635852D01*
X137909726Y-84608785D01*
X137900343Y-84600313D01*
X137836819Y-84536789D01*
X137803334Y-84475466D01*
X137800500Y-84449108D01*
X137800500Y-83100096D01*
X137820185Y-83033057D01*
X137836815Y-83012419D01*
X138618535Y-82230698D01*
X138679856Y-82197215D01*
X138692311Y-82195163D01*
X138779255Y-82185368D01*
X138949522Y-82125789D01*
X138964290Y-82116508D01*
X139031523Y-82097508D01*
X139096234Y-82116508D01*
X139205822Y-82185367D01*
X139217213Y-82192524D01*
X139326314Y-82230700D01*
X139387480Y-82252103D01*
X139387485Y-82252104D01*
X139566731Y-82272300D01*
X139566735Y-82272300D01*
X139566739Y-82272300D01*
X139745984Y-82252104D01*
X139745987Y-82252103D01*
X139745990Y-82252103D01*
X139916257Y-82192524D01*
X140068997Y-82096551D01*
X140069002Y-82096545D01*
X140071832Y-82094290D01*
X140074010Y-82093400D01*
X140074893Y-82092846D01*
X140074990Y-82093000D01*
X140136518Y-82067880D01*
X140149147Y-82067235D01*
X141266638Y-82067235D01*
X141333677Y-82086920D01*
X141354319Y-82103554D01*
X143124867Y-83874102D01*
X143158352Y-83935425D01*
X143153368Y-84005117D01*
X143111496Y-84061050D01*
X143103165Y-84066772D01*
X143097745Y-84070177D01*
X143097739Y-84070182D01*
X142970184Y-84197737D01*
X142874211Y-84350476D01*
X142814631Y-84520745D01*
X142814630Y-84520750D01*
X142794435Y-84699996D01*
X142794435Y-84700002D01*
X142802900Y-84775130D01*
X142800076Y-84812823D01*
X142800560Y-84812887D01*
X142799499Y-84820945D01*
X142799499Y-84989046D01*
X142799500Y-84989059D01*
X142799500Y-89616936D01*
X142779815Y-89683975D01*
X142727011Y-89729730D01*
X142657853Y-89739674D01*
X142634547Y-89733978D01*
X142579260Y-89714633D01*
X142579249Y-89714630D01*
X142400004Y-89694435D01*
X142399996Y-89694435D01*
X142220750Y-89714630D01*
X142220745Y-89714631D01*
X142050476Y-89774211D01*
X141897737Y-89870184D01*
X141770184Y-89997737D01*
X141674211Y-90150476D01*
X141614631Y-90320745D01*
X141614630Y-90320750D01*
X141594435Y-90499996D01*
X141594435Y-90500003D01*
X141614630Y-90679249D01*
X141614631Y-90679254D01*
X141674211Y-90849523D01*
X141700472Y-90891316D01*
X141754832Y-90977830D01*
X141770185Y-91002263D01*
X141772445Y-91005097D01*
X141773334Y-91007275D01*
X141773889Y-91008158D01*
X141773734Y-91008255D01*
X141798855Y-91069783D01*
X141799500Y-91082412D01*
X141799500Y-91317587D01*
X141779815Y-91384626D01*
X141772450Y-91394896D01*
X141770186Y-91397734D01*
X141674211Y-91550476D01*
X141614631Y-91720745D01*
X141614630Y-91720750D01*
X141594435Y-91899996D01*
X141594435Y-91900003D01*
X141614630Y-92079249D01*
X141614631Y-92079254D01*
X141674211Y-92249523D01*
X141767013Y-92397215D01*
X141770184Y-92402262D01*
X141897738Y-92529816D01*
X142050478Y-92625789D01*
X142202758Y-92679074D01*
X142220745Y-92685368D01*
X142220750Y-92685369D01*
X142399996Y-92705565D01*
X142400000Y-92705565D01*
X142400004Y-92705565D01*
X142579249Y-92685369D01*
X142579250Y-92685368D01*
X142579255Y-92685368D01*
X142634545Y-92666020D01*
X142704322Y-92662458D01*
X142764950Y-92697186D01*
X142797178Y-92759179D01*
X142799500Y-92783062D01*
X142799500Y-96170500D01*
X142779815Y-96237539D01*
X142727011Y-96283294D01*
X142675500Y-96294500D01*
X136824500Y-96294500D01*
X136757461Y-96274815D01*
X136711706Y-96222011D01*
X136700500Y-96170500D01*
X136700500Y-92730435D01*
X136720185Y-92663396D01*
X136736815Y-92642758D01*
X136948874Y-92430698D01*
X137010195Y-92397215D01*
X137022650Y-92395163D01*
X137109594Y-92385368D01*
X137279861Y-92325789D01*
X137432601Y-92229816D01*
X137560155Y-92102262D01*
X137656128Y-91949522D01*
X137715707Y-91779255D01*
X137715708Y-91779249D01*
X137735904Y-91600003D01*
X137735904Y-91599996D01*
X137715708Y-91420750D01*
X137715707Y-91420745D01*
X137712525Y-91411650D01*
X137656128Y-91250478D01*
X137643222Y-91229939D01*
X137616913Y-91188068D01*
X137560155Y-91097738D01*
X137432601Y-90970184D01*
X137378260Y-90936039D01*
X137279862Y-90874211D01*
X137109593Y-90814631D01*
X137109588Y-90814630D01*
X136930343Y-90794435D01*
X136930335Y-90794435D01*
X136751089Y-90814630D01*
X136751076Y-90814633D01*
X136580817Y-90874210D01*
X136574545Y-90877231D01*
X136573575Y-90875217D01*
X136516579Y-90891316D01*
X136451888Y-90872317D01*
X136440425Y-90865114D01*
X136270167Y-90805538D01*
X136270154Y-90805535D01*
X136090909Y-90785340D01*
X136090901Y-90785340D01*
X135911655Y-90805535D01*
X135911650Y-90805536D01*
X135741381Y-90865116D01*
X135588642Y-90961089D01*
X135461089Y-91088642D01*
X135365115Y-91241383D01*
X135305535Y-91411655D01*
X135295742Y-91498571D01*
X135268675Y-91562985D01*
X135260205Y-91572366D01*
X135219481Y-91613090D01*
X135209826Y-91629815D01*
X135194761Y-91655909D01*
X135140423Y-91750025D01*
X135099499Y-91902753D01*
X135099499Y-91902755D01*
X135099499Y-92070856D01*
X135099500Y-92070869D01*
X135099500Y-96170500D01*
X135079815Y-96237539D01*
X135027011Y-96283294D01*
X134975500Y-96294500D01*
X134441802Y-96294500D01*
X134308088Y-96312510D01*
X134308080Y-96312511D01*
X134308078Y-96312512D01*
X134308072Y-96312513D01*
X134308066Y-96312515D01*
X134244815Y-96329867D01*
X134244792Y-96329875D01*
X134112702Y-96385974D01*
X134112205Y-96384804D01*
X134057290Y-96400000D01*
X129705242Y-96400000D01*
X129653730Y-96388794D01*
X129602473Y-96365385D01*
X129535203Y-96334663D01*
X129468158Y-96314976D01*
X129405664Y-96305991D01*
X129325741Y-96294500D01*
X129142477Y-96294500D01*
X129075438Y-96274815D01*
X129029683Y-96222011D01*
X129018477Y-96170359D01*
X129019289Y-95455659D01*
X129020010Y-94820286D01*
X129039771Y-94753270D01*
X129092627Y-94707575D01*
X129161796Y-94697710D01*
X129225319Y-94726807D01*
X129256390Y-94768020D01*
X129260965Y-94777830D01*
X129260966Y-94777832D01*
X129260967Y-94777833D01*
X129260967Y-94777834D01*
X129369281Y-94932521D01*
X129396505Y-94971401D01*
X129563599Y-95138495D01*
X129660384Y-95206265D01*
X129757165Y-95274032D01*
X129757167Y-95274033D01*
X129757170Y-95274035D01*
X129971337Y-95373903D01*
X130199592Y-95435063D01*
X130376034Y-95450500D01*
X130434999Y-95455659D01*
X130435000Y-95455659D01*
X130435001Y-95455659D01*
X130493966Y-95450500D01*
X130670408Y-95435063D01*
X130898663Y-95373903D01*
X131112830Y-95274035D01*
X131306401Y-95138495D01*
X131428329Y-95016566D01*
X131489648Y-94983084D01*
X131559340Y-94988068D01*
X131615274Y-95029939D01*
X131632189Y-95060917D01*
X131681202Y-95192328D01*
X131681206Y-95192335D01*
X131767452Y-95307544D01*
X131767455Y-95307547D01*
X131882664Y-95393793D01*
X131882671Y-95393797D01*
X132017517Y-95444091D01*
X132017516Y-95444091D01*
X132024444Y-95444835D01*
X132077127Y-95450500D01*
X133872872Y-95450499D01*
X133932483Y-95444091D01*
X134067331Y-95393796D01*
X134182546Y-95307546D01*
X134268796Y-95192331D01*
X134319091Y-95057483D01*
X134325500Y-94997873D01*
X134325499Y-93202128D01*
X134319091Y-93142517D01*
X134317810Y-93139083D01*
X134268797Y-93007671D01*
X134268793Y-93007664D01*
X134182547Y-92892455D01*
X134182544Y-92892452D01*
X134067335Y-92806206D01*
X134067328Y-92806202D01*
X133932482Y-92755908D01*
X133932483Y-92755908D01*
X133872883Y-92749501D01*
X133872881Y-92749500D01*
X133872873Y-92749500D01*
X133872864Y-92749500D01*
X132077129Y-92749500D01*
X132077123Y-92749501D01*
X132017516Y-92755908D01*
X131882671Y-92806202D01*
X131882664Y-92806206D01*
X131767455Y-92892452D01*
X131767452Y-92892455D01*
X131681206Y-93007664D01*
X131681203Y-93007669D01*
X131632189Y-93139083D01*
X131590317Y-93195016D01*
X131524853Y-93219433D01*
X131456580Y-93204581D01*
X131428326Y-93183430D01*
X131306402Y-93061506D01*
X131306395Y-93061501D01*
X131112834Y-92925967D01*
X131112830Y-92925965D01*
X131112828Y-92925964D01*
X130898663Y-92826097D01*
X130898659Y-92826096D01*
X130898655Y-92826094D01*
X130670413Y-92764938D01*
X130670403Y-92764936D01*
X130435001Y-92744341D01*
X130434999Y-92744341D01*
X130199596Y-92764936D01*
X130199586Y-92764938D01*
X129971344Y-92826094D01*
X129971335Y-92826098D01*
X129757171Y-92925964D01*
X129757169Y-92925965D01*
X129563597Y-93061505D01*
X129396505Y-93228597D01*
X129260965Y-93422169D01*
X129260964Y-93422171D01*
X129258030Y-93428464D01*
X129211855Y-93480901D01*
X129144660Y-93500050D01*
X129077780Y-93479831D01*
X129032448Y-93426663D01*
X129021650Y-93375915D01*
X129024315Y-91029517D01*
X129044076Y-90962502D01*
X129096932Y-90916807D01*
X129166101Y-90906942D01*
X129229624Y-90936039D01*
X129257798Y-90973410D01*
X129258260Y-90973144D01*
X129260423Y-90976891D01*
X129260696Y-90977253D01*
X129260964Y-90977828D01*
X129260967Y-90977834D01*
X129369281Y-91132521D01*
X129396505Y-91171401D01*
X129563599Y-91338495D01*
X129644148Y-91394896D01*
X129757165Y-91474032D01*
X129757167Y-91474033D01*
X129757170Y-91474035D01*
X129971337Y-91573903D01*
X130199592Y-91635063D01*
X130376034Y-91650500D01*
X130434999Y-91655659D01*
X130435000Y-91655659D01*
X130435001Y-91655659D01*
X130493966Y-91650500D01*
X130670408Y-91635063D01*
X130898663Y-91573903D01*
X131112830Y-91474035D01*
X131306401Y-91338495D01*
X131428329Y-91216566D01*
X131489648Y-91183084D01*
X131559340Y-91188068D01*
X131615274Y-91229939D01*
X131632189Y-91260917D01*
X131681202Y-91392328D01*
X131681206Y-91392335D01*
X131767452Y-91507544D01*
X131767455Y-91507547D01*
X131882664Y-91593793D01*
X131882671Y-91593797D01*
X132017517Y-91644091D01*
X132017516Y-91644091D01*
X132019842Y-91644341D01*
X132077127Y-91650500D01*
X133872872Y-91650499D01*
X133932483Y-91644091D01*
X134067331Y-91593796D01*
X134182546Y-91507546D01*
X134268796Y-91392331D01*
X134319091Y-91257483D01*
X134325500Y-91197873D01*
X134325499Y-89402128D01*
X134319091Y-89342517D01*
X134317810Y-89339083D01*
X134268797Y-89207671D01*
X134268793Y-89207664D01*
X134182547Y-89092455D01*
X134182544Y-89092452D01*
X134067335Y-89006206D01*
X134067328Y-89006202D01*
X133932482Y-88955908D01*
X133932483Y-88955908D01*
X133872883Y-88949501D01*
X133872881Y-88949500D01*
X133872873Y-88949500D01*
X133872864Y-88949500D01*
X132077129Y-88949500D01*
X132077123Y-88949501D01*
X132017516Y-88955908D01*
X131882671Y-89006202D01*
X131882664Y-89006206D01*
X131767455Y-89092452D01*
X131767452Y-89092455D01*
X131681206Y-89207664D01*
X131681203Y-89207669D01*
X131632189Y-89339083D01*
X131590317Y-89395016D01*
X131524853Y-89419433D01*
X131456580Y-89404581D01*
X131428326Y-89383430D01*
X131306402Y-89261506D01*
X131306395Y-89261501D01*
X131112834Y-89125967D01*
X131112830Y-89125965D01*
X131046391Y-89094984D01*
X130898663Y-89026097D01*
X130898659Y-89026096D01*
X130898655Y-89026094D01*
X130670413Y-88964938D01*
X130670403Y-88964936D01*
X130435001Y-88944341D01*
X130434999Y-88944341D01*
X130199596Y-88964936D01*
X130199586Y-88964938D01*
X129971344Y-89026094D01*
X129971335Y-89026098D01*
X129757171Y-89125964D01*
X129757169Y-89125965D01*
X129563597Y-89261505D01*
X129396505Y-89428597D01*
X129260965Y-89622169D01*
X129258257Y-89626861D01*
X129256503Y-89625848D01*
X129216137Y-89671651D01*
X129148934Y-89690772D01*
X129082063Y-89670525D01*
X129036753Y-89617338D01*
X129025976Y-89566638D01*
X129028734Y-87138225D01*
X129048495Y-87071211D01*
X129101351Y-87025516D01*
X129170520Y-87015651D01*
X129234043Y-87044748D01*
X129257739Y-87073480D01*
X129257860Y-87073396D01*
X129258926Y-87074918D01*
X129260119Y-87076365D01*
X129260965Y-87077831D01*
X129366242Y-87228182D01*
X129396505Y-87271401D01*
X129563599Y-87438495D01*
X129660384Y-87506265D01*
X129757165Y-87574032D01*
X129757167Y-87574033D01*
X129757170Y-87574035D01*
X129971337Y-87673903D01*
X130199592Y-87735063D01*
X130376034Y-87750500D01*
X130434999Y-87755659D01*
X130435000Y-87755659D01*
X130435001Y-87755659D01*
X130493966Y-87750500D01*
X130670408Y-87735063D01*
X130898663Y-87673903D01*
X131112830Y-87574035D01*
X131306401Y-87438495D01*
X131428329Y-87316566D01*
X131489648Y-87283084D01*
X131559340Y-87288068D01*
X131615274Y-87329939D01*
X131632189Y-87360917D01*
X131681202Y-87492328D01*
X131681206Y-87492335D01*
X131767452Y-87607544D01*
X131767455Y-87607547D01*
X131882664Y-87693793D01*
X131882671Y-87693797D01*
X132017517Y-87744091D01*
X132017516Y-87744091D01*
X132024444Y-87744835D01*
X132077127Y-87750500D01*
X133872872Y-87750499D01*
X133932483Y-87744091D01*
X134067331Y-87693796D01*
X134182546Y-87607546D01*
X134268796Y-87492331D01*
X134319091Y-87357483D01*
X134325500Y-87297873D01*
X134325499Y-85502128D01*
X134319091Y-85442517D01*
X134317810Y-85439083D01*
X134268797Y-85307671D01*
X134268793Y-85307664D01*
X134182547Y-85192455D01*
X134182544Y-85192452D01*
X134067335Y-85106206D01*
X134067328Y-85106202D01*
X133932482Y-85055908D01*
X133932483Y-85055908D01*
X133872883Y-85049501D01*
X133872881Y-85049500D01*
X133872873Y-85049500D01*
X133872864Y-85049500D01*
X132077129Y-85049500D01*
X132077123Y-85049501D01*
X132017516Y-85055908D01*
X131882671Y-85106202D01*
X131882664Y-85106206D01*
X131767455Y-85192452D01*
X131767452Y-85192455D01*
X131681206Y-85307664D01*
X131681203Y-85307669D01*
X131632189Y-85439083D01*
X131590317Y-85495016D01*
X131524853Y-85519433D01*
X131456580Y-85504581D01*
X131428326Y-85483430D01*
X131306402Y-85361506D01*
X131306395Y-85361501D01*
X131112834Y-85225967D01*
X131112830Y-85225965D01*
X131112828Y-85225964D01*
X130898663Y-85126097D01*
X130898659Y-85126096D01*
X130898655Y-85126094D01*
X130670413Y-85064938D01*
X130670403Y-85064936D01*
X130435001Y-85044341D01*
X130434999Y-85044341D01*
X130199596Y-85064936D01*
X130199586Y-85064938D01*
X129971344Y-85126094D01*
X129971335Y-85126098D01*
X129757171Y-85225964D01*
X129757169Y-85225965D01*
X129563597Y-85361505D01*
X129396505Y-85528597D01*
X129257860Y-85726605D01*
X129256576Y-85725706D01*
X129211221Y-85768943D01*
X129142613Y-85782157D01*
X129077751Y-85756181D01*
X129037230Y-85699262D01*
X129030415Y-85658579D01*
X129030503Y-85581587D01*
X129033115Y-83281266D01*
X129052876Y-83214250D01*
X129105732Y-83168555D01*
X129174901Y-83158690D01*
X129238424Y-83187787D01*
X129258690Y-83210285D01*
X129306900Y-83279136D01*
X129371505Y-83371401D01*
X129538599Y-83538495D01*
X129635384Y-83606265D01*
X129732165Y-83674032D01*
X129732167Y-83674033D01*
X129732170Y-83674035D01*
X129946337Y-83773903D01*
X130174592Y-83835063D01*
X130351034Y-83850500D01*
X130409999Y-83855659D01*
X130410000Y-83855659D01*
X130410001Y-83855659D01*
X130468966Y-83850500D01*
X130645408Y-83835063D01*
X130873663Y-83773903D01*
X131087830Y-83674035D01*
X131281401Y-83538495D01*
X131403329Y-83416566D01*
X131464648Y-83383084D01*
X131534340Y-83388068D01*
X131590274Y-83429939D01*
X131607189Y-83460917D01*
X131656202Y-83592328D01*
X131656206Y-83592335D01*
X131742452Y-83707544D01*
X131742455Y-83707547D01*
X131857664Y-83793793D01*
X131857671Y-83793797D01*
X131992517Y-83844091D01*
X131992516Y-83844091D01*
X131999444Y-83844835D01*
X132052127Y-83850500D01*
X133847872Y-83850499D01*
X133907483Y-83844091D01*
X134042331Y-83793796D01*
X134157546Y-83707546D01*
X134243796Y-83592331D01*
X134294091Y-83457483D01*
X134300500Y-83397873D01*
X134300499Y-81602128D01*
X134294091Y-81542517D01*
X134292810Y-81539083D01*
X134243797Y-81407671D01*
X134243793Y-81407664D01*
X134157547Y-81292455D01*
X134157544Y-81292452D01*
X134042335Y-81206206D01*
X134042328Y-81206202D01*
X133907482Y-81155908D01*
X133907483Y-81155908D01*
X133847883Y-81149501D01*
X133847881Y-81149500D01*
X133847873Y-81149500D01*
X133847864Y-81149500D01*
X132052129Y-81149500D01*
X132052123Y-81149501D01*
X131992516Y-81155908D01*
X131857671Y-81206202D01*
X131857664Y-81206206D01*
X131742455Y-81292452D01*
X131742452Y-81292455D01*
X131656206Y-81407664D01*
X131656203Y-81407669D01*
X131607189Y-81539083D01*
X131565317Y-81595016D01*
X131499853Y-81619433D01*
X131431580Y-81604581D01*
X131403326Y-81583430D01*
X131281402Y-81461506D01*
X131281395Y-81461501D01*
X131087834Y-81325967D01*
X131087830Y-81325965D01*
X131039559Y-81303456D01*
X130873663Y-81226097D01*
X130873659Y-81226096D01*
X130873655Y-81226094D01*
X130645413Y-81164938D01*
X130645403Y-81164936D01*
X130410001Y-81144341D01*
X130409999Y-81144341D01*
X130174596Y-81164936D01*
X130174586Y-81164938D01*
X129946344Y-81226094D01*
X129946335Y-81226098D01*
X129732171Y-81325964D01*
X129732169Y-81325965D01*
X129538597Y-81461505D01*
X129371508Y-81628594D01*
X129260467Y-81787177D01*
X129205890Y-81830802D01*
X129136391Y-81837994D01*
X129074037Y-81806472D01*
X129038623Y-81746242D01*
X129034892Y-81715918D01*
X129038919Y-78170543D01*
X134872499Y-78170543D01*
X134910947Y-78363829D01*
X134910950Y-78363839D01*
X134986364Y-78545907D01*
X134986371Y-78545920D01*
X135095860Y-78709781D01*
X135095863Y-78709785D01*
X135235214Y-78849136D01*
X135235218Y-78849139D01*
X135399079Y-78958628D01*
X135399092Y-78958635D01*
X135581160Y-79034049D01*
X135581165Y-79034051D01*
X135581169Y-79034051D01*
X135581170Y-79034052D01*
X135774456Y-79072500D01*
X135774459Y-79072500D01*
X135971543Y-79072500D01*
X136101582Y-79046632D01*
X136164835Y-79034051D01*
X136346914Y-78958632D01*
X136510782Y-78849139D01*
X136650139Y-78709782D01*
X136759632Y-78545914D01*
X136835051Y-78363835D01*
X136873500Y-78170543D01*
X143512499Y-78170543D01*
X143550947Y-78363829D01*
X143550950Y-78363839D01*
X143626364Y-78545907D01*
X143626371Y-78545920D01*
X143735860Y-78709781D01*
X143735863Y-78709785D01*
X143875214Y-78849136D01*
X143875218Y-78849139D01*
X144039079Y-78958628D01*
X144039092Y-78958635D01*
X144221160Y-79034049D01*
X144221165Y-79034051D01*
X144221169Y-79034051D01*
X144221170Y-79034052D01*
X144414456Y-79072500D01*
X144414459Y-79072500D01*
X144611543Y-79072500D01*
X144741582Y-79046632D01*
X144804835Y-79034051D01*
X144986914Y-78958632D01*
X145150782Y-78849139D01*
X145290139Y-78709782D01*
X145399632Y-78545914D01*
X145475051Y-78363835D01*
X145513500Y-78170541D01*
X145513500Y-77373459D01*
X145513500Y-77373456D01*
X145475052Y-77180170D01*
X145475051Y-77180169D01*
X145475051Y-77180165D01*
X145466978Y-77160674D01*
X145399635Y-76998092D01*
X145399628Y-76998079D01*
X145290139Y-76834218D01*
X145290136Y-76834214D01*
X145150785Y-76694863D01*
X145150781Y-76694860D01*
X144986920Y-76585371D01*
X144986907Y-76585364D01*
X144804839Y-76509950D01*
X144804829Y-76509947D01*
X144611543Y-76471500D01*
X144611541Y-76471500D01*
X144414459Y-76471500D01*
X144414457Y-76471500D01*
X144221170Y-76509947D01*
X144221160Y-76509950D01*
X144039092Y-76585364D01*
X144039079Y-76585371D01*
X143875218Y-76694860D01*
X143875214Y-76694863D01*
X143735863Y-76834214D01*
X143735860Y-76834218D01*
X143626371Y-76998079D01*
X143626364Y-76998092D01*
X143550950Y-77180160D01*
X143550947Y-77180170D01*
X143512500Y-77373456D01*
X143512500Y-77373459D01*
X143512500Y-78170541D01*
X143512500Y-78170543D01*
X143512499Y-78170543D01*
X136873500Y-78170543D01*
X136873500Y-78170541D01*
X136873500Y-77373459D01*
X136873500Y-77373456D01*
X136835052Y-77180170D01*
X136835051Y-77180169D01*
X136835051Y-77180165D01*
X136826978Y-77160674D01*
X136759635Y-76998092D01*
X136759628Y-76998079D01*
X136650139Y-76834218D01*
X136650136Y-76834214D01*
X136510785Y-76694863D01*
X136510781Y-76694860D01*
X136346920Y-76585371D01*
X136346907Y-76585364D01*
X136164839Y-76509950D01*
X136164829Y-76509947D01*
X135971543Y-76471500D01*
X135971541Y-76471500D01*
X135774459Y-76471500D01*
X135774457Y-76471500D01*
X135581170Y-76509947D01*
X135581160Y-76509950D01*
X135399092Y-76585364D01*
X135399079Y-76585371D01*
X135235218Y-76694860D01*
X135235214Y-76694863D01*
X135095863Y-76834214D01*
X135095860Y-76834218D01*
X134986371Y-76998079D01*
X134986364Y-76998092D01*
X134910950Y-77180160D01*
X134910947Y-77180170D01*
X134872500Y-77373456D01*
X134872500Y-77373459D01*
X134872500Y-78170541D01*
X134872500Y-78170543D01*
X134872499Y-78170543D01*
X129038919Y-78170543D01*
X129039981Y-77235265D01*
X129040064Y-77234039D01*
X129040064Y-77226566D01*
X129040064Y-77166072D01*
X129040534Y-77155305D01*
X129053708Y-77004785D01*
X129057462Y-76983506D01*
X129057475Y-76983459D01*
X129095158Y-76842833D01*
X129102544Y-76822541D01*
X129164101Y-76690541D01*
X129174897Y-76671841D01*
X129258441Y-76552531D01*
X129272323Y-76535988D01*
X129375312Y-76433002D01*
X129391848Y-76419127D01*
X129511159Y-76335586D01*
X129529863Y-76324787D01*
X129661865Y-76263235D01*
X129682162Y-76255848D01*
X129822839Y-76218154D01*
X129844117Y-76214403D01*
X129900097Y-76209506D01*
X129995069Y-76201198D01*
X130005875Y-76200726D01*
X130072293Y-76200726D01*
X130075739Y-76200500D01*
X147934108Y-76200500D01*
X147994588Y-76200500D01*
X148005395Y-76200972D01*
G37*
%TD.AperFunction*%
%TD*%
M02*
