%TF.GenerationSoftware,KiCad,Pcbnew,8.0.7*%
%TF.CreationDate,2025-01-08T16:46:30+01:00*%
%TF.ProjectId,PD_trigger-board,50445f74-7269-4676-9765-722d626f6172,rev?*%
%TF.SameCoordinates,Original*%
%TF.FileFunction,Copper,L1,Top*%
%TF.FilePolarity,Positive*%
%FSLAX46Y46*%
G04 Gerber Fmt 4.6, Leading zero omitted, Abs format (unit mm)*
G04 Created by KiCad (PCBNEW 8.0.7) date 2025-01-08 16:46:30*
%MOMM*%
%LPD*%
G01*
G04 APERTURE LIST*
G04 Aperture macros list*
%AMRoundRect*
0 Rectangle with rounded corners*
0 $1 Rounding radius*
0 $2 $3 $4 $5 $6 $7 $8 $9 X,Y pos of 4 corners*
0 Add a 4 corners polygon primitive as box body*
4,1,4,$2,$3,$4,$5,$6,$7,$8,$9,$2,$3,0*
0 Add four circle primitives for the rounded corners*
1,1,$1+$1,$2,$3*
1,1,$1+$1,$4,$5*
1,1,$1+$1,$6,$7*
1,1,$1+$1,$8,$9*
0 Add four rect primitives between the rounded corners*
20,1,$1+$1,$2,$3,$4,$5,0*
20,1,$1+$1,$4,$5,$6,$7,0*
20,1,$1+$1,$6,$7,$8,$9,0*
20,1,$1+$1,$8,$9,$2,$3,0*%
%AMOutline4P*
0 Free polygon, 4 corners , with rotation*
0 The origin of the aperture is its center*
0 number of corners: always 4*
0 $1 to $8 corner X, Y*
0 $9 Rotation angle, in degrees counterclockwise*
0 create outline with 4 corners*
4,1,4,$1,$2,$3,$4,$5,$6,$7,$8,$1,$2,$9*%
G04 Aperture macros list end*
%TA.AperFunction,SMDPad,CuDef*%
%ADD10RoundRect,0.135000X0.185000X-0.135000X0.185000X0.135000X-0.185000X0.135000X-0.185000X-0.135000X0*%
%TD*%
%TA.AperFunction,SMDPad,CuDef*%
%ADD11RoundRect,0.150000X0.150000X0.425000X-0.150000X0.425000X-0.150000X-0.425000X0.150000X-0.425000X0*%
%TD*%
%TA.AperFunction,SMDPad,CuDef*%
%ADD12RoundRect,0.075000X0.075000X0.500000X-0.075000X0.500000X-0.075000X-0.500000X0.075000X-0.500000X0*%
%TD*%
%TA.AperFunction,SMDPad,CuDef*%
%ADD13RoundRect,0.250000X0.840000X0.750000X-0.840000X0.750000X-0.840000X-0.750000X0.840000X-0.750000X0*%
%TD*%
%TA.AperFunction,SMDPad,CuDef*%
%ADD14RoundRect,0.135000X-0.185000X0.135000X-0.185000X-0.135000X0.185000X-0.135000X0.185000X0.135000X0*%
%TD*%
%TA.AperFunction,SMDPad,CuDef*%
%ADD15R,1.460500X0.558800*%
%TD*%
%TA.AperFunction,ComponentPad*%
%ADD16R,2.760000X1.524000*%
%TD*%
%TA.AperFunction,SMDPad,CuDef*%
%ADD17Outline4P,-0.500000X-0.250000X0.500000X-0.250000X0.000000X0.250000X0.000000X0.250000X180.000000*%
%TD*%
%TA.AperFunction,ComponentPad*%
%ADD18C,1.524000*%
%TD*%
%TA.AperFunction,SMDPad,CuDef*%
%ADD19Outline4P,-0.500000X-0.250000X0.500000X-0.250000X0.000000X0.250000X0.000000X0.250000X0.000000*%
%TD*%
%TA.AperFunction,SMDPad,CuDef*%
%ADD20RoundRect,0.225000X-0.250000X0.225000X-0.250000X-0.225000X0.250000X-0.225000X0.250000X0.225000X0*%
%TD*%
%TA.AperFunction,SMDPad,CuDef*%
%ADD21R,0.300000X0.650000*%
%TD*%
%TA.AperFunction,SMDPad,CuDef*%
%ADD22R,2.480000X1.550000*%
%TD*%
%TA.AperFunction,SMDPad,CuDef*%
%ADD23RoundRect,0.225000X0.250000X-0.225000X0.250000X0.225000X-0.250000X0.225000X-0.250000X-0.225000X0*%
%TD*%
%TA.AperFunction,ViaPad*%
%ADD24C,0.600000*%
%TD*%
%TA.AperFunction,Conductor*%
%ADD25C,0.200000*%
%TD*%
%TA.AperFunction,Conductor*%
%ADD26C,0.500000*%
%TD*%
%TA.AperFunction,Conductor*%
%ADD27C,0.300000*%
%TD*%
G04 APERTURE END LIST*
D10*
%TO.P,R6,1*%
%TO.N,VSET*%
X134500000Y-87110000D03*
%TO.P,R6,2*%
%TO.N,Net-(U3-SET_12V)*%
X134500000Y-86090000D03*
%TD*%
D11*
%TO.P,J1,A1,GND*%
%TO.N,GND*%
X143393000Y-82502000D03*
%TO.P,J1,A4,VBUS*%
%TO.N,VBUS*%
X142593000Y-82502000D03*
D12*
%TO.P,J1,A5,CC1*%
%TO.N,CC1*%
X141443000Y-82502000D03*
%TO.P,J1,A6,D+*%
%TO.N,D+*%
X140443000Y-82502000D03*
%TO.P,J1,A7,D-*%
%TO.N,D-*%
X139943000Y-82502000D03*
%TO.P,J1,A8*%
%TO.N,N/C*%
X138943000Y-82502000D03*
D11*
%TO.P,J1,A9,VBUS*%
%TO.N,VBUS*%
X137793000Y-82502000D03*
%TO.P,J1,A12,GND*%
%TO.N,GND*%
X136993000Y-82502000D03*
%TO.P,J1,B1,GND*%
X136993000Y-82502000D03*
%TO.P,J1,B4,VBUS*%
%TO.N,VBUS*%
X137793000Y-82502000D03*
D12*
%TO.P,J1,B5,CC2*%
%TO.N,CC2*%
X138443000Y-82502000D03*
%TO.P,J1,B6,D+*%
%TO.N,D+*%
X139443000Y-82502000D03*
%TO.P,J1,B7,D-*%
%TO.N,D-*%
X140943000Y-82502000D03*
%TO.P,J1,B8*%
%TO.N,N/C*%
X141943000Y-82502000D03*
D11*
%TO.P,J1,B9,VBUS*%
%TO.N,VBUS*%
X142593000Y-82502000D03*
%TO.P,J1,B12,GND*%
%TO.N,GND*%
X143393000Y-82502000D03*
D13*
%TO.P,J1,S1,SHIELD*%
X145303000Y-81927000D03*
X145303000Y-77997000D03*
X135083000Y-81927000D03*
X135083000Y-77997000D03*
%TD*%
D14*
%TO.P,R3,1*%
%TO.N,VBUS*%
X136400000Y-93635000D03*
%TO.P,R3,2*%
%TO.N,Net-(U2-G)*%
X136400000Y-94655000D03*
%TD*%
D10*
%TO.P,R5,1*%
%TO.N,VSET*%
X134500000Y-85010000D03*
%TO.P,R5,2*%
%TO.N,Net-(U3-SET_9V)*%
X134500000Y-83990000D03*
%TD*%
%TO.P,R9,1*%
%TO.N,Net-(U1-ISET)*%
X143900000Y-87510000D03*
%TO.P,R9,2*%
%TO.N,GND*%
X143900000Y-86490000D03*
%TD*%
D14*
%TO.P,R1,1*%
%TO.N,VBUS*%
X143900000Y-84390000D03*
%TO.P,R1,2*%
%TO.N,Net-(U1-VIN)*%
X143900000Y-85410000D03*
%TD*%
D15*
%TO.P,U2,1,S*%
%TO.N,VBUS*%
X138175850Y-91095000D03*
%TO.P,U2,2,S*%
X138175850Y-92365000D03*
%TO.P,U2,3,S*%
X138175850Y-93635000D03*
%TO.P,U2,4,G*%
%TO.N,Net-(U2-G)*%
X138175850Y-94905000D03*
%TO.P,U2,5,D*%
%TO.N,VOUT*%
X143624150Y-94905000D03*
%TO.P,U2,6,D*%
X143624150Y-93635000D03*
%TO.P,U2,7,D*%
X143624150Y-92365000D03*
%TO.P,U2,8,D*%
X143624150Y-91095000D03*
%TD*%
D16*
%TO.P,U3,1,SET_5V*%
%TO.N,VSET*%
X131081000Y-77597000D03*
D17*
X131843000Y-78486000D03*
D18*
X132461000Y-77597000D03*
D16*
%TO.P,U3,2,GND*%
%TO.N,GND*%
X131081000Y-80137000D03*
D19*
X131843000Y-79248000D03*
D17*
X131843000Y-81026000D03*
D18*
X132461000Y-80137000D03*
D16*
%TO.P,U3,3,SET_9V*%
%TO.N,Net-(U3-SET_9V)*%
X131081000Y-82677000D03*
D19*
X131843000Y-81788000D03*
D18*
X132461000Y-82677000D03*
D16*
%TO.P,U3,4,SET_12V*%
%TO.N,Net-(U3-SET_12V)*%
X131081000Y-85217000D03*
D17*
X131843000Y-86106000D03*
D18*
X132461000Y-85217000D03*
D16*
%TO.P,U3,5,GND*%
%TO.N,GND*%
X131098000Y-87757000D03*
D19*
X131843000Y-86868000D03*
D17*
X131843000Y-88646000D03*
D18*
X132461000Y-87757000D03*
D16*
%TO.P,U3,6,SET_15V*%
%TO.N,Net-(U3-SET_15V)*%
X131098000Y-90297000D03*
D19*
X131843000Y-89408000D03*
D18*
X132461000Y-90297000D03*
D16*
%TO.P,U3,7,SET_18V*%
%TO.N,Net-(U3-SET_18V)*%
X131098000Y-92837000D03*
D17*
X131843000Y-93726000D03*
D18*
X132461000Y-92837000D03*
D16*
%TO.P,U3,8,GND*%
%TO.N,GND*%
X131098000Y-95377000D03*
D19*
X131843000Y-94488000D03*
D17*
X131843000Y-96266000D03*
D18*
X132461000Y-95377000D03*
D16*
%TO.P,U3,9,SET_20V*%
%TO.N,unconnected-(U3-SET_20V-Pad9)*%
X131081000Y-97917000D03*
D19*
X131843000Y-97028000D03*
D18*
X132461000Y-97917000D03*
%TO.P,U3,10,GND*%
%TO.N,GND*%
X147701000Y-97917000D03*
D16*
X149081000Y-97917000D03*
D18*
%TO.P,U3,11,VOUT*%
%TO.N,VOUT*%
X147701000Y-95377000D03*
D16*
X149081000Y-95377000D03*
D18*
%TO.P,U3,12*%
%TO.N,unconnected-(U3-Pad12)*%
X147701000Y-92837000D03*
D16*
X149081000Y-92837000D03*
D18*
%TO.P,U3,13*%
%TO.N,unconnected-(U3-Pad13)*%
X147701000Y-90297000D03*
D16*
X149081000Y-90297000D03*
D18*
%TO.P,U3,14,SDA*%
%TO.N,SDA*%
X147701000Y-87757000D03*
D16*
X149064000Y-87757000D03*
D18*
%TO.P,U3,15,SCL*%
%TO.N,SCL*%
X147701000Y-85217000D03*
D16*
X149064000Y-85217000D03*
D18*
%TO.P,U3,16,GND*%
%TO.N,GND*%
X147701000Y-82677000D03*
D16*
X149064000Y-82677000D03*
D18*
%TO.P,U3,17,D-*%
%TO.N,D-*%
X147701000Y-80137000D03*
D16*
X149064000Y-80137000D03*
D18*
%TO.P,U3,18,D+*%
%TO.N,D+*%
X147701000Y-77597000D03*
D16*
X149081000Y-77597000D03*
%TD*%
D20*
%TO.P,C2,1*%
%TO.N,VOUT*%
X144200000Y-96325000D03*
%TO.P,C2,2*%
%TO.N,GND*%
X144200000Y-97875000D03*
%TD*%
D14*
%TO.P,R7,1*%
%TO.N,VSET*%
X134500000Y-89277000D03*
%TO.P,R7,2*%
%TO.N,Net-(U3-SET_15V)*%
X134500000Y-90297000D03*
%TD*%
D21*
%TO.P,U1,1,VIN*%
%TO.N,Net-(U1-VIN)*%
X140900000Y-84650000D03*
%TO.P,U1,2,D+*%
%TO.N,D+*%
X140400000Y-84650000D03*
%TO.P,U1,3,D-*%
%TO.N,D-*%
X139900000Y-84650000D03*
%TO.P,U1,4,CC1*%
%TO.N,CC1*%
X139400000Y-84650000D03*
%TO.P,U1,5,CC2*%
%TO.N,CC2*%
X138900000Y-84650000D03*
%TO.P,U1,6,SDA*%
%TO.N,SDA*%
X138900000Y-87750000D03*
%TO.P,U1,7,SCL*%
%TO.N,SCL*%
X139400000Y-87750000D03*
%TO.P,U1,8,VSET*%
%TO.N,VSET*%
X139900000Y-87750000D03*
%TO.P,U1,9,ISET*%
%TO.N,Net-(U1-ISET)*%
X140400000Y-87750000D03*
%TO.P,U1,10,GATE*%
%TO.N,GATE*%
X140900000Y-87750000D03*
D22*
%TO.P,U1,11,GND*%
%TO.N,GND*%
X139900000Y-86200000D03*
%TD*%
D14*
%TO.P,R4,1*%
%TO.N,Net-(U2-G)*%
X136400000Y-95690000D03*
%TO.P,R4,2*%
%TO.N,GATE*%
X136400000Y-96710000D03*
%TD*%
D23*
%TO.P,C4,1*%
%TO.N,VOUT*%
X145900000Y-93630230D03*
%TO.P,C4,2*%
%TO.N,GND*%
X145900000Y-92080230D03*
%TD*%
D20*
%TO.P,C3,1*%
%TO.N,VOUT*%
X145900000Y-95425000D03*
%TO.P,C3,2*%
%TO.N,GND*%
X145900000Y-96975000D03*
%TD*%
D14*
%TO.P,R8,1*%
%TO.N,VSET*%
X134500000Y-91817000D03*
%TO.P,R8,2*%
%TO.N,Net-(U3-SET_18V)*%
X134500000Y-92837000D03*
%TD*%
D20*
%TO.P,C1,1*%
%TO.N,Net-(U1-VIN)*%
X142600000Y-84725000D03*
%TO.P,C1,2*%
%TO.N,GND*%
X142600000Y-86275000D03*
%TD*%
D24*
%TO.N,GND*%
X134300000Y-81227000D03*
X146093000Y-77300000D03*
X146093000Y-82627000D03*
X146093000Y-81227000D03*
X144513000Y-78700000D03*
X144513000Y-81227000D03*
X144513000Y-77300000D03*
X134300000Y-78700000D03*
X144513000Y-82627000D03*
X134300000Y-82627000D03*
X145900000Y-90800000D03*
X134300000Y-77300000D03*
X146093000Y-78700000D03*
%TO.N,D-*%
X140000000Y-81200000D03*
X141200000Y-81200000D03*
%TO.N,VSET*%
X135600000Y-92900000D03*
X143041284Y-88900000D03*
%TO.N,VBUS*%
X138175850Y-89900000D03*
X137793000Y-83700000D03*
X136400000Y-92365000D03*
X142593000Y-83700000D03*
X136400000Y-91095000D03*
%TO.N,CC1*%
X139400000Y-83700000D03*
X141443000Y-83700000D03*
%TO.N,GATE*%
X142300000Y-87700000D03*
X137200000Y-96700000D03*
%TD*%
D25*
%TO.N,GND*%
X145700954Y-90800954D02*
X145700000Y-90800000D01*
D26*
X136993000Y-82502000D02*
X136418000Y-81927000D01*
D25*
X135083000Y-81927000D02*
X135083000Y-82183000D01*
D26*
X135332420Y-82183000D02*
X136300000Y-83150580D01*
X145303000Y-81927000D02*
X145303000Y-84697000D01*
D25*
X135083000Y-77997000D02*
X135003000Y-77997000D01*
X144650000Y-77450000D02*
X144500000Y-77300000D01*
X131825000Y-87550000D02*
X132675000Y-88400000D01*
D26*
X143393000Y-82502000D02*
X144402000Y-82502000D01*
X144402000Y-82502000D02*
X144500000Y-82600000D01*
X135083000Y-82183000D02*
X135083000Y-77997000D01*
D27*
X145900000Y-91881184D02*
X145900000Y-90800954D01*
D25*
X134973000Y-81927000D02*
X134300000Y-82600000D01*
D26*
X145303000Y-77997000D02*
X142897000Y-77997000D01*
D25*
X135083000Y-77997000D02*
X135197000Y-77997000D01*
D26*
X136418000Y-81927000D02*
X135083000Y-81927000D01*
X135083000Y-82183000D02*
X135332420Y-82183000D01*
X136300000Y-83150580D02*
X136300000Y-83400000D01*
D25*
X135003000Y-77997000D02*
X134300000Y-78700000D01*
X135083000Y-77997000D02*
X135203000Y-77997000D01*
X135083000Y-77997000D02*
X134997000Y-77997000D01*
X135203000Y-77997000D02*
X135900000Y-77300000D01*
D26*
X147701000Y-97917000D02*
X147701000Y-97801000D01*
D25*
X134997000Y-77997000D02*
X134300000Y-77300000D01*
X135197000Y-77997000D02*
X135900000Y-78700000D01*
D26*
%TO.N,VOUT*%
X144405000Y-94905000D02*
X144925000Y-95425000D01*
X144200000Y-96100000D02*
X143700000Y-95600000D01*
X143628920Y-93630230D02*
X143624150Y-93635000D01*
X144200000Y-96325000D02*
X144200000Y-96100000D01*
D25*
X145730230Y-93630230D02*
X145725460Y-93635000D01*
D26*
X145039172Y-95585828D02*
X145200000Y-95425000D01*
X145725460Y-93635000D02*
X145720690Y-93630230D01*
X145900000Y-95539172D02*
X146560828Y-96200000D01*
X145200000Y-95425000D02*
X145900000Y-95425000D01*
X145039172Y-96100000D02*
X145039172Y-95585828D01*
D25*
X145900000Y-93630230D02*
X145730230Y-93630230D01*
D26*
X143700000Y-94980850D02*
X143624150Y-94905000D01*
X143700000Y-95600000D02*
X143700000Y-94980850D01*
X146900000Y-96178000D02*
X147701000Y-95377000D01*
X143624150Y-94905000D02*
X144405000Y-94905000D01*
X146800000Y-93900000D02*
X146800000Y-94476000D01*
X145720690Y-93630230D02*
X143628920Y-93630230D01*
X144200000Y-96325000D02*
X144814172Y-96325000D01*
X146530230Y-93630230D02*
X146800000Y-93900000D01*
D25*
X145954230Y-93630230D02*
X145900000Y-93630230D01*
D26*
X146800000Y-94476000D02*
X147701000Y-95377000D01*
X144925000Y-95425000D02*
X145200000Y-95425000D01*
D25*
X145900000Y-95125000D02*
X145900000Y-95300000D01*
D26*
X146900000Y-96200000D02*
X146900000Y-96178000D01*
X145900000Y-95425000D02*
X145900000Y-93630230D01*
X145900000Y-95425000D02*
X145900000Y-95539172D01*
X145900000Y-93630230D02*
X146530230Y-93630230D01*
X146560828Y-96200000D02*
X146900000Y-96200000D01*
X144814172Y-96325000D02*
X145039172Y-96100000D01*
D25*
%TO.N,D+*%
X140400000Y-83700000D02*
X140400000Y-84650000D01*
X146500000Y-79700000D02*
X141851471Y-79700000D01*
X140248529Y-80600000D02*
X139751471Y-80600000D01*
X139751471Y-80600000D02*
X139400000Y-80951471D01*
X147701000Y-78499000D02*
X146500000Y-79700000D01*
X147701000Y-77597000D02*
X147701000Y-78499000D01*
X139400000Y-82459000D02*
X139443000Y-82502000D01*
X140443000Y-82502000D02*
X140443000Y-81605529D01*
X140443000Y-82502000D02*
X140443000Y-83657000D01*
X139400000Y-80951471D02*
X139400000Y-82459000D01*
X141851471Y-79700000D02*
X140600000Y-80951471D01*
X140600000Y-80951471D02*
X140248529Y-80600000D01*
X140443000Y-81605529D02*
X140600000Y-81448529D01*
X140443000Y-84607000D02*
X140400000Y-84650000D01*
X140443000Y-83657000D02*
X140400000Y-83700000D01*
X140600000Y-81448529D02*
X140600000Y-80951471D01*
%TO.N,D-*%
X139943000Y-83394471D02*
X140000000Y-83451471D01*
X140943000Y-81671215D02*
X141200000Y-81414215D01*
X141200000Y-81200000D02*
X142263000Y-80137000D01*
X140943000Y-82502000D02*
X140943000Y-81671215D01*
X139943000Y-82502000D02*
X139943000Y-83394471D01*
X139943000Y-81257000D02*
X140000000Y-81200000D01*
X140000000Y-84025000D02*
X139900000Y-84125000D01*
X140000000Y-83451471D02*
X140000000Y-84025000D01*
X141200000Y-81414215D02*
X141200000Y-81200000D01*
X139943000Y-82502000D02*
X139900000Y-82459000D01*
X142263000Y-80137000D02*
X147684000Y-80137000D01*
X139943000Y-84607000D02*
X139900000Y-84650000D01*
X139943000Y-82502000D02*
X139943000Y-81257000D01*
X139900000Y-84125000D02*
X139900000Y-84650000D01*
X139900000Y-82545000D02*
X139943000Y-82502000D01*
%TO.N,VSET*%
X134552917Y-91817000D02*
X135600000Y-92864083D01*
X134545000Y-87110000D02*
X134500000Y-87110000D01*
X134551819Y-91817000D02*
X134500000Y-91817000D01*
X134500000Y-89290000D02*
X134539485Y-89290000D01*
X139850000Y-87800000D02*
X139900000Y-87750000D01*
X142665684Y-88900000D02*
X142465684Y-89100000D01*
X134500000Y-91790000D02*
X134550060Y-91790000D01*
X133523000Y-78659000D02*
X133523000Y-82741744D01*
X140100000Y-89100000D02*
X139850000Y-88850000D01*
X135120000Y-84452827D02*
X134562827Y-85010000D01*
X135200000Y-91168819D02*
X134551819Y-91817000D01*
X134500000Y-91817000D02*
X134552917Y-91817000D01*
X134459306Y-89290000D02*
X134500000Y-89290000D01*
X134500000Y-85010000D02*
X134586403Y-85010000D01*
X134868924Y-83420000D02*
X135120000Y-83671076D01*
X139850000Y-88850000D02*
X139850000Y-87800000D01*
X143041284Y-88900000D02*
X142665684Y-88900000D01*
X134586403Y-85010000D02*
X135120000Y-85543597D01*
X135120000Y-83671076D02*
X135120000Y-84452827D01*
X134500000Y-87110000D02*
X134500000Y-89277000D01*
X134500000Y-89277000D02*
X134555987Y-89277000D01*
X134500000Y-87110000D02*
X134463966Y-87110000D01*
X142465684Y-89100000D02*
X140100000Y-89100000D01*
X134545963Y-91790000D02*
X134500000Y-91790000D01*
X132461000Y-77597000D02*
X133523000Y-78659000D01*
X135120000Y-86535000D02*
X134545000Y-87110000D01*
X134201256Y-83420000D02*
X134868924Y-83420000D01*
X133523000Y-82741744D02*
X134201256Y-83420000D01*
X134555987Y-89277000D02*
X135200000Y-89921013D01*
X135600000Y-92839940D02*
X135600000Y-92900000D01*
X135120000Y-85543597D02*
X135120000Y-86535000D01*
X135600000Y-92864083D02*
X135600000Y-92900000D01*
X135200000Y-89921013D02*
X135200000Y-91168819D01*
X134562827Y-85010000D02*
X134500000Y-85010000D01*
%TO.N,VBUS*%
X138565000Y-93635000D02*
X138600000Y-93600000D01*
X142593000Y-83700000D02*
X143700000Y-83700000D01*
X143900000Y-83900000D02*
X143900000Y-84390000D01*
X138595000Y-91095000D02*
X138600000Y-91100000D01*
X136400000Y-92365000D02*
X136400000Y-93635000D01*
D26*
X136400000Y-92365000D02*
X138175850Y-92365000D01*
D25*
X138175850Y-93635000D02*
X138565000Y-93635000D01*
X136400000Y-93635000D02*
X138175850Y-93635000D01*
D26*
X138175850Y-92365000D02*
X138175850Y-91095000D01*
X136400000Y-91095000D02*
X138175850Y-91095000D01*
D25*
X137793000Y-83700000D02*
X137793000Y-82502000D01*
X143700000Y-83700000D02*
X143900000Y-83900000D01*
X138175850Y-91095000D02*
X138595000Y-91095000D01*
D26*
X138175850Y-89900000D02*
X138175850Y-91095000D01*
D25*
X138565000Y-92365000D02*
X138600000Y-92400000D01*
D26*
X138175850Y-92365000D02*
X138175850Y-93635000D01*
D25*
X142593000Y-82502000D02*
X142593000Y-83700000D01*
X138175850Y-92365000D02*
X138565000Y-92365000D01*
X136400000Y-92372009D02*
X136410287Y-92361722D01*
%TO.N,CC1*%
X141475038Y-82534038D02*
X141443000Y-82502000D01*
X139400000Y-83757000D02*
X139343000Y-83700000D01*
X141443000Y-83700000D02*
X141443000Y-82502000D01*
X141400000Y-82545000D02*
X141443000Y-82502000D01*
X139400000Y-83700000D02*
X139400000Y-84650000D01*
%TO.N,CC2*%
X138400000Y-82459000D02*
X138443000Y-82502000D01*
X138443000Y-82867000D02*
X138400000Y-82910000D01*
X138423673Y-82521327D02*
X138443000Y-82502000D01*
X138443000Y-83843000D02*
X138443000Y-82502000D01*
X138900000Y-84650000D02*
X138900000Y-84300000D01*
X138900000Y-84300000D02*
X138443000Y-83843000D01*
%TO.N,SCL*%
X139765686Y-89500000D02*
X145375314Y-89500000D01*
X147684000Y-85616000D02*
X147684000Y-85217000D01*
X147352500Y-85710000D02*
X147362500Y-85720000D01*
X146622000Y-88253314D02*
X146622000Y-86279000D01*
X139400000Y-89134314D02*
X139765686Y-89500000D01*
X147667000Y-85200000D02*
X147684000Y-85217000D01*
X146622000Y-86279000D02*
X147684000Y-85217000D01*
X145375314Y-89500000D02*
X146622000Y-88253314D01*
X139400000Y-87750000D02*
X139400000Y-89134314D01*
%TO.N,SDA*%
X138900000Y-87750000D02*
X138900000Y-89200000D01*
X139600000Y-89900000D02*
X145541000Y-89900000D01*
X138900000Y-89200000D02*
X139600000Y-89900000D01*
X145541000Y-89900000D02*
X147684000Y-87757000D01*
%TO.N,GATE*%
X142300000Y-87700000D02*
X142300000Y-88100000D01*
X136400000Y-96710000D02*
X137190000Y-96710000D01*
X142300000Y-88100000D02*
X142100000Y-88300000D01*
X140900000Y-88200000D02*
X140900000Y-87750000D01*
X141000000Y-88300000D02*
X140900000Y-88200000D01*
X137190000Y-96710000D02*
X137200000Y-96700000D01*
X142100000Y-88300000D02*
X141000000Y-88300000D01*
%TO.N,Net-(U3-SET_9V)*%
X132461000Y-82677000D02*
X133774000Y-83990000D01*
X133774000Y-83990000D02*
X134500000Y-83990000D01*
%TO.N,Net-(U3-SET_12V)*%
X132461000Y-85217000D02*
X133573833Y-85217000D01*
X133573833Y-85217000D02*
X134446833Y-86090000D01*
X134446833Y-86090000D02*
X134500000Y-86090000D01*
%TO.N,Net-(U3-SET_15V)*%
X132555000Y-90220000D02*
X132478000Y-90297000D01*
X132478000Y-90297000D02*
X134500000Y-90297000D01*
%TO.N,Net-(U3-SET_18V)*%
X134500000Y-92837000D02*
X132478000Y-92837000D01*
%TO.N,Net-(U1-ISET)*%
X140400000Y-87750000D02*
X140400000Y-88600000D01*
X142899999Y-88100000D02*
X143700000Y-88100000D01*
X140500000Y-88700000D02*
X142299999Y-88700000D01*
X140400000Y-88600000D02*
X140500000Y-88700000D01*
X143900000Y-87900000D02*
X143900000Y-87510000D01*
X143700000Y-88100000D02*
X143900000Y-87900000D01*
X142299999Y-88700000D02*
X142899999Y-88100000D01*
%TO.N,Net-(U1-VIN)*%
X140900000Y-84650000D02*
X142525000Y-84650000D01*
X142600000Y-84725000D02*
X142625000Y-84725000D01*
X143310000Y-85410000D02*
X143900000Y-85410000D01*
X142525000Y-84650000D02*
X142600000Y-84725000D01*
X142625000Y-84725000D02*
X143310000Y-85410000D01*
%TO.N,Net-(U2-G)*%
X137005000Y-94905000D02*
X138175850Y-94905000D01*
X136810000Y-94710000D02*
X137005000Y-94905000D01*
X136400000Y-95690000D02*
X136400000Y-94710000D01*
X136400000Y-94710000D02*
X136810000Y-94710000D01*
%TD*%
%TA.AperFunction,Conductor*%
%TO.N,GND*%
G36*
X133897443Y-93457185D02*
G01*
X133918085Y-93473819D01*
X133922396Y-93478130D01*
X133922400Y-93478133D01*
X133922402Y-93478135D01*
X134060607Y-93559869D01*
X134101268Y-93571682D01*
X134214791Y-93604664D01*
X134214794Y-93604664D01*
X134214796Y-93604665D01*
X134250819Y-93607500D01*
X134749180Y-93607499D01*
X134785204Y-93604665D01*
X134939393Y-93559869D01*
X134980527Y-93535541D01*
X135048246Y-93518359D01*
X135109617Y-93537280D01*
X135145565Y-93559868D01*
X135250475Y-93625788D01*
X135250478Y-93625789D01*
X135420745Y-93685368D01*
X135469385Y-93690848D01*
X135533796Y-93717913D01*
X135573352Y-93775508D01*
X135579500Y-93814063D01*
X135579500Y-93834166D01*
X135579501Y-93834192D01*
X135582335Y-93870205D01*
X135627129Y-94024388D01*
X135627132Y-94024395D01*
X135661128Y-94081881D01*
X135678309Y-94149605D01*
X135661128Y-94208119D01*
X135627132Y-94265604D01*
X135627129Y-94265611D01*
X135582335Y-94419791D01*
X135582334Y-94419797D01*
X135579500Y-94455811D01*
X135579500Y-94854169D01*
X135579501Y-94854191D01*
X135582335Y-94890205D01*
X135627129Y-95044388D01*
X135627130Y-95044391D01*
X135665564Y-95109380D01*
X135682746Y-95177104D01*
X135665564Y-95235620D01*
X135627130Y-95300608D01*
X135627129Y-95300611D01*
X135582335Y-95454791D01*
X135582334Y-95454797D01*
X135579500Y-95490811D01*
X135579500Y-95889169D01*
X135579501Y-95889191D01*
X135582335Y-95925205D01*
X135627129Y-96079388D01*
X135627132Y-96079395D01*
X135661128Y-96136881D01*
X135678309Y-96204605D01*
X135661128Y-96263119D01*
X135627132Y-96320604D01*
X135627129Y-96320611D01*
X135582335Y-96474791D01*
X135582334Y-96474797D01*
X135579500Y-96510811D01*
X135579500Y-96909169D01*
X135579501Y-96909191D01*
X135582335Y-96945205D01*
X135627129Y-97099388D01*
X135627131Y-97099393D01*
X135708863Y-97237595D01*
X135708869Y-97237603D01*
X135822396Y-97351130D01*
X135822400Y-97351133D01*
X135822402Y-97351135D01*
X135960607Y-97432869D01*
X135981593Y-97438966D01*
X136114791Y-97477664D01*
X136114794Y-97477664D01*
X136114796Y-97477665D01*
X136150819Y-97480500D01*
X136649180Y-97480499D01*
X136685204Y-97477665D01*
X136818406Y-97438966D01*
X136888273Y-97439165D01*
X136893945Y-97440998D01*
X137006833Y-97480500D01*
X137020748Y-97485369D01*
X137199996Y-97505565D01*
X137200000Y-97505565D01*
X137200004Y-97505565D01*
X137379249Y-97485369D01*
X137379252Y-97485368D01*
X137379255Y-97485368D01*
X137549522Y-97425789D01*
X137702262Y-97329816D01*
X137829816Y-97202262D01*
X137925789Y-97049522D01*
X137948717Y-96983998D01*
X137989439Y-96927222D01*
X138054392Y-96901474D01*
X138067530Y-96900965D01*
X138825873Y-96911798D01*
X143300103Y-96975715D01*
X143366850Y-96996354D01*
X143386008Y-97012020D01*
X143386660Y-97012672D01*
X143420145Y-97073995D01*
X143415161Y-97143687D01*
X143386663Y-97188031D01*
X143377428Y-97197265D01*
X143377424Y-97197271D01*
X143288457Y-97341507D01*
X143288452Y-97341518D01*
X143235144Y-97502393D01*
X143225000Y-97601677D01*
X143225000Y-97625000D01*
X145181000Y-97625000D01*
X145248039Y-97644685D01*
X145293794Y-97697489D01*
X145305000Y-97749000D01*
X145305000Y-97839022D01*
X145341516Y-97861546D01*
X145502393Y-97914855D01*
X145601683Y-97924999D01*
X145649999Y-97924998D01*
X145650000Y-97924998D01*
X145650000Y-97099000D01*
X145669685Y-97031961D01*
X145722489Y-96986206D01*
X145774000Y-96975000D01*
X145900000Y-96975000D01*
X145900000Y-96893055D01*
X145919685Y-96826016D01*
X145972489Y-96780261D01*
X146041647Y-96770317D01*
X146092888Y-96789952D01*
X146140341Y-96821658D01*
X146205333Y-96865084D01*
X146205334Y-96865084D01*
X146205335Y-96865085D01*
X146341910Y-96921656D01*
X146341915Y-96921658D01*
X146341919Y-96921658D01*
X146341920Y-96921659D01*
X146486907Y-96950500D01*
X146486910Y-96950500D01*
X146973918Y-96950500D01*
X147004110Y-96944494D01*
X147073700Y-96950720D01*
X147115983Y-96978430D01*
X147673553Y-97536000D01*
X147650840Y-97536000D01*
X147553939Y-97561964D01*
X147467060Y-97612124D01*
X147396124Y-97683060D01*
X147345964Y-97769939D01*
X147320000Y-97866840D01*
X147320000Y-97889553D01*
X146655447Y-97225000D01*
X146150000Y-97225000D01*
X146150000Y-97924999D01*
X146198308Y-97924999D01*
X146198322Y-97924998D01*
X146304341Y-97914168D01*
X146304564Y-97916352D01*
X146363903Y-97920792D01*
X146419699Y-97962846D01*
X146443717Y-98026023D01*
X146453424Y-98136976D01*
X146453426Y-98136986D01*
X146510575Y-98350270D01*
X146510580Y-98350284D01*
X146603898Y-98550405D01*
X146603901Y-98550411D01*
X146649258Y-98615187D01*
X146649258Y-98615188D01*
X147320000Y-97944446D01*
X147320000Y-97967160D01*
X147345964Y-98064061D01*
X147396124Y-98150940D01*
X147467060Y-98221876D01*
X147553939Y-98272036D01*
X147650840Y-98298000D01*
X147673552Y-98298000D01*
X147000266Y-98971285D01*
X146988427Y-99030192D01*
X146939812Y-99080376D01*
X146878666Y-99096500D01*
X133366308Y-99096500D01*
X133299269Y-99076815D01*
X133253514Y-99024011D01*
X133243570Y-98954853D01*
X133272595Y-98891297D01*
X133278627Y-98884819D01*
X133349721Y-98813725D01*
X133431826Y-98731620D01*
X133558534Y-98550662D01*
X133651894Y-98350450D01*
X133706054Y-98148322D01*
X143225001Y-98148322D01*
X143235144Y-98247607D01*
X143288452Y-98408481D01*
X143288457Y-98408492D01*
X143377424Y-98552728D01*
X143377427Y-98552732D01*
X143497267Y-98672572D01*
X143497271Y-98672575D01*
X143641507Y-98761542D01*
X143641518Y-98761547D01*
X143802393Y-98814855D01*
X143901683Y-98824999D01*
X144450000Y-98824999D01*
X144498308Y-98824999D01*
X144498322Y-98824998D01*
X144597607Y-98814855D01*
X144758481Y-98761547D01*
X144758492Y-98761542D01*
X144902728Y-98672575D01*
X144902732Y-98672572D01*
X145022572Y-98552732D01*
X145022575Y-98552728D01*
X145111542Y-98408492D01*
X145111547Y-98408481D01*
X145164855Y-98247606D01*
X145174999Y-98148322D01*
X145175000Y-98148309D01*
X145175000Y-98125000D01*
X144450000Y-98125000D01*
X144450000Y-98824999D01*
X143901683Y-98824999D01*
X143949999Y-98824998D01*
X143950000Y-98824998D01*
X143950000Y-98125000D01*
X143225001Y-98125000D01*
X143225001Y-98148322D01*
X133706054Y-98148322D01*
X133709070Y-98137068D01*
X133728323Y-97917000D01*
X133728266Y-97916352D01*
X133720528Y-97827904D01*
X133709070Y-97696932D01*
X133651894Y-97483550D01*
X133558534Y-97283339D01*
X133431826Y-97102380D01*
X133275620Y-96946174D01*
X133275616Y-96946171D01*
X133275615Y-96946170D01*
X133094666Y-96819468D01*
X133094662Y-96819466D01*
X132965218Y-96759105D01*
X132912779Y-96712932D01*
X132893627Y-96645739D01*
X132913843Y-96578858D01*
X132965219Y-96534340D01*
X133094416Y-96474095D01*
X133094417Y-96474094D01*
X133159188Y-96428741D01*
X132488447Y-95758000D01*
X132511160Y-95758000D01*
X132608061Y-95732036D01*
X132694940Y-95681876D01*
X132765876Y-95610940D01*
X132816036Y-95524061D01*
X132842000Y-95427160D01*
X132842000Y-95404447D01*
X133512741Y-96075188D01*
X133558094Y-96010417D01*
X133558100Y-96010407D01*
X133651419Y-95810284D01*
X133651424Y-95810270D01*
X133708573Y-95596986D01*
X133708575Y-95596976D01*
X133727821Y-95377000D01*
X133727821Y-95376999D01*
X133708575Y-95157023D01*
X133708573Y-95157013D01*
X133651424Y-94943729D01*
X133651420Y-94943720D01*
X133558096Y-94743586D01*
X133512741Y-94678811D01*
X133512740Y-94678810D01*
X132842000Y-95349551D01*
X132842000Y-95326840D01*
X132816036Y-95229939D01*
X132765876Y-95143060D01*
X132694940Y-95072124D01*
X132608061Y-95021964D01*
X132511160Y-94996000D01*
X132488446Y-94996000D01*
X133159188Y-94325258D01*
X133094411Y-94279901D01*
X133094405Y-94279898D01*
X132965219Y-94219658D01*
X132912779Y-94173486D01*
X132893627Y-94106293D01*
X132913843Y-94039411D01*
X132965219Y-93994894D01*
X133094662Y-93934534D01*
X133275620Y-93807826D01*
X133431826Y-93651620D01*
X133517114Y-93529816D01*
X133544730Y-93490377D01*
X133599307Y-93446752D01*
X133646305Y-93437500D01*
X133830404Y-93437500D01*
X133897443Y-93457185D01*
G37*
%TD.AperFunction*%
%TA.AperFunction,Conductor*%
G36*
X136283109Y-81454404D02*
G01*
X136327457Y-81482905D01*
X136956181Y-82111629D01*
X136989666Y-82172952D01*
X136992500Y-82199310D01*
X136992500Y-82804689D01*
X136972815Y-82871728D01*
X136956181Y-82892370D01*
X136422656Y-83425894D01*
X136441442Y-83444681D01*
X136441447Y-83444685D01*
X136582803Y-83528282D01*
X136582806Y-83528283D01*
X136740504Y-83574099D01*
X136740510Y-83574100D01*
X136777350Y-83576999D01*
X136777366Y-83577000D01*
X136863435Y-83577000D01*
X136930474Y-83596685D01*
X136976229Y-83649489D01*
X136985734Y-83693184D01*
X136986655Y-83693081D01*
X137007630Y-83879249D01*
X137007631Y-83879254D01*
X137067211Y-84049523D01*
X137156001Y-84190830D01*
X137163184Y-84202262D01*
X137290738Y-84329816D01*
X137360682Y-84373765D01*
X137413777Y-84407127D01*
X137443478Y-84425789D01*
X137501455Y-84446076D01*
X137613745Y-84485368D01*
X137613750Y-84485369D01*
X137792996Y-84505565D01*
X137793000Y-84505565D01*
X137793004Y-84505565D01*
X137972249Y-84485369D01*
X137972252Y-84485368D01*
X137972255Y-84485368D01*
X137972256Y-84485367D01*
X137972259Y-84485367D01*
X138029846Y-84465215D01*
X138084545Y-84446075D01*
X138154323Y-84442513D01*
X138214951Y-84477242D01*
X138247178Y-84539235D01*
X138249500Y-84563117D01*
X138249500Y-85022870D01*
X138249501Y-85022879D01*
X138255204Y-85075932D01*
X138242797Y-85144691D01*
X138231182Y-85163493D01*
X138216648Y-85182907D01*
X138216645Y-85182913D01*
X138166403Y-85317620D01*
X138166401Y-85317627D01*
X138160000Y-85377155D01*
X138160000Y-85950000D01*
X141646000Y-85950000D01*
X141713039Y-85969685D01*
X141731440Y-85990921D01*
X141733681Y-85988681D01*
X141770000Y-86025000D01*
X143246254Y-86025000D01*
X143313293Y-86044685D01*
X143322254Y-86051020D01*
X143322399Y-86051132D01*
X143322402Y-86051135D01*
X143460607Y-86132869D01*
X143504020Y-86145481D01*
X143620880Y-86179433D01*
X143620230Y-86181668D01*
X143673252Y-86208350D01*
X143676244Y-86211244D01*
X143705000Y-86240000D01*
X144712844Y-86240000D01*
X144672404Y-86100805D01*
X144620839Y-86013612D01*
X144603656Y-85945888D01*
X144620838Y-85887372D01*
X144672869Y-85799393D01*
X144708863Y-85675500D01*
X144717664Y-85645208D01*
X144717665Y-85645202D01*
X144720500Y-85609181D01*
X144720499Y-85210820D01*
X144717665Y-85174796D01*
X144672869Y-85020607D01*
X144638869Y-84963117D01*
X144621688Y-84895398D01*
X144638869Y-84836882D01*
X144672869Y-84779393D01*
X144700406Y-84684612D01*
X144717664Y-84625208D01*
X144717665Y-84625202D01*
X144720499Y-84589188D01*
X144720500Y-84589181D01*
X144720499Y-84190820D01*
X144717665Y-84154796D01*
X144672869Y-84000607D01*
X144591135Y-83862402D01*
X144505993Y-83777260D01*
X144473902Y-83721676D01*
X144459577Y-83668216D01*
X144427696Y-83612997D01*
X144411225Y-83545098D01*
X144434078Y-83479071D01*
X144489000Y-83435881D01*
X144535085Y-83426999D01*
X146192971Y-83426999D01*
X146192987Y-83426998D01*
X146295697Y-83416505D01*
X146403297Y-83380850D01*
X146403298Y-83380849D01*
X145213905Y-82191456D01*
X145180420Y-82130133D01*
X145185404Y-82060441D01*
X145213905Y-82016094D01*
X145392095Y-81837904D01*
X145453418Y-81804419D01*
X145523110Y-81809403D01*
X145567457Y-81837904D01*
X146876998Y-83147445D01*
X147320000Y-82704443D01*
X147320000Y-82727160D01*
X147345964Y-82824061D01*
X147396124Y-82910940D01*
X147467060Y-82981876D01*
X147553939Y-83032036D01*
X147650840Y-83058000D01*
X147673552Y-83058000D01*
X147002810Y-83728740D01*
X147067589Y-83774098D01*
X147196781Y-83834342D01*
X147249220Y-83880514D01*
X147268372Y-83947708D01*
X147248156Y-84014589D01*
X147196781Y-84059106D01*
X147067340Y-84119465D01*
X147067338Y-84119466D01*
X146886377Y-84246175D01*
X146730175Y-84402377D01*
X146603466Y-84583338D01*
X146603465Y-84583340D01*
X146510107Y-84783548D01*
X146510104Y-84783554D01*
X146452930Y-84996929D01*
X146452929Y-84996937D01*
X146433677Y-85216997D01*
X146433677Y-85217002D01*
X146443303Y-85327034D01*
X146451331Y-85418796D01*
X146452930Y-85437066D01*
X146452930Y-85437070D01*
X146468586Y-85495497D01*
X146466923Y-85565347D01*
X146436492Y-85615271D01*
X146253286Y-85798478D01*
X146141481Y-85910282D01*
X146141479Y-85910285D01*
X146125710Y-85937598D01*
X146098507Y-85984716D01*
X146062423Y-86047215D01*
X146021499Y-86199943D01*
X146021499Y-86199945D01*
X146021499Y-86368046D01*
X146021500Y-86368059D01*
X146021500Y-86708431D01*
X146001815Y-86775470D01*
X145949011Y-86821225D01*
X145902523Y-86832329D01*
X144843695Y-86875254D01*
X144775913Y-86858301D01*
X144728057Y-86807394D01*
X144716453Y-86744806D01*
X144712844Y-86740000D01*
X144160409Y-86740000D01*
X144150680Y-86739618D01*
X144149186Y-86739500D01*
X143650830Y-86739500D01*
X143650813Y-86739501D01*
X143649692Y-86739589D01*
X143649330Y-86739618D01*
X143639607Y-86740000D01*
X143074000Y-86740000D01*
X143006961Y-86720315D01*
X142961206Y-86667511D01*
X142950000Y-86616000D01*
X142950000Y-86525000D01*
X141619000Y-86525000D01*
X141551961Y-86505315D01*
X141533559Y-86484078D01*
X141531319Y-86486319D01*
X141495000Y-86450000D01*
X138160000Y-86450000D01*
X138160000Y-86466318D01*
X138140315Y-86533357D01*
X138087511Y-86579112D01*
X138031494Y-86590236D01*
X135839994Y-86510544D01*
X135773714Y-86488436D01*
X135729908Y-86434004D01*
X135720500Y-86386626D01*
X135720500Y-85464542D01*
X135720500Y-85464540D01*
X135697504Y-85378716D01*
X135679577Y-85311812D01*
X135644178Y-85250500D01*
X135644178Y-85250499D01*
X135600522Y-85174884D01*
X135600521Y-85174883D01*
X135600520Y-85174881D01*
X135511531Y-85085892D01*
X135478047Y-85024568D01*
X135483031Y-84954877D01*
X135511529Y-84910533D01*
X135600520Y-84821543D01*
X135679577Y-84684611D01*
X135720501Y-84531884D01*
X135720501Y-84373769D01*
X135720501Y-84366174D01*
X135720500Y-84366156D01*
X135720500Y-83592021D01*
X135720499Y-83592014D01*
X135718108Y-83583090D01*
X135719772Y-83513240D01*
X135758935Y-83455378D01*
X135823164Y-83427876D01*
X135837883Y-83426999D01*
X135972973Y-83426999D01*
X135972985Y-83426998D01*
X136050117Y-83419117D01*
X135973904Y-83342904D01*
X135940419Y-83281581D01*
X135945403Y-83211889D01*
X135973904Y-83167542D01*
X136639446Y-82501999D01*
X135973905Y-81836458D01*
X135940420Y-81775135D01*
X135945404Y-81705443D01*
X135973905Y-81661096D01*
X136062999Y-81572001D01*
X136152094Y-81482905D01*
X136213417Y-81449420D01*
X136283109Y-81454404D01*
G37*
%TD.AperFunction*%
%TA.AperFunction,Conductor*%
G36*
X143827285Y-76617185D02*
G01*
X143873040Y-76669989D01*
X143882984Y-76739147D01*
X143865785Y-76786597D01*
X143778643Y-76927875D01*
X143778641Y-76927880D01*
X143723494Y-77094302D01*
X143723493Y-77094309D01*
X143713000Y-77197013D01*
X143713000Y-78796971D01*
X143713001Y-78796987D01*
X143723494Y-78899697D01*
X143735688Y-78936496D01*
X143738090Y-79006325D01*
X143702358Y-79066366D01*
X143639838Y-79097559D01*
X143617982Y-79099500D01*
X141930528Y-79099500D01*
X141772413Y-79099500D01*
X141619686Y-79140423D01*
X141619685Y-79140423D01*
X141619683Y-79140424D01*
X141619680Y-79140425D01*
X141569567Y-79169359D01*
X141569566Y-79169360D01*
X141526160Y-79194420D01*
X141482756Y-79219479D01*
X141482753Y-79219481D01*
X141370949Y-79331286D01*
X140662659Y-80039575D01*
X140601336Y-80073060D01*
X140531644Y-80068076D01*
X140512983Y-80059284D01*
X140497218Y-80050183D01*
X140497211Y-80050179D01*
X140480314Y-80040423D01*
X140477149Y-80039575D01*
X140327586Y-79999499D01*
X140169472Y-79999499D01*
X140161876Y-79999499D01*
X140161860Y-79999500D01*
X139672414Y-79999500D01*
X139519685Y-80040423D01*
X139502789Y-80050179D01*
X139502786Y-80050180D01*
X139382761Y-80119475D01*
X139382753Y-80119481D01*
X138919481Y-80582753D01*
X138919477Y-80582758D01*
X138899410Y-80617518D01*
X138899409Y-80617520D01*
X138840423Y-80719686D01*
X138799499Y-80872414D01*
X138799499Y-80872416D01*
X138799499Y-81040517D01*
X138799500Y-81040530D01*
X138799500Y-81317199D01*
X138779815Y-81384238D01*
X138727011Y-81429993D01*
X138659315Y-81440138D01*
X138555730Y-81426501D01*
X138555725Y-81426500D01*
X138555720Y-81426500D01*
X138330280Y-81426500D01*
X138330272Y-81426500D01*
X138217766Y-81441312D01*
X138217764Y-81441313D01*
X138203905Y-81447053D01*
X138134438Y-81454521D01*
X138121865Y-81451568D01*
X138082479Y-81440125D01*
X138045570Y-81429402D01*
X138045567Y-81429401D01*
X138008701Y-81426500D01*
X138008694Y-81426500D01*
X137993816Y-81426500D01*
X137926777Y-81406815D01*
X137881022Y-81354011D01*
X137874041Y-81334593D01*
X137862715Y-81292322D01*
X137839281Y-81204865D01*
X137763515Y-81073635D01*
X137656365Y-80966485D01*
X137590750Y-80928602D01*
X137525136Y-80890719D01*
X137451950Y-80871109D01*
X137378766Y-80851500D01*
X137227234Y-80851500D01*
X137080863Y-80890719D01*
X136949635Y-80966485D01*
X136861732Y-81054388D01*
X136800408Y-81087872D01*
X136730717Y-81082888D01*
X136674783Y-81041016D01*
X136656345Y-81005710D01*
X136607358Y-80857880D01*
X136607356Y-80857875D01*
X136568565Y-80794985D01*
X136568563Y-80794985D01*
X135347456Y-82016094D01*
X135286133Y-82049579D01*
X135216441Y-82044595D01*
X135172094Y-82016094D01*
X134993904Y-81837904D01*
X134960419Y-81776581D01*
X134965403Y-81706889D01*
X134993904Y-81662542D01*
X136183297Y-80473149D01*
X136183297Y-80473148D01*
X136075697Y-80437494D01*
X135972986Y-80427000D01*
X134247500Y-80427000D01*
X134180461Y-80407315D01*
X134134706Y-80354511D01*
X134123500Y-80303000D01*
X134123500Y-79620999D01*
X134143185Y-79553960D01*
X134195989Y-79508205D01*
X134247500Y-79496999D01*
X135972971Y-79496999D01*
X135972987Y-79496998D01*
X136075697Y-79486505D01*
X136183297Y-79450850D01*
X136183298Y-79450849D01*
X134993905Y-78261456D01*
X134960420Y-78200133D01*
X134965404Y-78130441D01*
X134993905Y-78086094D01*
X135172095Y-77907905D01*
X135233418Y-77874420D01*
X135303110Y-77879404D01*
X135347457Y-77907905D01*
X136568564Y-79129012D01*
X136568565Y-79129012D01*
X136607355Y-79066126D01*
X136607358Y-79066119D01*
X136662505Y-78899697D01*
X136662506Y-78899690D01*
X136672999Y-78796986D01*
X136672999Y-77197028D01*
X136672998Y-77197012D01*
X136662505Y-77094302D01*
X136607358Y-76927880D01*
X136607356Y-76927875D01*
X136520215Y-76786597D01*
X136501775Y-76719204D01*
X136522698Y-76652541D01*
X136576340Y-76607771D01*
X136625754Y-76597500D01*
X143760246Y-76597500D01*
X143827285Y-76617185D01*
G37*
%TD.AperFunction*%
%TD*%
%TA.AperFunction,Conductor*%
%TO.N,VOUT*%
G36*
X142366224Y-90520185D02*
G01*
X142411979Y-90572989D01*
X142421923Y-90642147D01*
X142415367Y-90667834D01*
X142400302Y-90708223D01*
X142400301Y-90708227D01*
X142393900Y-90767755D01*
X142393900Y-90845000D01*
X143500150Y-90845000D01*
X143567189Y-90864685D01*
X143612944Y-90917489D01*
X143624150Y-90969000D01*
X143624150Y-91095000D01*
X143750150Y-91095000D01*
X143817189Y-91114685D01*
X143862944Y-91167489D01*
X143874150Y-91219000D01*
X143874150Y-94781000D01*
X143854465Y-94848039D01*
X143801661Y-94893794D01*
X143750150Y-94905000D01*
X143624150Y-94905000D01*
X143624150Y-95031000D01*
X143604465Y-95098039D01*
X143551661Y-95143794D01*
X143500150Y-95155000D01*
X142393900Y-95155000D01*
X142393900Y-95232227D01*
X142393901Y-95232246D01*
X142397180Y-95262745D01*
X142384775Y-95331504D01*
X142337165Y-95382642D01*
X142273891Y-95400000D01*
X141724000Y-95400000D01*
X141656961Y-95380315D01*
X141611206Y-95327511D01*
X141600000Y-95276000D01*
X141600000Y-93962244D01*
X142393900Y-93962244D01*
X142400301Y-94021772D01*
X142400303Y-94021779D01*
X142450545Y-94156486D01*
X142450547Y-94156489D01*
X142479892Y-94195689D01*
X142504309Y-94261154D01*
X142489457Y-94329426D01*
X142479892Y-94344311D01*
X142450547Y-94383510D01*
X142450545Y-94383513D01*
X142400303Y-94518220D01*
X142400301Y-94518227D01*
X142393900Y-94577755D01*
X142393900Y-94655000D01*
X143374150Y-94655000D01*
X143374150Y-93885000D01*
X142393900Y-93885000D01*
X142393900Y-93962244D01*
X141600000Y-93962244D01*
X141600000Y-92692244D01*
X142393900Y-92692244D01*
X142400301Y-92751772D01*
X142400303Y-92751779D01*
X142450545Y-92886486D01*
X142450547Y-92886489D01*
X142479892Y-92925689D01*
X142504309Y-92991154D01*
X142489457Y-93059426D01*
X142479892Y-93074311D01*
X142450547Y-93113510D01*
X142450545Y-93113513D01*
X142400303Y-93248220D01*
X142400301Y-93248227D01*
X142393900Y-93307755D01*
X142393900Y-93385000D01*
X143374150Y-93385000D01*
X143374150Y-92615000D01*
X142393900Y-92615000D01*
X142393900Y-92692244D01*
X141600000Y-92692244D01*
X141600000Y-91422244D01*
X142393900Y-91422244D01*
X142400301Y-91481772D01*
X142400303Y-91481779D01*
X142450545Y-91616486D01*
X142450547Y-91616489D01*
X142479892Y-91655689D01*
X142504309Y-91721154D01*
X142489457Y-91789426D01*
X142479892Y-91804311D01*
X142450547Y-91843510D01*
X142450545Y-91843513D01*
X142400303Y-91978220D01*
X142400301Y-91978227D01*
X142393900Y-92037755D01*
X142393900Y-92115000D01*
X143374150Y-92115000D01*
X143374150Y-91345000D01*
X142393900Y-91345000D01*
X142393900Y-91422244D01*
X141600000Y-91422244D01*
X141600000Y-90624500D01*
X141619685Y-90557461D01*
X141672489Y-90511706D01*
X141724000Y-90500500D01*
X142299185Y-90500500D01*
X142366224Y-90520185D01*
G37*
%TD.AperFunction*%
%TD*%
M02*
