%TF.GenerationSoftware,KiCad,Pcbnew,8.0.7*%
%TF.CreationDate,2025-01-08T16:46:30+01:00*%
%TF.ProjectId,PD_trigger-board,50445f74-7269-4676-9765-722d626f6172,rev?*%
%TF.SameCoordinates,Original*%
%TF.FileFunction,Paste,Top*%
%TF.FilePolarity,Positive*%
%FSLAX46Y46*%
G04 Gerber Fmt 4.6, Leading zero omitted, Abs format (unit mm)*
G04 Created by KiCad (PCBNEW 8.0.7) date 2025-01-08 16:46:30*
%MOMM*%
%LPD*%
G01*
G04 APERTURE LIST*
G04 Aperture macros list*
%AMRoundRect*
0 Rectangle with rounded corners*
0 $1 Rounding radius*
0 $2 $3 $4 $5 $6 $7 $8 $9 X,Y pos of 4 corners*
0 Add a 4 corners polygon primitive as box body*
4,1,4,$2,$3,$4,$5,$6,$7,$8,$9,$2,$3,0*
0 Add four circle primitives for the rounded corners*
1,1,$1+$1,$2,$3*
1,1,$1+$1,$4,$5*
1,1,$1+$1,$6,$7*
1,1,$1+$1,$8,$9*
0 Add four rect primitives between the rounded corners*
20,1,$1+$1,$2,$3,$4,$5,0*
20,1,$1+$1,$4,$5,$6,$7,0*
20,1,$1+$1,$6,$7,$8,$9,0*
20,1,$1+$1,$8,$9,$2,$3,0*%
%AMOutline4P*
0 Free polygon, 4 corners , with rotation*
0 The origin of the aperture is its center*
0 number of corners: always 4*
0 $1 to $8 corner X, Y*
0 $9 Rotation angle, in degrees counterclockwise*
0 create outline with 4 corners*
4,1,4,$1,$2,$3,$4,$5,$6,$7,$8,$1,$2,$9*%
G04 Aperture macros list end*
%ADD10RoundRect,0.135000X0.185000X-0.135000X0.185000X0.135000X-0.185000X0.135000X-0.185000X-0.135000X0*%
%ADD11RoundRect,0.150000X0.150000X0.425000X-0.150000X0.425000X-0.150000X-0.425000X0.150000X-0.425000X0*%
%ADD12RoundRect,0.075000X0.075000X0.500000X-0.075000X0.500000X-0.075000X-0.500000X0.075000X-0.500000X0*%
%ADD13RoundRect,0.250000X0.840000X0.750000X-0.840000X0.750000X-0.840000X-0.750000X0.840000X-0.750000X0*%
%ADD14RoundRect,0.135000X-0.185000X0.135000X-0.185000X-0.135000X0.185000X-0.135000X0.185000X0.135000X0*%
%ADD15R,1.460500X0.558800*%
%ADD16Outline4P,-0.500000X-0.250000X0.500000X-0.250000X0.000000X0.250000X0.000000X0.250000X180.000000*%
%ADD17Outline4P,-0.500000X-0.250000X0.500000X-0.250000X0.000000X0.250000X0.000000X0.250000X0.000000*%
%ADD18RoundRect,0.225000X-0.250000X0.225000X-0.250000X-0.225000X0.250000X-0.225000X0.250000X0.225000X0*%
%ADD19R,1.050000X0.600000*%
%ADD20R,0.300000X0.650000*%
%ADD21RoundRect,0.225000X0.250000X-0.225000X0.250000X0.225000X-0.250000X0.225000X-0.250000X-0.225000X0*%
G04 APERTURE END LIST*
D10*
%TO.C,R6*%
X134500000Y-87110000D03*
X134500000Y-86090000D03*
%TD*%
D11*
%TO.C,J1*%
X143393000Y-82502000D03*
X142593000Y-82502000D03*
D12*
X141443000Y-82502000D03*
X140443000Y-82502000D03*
X139943000Y-82502000D03*
X138943000Y-82502000D03*
D11*
X137793000Y-82502000D03*
X136993000Y-82502000D03*
X136993000Y-82502000D03*
X137793000Y-82502000D03*
D12*
X138443000Y-82502000D03*
X139443000Y-82502000D03*
X140943000Y-82502000D03*
X141943000Y-82502000D03*
D11*
X142593000Y-82502000D03*
X143393000Y-82502000D03*
D13*
X145303000Y-81927000D03*
X145303000Y-77997000D03*
X135083000Y-81927000D03*
X135083000Y-77997000D03*
%TD*%
D14*
%TO.C,R3*%
X136400000Y-93635000D03*
X136400000Y-94655000D03*
%TD*%
D10*
%TO.C,R5*%
X134500000Y-85010000D03*
X134500000Y-83990000D03*
%TD*%
%TO.C,R9*%
X143900000Y-87510000D03*
X143900000Y-86490000D03*
%TD*%
D14*
%TO.C,R1*%
X143900000Y-84390000D03*
X143900000Y-85410000D03*
%TD*%
D15*
%TO.C,U2*%
X138175850Y-91095000D03*
X138175850Y-92365000D03*
X138175850Y-93635000D03*
X138175850Y-94905000D03*
X143624150Y-94905000D03*
X143624150Y-93635000D03*
X143624150Y-92365000D03*
X143624150Y-91095000D03*
%TD*%
D16*
%TO.C,U3*%
X131843000Y-78486000D03*
D17*
X131843000Y-79248000D03*
D16*
X131843000Y-81026000D03*
D17*
X131843000Y-81788000D03*
D16*
X131843000Y-86106000D03*
D17*
X131843000Y-86868000D03*
D16*
X131843000Y-88646000D03*
D17*
X131843000Y-89408000D03*
D16*
X131843000Y-93726000D03*
D17*
X131843000Y-94488000D03*
D16*
X131843000Y-96266000D03*
D17*
X131843000Y-97028000D03*
%TD*%
D18*
%TO.C,C2*%
X144200000Y-96325000D03*
X144200000Y-97875000D03*
%TD*%
D14*
%TO.C,R7*%
X134500000Y-89277000D03*
X134500000Y-90297000D03*
%TD*%
D19*
%TO.C,U1*%
X140520000Y-85812500D03*
X139280000Y-85812500D03*
X140520000Y-86587500D03*
X139280000Y-86587500D03*
D20*
X140900000Y-84650000D03*
X140400000Y-84650000D03*
X139900000Y-84650000D03*
X139400000Y-84650000D03*
X138900000Y-84650000D03*
X138900000Y-87750000D03*
X139400000Y-87750000D03*
X139900000Y-87750000D03*
X140400000Y-87750000D03*
X140900000Y-87750000D03*
%TD*%
D14*
%TO.C,R4*%
X136400000Y-95690000D03*
X136400000Y-96710000D03*
%TD*%
D21*
%TO.C,C4*%
X145900000Y-93630230D03*
X145900000Y-92080230D03*
%TD*%
D18*
%TO.C,C3*%
X145900000Y-95425000D03*
X145900000Y-96975000D03*
%TD*%
D14*
%TO.C,R8*%
X134500000Y-91817000D03*
X134500000Y-92837000D03*
%TD*%
D18*
%TO.C,C1*%
X142600000Y-84725000D03*
X142600000Y-86275000D03*
%TD*%
M02*
